G04 #@! TF.GenerationSoftware,KiCad,Pcbnew,(5.99.0-2421-g2ea5528cd)*
G04 #@! TF.CreationDate,2020-08-11T20:23:47-04:00*
G04 #@! TF.ProjectId,Boston-keyboard-S,426f7374-6f6e-42d6-9b65-79626f617264,rev?*
G04 #@! TF.SameCoordinates,Original*
G04 #@! TF.FileFunction,Soldermask,Top*
G04 #@! TF.FilePolarity,Negative*
%FSLAX46Y46*%
G04 Gerber Fmt 4.6, Leading zero omitted, Abs format (unit mm)*
G04 Created by KiCad (PCBNEW (5.99.0-2421-g2ea5528cd)) date 2020-08-11 20:23:47*
%MOMM*%
%LPD*%
G01*
G04 APERTURE LIST*
%ADD10O,1.700000X1.700000*%
%ADD11C,1.700000*%
%ADD12O,1.800000X1.070000*%
%ADD13R,1.800000X1.070000*%
%ADD14R,1.700000X1.700000*%
%ADD15R,1.800000X1.800000*%
%ADD16C,1.800000*%
%ADD17C,1.600000*%
%ADD18O,1.600000X1.600000*%
%ADD19C,1.596000*%
%ADD20C,2.032000*%
%ADD21O,3.900000X2.799999*%
%ADD22C,3.987800*%
%ADD23C,1.701800*%
%ADD24C,2.540000*%
%ADD25C,3.048000*%
%ADD26C,0.650000*%
%ADD27O,1.300000X1.900000*%
%ADD28O,1.100000X2.200000*%
%ADD29C,2.000000*%
G04 APERTURE END LIST*
D10*
X57255000Y-37715000D03*
D11*
X57255000Y-35175000D03*
D12*
X79000000Y-38280000D03*
X79000000Y-37010000D03*
X79000000Y-35740000D03*
D13*
X79000000Y-34470000D03*
D10*
X76225000Y-42055000D03*
X76225000Y-39515000D03*
D14*
X76225000Y-36975000D03*
D15*
X381595000Y-130180000D03*
D16*
X379055000Y-130180000D03*
D15*
X181570000Y-92080000D03*
D16*
X179030000Y-92080000D03*
D15*
X419695000Y-168280000D03*
D16*
X417155000Y-168280000D03*
D15*
X253007500Y-130180000D03*
D16*
X250467500Y-130180000D03*
D15*
X238720000Y-92080000D03*
D16*
X236180000Y-92080000D03*
D15*
X152995000Y-111130000D03*
D16*
X150455000Y-111130000D03*
D15*
X295870000Y-168280000D03*
D16*
X293330000Y-168280000D03*
D15*
X333970000Y-92080000D03*
D16*
X331430000Y-92080000D03*
D15*
X167282500Y-149230000D03*
D16*
X164742500Y-149230000D03*
D15*
X233957500Y-63505000D03*
D16*
X231417500Y-63505000D03*
D15*
X338732500Y-153992500D03*
D16*
X336192500Y-153992500D03*
D15*
X69651250Y-168280000D03*
D16*
X67111250Y-168280000D03*
D15*
X419695000Y-92080000D03*
D16*
X417155000Y-92080000D03*
D15*
X438745000Y-44429600D03*
D16*
X436205000Y-44429600D03*
D15*
X114895000Y-63505000D03*
D16*
X112355000Y-63505000D03*
D15*
X195857500Y-44455000D03*
D16*
X193317500Y-44455000D03*
D15*
X114895000Y-111130000D03*
D16*
X112355000Y-111130000D03*
D15*
X400645000Y-63530400D03*
D16*
X398105000Y-63530400D03*
D15*
X419695000Y-44429600D03*
D16*
X417155000Y-44429600D03*
D15*
X381595000Y-149230000D03*
D16*
X379055000Y-149230000D03*
D15*
X276820000Y-168280000D03*
D16*
X274280000Y-168280000D03*
D15*
X233995600Y-44455000D03*
D16*
X231455600Y-44455000D03*
D15*
X432395000Y-107320000D03*
D16*
X432395000Y-104780000D03*
D15*
X138707500Y-130180000D03*
D16*
X136167500Y-130180000D03*
D15*
X210145000Y-111130000D03*
D16*
X207605000Y-111130000D03*
D15*
X314915000Y-92062500D03*
D16*
X312375000Y-92062500D03*
D15*
X257770000Y-44455000D03*
D16*
X255230000Y-44455000D03*
D15*
X329207500Y-111130000D03*
D16*
X326667500Y-111130000D03*
D15*
X67270000Y-92080000D03*
D16*
X64730000Y-92080000D03*
D15*
X357782500Y-111130000D03*
D16*
X355242500Y-111130000D03*
D15*
X91082500Y-149230000D03*
D16*
X88542500Y-149230000D03*
D15*
X381595000Y-92080000D03*
D16*
X379055000Y-92080000D03*
D15*
X119657500Y-130180000D03*
D16*
X117117500Y-130180000D03*
D15*
X419695000Y-149230000D03*
D16*
X417155000Y-149230000D03*
D15*
X257770000Y-63505000D03*
D16*
X255230000Y-63505000D03*
D15*
X314920000Y-63500000D03*
D16*
X312380000Y-63500000D03*
D15*
X438745000Y-63479600D03*
D16*
X436205000Y-63479600D03*
D15*
X338732500Y-72712500D03*
D16*
X336192500Y-72712500D03*
D15*
X432395000Y-116845000D03*
D16*
X432395000Y-114305000D03*
D15*
X219670000Y-92080000D03*
D16*
X217130000Y-92080000D03*
D15*
X69651250Y-130180000D03*
D16*
X67111250Y-130180000D03*
D15*
X114895000Y-44455000D03*
D16*
X112355000Y-44455000D03*
D15*
X432395000Y-154945000D03*
D16*
X432395000Y-152405000D03*
D15*
X152995000Y-44455000D03*
D16*
X150455000Y-44455000D03*
D15*
X205382500Y-149230000D03*
D16*
X202842500Y-149230000D03*
D15*
X214907500Y-44455000D03*
D16*
X212367500Y-44455000D03*
D15*
X105370000Y-92080000D03*
D16*
X102830000Y-92080000D03*
D15*
X295870000Y-63505000D03*
D16*
X293330000Y-63505000D03*
D17*
X352700000Y-75600000D03*
D18*
X345080000Y-75600000D03*
D15*
X338745200Y-44455000D03*
D16*
X336205200Y-44455000D03*
D15*
X200620000Y-92080000D03*
D16*
X198080000Y-92080000D03*
D15*
X419695000Y-63530400D03*
D16*
X417155000Y-63530400D03*
D15*
X93463750Y-168280000D03*
D16*
X90923750Y-168280000D03*
D15*
X438745000Y-92080000D03*
D16*
X436205000Y-92080000D03*
D15*
X186332500Y-149230000D03*
D16*
X183792500Y-149230000D03*
D15*
X117276250Y-168280000D03*
D16*
X114736250Y-168280000D03*
D15*
X257770000Y-168280000D03*
D16*
X255230000Y-168280000D03*
D15*
X276820000Y-92080000D03*
D16*
X274280000Y-92080000D03*
D15*
X357782500Y-130180000D03*
D16*
X355242500Y-130180000D03*
D19*
X447000000Y-32000000D03*
D15*
X357782500Y-72712500D03*
D16*
X355242500Y-72712500D03*
D15*
X338732500Y-63500000D03*
D16*
X336192500Y-63500000D03*
D15*
X95845000Y-63505000D03*
D16*
X93305000Y-63505000D03*
D15*
X176807500Y-44455000D03*
D16*
X174267500Y-44455000D03*
D15*
X172045000Y-111130000D03*
D16*
X169505000Y-111130000D03*
D15*
X176807500Y-63505000D03*
D16*
X174267500Y-63505000D03*
D15*
X176807500Y-130180000D03*
D16*
X174267500Y-130180000D03*
D15*
X381595000Y-168280000D03*
D16*
X379055000Y-168280000D03*
D15*
X276820000Y-63505000D03*
D16*
X274280000Y-63505000D03*
D15*
X325238750Y-114305000D03*
D16*
X325238750Y-116845000D03*
D15*
X69651250Y-149230000D03*
D16*
X67111250Y-149230000D03*
D15*
X400645000Y-130180000D03*
D16*
X398105000Y-130180000D03*
D15*
X162520000Y-92080000D03*
D16*
X159980000Y-92080000D03*
D15*
X248245000Y-111130000D03*
D16*
X245705000Y-111130000D03*
D15*
X400645000Y-149230000D03*
D16*
X398105000Y-149230000D03*
D15*
X400645000Y-92080000D03*
D16*
X398105000Y-92080000D03*
D15*
X95845000Y-44455000D03*
D16*
X93305000Y-44455000D03*
D19*
X57000000Y-172000000D03*
D15*
X257770000Y-92080000D03*
D16*
X255230000Y-92080000D03*
D15*
X157757500Y-130180000D03*
D16*
X155217500Y-130180000D03*
D15*
X191095000Y-111130000D03*
D16*
X188555000Y-111130000D03*
D15*
X400645000Y-44480400D03*
D16*
X398105000Y-44480400D03*
D15*
X110132500Y-149230000D03*
D16*
X107592500Y-149230000D03*
D15*
X67270000Y-63530400D03*
D16*
X64730000Y-63530400D03*
D15*
X357800000Y-63500000D03*
D16*
X355260000Y-63500000D03*
D15*
X319682500Y-173042500D03*
D16*
X317142500Y-173042500D03*
D15*
X322063750Y-130180000D03*
D16*
X319523750Y-130180000D03*
D15*
X276820000Y-44455000D03*
D16*
X274280000Y-44455000D03*
D15*
X357782500Y-92080000D03*
D16*
X355242500Y-92080000D03*
D15*
X224432500Y-149230000D03*
D16*
X221892500Y-149230000D03*
D15*
X229195000Y-111130000D03*
D16*
X226655000Y-111130000D03*
D15*
X357782500Y-173042500D03*
D16*
X355242500Y-173042500D03*
D15*
X133818000Y-44455000D03*
D16*
X131278000Y-44455000D03*
D19*
X57000000Y-32000000D03*
D15*
X262532500Y-149230000D03*
D16*
X259992500Y-149230000D03*
D15*
X432395000Y-126370000D03*
D16*
X432395000Y-123830000D03*
D15*
X324445000Y-92080000D03*
D16*
X321905000Y-92080000D03*
D15*
X100607500Y-130180000D03*
D16*
X98067500Y-130180000D03*
D15*
X376832500Y-63500000D03*
D16*
X374292500Y-63500000D03*
D15*
X419695000Y-130180000D03*
D16*
X417155000Y-130180000D03*
D15*
X419695000Y-111130000D03*
D16*
X417155000Y-111130000D03*
D15*
X72032500Y-111130000D03*
D16*
X69492500Y-111130000D03*
D15*
X291107500Y-130180000D03*
D16*
X288567500Y-130180000D03*
D15*
X338732500Y-173042500D03*
D16*
X336192500Y-173042500D03*
D15*
X286345000Y-111130000D03*
D16*
X283805000Y-111130000D03*
D20*
X73500000Y-38875000D03*
X73500000Y-33875000D03*
X73500000Y-36375000D03*
D21*
X66000000Y-30125000D03*
X66000000Y-42625000D03*
D20*
X59000000Y-38875000D03*
X59000000Y-33875000D03*
D15*
X307776250Y-149230000D03*
D16*
X305236250Y-149230000D03*
D15*
X152995000Y-63505000D03*
D16*
X150455000Y-63505000D03*
D15*
X272057500Y-130180000D03*
D16*
X269517500Y-130180000D03*
D15*
X124420000Y-92080000D03*
D16*
X121880000Y-92080000D03*
D15*
X233957500Y-130180000D03*
D16*
X231417500Y-130180000D03*
D15*
X314920000Y-44455000D03*
D16*
X312380000Y-44455000D03*
D15*
X133945000Y-63505000D03*
D16*
X131405000Y-63505000D03*
D15*
X129182500Y-149230000D03*
D16*
X126642500Y-149230000D03*
D15*
X188713750Y-168280000D03*
D16*
X186173750Y-168280000D03*
D15*
X305395000Y-111130000D03*
D16*
X302855000Y-111130000D03*
D15*
X295870000Y-44455000D03*
D16*
X293330000Y-44455000D03*
D17*
X370000000Y-72700000D03*
D18*
X362380000Y-72700000D03*
D15*
X214907500Y-130180000D03*
D16*
X212367500Y-130180000D03*
D15*
X79176250Y-149230000D03*
D16*
X76636250Y-149230000D03*
D15*
X400645000Y-168280000D03*
D16*
X398105000Y-168280000D03*
D15*
X281582500Y-149230000D03*
D16*
X279042500Y-149230000D03*
D15*
X357782500Y-44429600D03*
D16*
X355242500Y-44429600D03*
D15*
X143470000Y-92080000D03*
D16*
X140930000Y-92080000D03*
D15*
X391120000Y-168280000D03*
D16*
X388580000Y-168280000D03*
D15*
X310157500Y-130180000D03*
D16*
X307617500Y-130180000D03*
D15*
X295870000Y-92080000D03*
D16*
X293330000Y-92080000D03*
D15*
X95845000Y-111130000D03*
D16*
X93305000Y-111130000D03*
D14*
X326250000Y-38000000D03*
D10*
X323710000Y-38000000D03*
X326250000Y-40540000D03*
X323710000Y-40540000D03*
X326250000Y-43080000D03*
X323710000Y-43080000D03*
X326250000Y-45620000D03*
X323710000Y-45620000D03*
X326250000Y-48160000D03*
X323710000Y-48160000D03*
D15*
X74413750Y-130180000D03*
D16*
X71873750Y-130180000D03*
D15*
X214907500Y-63505000D03*
D16*
X212367500Y-63505000D03*
D15*
X376832500Y-72712500D03*
D16*
X374292500Y-72712500D03*
D17*
X322220000Y-71400000D03*
D18*
X314600000Y-71400000D03*
D15*
X376832500Y-44480400D03*
D16*
X374292500Y-44480400D03*
D15*
X86320000Y-92080000D03*
D16*
X83780000Y-92080000D03*
D15*
X267295000Y-111130000D03*
D16*
X264755000Y-111130000D03*
D15*
X243482500Y-149230000D03*
D16*
X240942500Y-149230000D03*
D15*
X133945000Y-111130000D03*
D16*
X131405000Y-111130000D03*
D15*
X195857500Y-130180000D03*
D16*
X193317500Y-130180000D03*
D15*
X381595000Y-111130000D03*
D16*
X379055000Y-111130000D03*
D19*
X447000000Y-172000000D03*
D15*
X148232500Y-149230000D03*
D16*
X145692500Y-149230000D03*
D15*
X195857500Y-63505000D03*
D16*
X193317500Y-63505000D03*
D15*
X400645000Y-111130000D03*
D16*
X398105000Y-111130000D03*
D22*
X275550000Y-87000000D03*
D23*
X270470000Y-87000000D03*
X280630000Y-87000000D03*
D24*
X278090000Y-81920000D03*
X271740000Y-84460000D03*
D25*
X377912000Y-156215000D03*
D22*
X389850000Y-163200000D03*
D23*
X384770000Y-163200000D03*
X394930000Y-163200000D03*
D22*
X377912000Y-171455000D03*
D25*
X401788000Y-156215000D03*
D22*
X401788000Y-171455000D03*
D24*
X392390000Y-158120000D03*
X386040000Y-160660000D03*
D23*
X256817500Y-125100000D03*
D22*
X251737500Y-125100000D03*
D23*
X246657500Y-125100000D03*
D24*
X254277500Y-120020000D03*
X247927500Y-122560000D03*
D23*
X413345000Y-163200000D03*
D22*
X418425000Y-163200000D03*
D23*
X423505000Y-163200000D03*
D24*
X420965000Y-158120000D03*
X414615000Y-160660000D03*
D23*
X99655000Y-58425000D03*
X89495000Y-58425000D03*
D22*
X94575000Y-58425000D03*
D24*
X97115000Y-53345000D03*
X90765000Y-55885000D03*
D22*
X304125000Y-106050000D03*
D23*
X299045000Y-106050000D03*
X309205000Y-106050000D03*
D24*
X306665000Y-100970000D03*
X300315000Y-103510000D03*
D23*
X218717500Y-39375000D03*
D22*
X213637500Y-39375000D03*
D23*
X208557500Y-39375000D03*
D24*
X216177500Y-34295000D03*
X209827500Y-36835000D03*
D23*
X437475000Y-100970000D03*
X437475000Y-111130000D03*
D22*
X437475000Y-106050000D03*
D24*
X442555000Y-108590000D03*
X440015000Y-102240000D03*
D22*
X337462500Y-58425000D03*
D23*
X332382500Y-58425000D03*
X342542500Y-58425000D03*
D24*
X340002500Y-53345000D03*
X333652500Y-55885000D03*
D23*
X351432500Y-125100000D03*
D22*
X356512500Y-125100000D03*
D23*
X361592500Y-125100000D03*
D24*
X359052500Y-120020000D03*
X352702500Y-122560000D03*
D23*
X351432500Y-106050000D03*
X361592500Y-106050000D03*
D22*
X356512500Y-106050000D03*
D24*
X359052500Y-100970000D03*
X352702500Y-103510000D03*
D22*
X418425000Y-125100000D03*
D23*
X413345000Y-125100000D03*
X423505000Y-125100000D03*
D24*
X420965000Y-120020000D03*
X414615000Y-122560000D03*
D23*
X87113750Y-163200000D03*
D22*
X92193750Y-163200000D03*
D23*
X97273750Y-163200000D03*
D24*
X94733750Y-158120000D03*
X88383750Y-160660000D03*
D23*
X72826250Y-144150000D03*
D22*
X89844250Y-152405000D03*
X77906250Y-144150000D03*
D25*
X89844250Y-137165000D03*
D22*
X65968250Y-152405000D03*
D25*
X65968250Y-137165000D03*
D23*
X82986250Y-144150000D03*
D24*
X80446250Y-139070000D03*
X74096250Y-141610000D03*
D23*
X142517500Y-125100000D03*
D22*
X137437500Y-125100000D03*
D23*
X132357500Y-125100000D03*
D24*
X139977500Y-120020000D03*
X133627500Y-122560000D03*
D23*
X299680000Y-39375000D03*
D22*
X294600000Y-39375000D03*
D23*
X289520000Y-39375000D03*
D24*
X297140000Y-34295000D03*
X290790000Y-36835000D03*
D22*
X327937500Y-106050000D03*
D23*
X333017500Y-106050000D03*
X322857500Y-106050000D03*
D24*
X330477500Y-100970000D03*
X324127500Y-103510000D03*
D23*
X122832500Y-144150000D03*
D22*
X127912500Y-144150000D03*
D23*
X132992500Y-144150000D03*
D24*
X130452500Y-139070000D03*
X124102500Y-141610000D03*
D23*
X266342500Y-144150000D03*
X256182500Y-144150000D03*
D22*
X261262500Y-144150000D03*
D24*
X263802500Y-139070000D03*
X257452500Y-141610000D03*
D22*
X68381250Y-144150000D03*
D23*
X73461250Y-144150000D03*
X63301250Y-144150000D03*
D24*
X70921250Y-139070000D03*
X64571250Y-141610000D03*
D23*
X218717500Y-125100000D03*
D22*
X213637500Y-125100000D03*
D23*
X208557500Y-125100000D03*
D24*
X216177500Y-120020000D03*
X209827500Y-122560000D03*
D23*
X185380000Y-87000000D03*
D22*
X180300000Y-87000000D03*
D23*
X175220000Y-87000000D03*
D24*
X182840000Y-81920000D03*
X176490000Y-84460000D03*
D25*
X332731964Y-118115000D03*
D22*
X332731964Y-133355000D03*
X320793964Y-125100000D03*
D23*
X315713964Y-125100000D03*
X325873964Y-125100000D03*
D22*
X308855964Y-133355000D03*
D25*
X308855964Y-118115000D03*
D24*
X323333964Y-120020000D03*
X316983964Y-122560000D03*
D23*
X289520000Y-87000000D03*
X299680000Y-87000000D03*
D22*
X294600000Y-87000000D03*
D24*
X297140000Y-81920000D03*
X290790000Y-84460000D03*
D23*
X156805000Y-58425000D03*
X146645000Y-58425000D03*
D22*
X151725000Y-58425000D03*
D24*
X154265000Y-53345000D03*
X147915000Y-55885000D03*
D23*
X189507500Y-125100000D03*
X199667500Y-125100000D03*
D22*
X194587500Y-125100000D03*
D24*
X197127500Y-120020000D03*
X190777500Y-122560000D03*
D22*
X256500160Y-39375000D03*
D23*
X261580160Y-39375000D03*
X251420160Y-39375000D03*
D24*
X259040160Y-34295000D03*
X252690160Y-36835000D03*
D23*
X223480000Y-87000000D03*
D22*
X218400000Y-87000000D03*
D23*
X213320000Y-87000000D03*
D24*
X220940000Y-81920000D03*
X214590000Y-84460000D03*
D23*
X442555000Y-87000000D03*
X432395000Y-87000000D03*
D22*
X437475000Y-87000000D03*
D24*
X440015000Y-81920000D03*
X433665000Y-84460000D03*
D23*
X118705000Y-106050000D03*
D22*
X113625000Y-106050000D03*
D23*
X108545000Y-106050000D03*
D24*
X116165000Y-100970000D03*
X109815000Y-103510000D03*
D23*
X184745000Y-106050000D03*
X194905000Y-106050000D03*
D22*
X189825000Y-106050000D03*
D24*
X192365000Y-100970000D03*
X186015000Y-103510000D03*
D23*
X103782500Y-144150000D03*
D22*
X108862500Y-144150000D03*
D23*
X113942500Y-144150000D03*
D24*
X111402500Y-139070000D03*
X105052500Y-141610000D03*
D23*
X394295000Y-144150000D03*
D22*
X399375000Y-144150000D03*
D23*
X404455000Y-144150000D03*
D24*
X401915000Y-139070000D03*
X395565000Y-141610000D03*
D22*
X185062500Y-144150000D03*
D23*
X190142500Y-144150000D03*
X179982500Y-144150000D03*
D24*
X187602500Y-139070000D03*
X181252500Y-141610000D03*
D23*
X90130000Y-87000000D03*
D22*
X85050000Y-87000000D03*
D23*
X79970000Y-87000000D03*
D24*
X87590000Y-81920000D03*
X81240000Y-84460000D03*
D25*
X137405750Y-156215000D03*
D23*
X192523750Y-163200000D03*
X182363750Y-163200000D03*
D25*
X237481750Y-156215000D03*
D22*
X237481750Y-171455000D03*
X187443750Y-163200000D03*
X137405750Y-171455000D03*
D24*
X189983750Y-158120000D03*
X183633750Y-160660000D03*
D23*
X318730000Y-87000000D03*
X308570000Y-87000000D03*
D22*
X313650000Y-87000000D03*
D24*
X316190000Y-81920000D03*
X309840000Y-84460000D03*
D23*
X118070000Y-87000000D03*
D22*
X123150000Y-87000000D03*
D23*
X128230000Y-87000000D03*
D24*
X125690000Y-81920000D03*
X119340000Y-84460000D03*
D23*
X413345000Y-87000000D03*
D22*
X418425000Y-87000000D03*
D23*
X423505000Y-87000000D03*
D24*
X420965000Y-81920000D03*
X414615000Y-84460000D03*
D23*
X432395000Y-58425000D03*
X442555000Y-58425000D03*
D22*
X437475000Y-58425000D03*
D24*
X440015000Y-53345000D03*
X433665000Y-55885000D03*
D23*
X189507606Y-39375000D03*
D22*
X194587606Y-39375000D03*
D23*
X199667606Y-39375000D03*
D24*
X197127606Y-34295000D03*
X190777606Y-36835000D03*
D22*
X399375000Y-39375000D03*
D23*
X394295000Y-39375000D03*
X404455000Y-39375000D03*
D24*
X401915000Y-34295000D03*
X395565000Y-36835000D03*
D22*
X380325000Y-163200000D03*
D23*
X375245000Y-163200000D03*
X385405000Y-163200000D03*
D24*
X382865000Y-158120000D03*
X376515000Y-160660000D03*
D23*
X156805000Y-39375000D03*
X146645000Y-39375000D03*
D22*
X151725000Y-39375000D03*
D24*
X154265000Y-34295000D03*
X147915000Y-36835000D03*
D23*
X275867500Y-125100000D03*
X265707500Y-125100000D03*
D22*
X270787500Y-125100000D03*
D24*
X273327500Y-120020000D03*
X266977500Y-122560000D03*
D23*
X227607500Y-58425000D03*
X237767500Y-58425000D03*
D22*
X232687500Y-58425000D03*
D24*
X235227500Y-53345000D03*
X228877500Y-55885000D03*
D26*
X248847000Y-26249000D03*
X254627000Y-26249000D03*
D27*
X256037000Y-22600000D03*
D28*
X256037000Y-26800000D03*
D27*
X247437000Y-22600000D03*
D28*
X247437000Y-26800000D03*
D23*
X394295000Y-125100000D03*
X404455000Y-125100000D03*
D22*
X399375000Y-125100000D03*
D24*
X401915000Y-120020000D03*
X395565000Y-122560000D03*
D23*
X270470000Y-39375000D03*
X280630000Y-39375000D03*
D22*
X275550000Y-39375000D03*
D24*
X278090000Y-34295000D03*
X271740000Y-36835000D03*
D23*
X332382500Y-148912500D03*
D22*
X337462500Y-148912500D03*
D23*
X342542500Y-148912500D03*
D24*
X340002500Y-143832500D03*
X333652500Y-146372500D03*
D23*
X199032500Y-144150000D03*
X209192500Y-144150000D03*
D22*
X204112500Y-144150000D03*
D24*
X206652500Y-139070000D03*
X200302500Y-141610000D03*
D22*
X330318750Y-115575000D03*
X322063750Y-103637000D03*
X322063750Y-127513000D03*
D25*
X337303750Y-103637000D03*
X337303750Y-127513000D03*
D23*
X330318750Y-110495000D03*
X330318750Y-120655000D03*
D24*
X335398750Y-118115000D03*
X332858750Y-111765000D03*
D23*
X180617500Y-58425000D03*
X170457500Y-58425000D03*
D22*
X175537500Y-58425000D03*
D24*
X178077500Y-53345000D03*
X171727500Y-55885000D03*
D22*
X437475000Y-125100000D03*
D23*
X437475000Y-130180000D03*
X437475000Y-120020000D03*
D24*
X442555000Y-127640000D03*
X440015000Y-121290000D03*
D23*
X327620000Y-87000000D03*
X337780000Y-87000000D03*
D22*
X332700000Y-87000000D03*
D24*
X335240000Y-81920000D03*
X328890000Y-84460000D03*
D23*
X170457590Y-39375000D03*
X180617590Y-39375000D03*
D22*
X175537590Y-39375000D03*
D24*
X178077590Y-34295000D03*
X171727590Y-36835000D03*
D23*
X290155000Y-106050000D03*
X279995000Y-106050000D03*
D22*
X285075000Y-106050000D03*
D24*
X287615000Y-100970000D03*
X281265000Y-103510000D03*
D23*
X394295000Y-106050000D03*
D22*
X399375000Y-106050000D03*
D23*
X404455000Y-106050000D03*
D24*
X401915000Y-100970000D03*
X395565000Y-103510000D03*
D22*
X113625000Y-39375000D03*
D23*
X118705000Y-39375000D03*
X108545000Y-39375000D03*
D24*
X116165000Y-34295000D03*
X109815000Y-36835000D03*
D22*
X232687500Y-125100000D03*
D23*
X237767500Y-125100000D03*
X227607500Y-125100000D03*
D24*
X235227500Y-120020000D03*
X228877500Y-122560000D03*
D22*
X132675000Y-106050000D03*
D23*
X127595000Y-106050000D03*
X137755000Y-106050000D03*
D24*
X135215000Y-100970000D03*
X128865000Y-103510000D03*
D23*
X189507500Y-58425000D03*
X199667500Y-58425000D03*
D22*
X194587500Y-58425000D03*
D24*
X197127500Y-53345000D03*
X190777500Y-55885000D03*
D23*
X289520000Y-163200000D03*
D22*
X294600000Y-163200000D03*
D23*
X299680000Y-163200000D03*
D24*
X297140000Y-158120000D03*
X290790000Y-160660000D03*
D29*
X396500000Y-70170000D03*
X390000000Y-70170000D03*
X390000000Y-74670000D03*
X396500000Y-74670000D03*
D22*
X399375000Y-163200000D03*
D23*
X394295000Y-163200000D03*
X404455000Y-163200000D03*
D24*
X401915000Y-158120000D03*
X395565000Y-160660000D03*
D23*
X171092500Y-144150000D03*
X160932500Y-144150000D03*
D22*
X166012500Y-144150000D03*
D24*
X168552500Y-139070000D03*
X162202500Y-141610000D03*
D23*
X342542500Y-167962500D03*
D22*
X337462500Y-167962500D03*
D23*
X332382500Y-167962500D03*
D24*
X340002500Y-162882500D03*
X333652500Y-165422500D03*
D22*
X70762500Y-106050000D03*
D23*
X65682500Y-106050000D03*
X75842500Y-106050000D03*
D24*
X73302500Y-100970000D03*
X66952500Y-103510000D03*
D23*
X99655000Y-106050000D03*
X89495000Y-106050000D03*
D22*
X94575000Y-106050000D03*
D24*
X97115000Y-100970000D03*
X90765000Y-103510000D03*
D22*
X66000000Y-58425000D03*
D23*
X60920000Y-58425000D03*
X71080000Y-58425000D03*
D24*
X68540000Y-53345000D03*
X62190000Y-55885000D03*
D23*
X308570000Y-39375000D03*
X318730000Y-39375000D03*
D22*
X313650000Y-39375000D03*
D24*
X316190000Y-34295000D03*
X309840000Y-36835000D03*
D23*
X351432500Y-167962500D03*
D22*
X356512500Y-167962500D03*
D23*
X361592500Y-167962500D03*
D24*
X359052500Y-162882500D03*
X352702500Y-165422500D03*
D22*
X256500000Y-87000000D03*
D23*
X261580000Y-87000000D03*
X251420000Y-87000000D03*
D24*
X259040000Y-81920000D03*
X252690000Y-84460000D03*
D23*
X89495000Y-39375000D03*
X99655000Y-39375000D03*
D22*
X94575000Y-39375000D03*
D24*
X97115000Y-34295000D03*
X90765000Y-36835000D03*
D22*
X142200000Y-87000000D03*
D23*
X137120000Y-87000000D03*
X147280000Y-87000000D03*
D24*
X144740000Y-81920000D03*
X138390000Y-84460000D03*
D22*
X437475000Y-115575000D03*
X429220000Y-127513000D03*
D25*
X444460000Y-127513000D03*
X444460000Y-103637000D03*
D22*
X429220000Y-103637000D03*
D23*
X437475000Y-110495000D03*
X437475000Y-120655000D03*
D24*
X442555000Y-118115000D03*
X440015000Y-111765000D03*
D22*
X356512500Y-58425000D03*
D23*
X361592500Y-58425000D03*
X351432500Y-58425000D03*
D24*
X359052500Y-53345000D03*
X352702500Y-55885000D03*
D22*
X223162500Y-144150000D03*
D23*
X228242500Y-144150000D03*
X218082500Y-144150000D03*
D24*
X225702500Y-139070000D03*
X219352500Y-141610000D03*
D23*
X361592500Y-39375000D03*
X351432500Y-39375000D03*
D22*
X356512500Y-39375000D03*
D24*
X359052500Y-34295000D03*
X352702500Y-36835000D03*
D23*
X63301250Y-125100000D03*
X73461250Y-125100000D03*
D22*
X68381250Y-125100000D03*
D24*
X70921250Y-120020000D03*
X64571250Y-122560000D03*
D22*
X275550000Y-163200000D03*
D23*
X270470000Y-163200000D03*
X280630000Y-163200000D03*
D24*
X278090000Y-158120000D03*
X271740000Y-160660000D03*
D22*
X375562500Y-39375000D03*
D23*
X380642500Y-39375000D03*
X370482500Y-39375000D03*
D24*
X378102500Y-34295000D03*
X371752500Y-36835000D03*
D23*
X432395000Y-39375000D03*
X442555000Y-39375000D03*
D22*
X437475000Y-39375000D03*
D24*
X440015000Y-34295000D03*
X433665000Y-36835000D03*
D23*
X303807500Y-125100000D03*
D22*
X308887500Y-125100000D03*
D23*
X313967500Y-125100000D03*
D24*
X311427500Y-120020000D03*
X305077500Y-122560000D03*
D23*
X404455000Y-87000000D03*
D22*
X399375000Y-87000000D03*
D23*
X394295000Y-87000000D03*
D24*
X401915000Y-81920000D03*
X395565000Y-84460000D03*
D23*
X137755000Y-39375000D03*
D22*
X132675000Y-39375000D03*
D23*
X127595000Y-39375000D03*
D24*
X135215000Y-34295000D03*
X128865000Y-36835000D03*
D23*
X84732500Y-144150000D03*
D22*
X89812500Y-144150000D03*
D23*
X94892500Y-144150000D03*
D24*
X92352500Y-139070000D03*
X86002500Y-141610000D03*
D23*
X242530000Y-87000000D03*
X232370000Y-87000000D03*
D22*
X237450000Y-87000000D03*
D24*
X239990000Y-81920000D03*
X233640000Y-84460000D03*
D22*
X337462500Y-39375000D03*
D23*
X332382500Y-39375000D03*
X342542500Y-39375000D03*
D24*
X340002500Y-34295000D03*
X333652500Y-36835000D03*
D22*
X116006250Y-163200000D03*
D23*
X110926250Y-163200000D03*
X121086250Y-163200000D03*
D24*
X118546250Y-158120000D03*
X112196250Y-160660000D03*
D23*
X141882500Y-144150000D03*
D22*
X146962500Y-144150000D03*
D23*
X152042500Y-144150000D03*
D24*
X149502500Y-139070000D03*
X143152500Y-141610000D03*
D23*
X413345000Y-144150000D03*
X423505000Y-144150000D03*
D22*
X418425000Y-144150000D03*
D24*
X420965000Y-139070000D03*
X414615000Y-141610000D03*
D23*
X109180000Y-87000000D03*
D22*
X104100000Y-87000000D03*
D23*
X99020000Y-87000000D03*
D24*
X106640000Y-81920000D03*
X100290000Y-84460000D03*
D22*
X66000000Y-87000000D03*
D23*
X71080000Y-87000000D03*
X60920000Y-87000000D03*
D24*
X68540000Y-81920000D03*
X62190000Y-84460000D03*
D23*
X78223750Y-125100000D03*
X68063750Y-125100000D03*
D22*
X73143750Y-125100000D03*
D24*
X75683750Y-120020000D03*
X69333750Y-122560000D03*
D23*
X161567500Y-125100000D03*
D22*
X156487500Y-125100000D03*
D23*
X151407500Y-125100000D03*
D24*
X159027500Y-120020000D03*
X152677500Y-122560000D03*
D22*
X275550000Y-58425000D03*
D23*
X280630000Y-58425000D03*
X270470000Y-58425000D03*
D24*
X278090000Y-53345000D03*
X271740000Y-55885000D03*
D23*
X180617500Y-125100000D03*
X170457500Y-125100000D03*
D22*
X175537500Y-125100000D03*
D24*
X178077500Y-120020000D03*
X171727500Y-122560000D03*
D22*
X68381250Y-163200000D03*
D23*
X63301250Y-163200000D03*
X73461250Y-163200000D03*
D24*
X70921250Y-158120000D03*
X64571250Y-160660000D03*
D23*
X423505000Y-106050000D03*
X413345000Y-106050000D03*
D22*
X418425000Y-106050000D03*
D24*
X420965000Y-100970000D03*
X414615000Y-103510000D03*
D23*
X237132500Y-144150000D03*
X247292500Y-144150000D03*
D22*
X242212500Y-144150000D03*
D24*
X244752500Y-139070000D03*
X238402500Y-141610000D03*
D22*
X113625000Y-58425000D03*
D23*
X108545000Y-58425000D03*
X118705000Y-58425000D03*
D24*
X116165000Y-53345000D03*
X109815000Y-55885000D03*
D22*
X151725000Y-106050000D03*
D23*
X146645000Y-106050000D03*
X156805000Y-106050000D03*
D24*
X154265000Y-100970000D03*
X147915000Y-103510000D03*
D22*
X380325000Y-106050000D03*
D23*
X385405000Y-106050000D03*
X375245000Y-106050000D03*
D24*
X382865000Y-100970000D03*
X376515000Y-103510000D03*
D23*
X251420000Y-58425000D03*
X261580000Y-58425000D03*
D22*
X256500000Y-58425000D03*
D24*
X259040000Y-53345000D03*
X252690000Y-55885000D03*
D23*
X318730000Y-58425000D03*
D22*
X313650000Y-58425000D03*
D23*
X308570000Y-58425000D03*
D24*
X316190000Y-53345000D03*
X309840000Y-55885000D03*
D22*
X232687500Y-39375000D03*
D23*
X227607500Y-39375000D03*
X237767500Y-39375000D03*
D24*
X235227500Y-34295000D03*
X228877500Y-36835000D03*
D23*
X385405000Y-125100000D03*
X375245000Y-125100000D03*
D22*
X380325000Y-125100000D03*
D24*
X382865000Y-120020000D03*
X376515000Y-122560000D03*
D22*
X294600000Y-58425000D03*
D23*
X299680000Y-58425000D03*
X289520000Y-58425000D03*
D24*
X297140000Y-53345000D03*
X290790000Y-55885000D03*
D22*
X266025000Y-106050000D03*
D23*
X260945000Y-106050000D03*
X271105000Y-106050000D03*
D24*
X268565000Y-100970000D03*
X262215000Y-103510000D03*
D23*
X294917500Y-125100000D03*
D22*
X289837500Y-125100000D03*
D23*
X284757500Y-125100000D03*
D24*
X292377500Y-120020000D03*
X286027500Y-122560000D03*
D22*
X161250000Y-87000000D03*
D23*
X156170000Y-87000000D03*
X166330000Y-87000000D03*
D24*
X163790000Y-81920000D03*
X157440000Y-84460000D03*
D23*
X104417500Y-125100000D03*
D22*
X99337500Y-125100000D03*
D23*
X94257500Y-125100000D03*
D24*
X101877500Y-120020000D03*
X95527500Y-122560000D03*
D23*
X380642500Y-58425000D03*
X370482500Y-58425000D03*
D22*
X375562500Y-58425000D03*
D24*
X378102500Y-53345000D03*
X371752500Y-55885000D03*
D23*
X113307500Y-125100000D03*
X123467500Y-125100000D03*
D22*
X118387500Y-125100000D03*
D24*
X120927500Y-120020000D03*
X114577500Y-122560000D03*
D22*
X246975000Y-106050000D03*
D23*
X241895000Y-106050000D03*
X252055000Y-106050000D03*
D24*
X249515000Y-100970000D03*
X243165000Y-103510000D03*
D23*
X385405000Y-144150000D03*
X375245000Y-144150000D03*
D22*
X380325000Y-144150000D03*
D24*
X382865000Y-139070000D03*
X376515000Y-141610000D03*
D23*
X261580000Y-163200000D03*
X251420000Y-163200000D03*
D22*
X256500000Y-163200000D03*
D24*
X259040000Y-158120000D03*
X252690000Y-160660000D03*
D23*
X413345000Y-39375000D03*
D22*
X418425000Y-39375000D03*
D23*
X423505000Y-39375000D03*
D24*
X420965000Y-34295000D03*
X414615000Y-36835000D03*
D23*
X208557500Y-58425000D03*
D22*
X213637500Y-58425000D03*
D23*
X218717500Y-58425000D03*
D24*
X216177500Y-53345000D03*
X209827500Y-55885000D03*
D23*
X311586250Y-144150000D03*
X301426250Y-144150000D03*
D22*
X306506250Y-144150000D03*
D24*
X309046250Y-139070000D03*
X302696250Y-141610000D03*
D22*
X132675000Y-58425000D03*
D23*
X127595000Y-58425000D03*
X137755000Y-58425000D03*
D24*
X135215000Y-53345000D03*
X128865000Y-55885000D03*
D23*
X285392500Y-144150000D03*
X275232500Y-144150000D03*
D22*
X280312500Y-144150000D03*
D24*
X282852500Y-139070000D03*
X276502500Y-141610000D03*
D25*
X311237000Y-80015000D03*
X335113000Y-80015000D03*
D22*
X323175000Y-87000000D03*
D23*
X328255000Y-87000000D03*
D22*
X311237000Y-95255000D03*
X335113000Y-95255000D03*
D23*
X318095000Y-87000000D03*
D24*
X325715000Y-81920000D03*
X319365000Y-84460000D03*
D22*
X399375000Y-58425000D03*
D23*
X404455000Y-58425000D03*
X394295000Y-58425000D03*
D24*
X401915000Y-53345000D03*
X395565000Y-55885000D03*
D23*
X213955000Y-106050000D03*
X203795000Y-106050000D03*
D22*
X208875000Y-106050000D03*
D24*
X211415000Y-100970000D03*
X205065000Y-103510000D03*
D23*
X375245000Y-87000000D03*
X385405000Y-87000000D03*
D22*
X380325000Y-87000000D03*
D24*
X382865000Y-81920000D03*
X376515000Y-84460000D03*
D23*
X323492500Y-167962500D03*
D22*
X318412500Y-167962500D03*
D23*
X313332500Y-167962500D03*
D24*
X320952500Y-162882500D03*
X314602500Y-165422500D03*
D23*
X437475000Y-148595000D03*
D22*
X437475000Y-153675000D03*
X445730000Y-165613000D03*
D23*
X437475000Y-158755000D03*
D22*
X445730000Y-141737000D03*
D25*
X430490000Y-141737000D03*
X430490000Y-165613000D03*
D24*
X442555000Y-156215000D03*
X440015000Y-149865000D03*
D23*
X361592500Y-87000000D03*
X351432500Y-87000000D03*
D22*
X356512500Y-87000000D03*
D24*
X359052500Y-81920000D03*
X352702500Y-84460000D03*
D23*
X204430000Y-87000000D03*
D22*
X199350000Y-87000000D03*
D23*
X194270000Y-87000000D03*
D24*
X201890000Y-81920000D03*
X195540000Y-84460000D03*
D23*
X413345000Y-58425000D03*
D22*
X418425000Y-58425000D03*
D23*
X423505000Y-58425000D03*
D24*
X420965000Y-53345000D03*
X414615000Y-55885000D03*
D22*
X170775000Y-106050000D03*
D23*
X175855000Y-106050000D03*
X165695000Y-106050000D03*
D24*
X173315000Y-100970000D03*
X166965000Y-103510000D03*
D23*
X233005000Y-106050000D03*
X222845000Y-106050000D03*
D22*
X227925000Y-106050000D03*
D24*
X230465000Y-100970000D03*
X224115000Y-103510000D03*
M02*
