M48
; DRILL file {KiCad (5.99.0-2421-g2ea5528cd)} date 08/11/20 18:39:53
; FORMAT={-:-/ absolute / metric / decimal}
; #@! TF.CreationDate,2020-08-11T18:39:53-04:00
; #@! TF.GenerationSoftware,Kicad,Pcbnew,(5.99.0-2421-g2ea5528cd)
; #@! TF.FileFunction,NonPlated,1,2,NPTH
FMAT,2
METRIC
T1C0.650
T2C1.152
T3C1.702
T4C3.048
T5C3.988
%
G90
G05
T1
X248.847Y-26.249
X254.627Y-26.249
T2
X447.0Y-32.0
X57.0Y-172.0
X57.0Y-32.0
X447.0Y-172.0
T3
X60.92Y-87.0
X71.08Y-87.0
X308.57Y-58.425
X318.73Y-58.425
X275.233Y-144.15
X285.392Y-144.15
X432.395Y-58.425
X442.555Y-58.425
X194.27Y-87.0
X204.43Y-87.0
X208.558Y-39.375
X218.718Y-39.375
X270.47Y-58.425
X280.63Y-58.425
X375.245Y-106.05
X385.405Y-106.05
X156.17Y-87.0
X166.33Y-87.0
X241.895Y-106.05
X252.055Y-106.05
X108.545Y-39.375
X118.705Y-39.375
X413.345Y-163.2
X423.505Y-163.2
X394.295Y-87.0
X404.455Y-87.0
X270.47Y-163.2
X280.63Y-163.2
X108.545Y-58.425
X118.705Y-58.425
X375.245Y-87.0
X385.405Y-87.0
X122.832Y-144.15
X132.993Y-144.15
X265.707Y-125.1
X275.868Y-125.1
X413.345Y-58.425
X423.505Y-58.425
X208.558Y-58.425
X218.718Y-58.425
X175.22Y-87.0
X185.38Y-87.0
X384.77Y-163.2
X394.93Y-163.2
X394.295Y-58.425
X404.455Y-58.425
X315.714Y-125.1
X325.874Y-125.1
X182.364Y-163.2
X192.524Y-163.2
X437.475Y-120.02
X437.475Y-130.18
X170.457Y-58.425
X180.617Y-58.425
X165.695Y-106.05
X175.855Y-106.05
X332.382Y-167.963
X342.542Y-167.963
X375.245Y-144.15
X385.405Y-144.15
X256.183Y-144.15
X266.342Y-144.15
X146.645Y-58.425
X156.805Y-58.425
X118.07Y-87.0
X128.23Y-87.0
X313.332Y-167.963
X323.493Y-167.963
X127.595Y-106.05
X137.755Y-106.05
X351.433Y-125.1
X361.592Y-125.1
X63.301Y-125.1
X73.461Y-125.1
X110.926Y-163.2
X121.086Y-163.2
X301.426Y-144.15
X311.586Y-144.15
X322.857Y-106.05
X333.017Y-106.05
X351.433Y-39.375
X361.592Y-39.375
X84.733Y-144.15
X94.892Y-144.15
X170.457Y-125.1
X180.617Y-125.1
X251.42Y-163.2
X261.58Y-163.2
X413.345Y-125.1
X423.505Y-125.1
X179.982Y-144.15
X190.142Y-144.15
X332.382Y-58.425
X342.542Y-58.425
X108.545Y-106.05
X118.705Y-106.05
X227.607Y-58.425
X237.767Y-58.425
X60.92Y-58.425
X71.08Y-58.425
X218.082Y-144.15
X228.242Y-144.15
X437.475Y-100.97
X437.475Y-111.13
X127.595Y-39.375
X137.755Y-39.375
X413.345Y-144.15
X423.505Y-144.15
X260.945Y-106.05
X271.105Y-106.05
X208.558Y-125.1
X218.718Y-125.1
X184.745Y-106.05
X194.905Y-106.05
X270.47Y-39.375
X280.63Y-39.375
X394.295Y-125.1
X404.455Y-125.1
X279.995Y-106.05
X290.155Y-106.05
X99.02Y-87.0
X109.18Y-87.0
X413.345Y-39.375
X423.505Y-39.375
X308.57Y-87.0
X318.73Y-87.0
X330.319Y-110.495
X330.319Y-120.655
X227.607Y-125.1
X237.767Y-125.1
X89.495Y-39.375
X99.655Y-39.375
X141.882Y-144.15
X152.042Y-144.15
X94.257Y-125.1
X104.417Y-125.1
X289.52Y-87.0
X299.68Y-87.0
X332.382Y-148.912
X342.542Y-148.912
X160.933Y-144.15
X171.093Y-144.15
X89.495Y-58.425
X99.655Y-58.425
X127.595Y-58.425
X137.755Y-58.425
X72.826Y-144.15
X82.986Y-144.15
X79.97Y-87.0
X90.13Y-87.0
X375.245Y-163.2
X385.405Y-163.2
X394.295Y-106.05
X404.455Y-106.05
X351.433Y-87.0
X361.592Y-87.0
X394.295Y-163.2
X404.455Y-163.2
X232.37Y-87.0
X242.53Y-87.0
X151.407Y-125.1
X161.567Y-125.1
X284.757Y-125.1
X294.917Y-125.1
X351.433Y-106.05
X361.592Y-106.05
X170.458Y-39.375
X180.618Y-39.375
X222.845Y-106.05
X233.005Y-106.05
X351.433Y-167.963
X361.592Y-167.963
X432.395Y-39.375
X442.555Y-39.375
X146.645Y-106.05
X156.805Y-106.05
X63.301Y-144.15
X73.461Y-144.15
X103.782Y-144.15
X113.942Y-144.15
X394.295Y-39.375
X404.455Y-39.375
X437.475Y-148.595
X437.475Y-158.755
X65.682Y-106.05
X75.843Y-106.05
X437.475Y-110.495
X437.475Y-120.655
X246.657Y-125.1
X256.817Y-125.1
X370.482Y-39.375
X380.642Y-39.375
X63.301Y-163.2
X73.461Y-163.2
X113.307Y-125.1
X123.468Y-125.1
X370.482Y-58.425
X380.642Y-58.425
X251.42Y-39.375
X261.58Y-39.375
X432.395Y-87.0
X442.555Y-87.0
X327.62Y-87.0
X337.78Y-87.0
X289.52Y-163.2
X299.68Y-163.2
X251.42Y-58.425
X261.58Y-58.425
X289.52Y-39.375
X299.68Y-39.375
X413.345Y-87.0
X423.505Y-87.0
X237.132Y-144.15
X247.292Y-144.15
X213.32Y-87.0
X223.48Y-87.0
X146.645Y-39.375
X156.805Y-39.375
X137.12Y-87.0
X147.28Y-87.0
X270.47Y-87.0
X280.63Y-87.0
X303.808Y-125.1
X313.967Y-125.1
X413.345Y-106.05
X423.505Y-106.05
X375.245Y-125.1
X385.405Y-125.1
X203.795Y-106.05
X213.955Y-106.05
X132.357Y-125.1
X142.517Y-125.1
X394.295Y-144.15
X404.455Y-144.15
X189.507Y-58.425
X199.667Y-58.425
X251.42Y-87.0
X261.58Y-87.0
X227.607Y-39.375
X237.767Y-39.375
X199.032Y-144.15
X209.192Y-144.15
X89.495Y-106.05
X99.655Y-106.05
X351.433Y-58.425
X361.592Y-58.425
X332.382Y-39.375
X342.542Y-39.375
X68.064Y-125.1
X78.224Y-125.1
X289.52Y-58.425
X299.68Y-58.425
X318.095Y-87.0
X328.255Y-87.0
X87.114Y-163.2
X97.274Y-163.2
X189.507Y-125.1
X199.667Y-125.1
X189.508Y-39.375
X199.668Y-39.375
X308.57Y-39.375
X318.73Y-39.375
X299.045Y-106.05
X309.205Y-106.05
T4
X337.304Y-103.637
X337.304Y-127.513
X65.968Y-137.165
X89.844Y-137.165
X430.49Y-141.737
X430.49Y-165.613
X444.46Y-103.637
X444.46Y-127.513
X311.237Y-80.015
X335.113Y-80.015
X377.912Y-156.215
X401.788Y-156.215
X308.856Y-118.115
X332.732Y-118.115
X137.406Y-156.215
X237.482Y-156.215
T5
X113.625Y-39.375
X418.425Y-163.2
X399.375Y-87.0
X275.55Y-163.2
X113.625Y-58.425
X380.325Y-87.0
X127.912Y-144.15
X270.787Y-125.1
X418.425Y-58.425
X213.637Y-58.425
X180.3Y-87.0
X377.912Y-171.455
X389.85Y-163.2
X401.788Y-171.455
X399.375Y-58.425
X308.856Y-133.355
X320.794Y-125.1
X332.732Y-133.355
X137.406Y-171.455
X187.444Y-163.2
X237.482Y-171.455
X437.475Y-125.1
X175.537Y-58.425
X170.775Y-106.05
X337.462Y-167.963
X380.325Y-144.15
X261.262Y-144.15
X151.725Y-58.425
X123.15Y-87.0
X318.412Y-167.963
X132.675Y-106.05
X356.512Y-125.1
X68.381Y-125.1
X116.006Y-163.2
X306.506Y-144.15
X327.938Y-106.05
X356.512Y-39.375
X89.812Y-144.15
X175.537Y-125.1
X256.5Y-163.2
X418.425Y-125.1
X185.062Y-144.15
X337.462Y-58.425
X113.625Y-106.05
X232.688Y-58.425
X66.0Y-58.425
X223.162Y-144.15
X437.475Y-106.05
X132.675Y-39.375
X418.425Y-144.15
X266.025Y-106.05
X213.637Y-125.1
X189.825Y-106.05
X275.55Y-39.375
X399.375Y-125.1
X285.075Y-106.05
X104.1Y-87.0
X418.425Y-39.375
X313.65Y-87.0
X322.064Y-103.637
X322.064Y-127.513
X330.319Y-115.575
X232.688Y-125.1
X94.575Y-39.375
X146.963Y-144.15
X99.337Y-125.1
X294.6Y-87.0
X337.462Y-148.912
X166.012Y-144.15
X94.575Y-58.425
X132.675Y-58.425
X65.968Y-152.405
X77.906Y-144.15
X89.844Y-152.405
X85.05Y-87.0
X380.325Y-163.2
X399.375Y-106.05
X356.512Y-87.0
X399.375Y-163.2
X237.45Y-87.0
X156.487Y-125.1
X289.837Y-125.1
X356.512Y-106.05
X175.538Y-39.375
X227.925Y-106.05
X356.512Y-167.963
X437.475Y-39.375
X151.725Y-106.05
X68.381Y-144.15
X108.862Y-144.15
X399.375Y-39.375
X437.475Y-153.675
X445.73Y-141.737
X445.73Y-165.613
X70.763Y-106.05
X429.22Y-103.637
X429.22Y-127.513
X437.475Y-115.575
X251.737Y-125.1
X375.562Y-39.375
X68.381Y-163.2
X118.387Y-125.1
X375.562Y-58.425
X256.5Y-39.375
X437.475Y-87.0
X332.7Y-87.0
X294.6Y-163.2
X256.5Y-58.425
X294.6Y-39.375
X418.425Y-87.0
X242.212Y-144.15
X218.4Y-87.0
X151.725Y-39.375
X142.2Y-87.0
X275.55Y-87.0
X308.887Y-125.1
X418.425Y-106.05
X380.325Y-125.1
X208.875Y-106.05
X137.438Y-125.1
X399.375Y-144.15
X194.587Y-58.425
X256.5Y-87.0
X232.688Y-39.375
X204.112Y-144.15
X94.575Y-106.05
X356.512Y-58.425
X337.462Y-39.375
X73.144Y-125.1
X294.6Y-58.425
X311.237Y-95.255
X323.175Y-87.0
X335.113Y-95.255
X92.194Y-163.2
X194.587Y-125.1
X194.588Y-39.375
X313.65Y-39.375
X304.125Y-106.05
X66.0Y-87.0
X313.65Y-58.425
X280.312Y-144.15
X437.475Y-58.425
X199.35Y-87.0
X213.637Y-39.375
X275.55Y-58.425
X380.325Y-106.05
X161.25Y-87.0
X246.975Y-106.05
T0
M30
