0
SECTION
2
HEADER
9
$INSUNITS
70
4
9
$ACADVER
1
AC1014
9
$HANDSEED
5
FFFF
0
ENDSEC
0
SECTION
2
TABLES
0
TABLE
2
VPORT
5
8
100
AcDbSymbolTable
0
ENDTAB
0
TABLE
2
LTYPE
5
5
100
AcDbSymbolTable
0
LTYPE
5
14
100
AcDbSymbolTableRecord
100
AcDbLinetypeTableRecord
2
BYBLOCK
70
0
0
LTYPE
5
15
100
AcDbSymbolTableRecord
100
AcDbLinetypeTableRecord
2
BYLAYER
70
0
0
ENDTAB
0
TABLE
2
LAYER
5
2
100
AcDbSymbolTable
70
2
0
LAYER
5
50
100
AcDbSymbolTableRecord
100
AcDbLayerTableRecord
2
0
70
0
6
CONTINUOUS
0
ENDTAB
0
TABLE
2
STYLE
5
3
100
AcDbSymbolTable
70
1
0
STYLE
5
11
100
AcDbSymbolTableRecord
100
AcDbTextStyleTableRecord
2
STANDARD
70
0
0
ENDTAB
0
TABLE
2
VIEW
5
6
100
AcDbSymbolTable
70
0
0
ENDTAB
0
TABLE
2
UCS
5
7
100
AcDbSymbolTable
70
0
0
ENDTAB
0
TABLE
2
APPID
5
9
100
AcDbSymbolTable
70
2
0
APPID
5
12
100
AcDbSymbolTableRecord
100
AcDbRegAppTableRecord
2
ACAD
70
0
0
ENDTAB
0
TABLE
2
DIMSTYLE
5
A
100
AcDbSymbolTable
70
1
0
ENDTAB
0
TABLE
2
BLOCK_RECORD
5
1
100
AcDbSymbolTable
70
1
0
BLOCK_RECORD
5
1F
100
AcDbSymbolTableRecord
100
AcDbBlockTableRecord
2
*MODEL_SPACE
0
BLOCK_RECORD
5
1B
100
AcDbSymbolTableRecord
100
AcDbBlockTableRecord
2
*PAPER_SPACE
0
ENDTAB
0
ENDSEC
0
SECTION
2
BLOCKS
0
BLOCK
5
20
100
AcDbEntity
100
AcDbBlockBegin
2
*MODEL_SPACE
0
ENDBLK
5
21
100
AcDbEntity
100
AcDbBlockEnd
0
BLOCK
5
1C
100
AcDbEntity
100
AcDbBlockBegin
2
*PAPER_SPACE
0
ENDBLK
5
1D
100
AcDbEntity
100
AcDbBlockEnd
0
ENDSEC
0
SECTION
2
ENTITIES
0
CIRCLE
5
100
100
AcDbEntity
8
0
100
AcDbCircle
10
240.76925000000392
20
-80.181112537021889
30
0
40
1.25
210
0
220
0
230
1
0
CIRCLE
5
101
100
AcDbEntity
8
0
100
AcDbCircle
10
375.43700000000058
20
16.637499999997331
30
0
40
1.25
210
0
220
0
230
1
0
CIRCLE
5
102
100
AcDbEntity
8
0
100
AcDbCircle
10
-3.4370000000052769
20
16.637499999999626
30
0
40
1.25
210
0
220
0
230
1
0
CIRCLE
5
103
100
AcDbEntity
8
0
100
AcDbCircle
10
97.894250000001392
20
55.198131514973348
30
0
40
1.25
210
0
220
0
230
1
0
CIRCLE
5
104
100
AcDbEntity
8
0
100
AcDbCircle
10
184.76300000000288
20
16.637499999998813
30
0
40
1.25
210
0
220
0
230
1
0
CIRCLE
5
105
100
AcDbEntity
8
0
100
AcDbCircle
10
259.81925000000467
20
53.674999999999756
30
0
40
1.25
210
0
220
0
230
1
0
CIRCLE
5
106
100
AcDbEntity
8
0
100
AcDbCircle
10
196.96300000000343
20
16.637499999998084
30
0
40
1.25
210
0
220
0
230
1
0
CIRCLE
5
107
100
AcDbEntity
8
0
100
AcDbCircle
10
178.85675000000262
20
55.198131514972999
30
0
40
1.25
210
0
220
0
230
1
0
CIRCLE
5
108
100
AcDbEntity
8
0
100
AcDbCircle
10
14.550500000000177
20
49.97500000000003
30
0
40
1.25
210
0
220
0
230
1
0
CIRCLE
5
109
100
AcDbEntity
8
0
100
AcDbCircle
10
321.73175000000549
20
53.674999999998356
30
0
40
1.25
210
0
220
0
230
1
0
CIRCLE
5
110
100
AcDbEntity
8
0
100
AcDbCircle
10
302.68175000000474
20
-80.181112537022145
30
0
40
1.25
210
0
220
0
230
1
0
CIRCLE
5
111
100
AcDbEntity
8
0
100
AcDbCircle
10
293.15700000000464
20
-49.750000000002295
30
0
40
1.25
210
0
220
0
230
1
0
LWPOLYLINE
5
112
100
AcDbEntity
8
0
100
AcDbPolyline
90
40
70
1
43
0.0
10
366.73800000000506
20
-72.263000000001739
42
-0.41421356237318868
10
366.23800000000506
20
-72.763000000001739
10
363.23800000000523
20
-72.763000000001725
42
0.41421356237323032
10
362.73800000000517
20
-73.263000000001725
10
362.73800000000529
20
-79.263000000001725
42
0.41421356237320428
10
363.23800000000523
20
-79.763000000001725
10
377.23800000000551
20
-79.763000000001796
42
0.41421356237324591
10
377.73800000000557
20
-79.263000000001796
10
377.73800000000551
20
-73.263000000001796
42
0.41421356237312101
10
377.23800000000551
20
-72.763000000001796
10
376.23800000000534
20
-72.763000000001881
42
-0.41421356237318868
10
375.73800000000529
20
-72.26300000000181
10
375.7380000000054
20
-71.825000000001765
42
-0.41421356237319906
10
376.23800000000534
20
-71.325000000001765
10
378.23800000000551
20
-71.325000000001779
42
0.4142135623732251
10
378.73800000000557
20
-70.825000000001779
10
378.73800000000551
20
-57.825000000001793
42
0.41421356237318868
10
378.23800000000563
20
-57.325000000001857
10
376.2380000000054
20
-57.325000000001765
42
-0.41421356237311585
10
375.73800000000551
20
-56.825000000001829
10
375.73800000000546
20
-56.387000000001777
42
-0.41421356237310542
10
376.2380000000054
20
-55.887000000001777
10
377.23800000000551
20
-55.887000000001791
42
0.41421356237325629
10
377.73800000000557
20
-55.38700000000177
10
377.73800000000551
20
-49.387000000001748
42
0.4142135623731783
10
377.23800000000551
20
-48.887000000001819
10
363.23800000000523
20
-48.887000000001677
42
0.41421356237313145
10
362.73800000000517
20
-49.387000000001692
10
362.73800000000529
20
-55.38700000000172
42
0.41421356237320428
10
363.23800000000523
20
-55.88700000000172
10
366.23800000000517
20
-55.887000000001656
42
-0.41421356237311585
10
366.73800000000517
20
-56.387000000001734
10
366.73800000000512
20
-56.825000000001744
42
-0.41421356237311585
10
366.23800000000517
20
-57.325000000001729
10
365.2380000000054
20
-57.325000000001722
42
0.41421356237318868
10
364.73800000000529
20
-57.825000000001737
10
364.7380000000054
20
-70.825000000001722
42
0.41421356237312101
10
365.23800000000534
20
-71.325000000001722
10
366.23800000000517
20
-71.32500000000168
42
-0.41421356237315748
10
366.73800000000506
20
-71.825000000001694
0
LWPOLYLINE
5
113
100
AcDbEntity
8
0
100
AcDbPolyline
90
24
70
1
43
0.0
10
339.55100000000505
20
-81.15000000000154
42
-0.41421356237295631
10
339.85100000000506
20
-80.850000000001558
10
340.13800000000492
20
-80.850000000001558
42
0.41421356237306384
10
340.63800000000498
20
-80.350000000001543
10
340.63800000000498
20
-67.350000000001543
42
0.41421356237312101
10
340.13800000000504
20
-66.850000000001543
10
308.08800000000457
20
-66.850000000001387
42
0.41421356237314705
10
307.58800000000457
20
-67.350000000001401
10
307.58800000000457
20
-80.350000000001401
42
0.4142135623732095
10
308.08800000000463
20
-80.85000000000143
10
308.37500000000449
20
-80.85000000000143
42
-0.41421356237312978
10
308.6750000000045
20
-81.150000000001398
10
308.6750000000045
20
-82.350000000001472
42
0.41421356237319906
10
309.17500000000456
20
-82.850000000001472
10
315.17500000000462
20
-82.850000000001515
42
0.41421356237313667
10
315.67500000000462
20
-82.350000000001501
10
315.67500000000456
20
-81.150000000001484
42
-0.41421356237312978
10
315.97500000000463
20
-80.850000000001444
10
332.25100000000486
20
-80.850000000001586
42
-0.41421356237295631
10
332.55100000000488
20
-81.150000000001597
10
332.55100000000488
20
-82.350000000001586
42
0.4142135623732095
10
333.05100000000488
20
-82.8500000000016
10
339.05100000000505
20
-82.850000000001643
42
0.41421356237298057
10
339.55100000000505
20
-82.350000000001629
0
LWPOLYLINE
5
114
100
AcDbEntity
8
0
100
AcDbPolyline
90
24
70
1
43
0.0
10
-3.5687499999999339
20
-61.800000000000054
42
-0.41421356237310264
10
-3.268749999999927
20
-62.100000000000051
10
-3.2687499999999274
20
-63.299999999999997
42
0.41421356237309243
10
-2.7687499999999465
20
-63.800000000000011
10
3.2312500000001645
20
-63.80000000000004
42
0.41421356237310542
10
3.7312500000001787
20
-63.30000000000004
10
3.7312500000002369
20
-62.100000000000044
42
-0.41421356237309725
10
4.0312500000002061
20
-61.800000000000075
10
20.307250000000412
20
-61.800000000000125
42
-0.41421356237307771
10
20.607250000000409
20
-62.100000000000122
10
20.607250000000409
20
-63.300000000000125
42
0.41421356237307944
10
21.107250000000384
20
-63.800000000000132
10
27.107250000000501
20
-63.800000000000161
42
0.41421356237310025
10
27.607250000000519
20
-63.300000000000153
10
27.607250000000537
20
-62.100000000000186
42
-0.41421356237309076
10
27.907250000000534
20
-61.800000000000182
10
30.575500000000527
20
-61.800000000000203
42
0.41421356237310025
10
31.075500000000545
20
-61.300000000000196
10
31.075500000000545
20
-48.300000000000189
42
0.41421356237310025
10
30.575500000000527
20
-47.800000000000182
10
-3.8557499999999627
20
-47.800000000000026
42
0.41421356237310902
10
-4.3557499999999836
20
-48.30000000000004
10
-4.355749999999972
20
-61.30000000000004
42
0.41421356237311974
10
-3.8557499999999658
20
-61.80000000000004
0
LWPOLYLINE
5
115
100
AcDbEntity
8
0
100
AcDbPolyline
90
48
70
1
43
0.0
10
263.19475000000386
20
-41.663000000001141
42
-0.41421356237305174
10
263.49475000000388
20
-41.96300000000118
10
263.49475000000393
20
-44.250000000001215
42
0.41421356237316265
10
263.99475000000399
20
-44.750000000001229
10
269.99475000000405
20
-44.750000000001258
42
0.41421356237313667
10
270.49475000000405
20
-44.250000000001251
10
270.49475000000399
20
-33.525000000001207
42
-0.41421356237308637
10
270.794750000004
20
-33.225000000001202
10
271.08175000000404
20
-33.225000000001202
42
0.41421356237311324
10
271.58175000000404
20
-32.725000000001202
10
271.58175000000404
20
-19.725000000001177
42
0.41421356237314444
10
271.08175000000404
20
-19.225000000001167
10
269.50050000000397
20
-19.225000000001128
42
-0.41421356237312101
10
269.20050000000396
20
-18.925000000001159
10
269.20050000000396
20
-18.087000000001165
42
-0.41421356237308637
10
269.50050000000397
20
-17.787000000001168
10
270.08175000000398
20
-17.787000000001168
42
0.41421356237312884
10
270.58175000000398
20
-17.287000000001175
10
270.58175000000404
20
-11.287000000001166
42
0.41421356237308204
10
270.08175000000404
20
-10.787000000001171
10
269.50050000000397
20
-10.787000000001118
42
-0.41421356237308637
10
269.20050000000396
20
-10.487000000001153
10
269.20050000000396
20
-10.200000000001232
42
0.41421356237313406
10
268.70050000000396
20
-9.7000000000012214
10
255.70050000000379
20
-9.7000000000011681
42
0.41421356237313406
10
255.20050000000379
20
-10.200000000001161
10
255.20050000000373
20
-23.200000000001179
42
0.41421356237313928
10
255.70050000000376
20
-23.700000000001168
10
257.28175000000374
20
-23.700000000001186
42
-0.41421356237308637
10
257.58175000000381
20
-24.00000000000119
10
257.58175000000386
20
-28.450000000001175
42
-0.41421356237312101
10
257.2817500000038
20
-28.750000000001169
10
236.65050000000352
20
-28.750000000001044
42
0.41421356237314444
10
236.15050000000352
20
-29.250000000001044
10
236.15050000000352
20
-42.250000000001052
42
0.41421356237316265
10
236.65050000000352
20
-42.750000000001044
10
239.31875000000355
20
-42.750000000001009
42
-0.41421356237305174
10
239.61875000000359
20
-43.050000000001077
10
239.61875000000359
20
-44.250000000001116
42
0.41421356237313667
10
240.11875000000359
20
-44.750000000001123
10
246.11875000000367
20
-44.750000000001151
42
0.41421356237313667
10
246.61875000000367
20
-44.250000000001144
10
246.61875000000356
20
-43.050000000001162
42
-0.41421356237308637
10
246.91875000000366
20
-42.750000000001108
10
261.55675000000383
20
-42.750000000001229
42
0.41421356237313145
10
262.05675000000389
20
-42.250000000001215
10
262.05675000000394
20
-41.96300000000118
42
-0.41421356237305174
10
262.3567500000039
20
-41.663000000001169
0
LWPOLYLINE
5
116
100
AcDbEntity
8
0
100
AcDbPolyline
90
8
70
1
43
0.0
10
-6.2369999999999663
20
23.924999999999983
10
6.7629999999999839
20
23.924999999999983
42
0.41421356237309503
10
7.2629999999999839
20
24.424999999999983
10
7.2629999999999839
20
37.42499999999999
42
0.41421356237309503
10
6.7629999999999839
20
37.924999999999983
10
-6.2369999999999663
20
37.924999999999983
42
0.41421356237309503
10
-6.7369999999999663
20
37.42499999999999
10
-6.7369999999999663
20
24.424999999999983
42
0.41421356237309503
0
CIRCLE
5
117
100
AcDbEntity
8
0
100
AcDbCircle
10
309.82550000000447
20
16.637499999998663
30
0
40
1.9999999999999929
210
-0
220
0
230
1
0
CIRCLE
5
118
100
AcDbEntity
8
0
100
AcDbCircle
10
293.1570000000043
20
-57.2500000000013
30
0
40
2.6000000000000156
210
-0
220
0
230
1
0
CIRCLE
5
119
100
AcDbEntity
8
0
100
AcDbCircle
10
107.76300000000164
20
16.637499999999587
30
0
40
1.1999999999999922
210
-0
220
0
230
1
0
CIRCLE
5
120
100
AcDbEntity
8
0
100
AcDbCircle
10
290.77550000000423
20
16.637499999998781
30
0
40
1.9999999999999929
210
-0
220
0
230
1
0
CIRCLE
5
121
100
AcDbEntity
8
0
100
AcDbCircle
10
264.26300000000384
20
16.637499999998909
30
0
40
1.2000000000000099
210
-0
220
0
230
1
0
LWPOLYLINE
5
122
100
AcDbEntity
8
0
100
AcDbPolyline
90
8
70
1
43
0.0
10
-8.2369999999998296
20
56.475000000000108
10
-8.2369999999998864
20
43.475000000000101
42
0.41421356237309309
10
-7.7369999999998917
20
42.975000000000101
10
8.2630000000001047
20
42.97500000000003
42
0.41421356237310025
10
8.763000000000126
20
43.47500000000003
10
8.7630000000001687
20
56.475000000000037
42
0.41421356237309048
10
8.2630000000001758
20
56.975000000000023
10
-7.7369999999998385
20
56.975000000000108
42
0.41421356237309115
0
CIRCLE
5
123
100
AcDbEntity
8
0
100
AcDbCircle
10
271.72550000000393
20
16.637499999998862
30
0
40
1.9999999999999929
210
-0
220
0
230
1
0
CIRCLE
5
124
100
AcDbEntity
8
0
100
AcDbCircle
10
220.99999999999756
20
63.97499999999912
30
0
40
2.3500000000000001
210
0
220
0
230
1
0
CIRCLE
5
125
100
AcDbEntity
8
0
100
AcDbCircle
10
360.99999999999955
20
63.974999999998502
30
0
40
2.3500000000000001
210
0
220
0
230
1
0
CIRCLE
5
126
100
AcDbEntity
8
0
100
AcDbCircle
10
220.99999999999824
20
-87.850000000001017
30
0
40
2.3500000000000001
210
0
220
0
230
1
0
CIRCLE
5
127
100
AcDbEntity
8
0
100
AcDbCircle
10
80.999999999996277
20
-87.850000000000392
30
0
40
2.3500000000000001
210
0
220
0
230
1
0
CIRCLE
5
128
100
AcDbEntity
8
0
100
AcDbCircle
10
10.99999999999465
20
63.975000000000051
30
0
40
2.3500000000000001
210
0
220
0
230
1
0
CIRCLE
5
129
100
AcDbEntity
8
0
100
AcDbCircle
10
150.99999999999662
20
63.97499999999944
30
0
40
2.3500000000000001
210
0
220
0
230
1
0
CIRCLE
5
130
100
AcDbEntity
8
0
100
AcDbCircle
10
80.999999999995651
20
63.974999999999753
30
0
40
2.3500000000000001
210
0
220
0
230
1
0
CIRCLE
5
131
100
AcDbEntity
8
0
100
AcDbCircle
10
10.999999999995325
20
-87.850000000000094
30
0
40
2.3500000000000001
210
0
220
0
230
1
0
CIRCLE
5
132
100
AcDbEntity
8
0
100
AcDbCircle
10
150.99999999999727
20
-87.850000000000691
30
0
40
2.3500000000000001
210
0
220
0
230
1
0
CIRCLE
5
133
100
AcDbEntity
8
0
100
AcDbCircle
10
361.00000000000023
20
-87.850000000001643
30
0
40
2.3500000000000001
210
0
220
0
230
1
0
CIRCLE
5
134
100
AcDbEntity
8
0
100
AcDbCircle
10
290.99999999999858
20
63.974999999998815
30
0
40
2.3500000000000001
210
0
220
0
230
1
0
LWPOLYLINE
5
135
100
AcDbEntity
8
0
100
AcDbPolyline
90
8
70
1
43
0.0
10
-11.99999999999994
20
68.349999999999994
42
-0.41421356237309503
10
-10.999999999999943
20
69.349999999999994
10
383.00000000000011
20
69.349999999999909
42
-0.41421356237304563
10
384.00000000000006
20
68.349999999999994
10
384.00000000000011
20
-90.649999999999977
42
-0.41421356237307422
10
383.00000000000006
20
-91.649999999999991
10
-10.999999999999943
20
-91.649999999999991
42
-0.41421356237309048
10
-11.999999999999957
20
-90.649999999999991
0
LWPOLYLINE
5
136
100
AcDbEntity
8
0
100
AcDbPolyline
90
8
70
1
43
0.0
10
345.68800000000499
20
-48.300000000001624
10
345.6880000000051
20
-61.300000000001631
42
0.41421356237312101
10
346.18800000000505
20
-61.800000000001631
10
359.18800000000522
20
-61.800000000001695
42
0.41421356237323032
10
359.68800000000527
20
-61.300000000001674
10
359.68800000000522
20
-48.300000000001681
42
0.41421356237320428
10
359.18800000000522
20
-47.800000000001681
10
346.18800000000505
20
-47.800000000001617
42
0.41421356237324591
0
LWPOLYLINE
5
137
100
AcDbEntity
8
0
100
AcDbPolyline
90
8
70
1
43
0.0
10
321.58800000000485
20
-23.200000000001495
10
321.58800000000468
20
-10.200000000001477
42
0.41421356237318868
10
321.08800000000474
20
-9.7000000000015358
10
308.08800000000457
20
-9.7000000000014115
42
0.41421356237313928
10
307.58800000000457
20
-10.200000000001406
10
307.58800000000451
20
-23.200000000001424
42
0.41421356237316009
10
308.08800000000457
20
-23.700000000001431
10
321.0880000000048
20
-23.700000000001488
42
0.41421356237312362
0
LWPOLYLINE
5
138
100
AcDbEntity
8
0
100
AcDbPolyline
90
8
70
1
43
0.0
10
345.6880000000051
20
-10.200000000001587
10
345.68800000000516
20
-23.200000000001605
42
0.41421356237320428
10
346.1880000000051
20
-23.700000000001616
10
359.18800000000533
20
-23.700000000001673
42
0.41421356237325113
10
359.68800000000533
20
-23.200000000001669
10
359.68800000000522
20
-10.20000000000165
42
0.414213562373203
10
359.18800000000522
20
-9.7000000000016389
10
346.18800000000505
20
-9.7000000000015945
42
0.41421356237318219
0
LWPOLYLINE
5
139
100
AcDbEntity
8
0
100
AcDbPolyline
90
8
70
1
43
0.0
10
345.68800000000516
20
8.8499999999984329
10
345.68800000000516
20
-4.1500000000015769
42
0.4142135623731929
10
346.18800000000505
20
-4.6500000000015156
10
359.18800000000533
20
-4.6500000000016346
42
0.41421356237311879
10
359.68800000000527
20
-4.1500000000016399
10
359.68800000000527
20
8.8499999999983689
42
0.41421356237318741
10
359.18800000000533
20
9.3499999999983086
10
346.1880000000051
20
9.3499999999984258
42
0.41421356237320234
0
LWPOLYLINE
5
140
100
AcDbEntity
8
0
100
AcDbPolyline
90
8
70
1
43
0.0
10
297.2755000000044
20
-9.7000000000013529
10
284.27550000000423
20
-9.7000000000012996
42
0.41421356237313534
10
283.77550000000423
20
-10.200000000001301
10
283.77550000000417
20
-23.200000000001321
42
0.41421356237313928
10
284.27550000000417
20
-23.70000000000131
10
297.2755000000044
20
-23.700000000001388
42
0.41421356237313667
10
297.7755000000044
20
-23.200000000001381
10
297.7755000000044
20
-10.200000000001365
42
0.41421356237313406
0
LWPOLYLINE
5
141
100
AcDbEntity
8
0
100
AcDbPolyline
90
8
70
1
43
0.0
10
264.72550000000393
20
-72.11250000000129
10
264.72550000000393
20
-85.11250000000129
42
0.41421356237313667
10
265.22550000000393
20
-85.61250000000129
10
278.2255000000041
20
-85.612500000001361
42
0.41421356237311585
10
278.7255000000041
20
-85.112500000001376
10
278.7255000000041
20
-72.112500000001361
42
0.41421356237316787
10
278.2255000000041
20
-71.612500000001376
10
265.22550000000393
20
-71.612500000001276
42
0.41421356237313667
0
LWPOLYLINE
5
142
100
AcDbEntity
8
0
100
AcDbPolyline
90
8
70
1
43
0.0
10
198.05050000000293
20
-29.250000000000899
10
198.05050000000293
20
-42.250000000000931
42
0.41421356237316265
10
198.55050000000293
20
-42.750000000000917
10
211.55050000000313
20
-42.750000000000988
42
0.41421356237314183
10
212.05050000000315
20
-42.250000000000973
10
212.05050000000313
20
-29.250000000000963
42
0.41421356237314183
10
211.55050000000313
20
-28.750000000000952
10
198.55050000000293
20
-28.750000000000895
42
0.41421356237314183
0
LWPOLYLINE
5
143
100
AcDbEntity
8
0
100
AcDbPolyline
90
8
70
1
43
0.0
10
173.95050000000265
20
-42.25000000000081
10
173.95050000000259
20
-29.250000000000796
42
0.41421356237314444
10
173.45050000000259
20
-28.750000000000785
10
160.45050000000242
20
-28.750000000000711
42
0.41421356237314444
10
159.95050000000242
20
-29.250000000000725
10
159.95050000000242
20
-42.250000000000739
42
0.41421356237316787
10
160.45050000000242
20
-42.750000000000732
10
173.45050000000259
20
-42.750000000000831
42
0.41421356237314183
0
LWPOLYLINE
5
144
100
AcDbEntity
8
0
100
AcDbPolyline
90
8
70
1
43
0.0
10
121.8505000000019
20
-29.250000000000554
10
121.85050000000189
20
-42.250000000000576
42
0.41421356237314705
10
122.35050000000189
20
-42.750000000000597
10
135.35050000000209
20
-42.750000000000639
42
0.41421356237310025
10
135.85050000000209
20
-42.250000000000625
10
135.85050000000209
20
-29.250000000000611
42
0.41421356237311324
10
135.35050000000206
20
-28.750000000000597
10
122.35050000000189
20
-28.750000000000547
42
0.41421356237311063
0
LWPOLYLINE
5
145
100
AcDbEntity
8
0
100
AcDbPolyline
90
8
70
1
43
0.0
10
93.275500000001443
20
-48.300000000000438
10
93.275500000001443
20
-61.300000000000445
42
0.41421356237315748
10
93.775500000001472
20
-61.800000000000466
10
106.77550000000164
20
-61.800000000000509
42
0.41421356237310025
10
107.27550000000163
20
-61.300000000000495
10
107.27550000000164
20
-48.300000000000495
42
0.41421356237312623
10
106.7755000000016
20
-47.80000000000048
10
93.775500000001443
20
-47.800000000000438
42
0.41421356237311063
0
LWPOLYLINE
5
146
100
AcDbEntity
8
0
100
AcDbPolyline
90
8
70
1
43
0.0
10
31.363000000000593
20
8.8499999999999002
10
31.363000000000589
20
-4.1500000000001096
42
0.41421356237308693
10
31.863000000000564
20
-4.6500000000001087
10
44.863000000000788
20
-4.6500000000001664
42
0.41421356237308887
10
45.363000000000795
20
-4.1500000000001727
10
45.363000000000795
20
8.8499999999998362
42
0.41421356237309048
10
44.86300000000081
20
9.349999999999838
10
31.8630000000006
20
9.3499999999998948
42
0.41421356237310542
0
LWPOLYLINE
5
147
100
AcDbEntity
8
0
100
AcDbPolyline
90
8
70
1
43
0.0
10
78.988000000001264
20
-10.200000000000335
10
78.98800000000125
20
-23.200000000000362
42
0.41421356237309243
10
79.48800000000125
20
-23.700000000000372
10
92.488000000001449
20
-23.700000000000429
42
0.41421356237311063
10
92.988000000001449
20
-23.200000000000426
10
92.988000000001477
20
-10.200000000000406
42
0.41421356237313794
10
92.488000000001463
20
-9.7000000000004043
10
79.488000000001279
20
-9.7000000000003421
42
0.41421356237308854
0
LWPOLYLINE
5
148
100
AcDbEntity
8
0
100
AcDbPolyline
90
8
70
1
43
0.0
10
130.58800000000201
20
-9.7000000000005784
10
117.58800000000181
20
-9.7000000000005251
42
0.41421356237310414
10
117.08800000000181
20
-10.200000000000509
10
117.0880000000018
20
-23.200000000000529
42
0.41421356237314183
10
117.58800000000181
20
-23.700000000000546
10
130.58800000000198
20
-23.70000000000061
42
0.41421356237314444
10
131.08800000000198
20
-23.2000000000006
10
131.08800000000201
20
-10.200000000000582
42
0.41421356237313794
0
LWPOLYLINE
5
149
100
AcDbEntity
8
0
100
AcDbPolyline
90
8
70
1
43
0.0
10
155.18800000000238
20
-10.200000000000692
10
155.18800000000232
20
-23.20000000000071
42
0.41421356237312362
10
155.68800000000235
20
-23.700000000000728
10
168.68800000000249
20
-23.700000000000774
42
0.41421356237313145
10
169.18800000000249
20
-23.200000000000781
10
169.18800000000255
20
-10.200000000000763
42
0.41421356237314055
10
168.68800000000252
20
-9.7000000000007702
10
155.68800000000238
20
-9.7000000000006992
42
0.41421356237310675
0
LWPOLYLINE
5
150
100
AcDbEntity
8
0
100
AcDbPolyline
90
8
70
1
43
0.0
10
193.28800000000291
20
-10.200000000000875
10
193.28800000000288
20
-23.200000000000891
42
0.41421356237313406
10
193.78800000000291
20
-23.700000000000902
10
206.78800000000308
20
-23.700000000000962
42
0.41421356237313406
10
207.28800000000308
20
-23.200000000000955
10
207.28800000000314
20
-10.200000000000937
42
0.41421356237314055
10
206.78800000000311
20
-9.7000000000009443
10
193.78800000000294
20
-9.7000000000008804
42
0.41421356237314055
0
LWPOLYLINE
5
151
100
AcDbEntity
8
0
100
AcDbPolyline
90
8
70
1
43
0.0
10
233.76925000000341
20
-48.300000000001106
10
233.76925000000347
20
-61.300000000001106
42
0.41421356237307422
10
234.26925000000347
20
-61.800000000001098
10
247.26925000000367
20
-61.800000000001177
42
0.41421356237316265
10
247.76925000000372
20
-61.300000000001162
10
247.76925000000369
20
-48.300000000001162
42
0.41421356237320428
10
247.26925000000364
20
-47.800000000001155
10
234.26925000000347
20
-47.800000000001091
42
0.41421356237311063
0
LWPOLYLINE
5
152
100
AcDbEntity
8
0
100
AcDbPolyline
90
8
70
1
43
0.0
10
174.70675000000261
20
-67.850000000000847
10
168.7067500000025
20
-67.85000000000079
42
0.41421356237314705
10
168.2067500000025
20
-68.35000000000079
10
168.2067500000025
20
-82.350000000000819
42
0.41421356237319906
10
168.70675000000256
20
-82.850000000000833
10
174.70675000000261
20
-82.850000000000875
42
0.41421356237313667
10
175.20675000000264
20
-82.350000000000861
10
175.20675000000264
20
-68.350000000000833
42
0.41421356237313145
0
LWPOLYLINE
5
153
100
AcDbEntity
8
0
100
AcDbPolyline
90
8
70
1
43
0.0
10
55.175500000000888
20
-48.30000000000026
10
55.175500000000909
20
-61.300000000000267
42
0.41421356237309503
10
55.675500000000895
20
-61.800000000000274
10
68.675500000001094
20
-61.800000000000324
42
0.41421356237310542
10
69.175500000001122
20
-61.300000000000338
10
69.175500000001108
20
-48.300000000000324
42
0.41421356237311585
10
68.675500000001094
20
-47.800000000000303
10
55.675500000000923
20
-47.800000000000253
42
0.41421356237312623
0
LWPOLYLINE
5
154
100
AcDbEntity
8
0
100
AcDbPolyline
90
8
70
1
43
0.0
10
19.45675000000039
20
-67.350000000000108
10
19.456750000000397
20
-80.350000000000122
42
0.41421356237307294
10
19.956750000000401
20
-80.850000000000136
10
32.956750000000582
20
-80.850000000000193
42
0.41421356237312101
10
33.456750000000596
20
-80.350000000000179
10
33.456750000000596
20
-67.350000000000165
42
0.41421356237312362
10
32.956750000000554
20
-66.850000000000165
10
19.956750000000408
20
-66.850000000000108
42
0.41421356237308593
0
LWPOLYLINE
5
155
100
AcDbEntity
8
0
100
AcDbPolyline
90
8
70
1
43
0.0
10
21.838000000000449
20
-10.20000000000007
10
21.838000000000442
20
-23.200000000000095
42
0.41421356237308204
10
22.33800000000041
20
-23.700000000000099
10
35.338000000000626
20
-23.700000000000159
42
0.41421356237310542
10
35.838000000000648
20
-23.200000000000159
10
35.83800000000064
20
-10.200000000000141
42
0.41421356237308854
10
35.338000000000648
20
-9.7000000000001414
10
22.338000000000463
20
-9.7000000000000774
42
0.41421356237309892
0
LWPOLYLINE
5
156
100
AcDbEntity
8
0
100
AcDbPolyline
90
8
70
1
43
0.0
10
59.938000000001011
20
37.424999999999798
10
59.938000000001011
20
24.424999999999784
42
0.41421356237309764
10
60.438000000000997
20
23.924999999999784
10
73.43800000000121
20
23.92499999999972
42
0.41421356237310802
10
73.93800000000121
20
24.424999999999724
10
73.938000000001225
20
37.424999999999734
42
0.41421356237307944
10
73.438000000001239
20
37.924999999999741
10
60.438000000001026
20
37.924999999999798
42
0.41421356237308982
0
LWPOLYLINE
5
157
100
AcDbEntity
8
0
100
AcDbPolyline
90
8
70
1
43
0.0
10
140.90050000000215
20
37.424999999999422
10
140.90050000000215
20
24.424999999999404
42
0.41421356237311324
10
141.40050000000215
20
23.924999999999383
10
154.40050000000235
20
23.92499999999934
42
0.41421356237310802
10
154.90050000000235
20
24.424999999999336
10
154.90050000000232
20
37.424999999999351
42
0.41421356237308204
10
154.40050000000235
20
37.924999999999372
10
141.40050000000218
20
37.924999999999415
42
0.41421356237308721
0
LWPOLYLINE
5
158
100
AcDbEntity
8
0
100
AcDbPolyline
90
8
70
1
43
0.0
10
221.86300000000332
20
37.424999999999045
10
221.86300000000332
20
24.424999999999027
42
0.41421356237313145
10
222.36300000000335
20
23.924999999999017
10
235.36300000000352
20
23.924999999998967
42
0.41421356237315748
10
235.86300000000352
20
24.42499999999896
10
235.86300000000352
20
37.424999999998974
42
0.41421356237313406
10
235.36300000000352
20
37.924999999998988
10
222.36300000000335
20
37.924999999999038
42
0.41421356237313406
0
LWPOLYLINE
5
159
100
AcDbEntity
8
0
100
AcDbPolyline
90
8
70
1
43
0.0
10
364.7380000000054
20
37.42499999999837
10
364.7380000000054
20
24.424999999998356
42
0.41421356237312884
10
365.23800000000529
20
23.92499999999842
10
378.23800000000551
20
23.924999999998295
42
0.41421356237320167
10
378.73800000000551
20
24.424999999998299
10
378.73800000000551
20
37.424999999998306
42
0.41421356237331097
10
378.23800000000551
20
37.924999999998249
10
365.23800000000534
20
37.92499999999837
42
0.41421356237312101
0
LWPOLYLINE
5
160
100
AcDbEntity
8
0
100
AcDbPolyline
90
8
70
1
43
0.0
10
326.63800000000481
20
56.474999999998573
10
326.63800000000487
20
43.474999999998552
42
0.41421356237320428
10
327.13800000000481
20
42.974999999998559
10
340.13800000000504
20
42.974999999998495
42
0.41421356237325113
10
340.63800000000504
20
43.474999999998488
10
340.63800000000492
20
56.474999999998502
42
0.41421356237320428
10
340.13800000000492
20
56.974999999998495
10
327.13800000000475
20
56.974999999998566
42
0.41421356237318346
0
LWPOLYLINE
5
161
100
AcDbEntity
8
0
100
AcDbPolyline
90
8
70
1
43
0.0
10
283.77550000000423
20
56.474999999998772
10
283.77550000000423
20
43.474999999998758
42
0.41421356237316265
10
284.27550000000429
20
42.974999999998744
10
297.2755000000044
20
42.974999999998701
42
0.41421356237316265
10
297.7755000000044
20
43.474999999998694
10
297.7755000000044
20
56.474999999998701
42
0.41421356237316265
10
297.2755000000044
20
56.974999999998708
10
284.27550000000423
20
56.974999999998765
42
0.41421356237313145
0
LWPOLYLINE
5
162
100
AcDbEntity
8
0
100
AcDbPolyline
90
8
70
1
43
0.0
10
202.81300000000303
20
56.474999999999149
10
202.81300000000303
20
43.474999999999127
42
0.41421356237313145
10
203.31300000000306
20
42.974999999999135
10
216.31300000000323
20
42.974999999999078
42
0.41421356237313145
10
216.81300000000323
20
43.474999999999071
10
216.81300000000323
20
56.474999999999078
42
0.41421356237313667
10
216.31300000000323
20
56.974999999999085
10
203.31300000000306
20
56.974999999999142
42
0.41421356237316265
0
LWPOLYLINE
5
163
100
AcDbEntity
8
0
100
AcDbPolyline
90
8
70
1
43
0.0
10
121.85050000000192
20
56.474999999999525
10
121.85050000000192
20
43.474999999999511
42
0.41421356237314705
10
122.35050000000193
20
42.97499999999949
10
135.35050000000209
20
42.974999999999454
42
0.414213562373069
10
135.85050000000211
20
43.474999999999454
10
135.85050000000211
20
56.474999999999454
42
0.41421356237312623
10
135.35050000000209
20
56.974999999999476
10
122.35050000000193
20
56.974999999999518
42
0.41421356237310542
0
LWPOLYLINE
5
164
100
AcDbEntity
8
0
100
AcDbPolyline
90
8
70
1
43
0.0
10
40.888000000000758
20
56.474999999999902
10
40.888000000000737
20
43.474999999999895
42
0.41421356237309503
10
41.388000000000716
20
42.974999999999888
10
54.388000000000929
20
42.974999999999824
42
0.41421356237310542
10
54.888000000000936
20
43.474999999999824
10
54.888000000000943
20
56.474999999999838
42
0.41421356237309503
10
54.388000000000957
20
56.974999999999845
10
41.388000000000751
20
56.974999999999902
42
0.41421356237309503
0
LWPOLYLINE
5
165
100
AcDbEntity
8
0
100
AcDbPolyline
90
8
70
1
43
0.0
10
59.938000000001026
20
56.47499999999981
10
59.938000000001011
20
43.47499999999981
42
0.41421356237308982
10
60.438000000001004
20
42.97499999999981
10
73.43800000000121
20
42.974999999999739
42
0.41421356237309503
10
73.93800000000121
20
43.474999999999739
10
73.938000000001239
20
56.474999999999753
42
0.41421356237309503
10
73.438000000001239
20
56.974999999999753
10
60.438000000001033
20
56.97499999999981
42
0.41421356237310025
0
LWPOLYLINE
5
166
100
AcDbEntity
8
0
100
AcDbPolyline
90
8
70
1
43
0.0
10
140.90050000000218
20
56.474999999999433
10
140.90050000000218
20
43.474999999999426
42
0.41421356237307944
10
141.40050000000215
20
42.974999999999412
10
154.40050000000235
20
42.974999999999362
42
0.41421356237311585
10
154.90050000000235
20
43.474999999999355
10
154.90050000000235
20
56.474999999999369
42
0.41421356237312623
10
154.40050000000238
20
56.974999999999397
10
141.40050000000218
20
56.974999999999426
42
0.41421356237311063
0
LWPOLYLINE
5
167
100
AcDbEntity
8
0
100
AcDbPolyline
90
8
70
1
43
0.0
10
235.36300000000352
20
56.974999999998992
10
222.36300000000335
20
56.974999999999056
42
0.41421356237313667
10
221.86300000000332
20
56.474999999999049
10
221.86300000000332
20
43.474999999999042
42
0.41421356237313667
10
222.36300000000335
20
42.974999999999035
10
235.36300000000352
20
42.974999999998985
42
0.41421356237316265
10
235.86300000000352
20
43.474999999998978
10
235.86300000000352
20
56.474999999999
42
0.41421356237313145
0
LWPOLYLINE
5
168
100
AcDbEntity
8
0
100
AcDbPolyline
90
8
70
1
43
0.0
10
302.82550000000447
20
56.474999999998673
10
302.82550000000447
20
43.474999999998673
42
0.41421356237313667
10
303.32550000000447
20
42.974999999998658
10
316.32550000000458
20
42.974999999998609
42
0.41421356237313667
10
316.82550000000458
20
43.474999999998609
10
316.82550000000458
20
56.474999999998616
42
0.41421356237309503
10
316.32550000000458
20
56.974999999998595
10
303.32550000000447
20
56.974999999998673
42
0.41421356237318346
0
LWPOLYLINE
5
169
100
AcDbEntity
8
0
100
AcDbPolyline
90
8
70
1
43
0.0
10
345.6880000000051
20
37.424999999998462
10
345.6880000000051
20
24.424999999998448
42
0.41421356237313145
10
346.18800000000499
20
23.924999999998509
10
359.18800000000522
20
23.924999999998388
42
0.41421356237320428
10
359.68800000000522
20
24.424999999998388
10
359.68800000000522
20
37.424999999998398
42
0.41421356237331097
10
359.18800000000522
20
37.924999999998342
10
346.18800000000505
20
37.924999999998462
42
0.41421356237302481
0
LWPOLYLINE
5
170
100
AcDbEntity
8
0
100
AcDbPolyline
90
8
70
1
43
0.0
10
326.63800000000481
20
37.424999999998555
10
326.63800000000481
20
24.424999999998537
42
0.41421356237318868
10
327.13800000000475
20
23.924999999998594
10
340.13800000000492
20
23.924999999998473
42
0.41421356237320428
10
340.63800000000492
20
24.424999999998469
10
340.63800000000492
20
37.424999999998491
42
0.41421356237319129
10
340.13800000000504
20
37.92499999999842
10
327.13800000000475
20
37.924999999998548
42
0.41421356237311585
0
LWPOLYLINE
5
171
100
AcDbEntity
8
0
100
AcDbPolyline
90
8
70
1
43
0.0
10
202.81300000000303
20
37.42499999999913
10
202.81300000000303
20
24.424999999999116
42
0.41421356237313406
10
203.31300000000306
20
23.924999999999109
10
216.31300000000323
20
23.924999999999056
42
0.41421356237313145
10
216.81300000000323
20
24.424999999999052
10
216.81300000000323
20
37.424999999999066
42
0.41421356237313406
10
216.31300000000323
20
37.924999999999073
10
203.31300000000306
20
37.92499999999913
42
0.41421356237313145
0
LWPOLYLINE
5
172
100
AcDbEntity
8
0
100
AcDbPolyline
90
8
70
1
43
0.0
10
135.85050000000211
20
24.424999999999429
10
135.85050000000211
20
37.424999999999443
42
0.41421356237315488
10
135.35050000000206
20
37.924999999999464
10
122.35050000000192
20
37.924999999999507
42
0.41421356237313145
10
121.8505000000019
20
37.424999999999507
10
121.8505000000019
20
24.424999999999493
42
0.41421356237310802
10
122.35050000000193
20
23.924999999999478
10
135.35050000000209
20
23.924999999999432
42
0.41421356237307161
0
LWPOLYLINE
5
173
100
AcDbEntity
8
0
100
AcDbPolyline
90
8
70
1
43
0.0
10
40.888000000000737
20
37.424999999999883
10
40.888000000000737
20
24.424999999999869
42
0.41421356237309243
10
41.388000000000716
20
23.924999999999873
10
54.388000000000929
20
23.924999999999809
42
0.41421356237308982
10
54.888000000000936
20
24.424999999999805
10
54.888000000000936
20
37.42499999999982
42
0.41421356237308204
10
54.388000000000943
20
37.92499999999982
10
41.388000000000744
20
37.924999999999883
42
0.41421356237311846
0
LWPOLYLINE
5
174
100
AcDbEntity
8
0
100
AcDbPolyline
90
8
70
1
43
0.0
10
26.313000000000514
20
-4.1500000000000812
10
26.313000000000521
20
8.8499999999999286
42
0.41421356237310347
10
25.813000000000518
20
9.3499999999999286
10
12.813000000000327
20
9.3499999999999854
42
0.4142135623731048
10
12.31300000000032
20
8.8499999999999908
10
12.313000000000303
20
-4.1500000000000181
42
0.41421356237312462
10
12.813000000000354
20
-4.6500000000000341
10
25.813000000000503
20
-4.650000000000075
42
0.4142135623730947
0
LWPOLYLINE
5
175
100
AcDbEntity
8
0
100
AcDbPolyline
90
8
70
1
43
0.0
10
36.125500000000621
20
-48.300000000000182
10
36.125500000000628
20
-61.300000000000182
42
0.41421356237308982
10
36.625500000000606
20
-61.800000000000196
10
49.625500000000827
20
-61.800000000000246
42
0.41421356237311585
10
50.125500000000841
20
-61.300000000000232
10
50.125500000000834
20
-48.300000000000232
42
0.41421356237309503
10
49.625500000000848
20
-47.800000000000225
10
36.625500000000642
20
-47.800000000000168
42
0.41421356237310542
0
LWPOLYLINE
5
176
100
AcDbEntity
8
0
100
AcDbPolyline
90
8
70
1
43
0.0
10
43.269250000000731
20
-67.350000000000222
10
43.269250000000739
20
-80.350000000000236
42
0.4142135623730534
10
43.769250000000753
20
-80.850000000000236
10
56.76925000000093
20
-80.850000000000293
42
0.41421356237312101
10
57.269250000000952
20
-80.350000000000279
10
57.269250000000937
20
-67.350000000000279
42
0.41421356237311585
10
56.769250000000909
20
-66.850000000000279
10
43.769250000000746
20
-66.850000000000207
42
0.41421356237311063
0
LWPOLYLINE
5
177
100
AcDbEntity
8
0
100
AcDbPolyline
90
8
70
1
43
0.0
10
183.76300000000271
20
-67.350000000000875
10
183.76300000000273
20
-80.35000000000089
42
0.41421356237315748
10
184.26300000000279
20
-80.850000000000904
10
197.26300000000296
20
-80.850000000000946
42
0.41421356237314705
10
197.76300000000299
20
-80.350000000000946
10
197.76300000000299
20
-67.350000000000932
42
0.41421356237319906
10
197.26300000000293
20
-66.850000000000932
10
184.26300000000276
20
-66.850000000000875
42
0.41421356237311063
0
LWPOLYLINE
5
178
100
AcDbEntity
8
0
100
AcDbPolyline
90
8
70
1
43
0.0
10
231.38800000000344
20
-10.200000000001047
10
231.38800000000342
20
-23.200000000001076
42
0.41421356237316009
10
231.88800000000344
20
-23.700000000001083
10
244.88800000000364
20
-23.700000000001143
42
0.41421356237313667
10
245.38800000000367
20
-23.200000000001136
10
245.38800000000367
20
-10.200000000001122
42
0.41421356237316137
10
244.88800000000364
20
-9.7000000000011095
10
231.88800000000344
20
-9.7000000000010544
42
0.41421356237314055
0
LWPOLYLINE
5
179
100
AcDbEntity
8
0
100
AcDbPolyline
90
8
70
1
43
0.0
10
221.86300000000332
20
8.849999999999012
10
221.8630000000033
20
-4.1500000000009969
42
0.41421356237314055
10
222.3630000000033
20
-4.6500000000009898
10
235.3630000000035
20
-4.6500000000010537
42
0.41421356237313928
10
235.8630000000035
20
-4.1500000000010591
10
235.86300000000352
20
8.8499999999989498
42
0.41421356237313472
10
235.36300000000352
20
9.3499999999989623
10
222.36300000000335
20
9.3499999999990067
42
0.41421356237313472
0
LWPOLYLINE
5
180
100
AcDbEntity
8
0
100
AcDbPolyline
90
8
70
1
43
0.0
10
183.76300000000276
20
8.8499999999991967
10
183.76300000000273
20
-4.1500000000008139
42
0.41421356237316237
10
184.26300000000279
20
-4.6500000000008255
10
197.26300000000296
20
-4.6500000000008797
42
0.41421356237313894
10
197.76300000000299
20
-4.150000000000885
10
197.76300000000302
20
8.8499999999991239
42
0.41421356237316265
10
197.26300000000296
20
9.3499999999991363
10
184.26300000000279
20
9.3499999999991896
42
0.41421356237313861
0
LWPOLYLINE
5
181
100
AcDbEntity
8
0
100
AcDbPolyline
90
8
70
1
43
0.0
10
145.66300000000223
20
8.849999999999369
10
145.66300000000223
20
-4.1500000000006398
42
0.41421356237312851
10
146.16300000000226
20
-4.6500000000006425
10
159.1630000000024
20
-4.6500000000006967
42
0.41421356237308626
10
159.6630000000024
20
-4.1500000000007029
10
159.66300000000243
20
8.8499999999993069
42
0.41421356237312817
10
159.1630000000024
20
9.3499999999993104
10
146.16300000000223
20
9.3499999999993637
42
0.41421356237310802
0
LWPOLYLINE
5
182
100
AcDbEntity
8
0
100
AcDbPolyline
90
8
70
1
43
0.0
10
107.56300000000168
20
8.8499999999995431
10
107.56300000000168
20
-4.1500000000004658
42
0.41421356237313728
10
108.06300000000169
20
-4.6500000000004684
10
121.06300000000184
20
-4.6500000000005235
42
0.41421356237308626
10
121.56300000000185
20
-4.1500000000005288
10
121.56300000000185
20
8.8499999999994809
42
0.41421356237313794
10
121.06300000000184
20
9.3499999999994845
10
108.06300000000169
20
9.3499999999995378
42
0.41421356237307161
0
LWPOLYLINE
5
183
100
AcDbEntity
8
0
100
AcDbPolyline
90
8
70
1
43
0.0
10
69.463000000001131
20
8.8499999999997261
10
69.463000000001131
20
-4.1500000000002837
42
0.4142135623730947
10
69.963000000001131
20
-4.6500000000002819
10
82.963000000001315
20
-4.6500000000003494
42
0.41421356237308626
10
83.46300000000133
20
-4.1500000000003556
10
83.46300000000133
20
8.8499999999996533
42
0.41421356237313794
10
82.963000000001315
20
9.3499999999996568
10
69.963000000001145
20
9.349999999999719
42
0.4142135623730957
0
LWPOLYLINE
5
184
100
AcDbEntity
8
0
100
AcDbPolyline
90
8
70
1
43
0.0
10
40.888000000000716
20
-10.200000000000163
10
40.888000000000716
20
-23.20000000000018
42
0.41421356237307944
10
41.388000000000687
20
-23.70000000000018
10
54.388000000000901
20
-23.700000000000244
42
0.41421356237311846
10
54.888000000000929
20
-23.200000000000244
10
54.888000000000915
20
-10.200000000000225
42
0.41421356237307944
10
54.388000000000929
20
-9.7000000000002231
10
41.38800000000073
20
-9.700000000000168
42
0.41421356237308854
0
LWPOLYLINE
5
185
100
AcDbEntity
8
0
100
AcDbPolyline
90
8
70
1
43
0.0
10
83.750500000001352
20
-29.250000000000369
10
83.750500000001324
20
-42.250000000000398
42
0.41421356237312623
10
84.250500000001338
20
-42.750000000000412
10
97.250500000001523
20
-42.750000000000455
42
0.41421356237311585
10
97.750500000001523
20
-42.250000000000448
10
97.750500000001523
20
-29.25000000000043
42
0.41421356237309243
10
97.250500000001537
20
-28.750000000000412
10
84.250500000001338
20
-28.750000000000362
42
0.41421356237311324
0
LWPOLYLINE
5
186
100
AcDbEntity
8
0
100
AcDbPolyline
90
8
70
1
43
0.0
10
131.37550000000201
20
-48.300000000000622
10
131.37550000000198
20
-61.30000000000063
42
0.41421356237313667
10
131.87550000000198
20
-61.800000000000644
10
144.87550000000218
20
-61.800000000000701
42
0.41421356237313667
10
145.37550000000218
20
-61.300000000000679
10
145.37550000000218
20
-48.300000000000686
42
0.41421356237310542
10
144.87550000000221
20
-47.800000000000665
10
131.87550000000198
20
-47.800000000000615
42
0.41421356237314705
0
LWPOLYLINE
5
187
100
AcDbEntity
8
0
100
AcDbPolyline
90
8
70
1
43
0.0
10
169.47550000000257
20
-48.300000000000793
10
169.4755000000026
20
-61.3000000000008
42
0.41421356237310025
10
169.97550000000257
20
-61.800000000000807
10
182.97550000000274
20
-61.800000000000878
42
0.41421356237316265
10
183.4755000000028
20
-61.300000000000864
10
183.47550000000274
20
-48.300000000000864
42
0.41421356237314705
10
182.97550000000274
20
-47.800000000000857
10
169.97550000000257
20
-47.800000000000786
42
0.41421356237314705
0
LWPOLYLINE
5
188
100
AcDbEntity
8
0
100
AcDbPolyline
90
8
70
1
43
0.0
10
221.07550000000327
20
-47.80000000000102
10
208.07550000000307
20
-47.800000000000963
42
0.41421356237314183
10
207.57550000000307
20
-48.300000000000978
10
207.5755000000031
20
-61.300000000000978
42
0.41421356237310025
10
208.07550000000307
20
-61.800000000000985
10
221.07550000000327
20
-61.800000000001049
42
0.41421356237316265
10
221.5755000000033
20
-61.300000000001027
10
221.57550000000327
20
-48.300000000001035
42
0.41421356237314705
0
LWPOLYLINE
5
189
100
AcDbEntity
8
0
100
AcDbPolyline
90
8
70
1
43
0.0
10
264.72550000000399
20
-53.062500000001258
10
264.72550000000393
20
-66.062500000001251
42
0.41421356237313145
10
265.22550000000393
20
-66.562500000001236
10
278.2255000000041
20
-66.562500000001336
42
0.41421356237313667
10
278.7255000000041
20
-66.062500000001336
10
278.7255000000041
20
-53.062500000001336
42
0.41421356237315748
10
278.2255000000041
20
-52.56250000000135
10
265.22550000000399
20
-52.562500000001251
42
0.41421356237314705
0
LWPOLYLINE
5
190
100
AcDbEntity
8
0
100
AcDbPolyline
90
8
70
1
43
0.0
10
283.77550000000423
20
8.8499999999987278
10
283.77550000000417
20
-4.150000000001282
42
0.41421356237311224
10
284.27550000000423
20
-4.6500000000012758
10
297.2755000000044
20
-4.6500000000013486
42
0.41421356237313894
10
297.7755000000044
20
-4.1500000000013539
10
297.7755000000044
20
8.8499999999986549
42
0.41421356237316265
10
297.2755000000044
20
9.3499999999986692
10
284.27550000000423
20
9.3499999999987207
42
0.41421356237313339
0
LWPOLYLINE
5
191
100
AcDbEntity
8
0
100
AcDbPolyline
90
8
70
1
43
0.0
10
378.73800000000557
20
-4.1500000000017314
10
378.73800000000557
20
8.8499999999982784
42
0.41421356237318741
10
378.23800000000563
20
9.349999999998218
10
365.2380000000054
20
9.3499999999983441
42
0.41421356237320234
10
364.73800000000546
20
8.8499999999983494
10
364.73800000000546
20
-4.1500000000016595
42
0.4142135623731929
10
365.23800000000534
20
-4.6500000000015982
10
378.23800000000563
20
-4.6500000000017252
42
0.41421356237311879
0
LWPOLYLINE
5
192
100
AcDbEntity
8
0
100
AcDbPolyline
90
8
70
1
43
0.0
10
359.18800000000533
20
-28.750000000001712
10
346.18800000000505
20
-28.750000000001592
42
0.41421356237302481
10
345.68800000000499
20
-29.250000000001602
10
345.6880000000051
20
-42.25000000000162
42
0.4142135623732251
10
346.18800000000505
20
-42.750000000001549
10
359.18800000000522
20
-42.750000000001684
42
0.41421356237313145
10
359.68800000000527
20
-42.250000000001663
10
359.68800000000522
20
-29.250000000001656
42
0.4142135623731939
0
LWPOLYLINE
5
193
100
AcDbEntity
8
0
100
AcDbPolyline
90
8
70
1
43
0.0
10
307.58800000000451
20
-29.25000000000141
10
307.58800000000451
20
-42.250000000001435
42
0.41421356237315748
10
308.08800000000457
20
-42.750000000001442
10
321.08800000000474
20
-42.750000000001506
42
0.41421356237325113
10
321.58800000000474
20
-42.250000000001492
10
321.58800000000468
20
-29.250000000001471
42
0.41421356237311585
10
321.08800000000474
20
-28.75000000000146
10
308.08800000000451
20
-28.750000000001403
42
0.41421356237310802
0
LWPOLYLINE
5
194
100
AcDbEntity
8
0
100
AcDbPolyline
90
8
70
1
43
0.0
10
345.68800000000499
20
-67.350000000001643
10
345.6880000000051
20
-80.350000000001643
42
0.4142135623731783
10
346.18800000000499
20
-80.850000000001572
10
359.18800000000522
20
-80.850000000001714
42
0.41421356237312623
10
359.68800000000527
20
-80.3500000000017
10
359.68800000000522
20
-67.350000000001685
42
0.41421356237330836
10
359.18800000000522
20
-66.850000000001756
10
346.18800000000505
20
-66.850000000001629
42
0.4142135623730222
0
LWPOLYLINE
5
195
100
AcDbEntity
8
0
100
AcDbPolyline
90
8
70
1
43
0.0
10
326.63800000000469
20
-48.300000000001518
10
326.63800000000481
20
-61.300000000001525
42
0.41421356237312101
10
327.13800000000475
20
-61.800000000001525
10
340.13800000000492
20
-61.800000000001617
42
0.41421356237323553
10
340.63800000000498
20
-61.300000000001596
10
340.63800000000492
20
-48.300000000001603
42
0.41421356237320428
10
340.13800000000492
20
-47.800000000001603
10
327.13800000000475
20
-47.800000000001511
42
0.41421356237324591
0
LWPOLYLINE
5
196
100
AcDbEntity
8
0
100
AcDbPolyline
90
8
70
1
43
0.0
10
326.63800000000481
20
-10.200000000001497
10
326.63800000000487
20
-23.200000000001502
42
0.41421356237319906
10
327.13800000000481
20
-23.700000000001516
10
340.13800000000504
20
-23.700000000001591
42
0.41421356237325374
10
340.63800000000504
20
-23.200000000001573
10
340.63800000000492
20
-10.200000000001559
42
0.41421356237320428
10
340.13800000000492
20
-9.7000000000015483
10
327.13800000000475
20
-9.7000000000015021
42
0.41421356237318219
0
LWPOLYLINE
5
197
100
AcDbEntity
8
0
100
AcDbPolyline
90
8
70
1
43
0.0
10
326.63800000000487
20
8.8499999999985235
10
326.63800000000487
20
-4.1500000000014854
42
0.4142135623731929
10
327.13800000000475
20
-4.6500000000014241
10
340.13800000000504
20
-4.6500000000015431
42
0.41421356237311879
10
340.63800000000498
20
-4.1500000000015476
10
340.63800000000498
20
8.8499999999984613
42
0.41421356237318674
10
340.13800000000504
20
9.3499999999983991
10
327.13800000000481
20
9.3499999999985164
42
0.41421356237320234
0
LWPOLYLINE
5
198
100
AcDbEntity
8
0
100
AcDbPolyline
90
8
70
1
43
0.0
10
283.77550000000417
20
-29.250000000001307
10
283.77550000000417
20
-42.250000000001329
42
0.41421356237314183
10
284.27550000000417
20
-42.750000000001329
10
297.2755000000044
20
-42.7500000000014
42
0.41421356237314183
10
297.7755000000044
20
-42.250000000001378
10
297.7755000000044
20
-29.250000000001364
42
0.41421356237320167
10
297.27550000000434
20
-28.750000000001357
10
284.27550000000417
20
-28.7500000000013
42
0.41421356237314444
0
LWPOLYLINE
5
199
100
AcDbEntity
8
0
100
AcDbPolyline
90
8
70
1
43
0.0
10
245.67550000000364
20
-72.112500000001205
10
245.67550000000364
20
-85.112500000001191
42
0.41421356237313667
10
246.17550000000364
20
-85.612500000001205
10
259.17550000000381
20
-85.612500000001262
42
0.41421356237311585
10
259.67550000000381
20
-85.112500000001262
10
259.67550000000381
20
-72.112500000001262
42
0.41421356237313667
10
259.17550000000381
20
-71.612500000001262
10
246.17550000000364
20
-71.612500000001205
42
0.41421356237313667
0
LWPOLYLINE
5
200
100
AcDbEntity
8
0
100
AcDbPolyline
90
8
70
1
43
0.0
10
202.52550000000309
20
-61.300000000000949
10
202.52550000000301
20
-48.300000000000949
42
0.41421356237312623
10
202.02550000000301
20
-47.800000000000949
10
189.02550000000278
20
-47.800000000000878
42
0.41421356237314183
10
188.52550000000278
20
-48.3000000000009
10
188.52550000000281
20
-61.300000000000892
42
0.41421356237313667
10
189.02550000000281
20
-61.800000000000907
10
202.02550000000301
20
-61.800000000000956
42
0.41421356237319906
0
LWPOLYLINE
5
201
100
AcDbEntity
8
0
100
AcDbPolyline
90
8
70
1
43
0.0
10
150.42550000000227
20
-48.300000000000701
10
150.42550000000227
20
-61.300000000000708
42
0.41421356237314705
10
150.92550000000227
20
-61.800000000000736
10
163.92550000000244
20
-61.800000000000779
42
0.41421356237316265
10
164.4255000000025
20
-61.300000000000765
10
164.42550000000244
20
-48.300000000000765
42
0.41421356237314705
10
163.92550000000244
20
-47.800000000000757
10
150.92550000000227
20
-47.800000000000708
42
0.41421356237311063
0
LWPOLYLINE
5
202
100
AcDbEntity
8
0
100
AcDbPolyline
90
8
70
1
43
0.0
10
112.32550000000174
20
-48.300000000000523
10
112.32550000000174
20
-61.30000000000053
42
0.41421356237308982
10
112.82550000000172
20
-61.800000000000551
10
125.82550000000191
20
-61.800000000000608
42
0.41421356237314183
10
126.32550000000192
20
-61.300000000000601
10
126.32550000000192
20
-48.300000000000608
42
0.41421356237313667
10
125.8255000000019
20
-47.80000000000058
10
112.82550000000174
20
-47.800000000000516
42
0.41421356237311585
0
LWPOLYLINE
5
203
100
AcDbEntity
8
0
100
AcDbPolyline
90
8
70
1
43
0.0
10
87.725500000001375
20
-47.800000000000402
10
74.725500000001176
20
-47.800000000000352
42
0.41421356237313667
10
74.225500000001148
20
-48.300000000000367
10
74.225500000001162
20
-61.300000000000367
42
0.41421356237311585
10
74.725500000001176
20
-61.80000000000036
10
87.725500000001375
20
-61.800000000000431
42
0.41421356237311585
10
88.225500000001361
20
-61.300000000000416
10
88.225500000001375
20
-48.300000000000416
42
0.41421356237312623
0
LWPOLYLINE
5
204
100
AcDbEntity
8
0
100
AcDbPolyline
90
8
70
1
43
0.0
10
63.913000000001063
20
9.3499999999997456
10
50.913000000000878
20
9.3499999999998114
42
0.41421356237310802
10
50.413000000000856
20
8.8499999999998185
10
50.413000000000856
20
-4.1500000000001922
42
0.41421356237309015
10
50.913000000000849
20
-4.6500000000001904
10
63.913000000001048
20
-4.6500000000002579
42
0.41421356237308887
10
64.413000000001063
20
-4.1500000000002633
10
64.413000000001063
20
8.8499999999997456
42
0.41421356237309825
0
LWPOLYLINE
5
205
100
AcDbEntity
8
0
100
AcDbPolyline
90
8
70
1
43
0.0
10
88.513000000001398
20
8.8499999999996355
10
88.513000000001398
20
-4.1500000000003743
42
0.41421356237313728
10
89.013000000001412
20
-4.6500000000003769
10
102.0130000000016
20
-4.650000000000432
42
0.4142135623731022
10
102.5130000000016
20
-4.1500000000004373
10
102.5130000000016
20
8.8499999999995715
42
0.41421356237313794
10
102.0130000000016
20
9.3499999999995751
10
89.013000000001412
20
9.3499999999996284
42
0.41421356237310736
0
LWPOLYLINE
5
206
100
AcDbEntity
8
0
100
AcDbPolyline
90
8
70
1
43
0.0
10
136.13800000000211
20
-10.200000000000609
10
136.13800000000208
20
-23.200000000000628
42
0.41421356237311063
10
136.63800000000211
20
-23.700000000000646
10
149.63800000000225
20
-23.700000000000692
42
0.41421356237311324
10
150.13800000000228
20
-23.200000000000685
10
150.13800000000228
20
-10.200000000000673
42
0.41421356237313794
10
149.63800000000228
20
-9.7000000000006708
10
136.63800000000211
20
-9.7000000000006139
42
0.41421356237310675
0
LWPOLYLINE
5
207
100
AcDbEntity
8
0
100
AcDbPolyline
90
8
70
1
43
0.0
10
164.71300000000252
20
8.8499999999992784
10
164.71300000000247
20
-4.1500000000007313
42
0.41421356237314022
10
165.21300000000249
20
-4.6500000000007251
10
178.21300000000264
20
-4.6500000000007882
42
0.41421356237313373
10
178.71300000000264
20
-4.1500000000007944
10
178.71300000000269
20
8.8499999999992145
42
0.41421356237313989
10
178.21300000000267
20
9.3499999999992092
10
165.21300000000252
20
9.3499999999992731
42
0.41421356237313472
0
LWPOLYLINE
5
208
100
AcDbEntity
8
0
100
AcDbPolyline
90
8
70
1
43
0.0
10
202.81300000000303
20
8.8499999999991044
10
202.813000000003
20
-4.1500000000009054
42
0.41421356237314055
10
203.313000000003
20
-4.6500000000008992
10
216.3130000000032
20
-4.6500000000009711
42
0.41421356237313828
10
216.8130000000032
20
-4.1500000000009774
10
216.81300000000323
20
8.8499999999990315
42
0.41421356237313472
10
216.31300000000323
20
9.349999999999044
10
203.31300000000306
20
9.3499999999990973
42
0.41421356237313406
0
LWPOLYLINE
5
209
100
AcDbEntity
8
0
100
AcDbPolyline
90
8
70
1
43
0.0
10
221.8630000000033
20
-67.350000000001046
10
221.8630000000033
20
-80.350000000001046
42
0.41421356237309503
10
222.36300000000327
20
-80.850000000001074
10
235.3630000000035
20
-80.850000000001131
42
0.41421356237314705
10
235.8630000000035
20
-80.350000000001117
10
235.8630000000035
20
-67.350000000001117
42
0.41421356237314705
10
235.3630000000035
20
-66.850000000001117
10
222.3630000000033
20
-66.850000000001032
42
0.41421356237314705
0
LWPOLYLINE
5
210
100
AcDbEntity
8
0
100
AcDbPolyline
90
8
70
1
43
0.0
10
114.70675000000178
20
-67.350000000000549
10
114.70675000000173
20
-80.350000000000549
42
0.41421356237313667
10
115.20675000000175
20
-80.850000000000563
10
128.20675000000193
20
-80.850000000000634
42
0.41421356237313667
10
128.70675000000193
20
-80.35000000000062
10
128.70675000000196
20
-67.35000000000062
42
0.41421356237310542
10
128.20675000000196
20
-66.850000000000605
10
115.20675000000176
20
-66.850000000000534
42
0.41421356237314705
0
LWPOLYLINE
5
211
100
AcDbEntity
8
0
100
AcDbPolyline
90
8
70
1
43
0.0
10
45.650500000000783
20
-29.250000000000188
10
45.650500000000783
20
-42.250000000000213
42
0.4142135623730846
10
46.150500000000754
20
-42.750000000000213
10
59.15050000000096
20
-42.750000000000277
42
0.41421356237313145
10
59.650500000000982
20
-42.250000000000263
10
59.650500000000974
20
-29.250000000000249
42
0.41421356237310802
10
59.150500000000967
20
-28.750000000000249
10
46.150500000000804
20
-28.750000000000181
42
0.41421356237312101
0
LWPOLYLINE
5
212
100
AcDbEntity
8
0
100
AcDbPolyline
90
8
70
1
43
0.0
10
-4.3557499999999481
20
-67.349999999999994
10
-4.3557499999999489
20
-80.349999999999994
42
0.41421356237308493
10
-3.8557499999999543
20
-80.850000000000009
10
9.1442500000002429
20
-80.850000000000065
42
0.41421356237312429
10
9.6442500000002553
20
-80.350000000000051
10
9.6442500000002571
20
-67.350000000000051
42
0.41421356237309243
10
9.1442500000002767
20
-66.850000000000051
10
-3.8557499999999338
20
-66.849999999999994
42
0.41421356237310508
0
LWPOLYLINE
5
213
100
AcDbEntity
8
0
100
AcDbPolyline
90
8
70
1
43
0.0
10
-3.8557499999999645
20
-42.750000000000014
10
13.90675000000032
20
-42.750000000000064
42
0.41421356237311585
10
14.406750000000336
20
-42.25000000000005
10
14.406750000000335
20
-29.250000000000028
42
0.41421356237308982
10
13.906750000000361
20
-28.750000000000036
10
-3.8557499999999623
20
-28.75
42
0.4142135623731048
10
-4.3557499999999756
20
-29.250000000000007
10
-4.355749999999972
20
-42.250000000000014
42
0.4142135623731204
0
LWPOLYLINE
5
214
100
AcDbEntity
8
0
100
AcDbPolyline
90
8
70
1
43
0.0
10
-6.7369999999999495
20
8.8500000000000831
10
-6.7369999999999575
20
-4.1499999999999293
42
0.41421356237311713
10
-6.2369999999999282
20
-4.6499999999999293
10
6.7630000000002344
20
-4.6499999999999932
42
0.41421356237310281
10
7.2630000000002415
20
-4.1499999999999986
10
7.2630000000002495
20
8.8500000000000139
42
0.41421356237310997
10
6.7630000000002299
20
9.3500000000000139
10
-6.2369999999999433
20
9.350000000000076
42
0.41421356237310281
0
LWPOLYLINE
5
215
100
AcDbEntity
8
0
100
AcDbPolyline
90
8
70
1
43
0.0
10
78.988000000001279
20
37.424999999999706
10
78.988000000001264
20
24.424999999999692
42
0.41421356237310802
10
79.488000000001279
20
23.924999999999681
10
92.488000000001463
20
23.924999999999631
42
0.41421356237307161
10
92.988000000001477
20
24.424999999999631
10
92.988000000001477
20
37.424999999999642
42
0.41421356237312362
10
92.488000000001463
20
37.924999999999663
10
79.488000000001279
20
37.924999999999699
42
0.41421356237308982
0
LWPOLYLINE
5
216
100
AcDbEntity
8
0
100
AcDbPolyline
90
8
70
1
43
0.0
10
159.95050000000245
20
37.424999999999329
10
159.95050000000245
20
24.424999999999315
42
0.41421356237313406
10
160.45050000000245
20
23.924999999999308
10
173.45050000000265
20
23.924999999999255
42
0.41421356237313667
10
173.95050000000265
20
24.424999999999251
10
173.95050000000265
20
37.424999999999265
42
0.41421356237313145
10
173.45050000000265
20
37.924999999999272
10
160.45050000000245
20
37.924999999999329
42
0.41421356237317569
0
LWPOLYLINE
5
217
100
AcDbEntity
8
0
100
AcDbPolyline
90
8
70
1
43
0.0
10
240.91300000000359
20
37.424999999998953
10
240.91300000000359
20
24.424999999998938
42
0.41421356237313928
10
241.41300000000359
20
23.924999999998949
10
254.41300000000379
20
23.924999999998878
42
0.41421356237313928
10
254.91300000000379
20
24.424999999998875
10
254.91300000000379
20
37.424999999998889
42
0.41421356237314183
10
254.41300000000379
20
37.924999999998882
10
241.41300000000359
20
37.924999999998953
42
0.41421356237313928
0
LWPOLYLINE
5
218
100
AcDbEntity
8
0
100
AcDbPolyline
90
8
70
1
43
0.0
10
364.7380000000054
20
56.474999999998388
10
364.73800000000546
20
43.474999999998374
42
0.41421356237320428
10
365.2380000000054
20
42.974999999998374
10
378.23800000000563
20
42.974999999998317
42
0.41421356237325113
10
378.73800000000563
20
43.474999999998317
10
378.73800000000551
20
56.474999999998317
42
0.41421356237319906
10
378.23800000000551
20
56.974999999998332
10
365.23800000000534
20
56.974999999998388
42
0.41421356237318346
0
LWPOLYLINE
5
219
100
AcDbEntity
8
0
100
AcDbPolyline
90
8
70
1
43
0.0
10
283.77550000000423
20
37.424999999998747
10
283.77550000000423
20
24.424999999998732
42
0.41421356237316009
10
284.27550000000429
20
23.924999999998725
10
297.2755000000044
20
23.924999999998672
42
0.41421356237313667
10
297.7755000000044
20
24.424999999998676
10
297.7755000000044
20
37.42499999999869
42
0.41421356237316009
10
297.2755000000044
20
37.924999999998697
10
284.27550000000423
20
37.924999999998747
42
0.41421356237313145
0
LWPOLYLINE
5
220
100
AcDbEntity
8
0
100
AcDbPolyline
90
8
70
1
43
0.0
10
264.72550000000399
20
56.474999999998857
10
264.72550000000399
20
43.474999999998843
42
0.41421356237315748
10
265.22550000000399
20
42.974999999998865
10
278.2255000000041
20
42.974999999998779
42
0.41421356237316265
10
278.7255000000041
20
43.474999999998786
10
278.7255000000041
20
56.474999999998793
42
0.41421356237312623
10
278.2255000000041
20
56.974999999998786
10
265.22550000000399
20
56.97499999999885
42
0.41421356237314183
0
LWPOLYLINE
5
221
100
AcDbEntity
8
0
100
AcDbPolyline
90
8
70
1
43
0.0
10
183.76300000000276
20
56.474999999999227
10
183.76300000000276
20
43.47499999999922
42
0.41421356237316787
10
184.26300000000279
20
42.974999999999227
10
197.26300000000299
20
42.97499999999917
42
0.41421356237318346
10
197.76300000000302
20
43.47499999999917
10
197.76300000000302
20
56.47499999999917
42
0.41421356237315748
10
197.26300000000296
20
56.974999999999184
10
184.26300000000279
20
56.974999999999227
42
0.41421356237314183
0
LWPOLYLINE
5
222
100
AcDbEntity
8
0
100
AcDbPolyline
90
8
70
1
43
0.0
10
116.80050000000182
20
43.47499999999954
10
116.80050000000182
20
56.474999999999547
42
0.41421356237312623
10
116.3005000000018
20
56.974999999999554
10
103.30050000000165
20
56.974999999999618
42
0.41421356237308982
10
102.80050000000166
20
56.474999999999611
10
102.80050000000165
20
43.474999999999604
42
0.41421356237312101
10
103.30050000000163
20
42.974999999999596
10
116.3005000000018
20
42.97499999999954
42
0.41421356237312101
0
LWPOLYLINE
5
223
100
AcDbEntity
8
0
100
AcDbPolyline
90
8
70
1
43
0.0
10
35.838000000000648
20
43.474999999999923
10
35.838000000000662
20
56.47499999999993
42
0.41421356237310281
10
35.338000000000669
20
56.974999999999937
10
22.338000000000484
20
56.974999999999987
42
0.41421356237310281
10
21.83800000000047
20
56.47499999999998
10
21.838000000000459
20
43.474999999999973
42
0.41421356237309503
10
22.338000000000431
20
42.974999999999966
10
35.338000000000648
20
42.974999999999923
42
0.41421356237311585
0
LWPOLYLINE
5
224
100
AcDbEntity
8
0
100
AcDbPolyline
90
8
70
1
43
0.0
10
78.988000000001307
20
56.474999999999717
10
78.988000000001279
20
43.47499999999971
42
0.41421356237311585
10
79.488000000001279
20
42.97499999999971
10
92.488000000001463
20
42.974999999999653
42
0.41421356237306384
10
92.988000000001477
20
43.474999999999653
10
92.988000000001492
20
56.47499999999966
42
0.41421356237312623
10
92.488000000001477
20
56.974999999999682
10
79.488000000001307
20
56.97499999999971
42
0.41421356237309503
0
LWPOLYLINE
5
225
100
AcDbEntity
8
0
100
AcDbPolyline
90
8
70
1
43
0.0
10
173.45050000000265
20
56.974999999999277
10
160.45050000000245
20
56.974999999999341
42
0.41421356237312623
10
159.95050000000245
20
56.474999999999341
10
159.95050000000245
20
43.474999999999334
42
0.41421356237312623
10
160.45050000000245
20
42.974999999999341
10
173.45050000000265
20
42.97499999999927
42
0.41421356237316787
10
173.95050000000265
20
43.47499999999927
10
173.95050000000265
20
56.474999999999284
42
0.41421356237313145
0
LWPOLYLINE
5
226
100
AcDbEntity
8
0
100
AcDbPolyline
90
8
70
1
43
0.0
10
240.91300000000359
20
56.474999999998971
10
240.91300000000359
20
43.474999999998964
42
0.41421356237313667
10
241.41300000000359
20
42.974999999998964
10
254.41300000000379
20
42.974999999998893
42
0.41421356237314705
10
254.91300000000379
20
43.4749999999989
10
254.91300000000379
20
56.474999999998907
42
0.41421356237316787
10
254.41300000000379
20
56.9749999999989
10
241.41300000000359
20
56.974999999998957
42
0.41421356237316265
0
LWPOLYLINE
5
227
100
AcDbEntity
8
0
100
AcDbPolyline
90
8
70
1
43
0.0
10
302.82550000000447
20
37.424999999998661
10
302.82550000000447
20
24.424999999998647
42
0.41421356237313406
10
303.32550000000447
20
23.924999999998636
10
316.32550000000458
20
23.92499999999859
42
0.41421356237313928
10
316.82550000000458
20
24.424999999998583
10
316.82550000000458
20
37.424999999998597
42
0.41421356237310025
10
316.32550000000458
20
37.924999999998583
10
303.32550000000447
20
37.924999999998661
42
0.41421356237315748
0
LWPOLYLINE
5
228
100
AcDbEntity
8
0
100
AcDbPolyline
90
8
70
1
43
0.0
10
345.6880000000051
20
56.474999999998474
10
345.68800000000516
20
43.474999999998467
42
0.41421356237320428
10
346.1880000000051
20
42.974999999998467
10
359.18800000000533
20
42.974999999998403
42
0.4142135623730846
10
359.68800000000533
20
43.47499999999841
10
359.68800000000522
20
56.474999999998417
42
0.41421356237320428
10
359.18800000000522
20
56.974999999998417
10
346.18800000000505
20
56.974999999998474
42
0.41421356237318868
0
LWPOLYLINE
5
229
100
AcDbEntity
8
0
100
AcDbPolyline
90
8
70
1
43
0.0
10
264.72550000000399
20
37.424999999998846
10
264.72550000000399
20
24.424999999998825
42
0.41421356237314183
10
265.22550000000399
20
23.924999999998832
10
278.2255000000041
20
23.924999999998768
42
0.41421356237313667
10
278.7255000000041
20
24.424999999998764
10
278.7255000000041
20
37.424999999998775
42
0.41421356237313145
10
278.2255000000041
20
37.924999999998789
10
265.22550000000399
20
37.924999999998839
42
0.41421356237313667
0
LWPOLYLINE
5
230
100
AcDbEntity
8
0
100
AcDbPolyline
90
8
70
1
43
0.0
10
183.76300000000276
20
37.424999999999223
10
183.76300000000276
20
24.424999999999205
42
0.41421356237316265
10
184.26300000000279
20
23.924999999999208
10
197.26300000000299
20
23.924999999999145
42
0.41421356237313145
10
197.76300000000302
20
24.424999999999141
10
197.76300000000302
20
37.424999999999152
42
0.41421356237316265
10
197.26300000000296
20
37.924999999999166
10
184.26300000000279
20
37.924999999999216
42
0.41421356237313928
0
LWPOLYLINE
5
231
100
AcDbEntity
8
0
100
AcDbPolyline
90
8
70
1
43
0.0
10
116.3005000000018
20
37.92499999999955
10
103.30050000000163
20
37.924999999999592
42
0.41421356237309243
10
102.80050000000162
20
37.424999999999585
10
102.80050000000162
20
24.424999999999581
42
0.41421356237312362
10
103.30050000000163
20
23.92499999999956
10
116.3005000000018
20
23.924999999999521
42
0.41421356237307161
10
116.8005000000018
20
24.424999999999521
10
116.8005000000018
20
37.424999999999528
42
0.41421356237312362
0
LWPOLYLINE
5
232
100
AcDbEntity
8
0
100
AcDbPolyline
90
8
70
1
43
0.0
10
21.838000000000463
20
37.424999999999983
10
21.838000000000463
20
24.424999999999962
42
0.41421356237307683
10
22.338000000000427
20
23.924999999999962
10
35.338000000000648
20
23.924999999999905
42
0.41421356237309503
10
35.838000000000662
20
24.424999999999898
10
35.838000000000662
20
37.424999999999912
42
0.41421356237309764
10
35.338000000000662
20
37.924999999999912
10
22.338000000000477
20
37.924999999999976
42
0.41421356237309243
0
LWPOLYLINE
5
233
100
AcDbEntity
8
0
100
AcDbPolyline
90
8
70
1
43
0.0
10
-1.9744999999998882
20
-10.199999999999958
10
-1.9744999999998945
20
-23.199999999999982
42
0.41421356237312396
10
-1.4744999999998609
20
-23.699999999999989
10
11.525500000000299
20
-23.700000000000042
42
0.41421356237310153
10
12.025500000000314
20
-23.200000000000045
10
12.025500000000314
20
-10.200000000000028
42
0.41421356237310936
10
11.525500000000298
20
-9.7000000000000295
10
-1.4744999999998807
20
-9.6999999999999638
42
0.41421356237310303
0
LWPOLYLINE
5
234
100
AcDbEntity
8
0
100
AcDbPolyline
90
8
70
1
43
0.0
10
26.600500000000498
20
-29.250000000000107
10
26.600500000000501
20
-42.250000000000128
42
0.41421356237310025
10
27.10050000000048
20
-42.750000000000135
10
40.1005000000007
20
-42.750000000000199
42
0.41421356237313145
10
40.600500000000721
20
-42.250000000000185
10
40.600500000000714
20
-29.250000000000167
42
0.41421356237310802
10
40.100500000000707
20
-28.750000000000163
10
27.100500000000519
20
-28.750000000000099
42
0.41421356237311846
0
LWPOLYLINE
5
235
100
AcDbEntity
8
0
100
AcDbPolyline
90
8
70
1
43
0.0
10
68.206750000001065
20
-68.350000000000321
10
68.206750000001094
20
-82.35000000000035
42
0.41421356237302737
10
68.70675000000108
20
-82.850000000000335
10
74.706750000001165
20
-82.850000000000392
42
0.41421356237313667
10
75.206750000001193
20
-82.350000000000392
10
75.206750000001193
20
-68.350000000000378
42
0.41421356237311063
10
74.706750000001193
20
-67.850000000000364
10
68.706750000001094
20
-67.850000000000307
42
0.41421356237311585
0
LWPOLYLINE
5
236
100
AcDbEntity
8
0
100
AcDbPolyline
90
8
70
1
43
0.0
10
202.813000000003
20
-67.350000000000961
10
202.813000000003
20
-80.350000000000961
42
0.41421356237313667
10
203.31300000000297
20
-80.850000000001003
10
216.3130000000032
20
-80.850000000001046
42
0.41421356237314705
10
216.8130000000032
20
-80.350000000001032
10
216.8130000000032
20
-67.350000000001017
42
0.41421356237314183
10
216.3130000000032
20
-66.850000000001003
10
203.313000000003
20
-66.850000000000961
42
0.41421356237314705
0
LWPOLYLINE
5
237
100
AcDbEntity
8
0
100
AcDbPolyline
90
8
70
1
43
0.0
10
212.33800000000318
20
-10.200000000000966
10
212.33800000000315
20
-23.200000000000976
42
0.41421356237316265
10
212.83800000000315
20
-23.700000000000969
10
225.83800000000335
20
-23.700000000001058
42
0.41421356237313667
10
226.33800000000338
20
-23.200000000001047
10
226.33800000000338
20
-10.200000000001028
42
0.41421356237313406
10
225.83800000000338
20
-9.7000000000010171
10
212.83800000000321
20
-9.7000000000009727
42
0.41421356237313406
0
LWPOLYLINE
5
238
100
AcDbEntity
8
0
100
AcDbPolyline
90
8
70
1
43
0.0
10
174.23800000000267
20
-10.200000000000784
10
174.23800000000261
20
-23.200000000000813
42
0.41421356237313667
10
174.73800000000264
20
-23.700000000000799
10
187.73800000000281
20
-23.700000000000877
42
0.41421356237313928
10
188.23800000000287
20
-23.200000000000873
10
188.23800000000287
20
-10.200000000000855
42
0.41421356237313406
10
187.73800000000284
20
-9.7000000000008431
10
174.73800000000267
20
-9.7000000000007898
42
0.41421356237313406
0
LWPOLYLINE
5
239
100
AcDbEntity
8
0
100
AcDbPolyline
90
8
70
1
43
0.0
10
140.11300000000213
20
9.3499999999993939
10
127.11300000000195
20
9.3499999999994543
42
0.41421356237307094
10
126.61300000000195
20
8.8499999999994614
10
126.61300000000195
20
-4.1500000000005492
42
0.41421356237315293
10
127.11300000000199
20
-4.650000000000551
10
140.11300000000213
20
-4.650000000000615
42
0.41421356237308693
10
140.61300000000213
20
-4.1500000000006203
10
140.61300000000213
20
8.8499999999993904
42
0.41421356237313794
0
LWPOLYLINE
5
240
100
AcDbEntity
8
0
100
AcDbPolyline
90
8
70
1
43
0.0
10
98.038000000001546
20
-10.200000000000426
10
98.038000000001531
20
-23.200000000000447
42
0.41421356237310802
10
98.53800000000156
20
-23.700000000000465
10
111.53800000000173
20
-23.700000000000511
42
0.41421356237310281
10
112.03800000000172
20
-23.200000000000514
10
112.03800000000174
20
-10.200000000000497
42
0.41421356237314183
10
111.53800000000172
20
-9.7000000000004967
10
98.53800000000156
20
-9.7000000000004327
42
0.41421356237310675
0
LWPOLYLINE
5
241
100
AcDbEntity
8
0
100
AcDbPolyline
90
8
70
1
43
0.0
10
59.938000000000997
20
-10.200000000000253
10
59.938000000000997
20
-23.200000000000259
42
0.41421356237309764
10
60.438000000000976
20
-23.700000000000262
10
73.438000000001182
20
-23.700000000000347
42
0.41421356237312101
10
73.93800000000121
20
-23.20000000000033
10
73.93800000000121
20
-10.200000000000315
42
0.41421356237309631
10
73.43800000000121
20
-9.7000000000003102
10
60.438000000001004
20
-9.7000000000002586
42
0.41421356237308854
0
LWPOLYLINE
5
242
100
AcDbEntity
8
0
100
AcDbPolyline
90
8
70
1
43
0.0
10
78.200500000001256
20
-28.750000000000338
10
65.200500000001071
20
-28.750000000000266
42
0.41421356237309243
10
64.700500000001057
20
-29.250000000000277
10
64.700500000001057
20
-42.250000000000298
42
0.41421356237309503
10
65.200500000001043
20
-42.750000000000306
10
78.200500000001256
20
-42.750000000000377
42
0.41421356237313145
10
78.700500000001284
20
-42.250000000000362
10
78.700500000001284
20
-29.250000000000348
42
0.41421356237311324
0
LWPOLYLINE
5
243
100
AcDbEntity
8
0
100
AcDbPolyline
90
8
70
1
43
0.0
10
116.80050000000179
20
-42.250000000000526
10
116.80050000000179
20
-29.250000000000512
42
0.41421356237316787
10
116.30050000000176
20
-28.750000000000494
10
103.30050000000162
20
-28.750000000000448
42
0.41421356237314444
10
102.80050000000161
20
-29.250000000000462
10
102.80050000000161
20
-42.250000000000476
42
0.41421356237311063
10
103.30050000000159
20
-42.75000000000049
10
116.30050000000179
20
-42.750000000000547
42
0.41421356237311585
0
LWPOLYLINE
5
244
100
AcDbEntity
8
0
100
AcDbPolyline
90
8
70
1
43
0.0
10
140.90050000000215
20
-29.250000000000632
10
140.90050000000215
20
-42.250000000000661
42
0.41421356237307944
10
141.40050000000213
20
-42.750000000000682
10
154.4005000000023
20
-42.750000000000725
42
0.41421356237311585
10
154.9005000000023
20
-42.250000000000718
10
154.90050000000232
20
-29.250000000000696
42
0.41421356237308204
10
154.40050000000235
20
-28.750000000000679
10
141.40050000000215
20
-28.750000000000632
42
0.41421356237311063
0
LWPOLYLINE
5
245
100
AcDbEntity
8
0
100
AcDbPolyline
90
8
70
1
43
0.0
10
179.00050000000263
20
-29.250000000000821
10
179.00050000000266
20
-42.250000000000838
42
0.41421356237313145
10
179.50050000000266
20
-42.750000000000853
10
192.50050000000286
20
-42.750000000000909
42
0.41421356237313145
10
193.00050000000286
20
-42.250000000000895
10
193.00050000000286
20
-29.250000000000878
42
0.41421356237312623
10
192.50050000000286
20
-28.750000000000888
10
179.50050000000266
20
-28.750000000000814
42
0.41421356237311063
0
LWPOLYLINE
5
246
100
AcDbEntity
8
0
100
AcDbPolyline
90
8
70
1
43
0.0
10
217.10050000000322
20
-29.250000000000984
10
217.10050000000322
20
-42.250000000001009
42
0.41421356237316787
10
217.60050000000322
20
-42.750000000000995
10
230.60050000000342
20
-42.750000000001087
42
0.41421356237313667
10
231.10050000000345
20
-42.25000000000108
10
231.10050000000342
20
-29.250000000001059
42
0.41421356237314444
10
230.60050000000342
20
-28.750000000001052
10
217.60050000000322
20
-28.750000000000977
42
0.41421356237314444
0
LWPOLYLINE
5
247
100
AcDbEntity
8
0
100
AcDbPolyline
90
8
70
1
43
0.0
10
283.77550000000417
20
-72.112500000001376
10
283.77550000000417
20
-85.112500000001376
42
0.4142135623732095
10
284.27550000000423
20
-85.612500000001404
10
297.2755000000044
20
-85.612500000001432
42
0.41421356237311585
10
297.7755000000044
20
-85.112500000001461
10
297.7755000000044
20
-72.112500000001447
42
0.41421356237316265
10
297.2755000000044
20
-71.612500000001461
10
284.27550000000417
20
-71.61250000000139
42
0.41421356237314183
0
LWPOLYLINE
5
248
100
AcDbEntity
8
0
100
AcDbPolyline
90
8
70
1
43
0.0
10
321.0880000000048
20
9.3499999999985537
10
308.08800000000457
20
9.3499999999986088
42
0.41421356237313928
10
307.58800000000457
20
8.8499999999986141
10
307.58800000000451
20
-4.1500000000013939
42
0.41421356237316237
10
308.08800000000457
20
-4.6500000000014055
10
321.0880000000048
20
-4.6500000000014605
42
0.41421356237326445
10
321.58800000000474
20
-4.1500000000014658
10
321.58800000000474
20
8.849999999998543
42
0.414213562373203
0
LWPOLYLINE
5
249
100
AcDbEntity
8
0
100
AcDbPolyline
90
8
70
1
43
0.0
10
326.63800000000469
20
-29.250000000001492
10
326.63800000000481
20
-42.250000000001513
42
0.4142135623732251
10
327.13800000000475
20
-42.750000000001442
10
340.13800000000492
20
-42.750000000001606
42
0.41421356237313145
10
340.63800000000498
20
-42.250000000001585
10
340.63800000000492
20
-29.25000000000157
42
0.41421356237319129
10
340.13800000000504
20
-28.750000000001634
10
327.13800000000475
20
-28.750000000001489
42
0.41421356237301959
0
LWPOLYLINE
5
250
100
AcDbEntity
8
0
100
AcDbPolyline
90
8
70
1
43
0.0
10
307.58800000000451
20
-48.30000000000144
10
307.58800000000457
20
-61.300000000001447
42
0.41421356237307422
10
308.08800000000451
20
-61.800000000001432
10
321.08800000000474
20
-61.800000000001518
42
0.41421356237302737
10
321.58800000000474
20
-61.300000000001504
10
321.58800000000468
20
-48.300000000001504
42
0.4142135623732251
10
321.08800000000474
20
-47.800000000001575
10
308.08800000000451
20
-47.800000000001432
42
0.41421356237311063
0
LWPOLYLINE
5
251
100
AcDbEntity
8
0
100
AcDbPolyline
90
20
70
1
43
0.0
10
249.00000000000364
20
-4.6500000000010679
10
265.87600000000384
20
-4.6500000000011408
10
265.8760000000039
20
-6.1500000000012243
42
0.41421356237316265
10
266.37600000000396
20
-6.6500000000012367
10
272.37600000000396
20
-6.6500000000012509
42
0.41421356237313534
10
272.87600000000401
20
-6.15000000000125
10
272.87600000000396
20
-4.6500000000011719
10
273.46300000000406
20
-4.6500000000011745
42
0.41421356237314055
10
273.96300000000406
20
-4.1500000000011728
10
273.96300000000406
20
8.8499999999988397
42
0.41421356237314122
10
273.46300000000406
20
9.3499999999988326
10
241.41300000000359
20
9.3499999999989765
42
0.41421356237314122
10
240.91300000000359
20
8.8499999999989765
10
240.91300000000359
20
-4.1500000000010342
42
0.41421356237314022
10
241.41300000000359
20
-4.650000000001028
10
242.00000000000355
20
-4.6500000000010377
10
242.00000000000358
20
-6.1500000000011124
42
0.41421356237314055
10
242.50000000000358
20
-6.650000000001107
10
248.50000000000367
20
-6.6500000000011381
42
0.41421356237314122
10
249.00000000000369
20
-6.1500000000011381
0
LWPOLYLINE
5
252
100
AcDbEntity
8
0
100
AcDbPolyline
90
24
70
1
43
0.0
10
364.73800000000546
20
-10.48700000000167
42
-0.41421356237295848
10
364.43800000000545
20
-10.787000000001669
10
363.23800000000523
20
-10.787000000001656
42
0.41421356237320561
10
362.73800000000529
20
-11.287000000001656
10
362.73800000000529
20
-17.287000000001658
42
0.41421356237320428
10
363.23800000000523
20
-17.787000000001665
10
364.43800000000533
20
-17.787000000001587
42
-0.41421356237295848
10
364.73800000000546
20
-18.087000000001673
10
364.7380000000054
20
-34.363000000001691
42
-0.4142135623729607
10
364.43800000000533
20
-34.663000000001688
10
363.23800000000523
20
-34.663000000001681
42
0.41421356237323032
10
362.73800000000517
20
-35.163000000001688
10
362.73800000000529
20
-41.163000000001688
42
0.41421356237320428
10
363.23800000000523
20
-41.663000000001688
10
364.43800000000533
20
-41.663000000001645
42
-0.41421356237295631
10
364.7380000000054
20
-41.963000000001657
10
364.7380000000054
20
-42.250000000001613
42
0.4142135623731783
10
365.23800000000534
20
-42.750000000001542
10
378.23800000000551
20
-42.750000000001677
42
0.41421356237312101
10
378.73800000000557
20
-42.250000000001691
10
378.73800000000551
20
-10.200000000001646
42
0.414213562373203
10
378.23800000000551
20
-9.7000000000016335
10
365.23800000000534
20
-9.7000000000015874
42
0.41421356237318085
10
364.7380000000054
20
-10.200000000001577
0
ENDSEC
0
SECTION
2
OBJECTS
0
DICTIONARY
5
C
100
AcDbDictionary
3
ACAD_GROUP
350
D
3
ACAD_MLINESTYLE
350
17
0
DICTIONARY
5
D
100
AcDbDictionary
0
DICTIONARY
5
1A
330
C
100
AcDbDictionary
0
DICTIONARY
5
17
100
AcDbDictionary
0
ENDSEC
0
EOF
