M48
; DRILL file {KiCad (5.99.0-2555-g9cc6a77cc-dirty)} date 08/06/20 22:11:22
; FORMAT={-:-/ absolute / metric / decimal}
; #@! TF.CreationDate,2020-08-06T22:11:22-04:00
; #@! TF.GenerationSoftware,Kicad,Pcbnew,(5.99.0-2555-g9cc6a77cc-dirty)
; #@! TF.FileFunction,NonPlated,1,2,NPTH
FMAT,2
METRIC
T1C0.650
T2C1.152
T3C1.702
T4C3.048
T5C3.200
T6C3.988
%
G90
G05
T1
X182.847Y60.751
X188.627Y60.751
T2
X381.0Y-85.0
X381.0Y55.0
X-9.0Y55.0
X-9.0Y-85.0
T3
X33.02Y0.0
X43.18Y0.0
X152.082Y-57.15
X162.243Y-57.15
X285.433Y-19.05
X295.592Y-19.05
X44.926Y-76.2
X55.086Y-76.2
X347.345Y-19.05
X357.505Y-19.05
X66.358Y-38.1
X76.517Y-38.1
X-5.08Y0.0
X5.08Y0.0
X171.132Y-57.15
X181.292Y-57.15
X309.245Y-57.15
X319.405Y-57.15
X142.558Y-38.1
X152.718Y-38.1
X366.395Y0.0
X376.555Y0.0
X-2.699Y-57.15
X7.461Y-57.15
X47.307Y-38.1
X57.467Y-38.1
X223.52Y0.0
X233.68Y0.0
X371.475Y-61.595
X371.475Y-71.755
X223.52Y-76.2
X233.68Y-76.2
X256.858Y-19.05
X267.017Y-19.05
X309.245Y-38.1
X319.405Y-38.1
X142.558Y28.575
X152.718Y28.575
X80.645Y28.575
X90.805Y28.575
X28.258Y-38.1
X38.417Y-38.1
X247.332Y-80.962
X257.493Y-80.962
X223.52Y28.575
X233.68Y28.575
X285.433Y-38.1
X295.592Y-38.1
X104.457Y-38.1
X114.617Y-38.1
X366.395Y47.625
X376.555Y47.625
X61.595Y47.625
X71.755Y47.625
X6.826Y-57.15
X16.986Y-57.15
X204.47Y28.575
X214.63Y28.575
X161.607Y-38.1
X171.767Y-38.1
X328.295Y0.0
X338.455Y0.0
X80.645Y-19.05
X90.805Y-19.05
X347.345Y47.625
X357.505Y47.625
X328.295Y-19.05
X338.455Y-19.05
X-5.08Y28.575
X5.08Y28.575
X147.32Y0.0
X157.48Y0.0
X328.295Y47.625
X338.455Y47.625
X71.12Y0.0
X81.28Y0.0
X142.558Y47.625
X152.718Y47.625
X242.57Y0.0
X252.73Y0.0
X175.895Y-19.05
X186.055Y-19.05
X318.77Y-76.2
X328.93Y-76.2
X61.595Y-19.05
X71.755Y-19.05
X204.47Y47.625
X214.63Y47.625
X-2.699Y-76.2
X7.461Y-76.2
X185.42Y0.0
X195.58Y0.0
X266.382Y-61.912
X276.542Y-61.912
X128.27Y0.0
X138.43Y0.0
X109.22Y0.0
X119.38Y0.0
X328.295Y-38.1
X338.455Y-38.1
X18.732Y-57.15
X28.892Y-57.15
X161.607Y28.575
X171.767Y28.575
X242.57Y28.575
X252.73Y28.575
X266.382Y28.575
X276.542Y28.575
X52.07Y0.0
X62.23Y0.0
X328.295Y-57.15
X338.455Y-57.15
X80.645Y47.625
X90.805Y47.625
X23.495Y28.575
X33.655Y28.575
X233.045Y-19.05
X243.205Y-19.05
X180.657Y-38.1
X190.817Y-38.1
X309.245Y-19.05
X319.405Y-19.05
X85.407Y-38.1
X95.567Y-38.1
X-2.699Y-38.1
X7.461Y-38.1
X371.475Y-13.97
X371.475Y-24.13
X218.757Y-38.1
X228.917Y-38.1
X266.382Y47.625
X276.542Y47.625
X99.695Y-19.05
X109.855Y-19.05
X347.345Y0.0
X357.505Y0.0
X194.945Y-19.05
X205.105Y-19.05
X309.245Y-76.2
X319.405Y-76.2
X56.832Y-57.15
X66.992Y-57.15
X223.52Y47.625
X233.68Y47.625
X21.114Y-76.2
X31.274Y-76.2
X213.995Y-19.05
X224.155Y-19.05
X285.433Y47.625
X295.592Y47.625
X123.507Y-38.1
X133.667Y-38.1
X118.745Y-19.05
X128.905Y-19.05
X347.345Y28.575
X357.505Y28.575
X42.545Y28.575
X52.705Y28.575
X204.47Y0.0
X214.63Y0.0
X249.714Y-38.1
X259.874Y-38.1
X285.433Y28.575
X295.592Y28.575
X116.364Y-76.2
X126.524Y-76.2
X264.319Y-23.495
X264.319Y-33.655
X104.458Y47.625
X114.618Y47.625
X13.97Y0.0
X24.13Y0.0
X235.426Y-57.15
X245.586Y-57.15
X133.032Y-57.15
X143.192Y-57.15
X266.382Y-80.962
X276.542Y-80.962
X61.595Y28.575
X71.755Y28.575
X123.508Y47.625
X133.668Y47.625
X2.064Y-38.1
X12.224Y-38.1
X261.62Y0.0
X271.78Y0.0
X185.42Y-76.2
X195.58Y-76.2
X156.845Y-19.05
X167.005Y-19.05
X309.245Y0.0
X319.405Y0.0
X94.932Y-57.15
X105.093Y-57.15
X23.495Y47.625
X33.655Y47.625
X347.345Y-57.15
X357.505Y-57.15
X190.183Y-57.15
X200.343Y-57.15
X304.482Y28.575
X314.642Y28.575
X75.882Y-57.15
X86.042Y-57.15
X347.345Y-76.2
X357.505Y-76.2
X185.42Y28.575
X195.58Y28.575
X285.433Y0.0
X295.592Y0.0
X137.795Y-19.05
X147.955Y-19.05
X113.983Y-57.15
X124.142Y-57.15
X347.345Y-38.1
X357.505Y-38.1
X42.545Y-19.05
X52.705Y-19.05
X209.232Y-57.15
X219.392Y-57.15
X237.807Y-38.1
X247.968Y-38.1
X304.482Y47.625
X314.642Y47.625
X104.457Y28.575
X114.617Y28.575
X123.507Y28.575
X133.667Y28.575
X328.295Y-76.2
X338.455Y-76.2
X185.42Y47.625
X195.58Y47.625
X23.495Y-19.05
X33.655Y-19.05
X371.475Y-23.495
X371.475Y-33.655
X252.095Y0.0
X262.255Y0.0
X199.707Y-38.1
X209.867Y-38.1
X285.433Y-80.962
X295.592Y-80.962
X90.17Y0.0
X100.33Y0.0
X366.395Y28.575
X376.555Y28.575
X42.545Y47.625
X52.705Y47.625
X-0.318Y-19.05
X9.842Y-19.05
X204.47Y-76.2
X214.63Y-76.2
X166.37Y0.0
X176.53Y0.0
X328.295Y28.575
X338.455Y28.575
X37.782Y-57.15
X47.942Y-57.15
X371.475Y-33.02
X371.475Y-43.18
X242.57Y47.625
X252.73Y47.625
X161.607Y47.625
X171.767Y47.625
T4
X242.856Y-31.115
X266.732Y-31.115
X71.406Y-69.215
X171.482Y-69.215
X271.304Y-16.637
X271.304Y-40.513
X378.46Y-16.637
X378.46Y-40.513
X245.237Y6.985
X269.113Y6.985
X364.49Y-54.737
X364.49Y-78.613
X-0.032Y-50.165
X23.844Y-50.165
X311.912Y-69.215
X335.788Y-69.215
T5
X297.464Y-64.288
X288.324Y-54.913
T6
X228.6Y-76.2
X261.938Y-19.05
X314.325Y-38.1
X147.637Y28.575
X85.725Y28.575
X33.337Y-38.1
X252.412Y-80.962
X228.6Y28.575
X290.512Y-38.1
X109.537Y-38.1
X371.475Y47.625
X66.675Y47.625
X-0.032Y-65.405
X11.906Y-57.15
X23.844Y-65.405
X209.55Y28.575
X166.688Y-38.1
X333.375Y0.0
X85.725Y-19.05
X352.425Y47.625
X333.375Y-19.05
X0.0Y28.575
X152.4Y0.0
X333.375Y47.625
X76.2Y0.0
X147.637Y47.625
X247.65Y0.0
X180.975Y-19.05
X311.912Y-84.455
X323.85Y-76.2
X335.788Y-84.455
X66.675Y-19.05
X209.55Y47.625
X2.381Y-76.2
X190.5Y0.0
X271.462Y-61.912
X133.35Y0.0
X114.3Y0.0
X333.375Y-38.1
X23.812Y-57.15
X166.688Y28.575
X247.65Y28.575
X271.462Y28.575
X57.15Y0.0
X333.375Y-57.15
X85.725Y47.625
X28.575Y28.575
X238.125Y-19.05
X185.737Y-38.1
X314.325Y-19.05
X90.487Y-38.1
X2.381Y-38.1
X371.475Y-19.05
X223.837Y-38.1
X271.462Y47.625
X104.775Y-19.05
X352.425Y0.0
X200.025Y-19.05
X314.325Y-76.2
X61.912Y-57.15
X228.6Y47.625
X26.194Y-76.2
X219.075Y-19.05
X290.512Y47.625
X128.588Y-38.1
X123.825Y-19.05
X352.425Y28.575
X47.625Y28.575
X209.55Y0.0
X242.856Y-46.355
X254.794Y-38.1
X266.732Y-46.355
X290.512Y28.575
X71.406Y-84.455
X121.444Y-76.2
X171.482Y-84.455
X256.064Y-16.637
X256.064Y-40.513
X264.319Y-28.575
X109.538Y47.625
X19.05Y0.0
X240.506Y-57.15
X138.112Y-57.15
X271.462Y-80.962
X66.675Y28.575
X128.588Y47.625
X7.144Y-38.1
X266.7Y0.0
X190.5Y-76.2
X161.925Y-19.05
X314.325Y0.0
X100.012Y-57.15
X28.575Y47.625
X352.425Y-57.15
X195.262Y-57.15
X309.562Y28.575
X80.962Y-57.15
X352.425Y-76.2
X190.5Y28.575
X290.512Y0.0
X142.875Y-19.05
X119.062Y-57.15
X352.425Y-38.1
X47.625Y-19.05
X214.312Y-57.15
X242.887Y-38.1
X309.562Y47.625
X109.537Y28.575
X128.588Y28.575
X333.375Y-76.2
X190.5Y47.625
X28.575Y-19.05
X363.22Y-16.637
X363.22Y-40.513
X371.475Y-28.575
X245.237Y-8.255
X257.175Y0.0
X269.113Y-8.255
X204.787Y-38.1
X290.512Y-80.962
X95.25Y0.0
X371.475Y28.575
X47.625Y47.625
X4.763Y-19.05
X209.55Y-76.2
X171.45Y0.0
X333.375Y28.575
X42.862Y-57.15
X371.475Y-38.1
X247.65Y47.625
X166.688Y47.625
X38.1Y0.0
X157.162Y-57.15
X290.512Y-19.05
X50.006Y-76.2
X352.425Y-19.05
X71.438Y-38.1
X0.0Y0.0
X176.213Y-57.15
X314.325Y-57.15
X147.637Y-38.1
X371.475Y0.0
X2.381Y-57.15
X52.387Y-38.1
X228.6Y0.0
X371.475Y-66.675
X379.73Y-54.737
X379.73Y-78.613
T0
M30
