M48
; DRILL file {KiCad (5.99.0-2195-g476558ece)} date 08/03/20 01:38:55
; FORMAT={-:-/ absolute / metric / decimal}
; #@! TF.CreationDate,2020-08-03T01:38:55-04:00
; #@! TF.GenerationSoftware,Kicad,Pcbnew,(5.99.0-2195-g476558ece)
; #@! TF.FileFunction,Plated,1,2,PTH
FMAT,2
METRIC
T1C0.300
T2C0.400
T3C0.600
T4C0.800
T5C0.900
T6C1.000
T7C1.100
T8C1.270
T9C1.524
T10C1.525
T11C1.800
%
G90
G05
T1
X183.3Y59.8
X183.3Y59.1
X188.2Y59.8
X188.2Y59.1
X198.45Y53.55
T2
X7.62Y19.526
X16.39Y35.68
X19.05Y17.67
X30.981Y20.979
X50.672Y20.668
X74.0Y22.6
X93.4Y22.6
X115.175Y21.675
X120.3Y-46.74
X128.095Y18.995
X143.555Y-4.445
X144.9Y-3.2
X145.41Y11.46
X145.41Y8.89
X145.43Y10.16
X145.44Y7.61
X145.577Y-80.569
X145.649Y-61.591
X146.829Y-79.389
X146.851Y-60.411
X149.05Y8.69
X149.06Y11.37
X149.066Y10.12
X149.535Y19.935
X150.78Y11.41
X150.8Y10.16
X150.8Y8.9
X153.0Y-23.5
X154.2Y-22.3
X154.781Y-42.624
X155.05Y23.55
X155.69Y41.79
X156.282Y-41.361
X156.535Y40.535
X157.314Y25.314
X158.188Y25.314
X159.0Y38.4
X159.14Y25.314
X164.22Y37.37
X165.775Y39.975
X166.725Y39.975
X170.43Y25.9
X171.975Y22.275
X172.03Y43.95
X172.5Y53.6
X172.7Y32.2
X173.4Y25.956
X173.406Y25.006
X174.0Y56.4
X174.6Y25.956
X174.6Y25.0
X175.1Y56.4
X175.1Y51.975
X176.2Y56.4
X177.403Y27.146
X178.356Y28.099
X178.356Y27.146
X179.308Y27.146
X179.625Y55.375
X180.375Y56.125
X186.9Y25.205
X186.925Y40.55
X188.5Y40.55
X189.45Y34.4
X189.725Y57.625
X189.725Y56.625
X195.6Y40.8
X204.5Y19.5
X205.68Y11.82
X206.25Y18.0
X208.2Y21.0
X210.0Y11.75
X210.0Y10.5
X214.21Y39.61
X214.91Y5.99
X216.59Y1.33
X216.6Y23.6
X217.97Y23.49
X218.25Y11.75
X219.2Y7.75
X220.5Y25.6
X222.68Y33.38
X224.15Y9.25
X224.25Y18.5
X225.05Y9.25
X226.0Y9.25
X227.237Y18.5
X229.13Y9.82
X230.99Y-51.69
X231.8Y-32.3
X232.66Y19.86
X233.2Y22.4
X233.46Y15.41
X233.6Y-74.0
X234.14Y51.34
X234.5Y23.25
X234.7Y4.0
X235.28Y13.57
X235.65Y24.2
X235.8Y4.0
X236.414Y-13.114
X236.61Y13.51
X236.811Y34.511
X237.057Y2.857
X237.1Y21.0
X237.2Y-42.81
X238.0Y13.6
X238.89Y6.57
X239.857Y2.857
X242.43Y19.685
X243.162Y14.087
X245.3Y-16.7
X245.35Y-85.35
X245.7Y37.6
X246.41Y-85.35
X246.6Y36.3
X246.67Y-26.2
X247.0Y39.0
X248.071Y-23.491
X248.644Y-14.066
X249.425Y-22.625
X251.52Y-4.42
X252.06Y-23.02
X253.325Y-3.15
X253.341Y-22.089
X254.801Y-27.499
X255.0Y18.7
X256.025Y23.325
X256.467Y-24.13
X259.71Y22.61
X262.337Y24.512
X263.037Y23.812
X271.975Y36.75
X273.71Y-46.68
X274.9Y0.6
X276.8Y-7.1
X276.8Y-10.1
X277.9Y-59.7
X278.864Y25.314
X278.95Y-51.73
X280.339Y44.364
X280.341Y24.134
X281.634Y43.184
X293.05Y-50.75
X298.5Y18.5
X303.03Y-52.26
X305.35Y-51.25
X316.865Y20.635
X322.075Y-60.375
X322.1Y-41.4
X323.125Y-61.555
X323.32Y-42.58
X329.803Y25.479
X335.915Y19.715
X337.425Y13.425
X338.95Y34.1
X356.62Y-22.45
X356.62Y-23.81
X357.08Y-30.44
X359.3Y19.5
X359.85Y-40.86
X360.15Y-69.0
X361.0Y-24.15
X361.925Y-66.05
X363.59Y-21.26
X366.43Y-24.76
X368.48Y-20.94
T4
X279.08Y11.4
X286.7Y11.4
X248.6Y15.6
X256.22Y15.6
X296.38Y14.3
X304.0Y14.3
T5
X308.292Y14.287
X310.832Y14.287
X1.111Y-62.23
X3.651Y-62.23
X208.28Y42.545
X210.82Y42.545
X236.855Y-24.13
X239.395Y-24.13
X289.243Y42.57
X291.782Y42.57
X27.305Y23.495
X29.845Y23.495
X146.368Y-43.18
X148.907Y-43.18
X-1.27Y23.47
X1.27Y23.47
X251.142Y-86.042
X253.682Y-86.042
X208.28Y-5.08
X210.82Y-5.08
X332.105Y-24.13
X334.645Y-24.13
X351.155Y23.47
X353.695Y23.47
X32.067Y-43.18
X34.608Y-43.18
X93.98Y-5.08
X96.52Y-5.08
X136.843Y-62.23
X139.382Y-62.23
X208.28Y-81.28
X210.82Y-81.28
X289.243Y-86.042
X291.782Y-86.042
X1.111Y-81.28
X3.651Y-81.28
X65.405Y-24.13
X67.945Y-24.13
X122.555Y-24.13
X125.095Y-24.13
X179.705Y-24.13
X182.245Y-24.13
X270.192Y-86.042
X272.733Y-86.042
X366.395Y-65.405
X366.395Y-67.945
X51.117Y-43.18
X53.657Y-43.18
X65.278Y42.545
X67.818Y42.545
X127.317Y23.495
X129.857Y23.495
X246.375Y-5.062
X248.915Y-5.062
X241.617Y-43.18
X244.157Y-43.18
X332.105Y-62.23
X334.645Y-62.23
X332.105Y23.47
X334.645Y23.47
X351.155Y-5.08
X353.695Y-5.08
X5.874Y-43.18
X8.414Y-43.18
X24.924Y-81.28
X27.464Y-81.28
X189.23Y42.545
X191.77Y42.545
X227.33Y-81.28
X229.87Y-81.28
X313.055Y-5.08
X315.595Y-5.08
X313.055Y-62.23
X315.595Y-62.23
X366.395Y-36.83
X366.395Y-39.37
X313.055Y-81.28
X315.595Y-81.28
X17.78Y-5.08
X20.32Y-5.08
X165.456Y42.545
X167.996Y42.545
X-1.27Y-5.08
X1.27Y-5.08
X239.236Y-62.23
X241.776Y-62.23
X213.042Y-62.23
X215.582Y-62.23
X253.524Y-43.18
X256.064Y-43.18
X370.205Y42.57
X372.745Y42.57
X27.305Y42.545
X29.845Y42.545
X146.368Y42.545
X148.907Y42.545
X265.43Y-5.08
X267.97Y-5.08
X198.755Y-24.13
X201.295Y-24.13
X332.105Y42.52
X334.645Y42.52
X36.83Y-5.08
X39.37Y-5.08
X108.267Y42.545
X110.807Y42.545
X151.13Y-5.08
X153.67Y-5.08
X227.33Y42.545
X229.87Y42.545
X313.055Y-43.18
X315.595Y-43.18
X351.155Y-62.23
X353.695Y-62.23
X108.267Y23.495
X110.807Y23.495
X74.93Y-5.08
X77.47Y-5.08
X117.792Y-62.23
X120.332Y-62.23
X208.28Y23.495
X210.82Y23.495
X332.105Y-81.28
X334.645Y-81.28
X351.155Y-43.18
X353.695Y-43.18
X366.395Y-17.78
X366.395Y-20.32
X60.642Y-62.23
X63.182Y-62.23
X103.505Y-24.13
X106.045Y-24.13
X270.192Y14.287
X272.733Y14.287
X246.38Y23.5
X248.92Y23.5
X289.26Y23.5
X291.8Y23.5
X289.243Y-43.18
X291.782Y-43.18
X351.155Y-24.13
X353.695Y-24.13
X351.155Y42.57
X353.695Y42.57
X10.636Y-62.23
X13.176Y-62.23
X27.305Y-24.13
X29.845Y-24.13
X160.655Y-24.13
X163.195Y-24.13
X3.492Y-24.13
X6.032Y-24.13
X189.23Y-5.08
X191.77Y-5.08
X246.38Y42.545
X248.92Y42.545
X308.292Y42.52
X310.832Y42.52
X366.395Y-27.305
X366.395Y-29.845
X22.543Y-62.23
X25.082Y-62.23
X108.267Y-43.18
X110.807Y-43.18
X203.517Y-43.18
X206.058Y-43.18
X270.192Y-66.992
X272.733Y-66.992
X351.155Y-81.28
X353.695Y-81.28
X46.355Y42.545
X48.895Y42.545
X127.317Y42.545
X129.857Y42.545
X165.417Y-43.18
X167.957Y-43.18
X255.905Y-5.08
X258.445Y-5.08
X170.18Y-5.08
X172.72Y-5.08
X289.243Y-5.08
X291.782Y-5.08
X70.167Y-43.18
X72.707Y-43.18
X89.218Y-43.18
X91.757Y-43.18
X146.368Y23.495
X148.907Y23.495
X227.33Y-5.08
X229.87Y-5.08
X308.292Y23.5
X310.832Y23.5
X370.205Y23.52
X372.745Y23.52
X259.239Y-27.305
X259.239Y-29.845
X41.593Y-62.23
X44.133Y-62.23
X84.455Y42.545
X86.995Y42.545
X141.605Y-24.13
X144.145Y-24.13
X290.989Y-59.6
X292.259Y-59.6
X293.529Y-59.6
X294.799Y-59.6
X193.992Y-62.23
X196.532Y-62.23
X332.105Y-5.08
X334.645Y-5.08
X289.243Y-24.13
X291.782Y-24.13
X370.205Y-5.08
X372.745Y-5.08
X46.355Y-24.13
X48.895Y-24.13
X113.03Y-5.08
X115.57Y-5.08
X289.243Y14.287
X291.782Y14.287
X1.111Y-43.18
X3.651Y-43.18
X222.567Y-43.18
X225.107Y-43.18
X174.942Y-62.23
X177.482Y-62.23
X260.667Y-24.13
X263.207Y-24.13
X55.88Y-5.08
X58.42Y-5.08
X132.08Y-5.08
X134.62Y-5.08
X184.468Y-43.18
X187.007Y-43.18
X227.33Y23.495
X229.87Y23.495
X332.105Y-43.18
X334.645Y-43.18
X84.455Y-24.13
X86.995Y-24.13
X98.742Y-62.23
X101.282Y-62.23
X127.317Y-43.18
X129.857Y-43.18
X189.23Y-81.28
X191.77Y-81.28
X270.205Y42.545
X272.745Y42.545
X48.736Y-81.28
X51.276Y-81.28
X79.692Y-62.23
X82.233Y-62.23
X165.417Y23.495
X167.957Y23.495
X189.23Y23.495
X191.77Y23.495
X313.055Y-24.13
X315.595Y-24.13
X46.355Y23.495
X48.895Y23.495
X84.455Y23.495
X86.995Y23.495
X120.174Y-81.28
X122.714Y-81.28
X217.805Y-24.13
X220.345Y-24.13
X270.192Y23.5
X272.733Y23.5
X322.58Y-81.28
X325.12Y-81.28
X65.405Y23.495
X67.945Y23.495
X155.892Y-62.23
X158.433Y-62.23
T6
X257.71Y49.0
X257.71Y46.46
X257.71Y43.92
X257.71Y41.38
X257.71Y38.84
X260.25Y49.0
X260.25Y46.46
X260.25Y43.92
X260.25Y41.38
X260.25Y38.84
T7
X324.0Y16.83
X324.0Y12.33
X330.5Y16.83
X330.5Y12.33
T8
X-7.0Y50.125
X-7.0Y45.125
X7.5Y50.125
X7.5Y47.625
X7.5Y45.125
T9
X0.952Y-16.51
X7.302Y-13.97
X-1.429Y-54.61
X4.921Y-52.07
X374.015Y-24.765
X376.555Y-31.115
X253.365Y2.54
X259.715Y5.08
X250.984Y-35.56
X257.334Y-33.02
X320.04Y-73.66
X326.39Y-71.12
X-1.429Y-73.66
X4.921Y-71.12
X-1.429Y-35.56
X4.921Y-33.02
X374.015Y-62.865
X376.555Y-69.215
X117.634Y-73.66
X123.984Y-71.12
X258.127Y-16.51
X264.477Y-13.97
X46.196Y-73.66
X52.546Y-71.12
X3.334Y-35.56
X9.684Y-33.02
X8.096Y-54.61
X14.446Y-52.07
X266.859Y-24.765
X269.399Y-31.115
X236.696Y-54.61
X243.046Y-52.07
X22.384Y-73.66
X28.734Y-71.12
T10
X348.615Y2.54
X354.965Y5.08
X143.827Y50.165
X150.177Y52.705
X162.877Y-35.56
X169.227Y-33.02
X248.602Y-78.422
X254.952Y-75.882
X286.702Y-16.51
X293.053Y-13.97
X81.915Y50.165
X88.265Y52.705
X58.102Y-54.61
X64.453Y-52.07
X220.028Y-35.56
X226.377Y-33.02
X210.502Y-54.61
X216.852Y-52.07
X348.615Y31.115
X354.965Y33.655
X20.002Y-54.61
X26.352Y-52.07
X43.815Y-16.51
X50.165Y-13.97
X224.79Y-73.66
X231.14Y-71.12
X205.74Y-73.66
X212.09Y-71.12
X348.615Y-35.56
X354.965Y-33.02
X48.578Y-35.56
X54.927Y-33.02
X143.827Y31.115
X150.177Y33.655
X205.74Y31.115
X212.09Y33.655
X286.702Y31.115
X293.053Y33.655
X329.565Y-16.51
X335.915Y-13.97
X367.665Y2.54
X374.015Y5.08
X105.727Y31.115
X112.078Y33.655
X124.777Y-35.56
X131.127Y-33.02
X105.727Y-35.56
X112.078Y-33.02
X267.652Y31.115
X274.002Y33.655
X348.615Y-16.51
X354.965Y-13.97
X162.877Y50.165
X169.227Y52.705
X81.915Y-16.51
X88.265Y-13.97
X120.015Y-16.51
X126.365Y-13.97
X262.89Y2.54
X269.24Y5.08
X348.615Y-54.61
X354.965Y-52.07
X329.565Y31.115
X335.915Y33.655
X105.728Y50.165
X112.078Y52.705
X53.34Y2.54
X59.69Y5.08
X100.965Y-16.51
X107.315Y-13.97
X243.84Y31.115
X250.19Y33.655
X243.84Y2.54
X250.19Y5.08
X286.702Y-35.56
X293.053Y-33.02
X224.79Y50.165
X231.14Y52.705
X15.24Y2.54
X21.59Y5.08
X234.315Y-16.51
X240.665Y-13.97
X196.215Y-16.51
X202.565Y-13.97
X205.74Y50.165
X212.09Y52.705
X224.79Y31.115
X231.14Y33.655
X186.69Y2.54
X193.04Y5.08
X286.702Y2.54
X293.053Y5.08
X329.565Y-54.61
X335.915Y-52.07
X91.44Y2.54
X97.79Y5.08
X143.827Y-35.56
X150.177Y-33.02
X148.59Y2.54
X154.94Y5.08
X286.702Y-78.422
X293.053Y-75.882
X34.29Y2.54
X40.64Y5.08
X348.615Y-73.66
X354.965Y-71.12
X186.69Y50.165
X193.04Y52.705
X86.677Y-35.56
X93.027Y-33.02
X158.115Y-16.51
X164.465Y-13.97
X115.252Y-54.61
X121.602Y-52.07
X267.652Y-78.422
X274.002Y-75.882
X224.79Y2.54
X231.14Y5.08
X348.615Y50.165
X354.965Y52.705
X329.565Y2.54
X335.915Y5.08
X124.778Y50.165
X131.128Y52.705
X81.915Y31.115
X88.265Y33.655
X96.203Y-54.61
X102.552Y-52.07
X329.565Y50.165
X335.915Y52.705
X43.815Y50.165
X50.165Y52.705
X29.527Y-35.56
X35.877Y-33.02
X43.815Y31.115
X50.165Y33.655
X134.302Y-54.61
X140.653Y-52.07
X205.74Y2.54
X212.09Y5.08
X310.515Y-35.56
X316.865Y-33.02
X374.015Y-15.24
X376.555Y-21.59
X39.052Y-54.61
X45.402Y-52.07
X110.49Y2.54
X116.84Y5.08
X200.977Y-35.56
X207.327Y-33.02
X267.652Y-59.372
X274.002Y-56.832
X329.565Y-73.66
X335.915Y-71.12
X162.877Y31.115
X169.227Y33.655
X186.69Y31.115
X193.04Y33.655
X286.702Y50.165
X293.053Y52.705
X-3.81Y31.115
X2.54Y33.655
X310.515Y-16.51
X316.865Y-13.97
X367.665Y50.165
X374.015Y52.705
X72.39Y2.54
X78.74Y5.08
X177.165Y-16.51
X183.515Y-13.97
X139.065Y-16.51
X145.415Y-13.97
X267.652Y50.165
X274.002Y52.705
X67.627Y-35.56
X73.977Y-33.02
X310.515Y2.54
X316.865Y5.08
X329.565Y-35.56
X335.915Y-33.02
X24.765Y50.165
X31.115Y52.705
X129.54Y2.54
X135.89Y5.08
X239.077Y-35.56
X245.427Y-33.02
X310.515Y-54.61
X316.865Y-52.07
X62.865Y50.165
X69.215Y52.705
X62.865Y-16.51
X69.215Y-13.97
X124.777Y31.115
X131.127Y33.655
X215.265Y-16.51
X221.615Y-13.97
X305.752Y50.165
X312.102Y52.705
X374.015Y-34.29
X376.555Y-40.64
X24.765Y-16.51
X31.115Y-13.97
X62.865Y31.115
X69.215Y33.655
X181.927Y-35.56
X188.278Y-33.02
X191.452Y-54.61
X197.802Y-52.07
X305.752Y31.115
X312.102Y33.655
X243.84Y50.165
X250.19Y52.705
X24.765Y31.115
X31.115Y33.655
X167.64Y2.54
X173.99Y5.08
X172.403Y-54.61
X178.752Y-52.07
X-3.81Y2.54
X2.54Y5.08
X310.515Y-73.66
X316.865Y-71.12
X367.665Y31.115
X374.015Y33.655
X77.153Y-54.61
X83.502Y-52.07
X186.69Y-73.66
X193.04Y-71.12
X153.352Y-54.61
X159.702Y-52.07
T3
G00X181.437Y64.7
M15
G01X181.437Y64.1
M16
G05
G00X181.437Y60.75
M15
G01X181.437Y59.65
M16
G05
G00X190.037Y64.7
M15
G01X190.037Y64.1
M16
G05
G00X190.037Y60.75
M15
G01X190.037Y59.65
M16
G05
T11
G00X-0.55Y53.875
M15
G01X0.55Y53.875
M16
G05
G00X-0.55Y41.375
M15
G01X0.55Y41.375
M16
G05
T0
M30
