G04 #@! TF.GenerationSoftware,KiCad,Pcbnew,(5.99.0-2555-g9cc6a77cc-dirty)*
G04 #@! TF.CreationDate,2020-08-06T21:31:07-04:00*
G04 #@! TF.ProjectId,Boston-keyboard-S,426f7374-6f6e-42d6-9b65-79626f617264,rev?*
G04 #@! TF.SameCoordinates,Original*
G04 #@! TF.FileFunction,Soldermask,Top*
G04 #@! TF.FilePolarity,Negative*
%FSLAX46Y46*%
G04 Gerber Fmt 4.6, Leading zero omitted, Abs format (unit mm)*
G04 Created by KiCad (PCBNEW (5.99.0-2555-g9cc6a77cc-dirty)) date 2020-08-06 21:31:07*
%MOMM*%
%LPD*%
G01*
G04 APERTURE LIST*
%ADD10O,1.070000X1.800000*%
%ADD11R,1.070000X1.800000*%
%ADD12C,1.596000*%
%ADD13C,1.800000*%
%ADD14R,1.800000X1.800000*%
%ADD15C,2.540000*%
%ADD16C,1.701800*%
%ADD17C,3.987800*%
%ADD18O,1.100000X2.200000*%
%ADD19O,1.300000X1.900000*%
%ADD20C,0.650000*%
%ADD21C,3.200000*%
%ADD22O,1.700000X1.700000*%
%ADD23R,1.700000X1.700000*%
%ADD24O,3.900000X2.799999*%
%ADD25C,2.032000*%
%ADD26C,3.048000*%
%ADD27C,2.000000*%
%ADD28C,1.600000*%
%ADD29O,1.600000X1.600000*%
G04 APERTURE END LIST*
D10*
X294799000Y-59600000D03*
X293529000Y-59600000D03*
X292259000Y-59600000D03*
D11*
X290989000Y-59600000D03*
D12*
X381000000Y-85000000D03*
X381000000Y55000000D03*
X-9000000Y-85000000D03*
X-9000000Y55000000D03*
D13*
X255905000Y-5080000D03*
D14*
X258445000Y-5080000D03*
D13*
X246375000Y-5062500D03*
D14*
X248915000Y-5062500D03*
D13*
X265430000Y-5080000D03*
D14*
X267970000Y-5080000D03*
D15*
X224790000Y2540000D03*
X231140000Y5080000D03*
D16*
X233680000Y0D03*
X223520000Y0D03*
D17*
X228600000Y0D03*
D15*
X243840000Y2540000D03*
X250190000Y5080000D03*
D16*
X252730000Y0D03*
X242570000Y0D03*
D17*
X247650000Y0D03*
D15*
X262890000Y2540000D03*
X269240000Y5080000D03*
D16*
X271780000Y0D03*
X261620000Y0D03*
D17*
X266700000Y0D03*
D18*
X190037000Y60200000D03*
D19*
X190037000Y64400000D03*
D20*
X188627000Y60751000D03*
X182847000Y60751000D03*
D19*
X181437000Y64400000D03*
D18*
X181437000Y60200000D03*
D21*
X297464000Y-64288000D03*
X288324000Y-54913000D03*
D22*
X257710000Y38840000D03*
X260250000Y38840000D03*
X257710000Y41380000D03*
X260250000Y41380000D03*
X257710000Y43920000D03*
X260250000Y43920000D03*
X257710000Y46460000D03*
X260250000Y46460000D03*
X257710000Y49000000D03*
D23*
X260250000Y49000000D03*
D24*
X0Y53875000D03*
X0Y41375000D03*
D25*
X-7000000Y50125000D03*
X-7000000Y45125000D03*
X7500000Y47625000D03*
X7500000Y45125000D03*
X7500000Y50125000D03*
D15*
X67627500Y-35560000D03*
X73977500Y-33020000D03*
D16*
X76517500Y-38100000D03*
X66357500Y-38100000D03*
D17*
X71437500Y-38100000D03*
X38100000Y0D03*
D16*
X33020000Y0D03*
X43180000Y0D03*
D15*
X40640000Y5080000D03*
X34290000Y2540000D03*
X-3810000Y31115000D03*
X2540000Y33655000D03*
D16*
X5080000Y28575000D03*
X-5080000Y28575000D03*
D17*
X0Y28575000D03*
X0Y0D03*
D16*
X-5080000Y0D03*
X5080000Y0D03*
D15*
X2540000Y5080000D03*
X-3810000Y2540000D03*
D17*
X4762500Y-19050000D03*
D15*
X952500Y-16510000D03*
X7302500Y-13970000D03*
D16*
X-317500Y-19050000D03*
X9842500Y-19050000D03*
D17*
X2381250Y-57150000D03*
D15*
X-1428750Y-54610000D03*
X4921250Y-52070000D03*
D16*
X-2698750Y-57150000D03*
X7461250Y-57150000D03*
X7461250Y-76200000D03*
X-2698750Y-76200000D03*
D15*
X4921250Y-71120000D03*
X-1428750Y-73660000D03*
D17*
X2381250Y-76200000D03*
X23844250Y-65405000D03*
X-31750Y-65405000D03*
D26*
X-31750Y-50165000D03*
X23844250Y-50165000D03*
D16*
X16986250Y-57150000D03*
X6826250Y-57150000D03*
D15*
X14446250Y-52070000D03*
X8096250Y-54610000D03*
D17*
X11906250Y-57150000D03*
X28575000Y28575000D03*
D16*
X23495000Y28575000D03*
X33655000Y28575000D03*
D15*
X31115000Y33655000D03*
X24765000Y31115000D03*
D17*
X19050000Y0D03*
D16*
X13970000Y0D03*
X24130000Y0D03*
D15*
X21590000Y5080000D03*
X15240000Y2540000D03*
D17*
X28575000Y-19050000D03*
D16*
X23495000Y-19050000D03*
X33655000Y-19050000D03*
D15*
X31115000Y-13970000D03*
X24765000Y-16510000D03*
X29527500Y-35560000D03*
X35877500Y-33020000D03*
D16*
X38417500Y-38100000D03*
X28257500Y-38100000D03*
D17*
X33337500Y-38100000D03*
X23812500Y-57150000D03*
D16*
X18732500Y-57150000D03*
X28892500Y-57150000D03*
D15*
X26352500Y-52070000D03*
X20002500Y-54610000D03*
D17*
X26193750Y-76200000D03*
D15*
X22383750Y-73660000D03*
X28733750Y-71120000D03*
D16*
X21113750Y-76200000D03*
X31273750Y-76200000D03*
D17*
X47625000Y28575000D03*
D16*
X42545000Y28575000D03*
X52705000Y28575000D03*
D15*
X50165000Y33655000D03*
X43815000Y31115000D03*
D17*
X47625000Y-19050000D03*
D16*
X42545000Y-19050000D03*
X52705000Y-19050000D03*
D15*
X50165000Y-13970000D03*
X43815000Y-16510000D03*
X48577500Y-35560000D03*
X54927500Y-33020000D03*
D16*
X57467500Y-38100000D03*
X47307500Y-38100000D03*
D17*
X52387500Y-38100000D03*
D15*
X39052500Y-54610000D03*
X45402500Y-52070000D03*
D16*
X47942500Y-57150000D03*
X37782500Y-57150000D03*
D17*
X42862500Y-57150000D03*
D16*
X55086250Y-76200000D03*
X44926250Y-76200000D03*
D15*
X52546250Y-71120000D03*
X46196250Y-73660000D03*
D17*
X50006250Y-76200000D03*
D15*
X62865000Y31115000D03*
X69215000Y33655000D03*
D16*
X71755000Y28575000D03*
X61595000Y28575000D03*
D17*
X66675000Y28575000D03*
D15*
X53340000Y2540000D03*
X59690000Y5080000D03*
D16*
X62230000Y0D03*
X52070000Y0D03*
D17*
X57150000Y0D03*
D15*
X62865000Y-16510000D03*
X69215000Y-13970000D03*
D16*
X71755000Y-19050000D03*
X61595000Y-19050000D03*
D17*
X66675000Y-19050000D03*
D15*
X58102500Y-54610000D03*
X64452500Y-52070000D03*
D16*
X66992500Y-57150000D03*
X56832500Y-57150000D03*
D17*
X61912500Y-57150000D03*
D15*
X81915000Y31115000D03*
X88265000Y33655000D03*
D16*
X90805000Y28575000D03*
X80645000Y28575000D03*
D17*
X85725000Y28575000D03*
D15*
X72390000Y2540000D03*
X78740000Y5080000D03*
D16*
X81280000Y0D03*
X71120000Y0D03*
D17*
X76200000Y0D03*
D15*
X81915000Y-16510000D03*
X88265000Y-13970000D03*
D16*
X90805000Y-19050000D03*
X80645000Y-19050000D03*
D17*
X85725000Y-19050000D03*
D15*
X86677500Y-35560000D03*
X93027500Y-33020000D03*
D16*
X95567500Y-38100000D03*
X85407500Y-38100000D03*
D17*
X90487500Y-38100000D03*
D15*
X77152500Y-54610000D03*
X83502500Y-52070000D03*
D16*
X86042500Y-57150000D03*
X75882500Y-57150000D03*
D17*
X80962500Y-57150000D03*
D15*
X105727500Y31115000D03*
X112077500Y33655000D03*
D16*
X114617500Y28575000D03*
X104457500Y28575000D03*
D17*
X109537500Y28575000D03*
D15*
X91440000Y2540000D03*
X97790000Y5080000D03*
D16*
X100330000Y0D03*
X90170000Y0D03*
D17*
X95250000Y0D03*
X104775000Y-19050000D03*
D16*
X99695000Y-19050000D03*
X109855000Y-19050000D03*
D15*
X107315000Y-13970000D03*
X100965000Y-16510000D03*
X105727500Y-35560000D03*
X112077500Y-33020000D03*
D16*
X114617500Y-38100000D03*
X104457500Y-38100000D03*
D17*
X109537500Y-38100000D03*
X100012500Y-57150000D03*
D16*
X94932500Y-57150000D03*
X105092500Y-57150000D03*
D15*
X102552500Y-52070000D03*
X96202500Y-54610000D03*
D17*
X121443750Y-76200000D03*
D15*
X117633750Y-73660000D03*
X123983750Y-71120000D03*
D16*
X116363750Y-76200000D03*
X126523750Y-76200000D03*
D26*
X71405750Y-69215000D03*
X171481750Y-69215000D03*
D17*
X171481750Y-84455000D03*
X71405750Y-84455000D03*
X128587500Y28575000D03*
D16*
X123507500Y28575000D03*
X133667500Y28575000D03*
D15*
X131127500Y33655000D03*
X124777500Y31115000D03*
D17*
X114300000Y0D03*
D16*
X109220000Y0D03*
X119380000Y0D03*
D15*
X116840000Y5080000D03*
X110490000Y2540000D03*
D17*
X123825000Y-19050000D03*
D16*
X118745000Y-19050000D03*
X128905000Y-19050000D03*
D15*
X126365000Y-13970000D03*
X120015000Y-16510000D03*
D17*
X128587500Y-38100000D03*
D16*
X123507500Y-38100000D03*
X133667500Y-38100000D03*
D15*
X131127500Y-33020000D03*
X124777500Y-35560000D03*
D17*
X119062500Y-57150000D03*
D16*
X113982500Y-57150000D03*
X124142500Y-57150000D03*
D15*
X121602500Y-52070000D03*
X115252500Y-54610000D03*
X143827500Y31115000D03*
X150177500Y33655000D03*
D16*
X152717500Y28575000D03*
X142557500Y28575000D03*
D17*
X147637500Y28575000D03*
D15*
X129540000Y2540000D03*
X135890000Y5080000D03*
D16*
X138430000Y0D03*
X128270000Y0D03*
D17*
X133350000Y0D03*
D15*
X139065000Y-16510000D03*
X145415000Y-13970000D03*
D16*
X147955000Y-19050000D03*
X137795000Y-19050000D03*
D17*
X142875000Y-19050000D03*
X147637500Y-38100000D03*
D16*
X142557500Y-38100000D03*
X152717500Y-38100000D03*
D15*
X150177500Y-33020000D03*
X143827500Y-35560000D03*
X134302500Y-54610000D03*
X140652500Y-52070000D03*
D16*
X143192500Y-57150000D03*
X133032500Y-57150000D03*
D17*
X138112500Y-57150000D03*
X166687500Y28575000D03*
D16*
X161607500Y28575000D03*
X171767500Y28575000D03*
D15*
X169227500Y33655000D03*
X162877500Y31115000D03*
D17*
X152400000Y0D03*
D16*
X147320000Y0D03*
X157480000Y0D03*
D15*
X154940000Y5080000D03*
X148590000Y2540000D03*
D17*
X161925000Y-19050000D03*
D16*
X156845000Y-19050000D03*
X167005000Y-19050000D03*
D15*
X164465000Y-13970000D03*
X158115000Y-16510000D03*
D17*
X166687500Y-38100000D03*
D16*
X161607500Y-38100000D03*
X171767500Y-38100000D03*
D15*
X169227500Y-33020000D03*
X162877500Y-35560000D03*
D17*
X157162500Y-57150000D03*
D16*
X152082500Y-57150000D03*
X162242500Y-57150000D03*
D15*
X159702500Y-52070000D03*
X153352500Y-54610000D03*
D17*
X190500000Y28575000D03*
D16*
X185420000Y28575000D03*
X195580000Y28575000D03*
D15*
X193040000Y33655000D03*
X186690000Y31115000D03*
X167640000Y2540000D03*
X173990000Y5080000D03*
D16*
X176530000Y0D03*
X166370000Y0D03*
D17*
X171450000Y0D03*
D15*
X177165000Y-16510000D03*
X183515000Y-13970000D03*
D16*
X186055000Y-19050000D03*
X175895000Y-19050000D03*
D17*
X180975000Y-19050000D03*
D15*
X181927500Y-35560000D03*
X188277500Y-33020000D03*
D16*
X190817500Y-38100000D03*
X180657500Y-38100000D03*
D17*
X185737500Y-38100000D03*
D15*
X172402500Y-54610000D03*
X178752500Y-52070000D03*
D16*
X181292500Y-57150000D03*
X171132500Y-57150000D03*
D17*
X176212500Y-57150000D03*
D15*
X186690000Y-73660000D03*
X193040000Y-71120000D03*
D16*
X195580000Y-76200000D03*
X185420000Y-76200000D03*
D17*
X190500000Y-76200000D03*
X209550000Y28575000D03*
D16*
X204470000Y28575000D03*
X214630000Y28575000D03*
D15*
X212090000Y33655000D03*
X205740000Y31115000D03*
X186690000Y2540000D03*
X193040000Y5080000D03*
D16*
X195580000Y0D03*
X185420000Y0D03*
D17*
X190500000Y0D03*
X200025000Y-19050000D03*
D16*
X194945000Y-19050000D03*
X205105000Y-19050000D03*
D15*
X202565000Y-13970000D03*
X196215000Y-16510000D03*
X200977500Y-35560000D03*
X207327500Y-33020000D03*
D16*
X209867500Y-38100000D03*
X199707500Y-38100000D03*
D17*
X204787500Y-38100000D03*
D15*
X191452500Y-54610000D03*
X197802500Y-52070000D03*
D16*
X200342500Y-57150000D03*
X190182500Y-57150000D03*
D17*
X195262500Y-57150000D03*
D15*
X205740000Y-73660000D03*
X212090000Y-71120000D03*
D16*
X214630000Y-76200000D03*
X204470000Y-76200000D03*
D17*
X209550000Y-76200000D03*
X228600000Y28575000D03*
D16*
X223520000Y28575000D03*
X233680000Y28575000D03*
D15*
X231140000Y33655000D03*
X224790000Y31115000D03*
D17*
X209550000Y0D03*
D16*
X204470000Y0D03*
X214630000Y0D03*
D15*
X212090000Y5080000D03*
X205740000Y2540000D03*
D17*
X219075000Y-19050000D03*
D16*
X213995000Y-19050000D03*
X224155000Y-19050000D03*
D15*
X221615000Y-13970000D03*
X215265000Y-16510000D03*
D17*
X223837500Y-38100000D03*
D16*
X218757500Y-38100000D03*
X228917500Y-38100000D03*
D15*
X226377500Y-33020000D03*
X220027500Y-35560000D03*
X210502500Y-54610000D03*
X216852500Y-52070000D03*
D16*
X219392500Y-57150000D03*
X209232500Y-57150000D03*
D17*
X214312500Y-57150000D03*
D15*
X224790000Y-73660000D03*
X231140000Y-71120000D03*
D16*
X233680000Y-76200000D03*
X223520000Y-76200000D03*
D17*
X228600000Y-76200000D03*
D15*
X243840000Y31115000D03*
X250190000Y33655000D03*
D16*
X252730000Y28575000D03*
X242570000Y28575000D03*
D17*
X247650000Y28575000D03*
X238125000Y-19050000D03*
D16*
X233045000Y-19050000D03*
X243205000Y-19050000D03*
D15*
X240665000Y-13970000D03*
X234315000Y-16510000D03*
D17*
X254793964Y-38100000D03*
D15*
X250983964Y-35560000D03*
X257333964Y-33020000D03*
D16*
X249713964Y-38100000D03*
X259873964Y-38100000D03*
D26*
X266731964Y-31115000D03*
X242855964Y-31115000D03*
D17*
X242855964Y-46355000D03*
X266731964Y-46355000D03*
X240506250Y-57150000D03*
D15*
X236696250Y-54610000D03*
X243046250Y-52070000D03*
D16*
X235426250Y-57150000D03*
X245586250Y-57150000D03*
D17*
X242887500Y-38100000D03*
D16*
X237807500Y-38100000D03*
X247967500Y-38100000D03*
D15*
X245427500Y-33020000D03*
X239077500Y-35560000D03*
X248602500Y-78422500D03*
X254952500Y-75882500D03*
D16*
X257492500Y-80962500D03*
X247332500Y-80962500D03*
D17*
X252412500Y-80962500D03*
X269113000Y-8255000D03*
X245237000Y-8255000D03*
D26*
X245237000Y6985000D03*
X269113000Y6985000D03*
D16*
X262255000Y0D03*
X252095000Y0D03*
D15*
X259715000Y5080000D03*
X253365000Y2540000D03*
D17*
X257175000Y0D03*
D16*
X267017500Y-19050000D03*
X256857500Y-19050000D03*
D15*
X264477500Y-13970000D03*
X258127500Y-16510000D03*
D17*
X261937500Y-19050000D03*
X271462500Y-61912500D03*
D16*
X266382500Y-61912500D03*
X276542500Y-61912500D03*
D15*
X274002500Y-56832500D03*
X267652500Y-59372500D03*
X267652500Y-78422500D03*
X274002500Y-75882500D03*
D16*
X276542500Y-80962500D03*
X266382500Y-80962500D03*
D17*
X271462500Y-80962500D03*
X271462500Y47625000D03*
D16*
X266382500Y47625000D03*
X276542500Y47625000D03*
D15*
X274002500Y52705000D03*
X267652500Y50165000D03*
D17*
X271462500Y28575000D03*
D16*
X266382500Y28575000D03*
X276542500Y28575000D03*
D15*
X274002500Y33655000D03*
X267652500Y31115000D03*
D17*
X290512500Y-80962500D03*
D16*
X285432500Y-80962500D03*
X295592500Y-80962500D03*
D15*
X293052500Y-75882500D03*
X286702500Y-78422500D03*
D17*
X290512500Y47625000D03*
D16*
X285432500Y47625000D03*
X295592500Y47625000D03*
D15*
X293052500Y52705000D03*
X286702500Y50165000D03*
D17*
X290512500Y28575000D03*
D16*
X285432500Y28575000D03*
X295592500Y28575000D03*
D15*
X293052500Y33655000D03*
X286702500Y31115000D03*
X286702500Y2540000D03*
X293052500Y5080000D03*
D16*
X295592500Y0D03*
X285432500Y0D03*
D17*
X290512500Y0D03*
D15*
X286702500Y-16510000D03*
X293052500Y-13970000D03*
D16*
X295592500Y-19050000D03*
X285432500Y-19050000D03*
D17*
X290512500Y-19050000D03*
D15*
X286702500Y-35560000D03*
X293052500Y-33020000D03*
D16*
X295592500Y-38100000D03*
X285432500Y-38100000D03*
D17*
X290512500Y-38100000D03*
X309562500Y47625000D03*
D16*
X304482500Y47625000D03*
X314642500Y47625000D03*
D15*
X312102500Y52705000D03*
X305752500Y50165000D03*
X305752500Y31115000D03*
X312102500Y33655000D03*
D16*
X314642500Y28575000D03*
X304482500Y28575000D03*
D17*
X309562500Y28575000D03*
X314325000Y0D03*
D16*
X309245000Y0D03*
X319405000Y0D03*
D15*
X316865000Y5080000D03*
X310515000Y2540000D03*
D17*
X314325000Y-19050000D03*
D16*
X309245000Y-19050000D03*
X319405000Y-19050000D03*
D15*
X316865000Y-13970000D03*
X310515000Y-16510000D03*
D17*
X314325000Y-38100000D03*
D16*
X309245000Y-38100000D03*
X319405000Y-38100000D03*
D15*
X316865000Y-33020000D03*
X310515000Y-35560000D03*
D17*
X314325000Y-57150000D03*
D16*
X309245000Y-57150000D03*
X319405000Y-57150000D03*
D15*
X316865000Y-52070000D03*
X310515000Y-54610000D03*
D17*
X323850000Y-76200000D03*
D15*
X320040000Y-73660000D03*
X326390000Y-71120000D03*
D16*
X318770000Y-76200000D03*
X328930000Y-76200000D03*
D26*
X335788000Y-69215000D03*
X311912000Y-69215000D03*
D17*
X311912000Y-84455000D03*
X335788000Y-84455000D03*
D15*
X310515000Y-73660000D03*
X316865000Y-71120000D03*
D16*
X319405000Y-76200000D03*
X309245000Y-76200000D03*
D17*
X314325000Y-76200000D03*
X333375000Y47625000D03*
D16*
X328295000Y47625000D03*
X338455000Y47625000D03*
D15*
X335915000Y52705000D03*
X329565000Y50165000D03*
D17*
X333375000Y28575000D03*
D16*
X328295000Y28575000D03*
X338455000Y28575000D03*
D15*
X335915000Y33655000D03*
X329565000Y31115000D03*
D17*
X333375000Y0D03*
D16*
X328295000Y0D03*
X338455000Y0D03*
D15*
X335915000Y5080000D03*
X329565000Y2540000D03*
X329565000Y-16510000D03*
X335915000Y-13970000D03*
D16*
X338455000Y-19050000D03*
X328295000Y-19050000D03*
D17*
X333375000Y-19050000D03*
D15*
X329565000Y-35560000D03*
X335915000Y-33020000D03*
D16*
X338455000Y-38100000D03*
X328295000Y-38100000D03*
D17*
X333375000Y-38100000D03*
D15*
X329565000Y-54610000D03*
X335915000Y-52070000D03*
D16*
X338455000Y-57150000D03*
X328295000Y-57150000D03*
D17*
X333375000Y-57150000D03*
D15*
X329565000Y-73660000D03*
X335915000Y-71120000D03*
D16*
X338455000Y-76200000D03*
X328295000Y-76200000D03*
D17*
X333375000Y-76200000D03*
D15*
X348615000Y50165000D03*
X354965000Y52705000D03*
D16*
X357505000Y47625000D03*
X347345000Y47625000D03*
D17*
X352425000Y47625000D03*
D15*
X348615000Y31115000D03*
X354965000Y33655000D03*
D16*
X357505000Y28575000D03*
X347345000Y28575000D03*
D17*
X352425000Y28575000D03*
D15*
X348615000Y2540000D03*
X354965000Y5080000D03*
D16*
X357505000Y0D03*
X347345000Y0D03*
D17*
X352425000Y0D03*
D15*
X348615000Y-16510000D03*
X354965000Y-13970000D03*
D16*
X357505000Y-19050000D03*
X347345000Y-19050000D03*
D17*
X352425000Y-19050000D03*
X352425000Y-38100000D03*
D16*
X347345000Y-38100000D03*
X357505000Y-38100000D03*
D15*
X354965000Y-33020000D03*
X348615000Y-35560000D03*
D17*
X352425000Y-57150000D03*
D16*
X347345000Y-57150000D03*
X357505000Y-57150000D03*
D15*
X354965000Y-52070000D03*
X348615000Y-54610000D03*
D17*
X352425000Y-76200000D03*
D16*
X347345000Y-76200000D03*
X357505000Y-76200000D03*
D15*
X354965000Y-71120000D03*
X348615000Y-73660000D03*
D17*
X371475000Y47625000D03*
D16*
X366395000Y47625000D03*
X376555000Y47625000D03*
D15*
X374015000Y52705000D03*
X367665000Y50165000D03*
D17*
X371475000Y28575000D03*
D16*
X366395000Y28575000D03*
X376555000Y28575000D03*
D15*
X374015000Y33655000D03*
X367665000Y31115000D03*
X367665000Y2540000D03*
X374015000Y5080000D03*
D16*
X376555000Y0D03*
X366395000Y0D03*
D17*
X371475000Y0D03*
D27*
X330500000Y12330000D03*
X330500000Y16830000D03*
X324000000Y12330000D03*
X324000000Y16830000D03*
D17*
X264318750Y-28575000D03*
D16*
X264318750Y-33655000D03*
X264318750Y-23495000D03*
D26*
X271303750Y-40513000D03*
X271303750Y-16637000D03*
D17*
X256063750Y-16637000D03*
X256063750Y-40513000D03*
D15*
X269398750Y-31115000D03*
X266858750Y-24765000D03*
D14*
X272732500Y14287500D03*
D13*
X270192500Y14287500D03*
X289242500Y14287500D03*
D14*
X291782500Y14287500D03*
X310832500Y14287500D03*
D13*
X308292500Y14287500D03*
D17*
X209550000Y47625000D03*
D16*
X204470000Y47625000D03*
X214630000Y47625000D03*
D15*
X212090000Y52705000D03*
X205740000Y50165000D03*
X224790000Y50165000D03*
X231140000Y52705000D03*
D16*
X233680000Y47625000D03*
X223520000Y47625000D03*
D17*
X228600000Y47625000D03*
X247650000Y47625000D03*
D16*
X242570000Y47625000D03*
X252730000Y47625000D03*
D15*
X250190000Y52705000D03*
X243840000Y50165000D03*
X374015000Y-15240000D03*
X376555000Y-21590000D03*
D16*
X371475000Y-24130000D03*
X371475000Y-13970000D03*
D17*
X371475000Y-19050000D03*
X371475000Y-38100000D03*
D16*
X371475000Y-33020000D03*
X371475000Y-43180000D03*
D15*
X376555000Y-40640000D03*
X374015000Y-34290000D03*
D17*
X2381250Y-38100000D03*
D15*
X-1428750Y-35560000D03*
X4921250Y-33020000D03*
D16*
X-2698750Y-38100000D03*
X7461250Y-38100000D03*
D17*
X7143750Y-38100000D03*
D15*
X3333750Y-35560000D03*
X9683750Y-33020000D03*
D16*
X2063750Y-38100000D03*
X12223750Y-38100000D03*
D15*
X24765000Y50165000D03*
X31115000Y52705000D03*
D16*
X33655000Y47625000D03*
X23495000Y47625000D03*
D17*
X28575000Y47625000D03*
X47625000Y47625000D03*
D16*
X42545000Y47625000D03*
X52705000Y47625000D03*
D15*
X50165000Y52705000D03*
X43815000Y50165000D03*
D17*
X66675000Y47625000D03*
D16*
X61595000Y47625000D03*
X71755000Y47625000D03*
D15*
X69215000Y52705000D03*
X62865000Y50165000D03*
X81915000Y50165000D03*
X88265000Y52705000D03*
D16*
X90805000Y47625000D03*
X80645000Y47625000D03*
D17*
X85725000Y47625000D03*
X109537590Y47625000D03*
D16*
X104457590Y47625000D03*
X114617590Y47625000D03*
D15*
X112077590Y52705000D03*
X105727590Y50165000D03*
X124777606Y50165000D03*
X131127606Y52705000D03*
D16*
X133667606Y47625000D03*
X123507606Y47625000D03*
D17*
X128587606Y47625000D03*
X147637500Y47625000D03*
D16*
X142557500Y47625000D03*
X152717500Y47625000D03*
D15*
X150177500Y52705000D03*
X143827500Y50165000D03*
X162877500Y50165000D03*
X169227500Y52705000D03*
D16*
X171767500Y47625000D03*
X161607500Y47625000D03*
D17*
X166687500Y47625000D03*
X190500160Y47625000D03*
D16*
X185420160Y47625000D03*
X195580160Y47625000D03*
D15*
X193040160Y52705000D03*
X186690160Y50165000D03*
D14*
X1270000Y23469600D03*
D13*
X-1270000Y23469600D03*
D14*
X1270000Y-5080000D03*
D13*
X-1270000Y-5080000D03*
X3492500Y-24130000D03*
D14*
X6032500Y-24130000D03*
D13*
X1111250Y-43180000D03*
D14*
X3651250Y-43180000D03*
D13*
X1111250Y-62230000D03*
D14*
X3651250Y-62230000D03*
D13*
X1111250Y-81280000D03*
D14*
X3651250Y-81280000D03*
D13*
X27305000Y42545000D03*
D14*
X29845000Y42545000D03*
X29845000Y23495000D03*
D13*
X27305000Y23495000D03*
X17780000Y-5080000D03*
D14*
X20320000Y-5080000D03*
X29845000Y-24130000D03*
D13*
X27305000Y-24130000D03*
X32067500Y-43180000D03*
D14*
X34607500Y-43180000D03*
D13*
X22542500Y-62230000D03*
D14*
X25082500Y-62230000D03*
X27463750Y-81280000D03*
D13*
X24923750Y-81280000D03*
X46355000Y42545000D03*
D14*
X48895000Y42545000D03*
D13*
X46355000Y23495000D03*
D14*
X48895000Y23495000D03*
X39370000Y-5080000D03*
D13*
X36830000Y-5080000D03*
D14*
X48895000Y-24130000D03*
D13*
X46355000Y-24130000D03*
X51117500Y-43180000D03*
D14*
X53657500Y-43180000D03*
D13*
X41592500Y-62230000D03*
D14*
X44132500Y-62230000D03*
X51276250Y-81280000D03*
D13*
X48736250Y-81280000D03*
X65278000Y42545000D03*
D14*
X67818000Y42545000D03*
D13*
X65405000Y23495000D03*
D14*
X67945000Y23495000D03*
D13*
X55880000Y-5080000D03*
D14*
X58420000Y-5080000D03*
X67945000Y-24130000D03*
D13*
X65405000Y-24130000D03*
X70167500Y-43180000D03*
D14*
X72707500Y-43180000D03*
X63182500Y-62230000D03*
D13*
X60642500Y-62230000D03*
D14*
X86995000Y42545000D03*
D13*
X84455000Y42545000D03*
D14*
X86995000Y23495000D03*
D13*
X84455000Y23495000D03*
D14*
X77470000Y-5080000D03*
D13*
X74930000Y-5080000D03*
X84455000Y-24130000D03*
D14*
X86995000Y-24130000D03*
D13*
X89217500Y-43180000D03*
D14*
X91757500Y-43180000D03*
X82232500Y-62230000D03*
D13*
X79692500Y-62230000D03*
X108267500Y42545000D03*
D14*
X110807500Y42545000D03*
D13*
X108267500Y23495000D03*
D14*
X110807500Y23495000D03*
D13*
X93980000Y-5080000D03*
D14*
X96520000Y-5080000D03*
X106045000Y-24130000D03*
D13*
X103505000Y-24130000D03*
D14*
X110807500Y-43180000D03*
D13*
X108267500Y-43180000D03*
D14*
X101282500Y-62230000D03*
D13*
X98742500Y-62230000D03*
D14*
X122713750Y-81280000D03*
D13*
X120173750Y-81280000D03*
X127317500Y42545000D03*
D14*
X129857500Y42545000D03*
X129857500Y23495000D03*
D13*
X127317500Y23495000D03*
D14*
X115570000Y-5080000D03*
D13*
X113030000Y-5080000D03*
X122555000Y-24130000D03*
D14*
X125095000Y-24130000D03*
X129857500Y-43180000D03*
D13*
X127317500Y-43180000D03*
X117792500Y-62230000D03*
D14*
X120332500Y-62230000D03*
X148907500Y42545000D03*
D13*
X146367500Y42545000D03*
D14*
X148907500Y23495000D03*
D13*
X146367500Y23495000D03*
D14*
X134620000Y-5080000D03*
D13*
X132080000Y-5080000D03*
X141605000Y-24130000D03*
D14*
X144145000Y-24130000D03*
D13*
X146367500Y-43180000D03*
D14*
X148907500Y-43180000D03*
X139382500Y-62230000D03*
D13*
X136842500Y-62230000D03*
X165455600Y42545000D03*
D14*
X167995600Y42545000D03*
D13*
X165417500Y23495000D03*
D14*
X167957500Y23495000D03*
D13*
X151130000Y-5080000D03*
D14*
X153670000Y-5080000D03*
D13*
X160655000Y-24130000D03*
D14*
X163195000Y-24130000D03*
X167957500Y-43180000D03*
D13*
X165417500Y-43180000D03*
X155892500Y-62230000D03*
D14*
X158432500Y-62230000D03*
D13*
X189230000Y42545000D03*
D14*
X191770000Y42545000D03*
X191770000Y23495000D03*
D13*
X189230000Y23495000D03*
D14*
X172720000Y-5080000D03*
D13*
X170180000Y-5080000D03*
D14*
X182245000Y-24130000D03*
D13*
X179705000Y-24130000D03*
D14*
X187007500Y-43180000D03*
D13*
X184467500Y-43180000D03*
D14*
X177482500Y-62230000D03*
D13*
X174942500Y-62230000D03*
X189230000Y-81280000D03*
D14*
X191770000Y-81280000D03*
D13*
X208280000Y42545000D03*
D14*
X210820000Y42545000D03*
X210820000Y23495000D03*
D13*
X208280000Y23495000D03*
D14*
X191770000Y-5080000D03*
D13*
X189230000Y-5080000D03*
D14*
X201295000Y-24130000D03*
D13*
X198755000Y-24130000D03*
X203517500Y-43180000D03*
D14*
X206057500Y-43180000D03*
X196532500Y-62230000D03*
D13*
X193992500Y-62230000D03*
D14*
X210820000Y-81280000D03*
D13*
X208280000Y-81280000D03*
X227330000Y42545000D03*
D14*
X229870000Y42545000D03*
D13*
X227330000Y23495000D03*
D14*
X229870000Y23495000D03*
X210820000Y-5080000D03*
D13*
X208280000Y-5080000D03*
X217805000Y-24130000D03*
D14*
X220345000Y-24130000D03*
D13*
X222567500Y-43180000D03*
D14*
X225107500Y-43180000D03*
X215582500Y-62230000D03*
D13*
X213042500Y-62230000D03*
X227330000Y-81280000D03*
D14*
X229870000Y-81280000D03*
D13*
X246380000Y42545000D03*
D14*
X248920000Y42545000D03*
X248920000Y23500000D03*
D13*
X246380000Y23500000D03*
D14*
X229870000Y-5080000D03*
D13*
X227330000Y-5080000D03*
X236855000Y-24130000D03*
D14*
X239395000Y-24130000D03*
D13*
X241617500Y-43180000D03*
D14*
X244157500Y-43180000D03*
D13*
X239236250Y-62230000D03*
D14*
X241776250Y-62230000D03*
D13*
X251142500Y-86042500D03*
D14*
X253682500Y-86042500D03*
D13*
X270205200Y42545000D03*
D14*
X272745200Y42545000D03*
X272732500Y23500000D03*
D13*
X270192500Y23500000D03*
D14*
X263207500Y-24130000D03*
D13*
X260667500Y-24130000D03*
X253523750Y-43180000D03*
D14*
X256063750Y-43180000D03*
D13*
X270192500Y-66992500D03*
D14*
X272732500Y-66992500D03*
D13*
X270192500Y-86042500D03*
D14*
X272732500Y-86042500D03*
D13*
X289242500Y42570400D03*
D14*
X291782500Y42570400D03*
X291800000Y23500000D03*
D13*
X289260000Y23500000D03*
D14*
X291782500Y-5080000D03*
D13*
X289242500Y-5080000D03*
X289242500Y-24130000D03*
D14*
X291782500Y-24130000D03*
D13*
X289242500Y-43180000D03*
D14*
X291782500Y-43180000D03*
X291782500Y-86042500D03*
D13*
X289242500Y-86042500D03*
X308292500Y42519600D03*
D14*
X310832500Y42519600D03*
X310832500Y23500000D03*
D13*
X308292500Y23500000D03*
X313055000Y-5080000D03*
D14*
X315595000Y-5080000D03*
D13*
X313055000Y-24130000D03*
D14*
X315595000Y-24130000D03*
X315595000Y-43180000D03*
D13*
X313055000Y-43180000D03*
D14*
X315595000Y-62230000D03*
D13*
X313055000Y-62230000D03*
D14*
X325120000Y-81280000D03*
D13*
X322580000Y-81280000D03*
X332105000Y42519600D03*
D14*
X334645000Y42519600D03*
X334645000Y23469600D03*
D13*
X332105000Y23469600D03*
D14*
X334645000Y-5080000D03*
D13*
X332105000Y-5080000D03*
X332105000Y-24130000D03*
D14*
X334645000Y-24130000D03*
X334645000Y-43180000D03*
D13*
X332105000Y-43180000D03*
D14*
X334645000Y-62230000D03*
D13*
X332105000Y-62230000D03*
X332105000Y-81280000D03*
D14*
X334645000Y-81280000D03*
D13*
X351155000Y42570400D03*
D14*
X353695000Y42570400D03*
D13*
X351155000Y23469600D03*
D14*
X353695000Y23469600D03*
X353695000Y-5080000D03*
D13*
X351155000Y-5080000D03*
X351155000Y-24130000D03*
D14*
X353695000Y-24130000D03*
X353695000Y-43180000D03*
D13*
X351155000Y-43180000D03*
X351155000Y-62230000D03*
D14*
X353695000Y-62230000D03*
X353695000Y-81280000D03*
D13*
X351155000Y-81280000D03*
D14*
X372745000Y42570400D03*
D13*
X370205000Y42570400D03*
X370205000Y23520400D03*
D14*
X372745000Y23520400D03*
X372745000Y-5080000D03*
D13*
X370205000Y-5080000D03*
D14*
X366395000Y-39370000D03*
D13*
X366395000Y-36830000D03*
X366395000Y-27305000D03*
D14*
X366395000Y-29845000D03*
X366395000Y-67945000D03*
D13*
X366395000Y-65405000D03*
D14*
X8413750Y-43180000D03*
D13*
X5873750Y-43180000D03*
D14*
X315595000Y-81280000D03*
D13*
X313055000Y-81280000D03*
D14*
X366395000Y-20320000D03*
D13*
X366395000Y-17780000D03*
X10636250Y-62230000D03*
D14*
X13176250Y-62230000D03*
D13*
X259238750Y-29845000D03*
D14*
X259238750Y-27305000D03*
D17*
X371475000Y-28575000D03*
D15*
X374015000Y-24765000D03*
X376555000Y-31115000D03*
D16*
X371475000Y-23495000D03*
X371475000Y-33655000D03*
D26*
X378460000Y-40513000D03*
X378460000Y-16637000D03*
D17*
X363220000Y-16637000D03*
X363220000Y-40513000D03*
D28*
X304000000Y14300000D03*
D29*
X296380000Y14300000D03*
X279080000Y11400000D03*
D28*
X286700000Y11400000D03*
X256220000Y15600000D03*
D29*
X248600000Y15600000D03*
D17*
X371475000Y-66675000D03*
D15*
X374015000Y-62865000D03*
X376555000Y-69215000D03*
D16*
X371475000Y-61595000D03*
X371475000Y-71755000D03*
D26*
X364490000Y-78613000D03*
X364490000Y-54737000D03*
D17*
X379730000Y-54737000D03*
X379730000Y-78613000D03*
M02*
