M48
; DRILL file {KiCad (5.99.0-2195-g476558ece)} date 08/03/20 03:20:46
; FORMAT={-:-/ absolute / metric / decimal}
; #@! TF.CreationDate,2020-08-03T03:20:46-04:00
; #@! TF.GenerationSoftware,Kicad,Pcbnew,(5.99.0-2195-g476558ece)
; #@! TF.FileFunction,Plated,1,2,PTH
FMAT,2
METRIC
T1C2.500
T2C4.000
T3C4.600
T4C5.200
%
G90
G05
T1
X-188.2Y0.0
X-170.213Y33.375
X-86.869Y38.561
X-77.0Y0.0
X-5.906Y38.561
X0.0Y0.0
X12.2Y0.0
X56.006Y-96.819
X75.056Y37.038
X108.394Y-66.388
X117.919Y-96.819
X136.969Y37.038
X190.674Y0.0
T2
X86.962Y0.0
X106.012Y0.0
X125.062Y0.0
T3
X36.237Y-104.487
X176.237Y-104.487
X-33.763Y-104.487
X-173.763Y-104.487
X-103.763Y-104.487
X176.237Y47.337
X106.237Y47.337
X36.237Y47.337
X-33.763Y47.337
X-103.763Y47.337
X-173.763Y47.337
T4
X108.394Y-73.888
T0
M30
