M48
; DRILL file {KiCad (5.99.0-3379-gdb40e0c595)} date 09/23/20 13:57:14
; FORMAT={-:-/ absolute / metric / decimal}
; #@! TF.CreationDate,2020-09-23T13:57:14-04:00
; #@! TF.GenerationSoftware,Kicad,Pcbnew,(5.99.0-3379-gdb40e0c595)
; #@! TF.FileFunction,Plated,1,2,PTH
FMAT,2
METRIC
T1C0.300
T2C0.400
T3C0.500
T4C0.600
T5C0.800
T6C0.900
T7C1.000
T8C1.100
T9C1.270
T10C1.524
T11C1.525
T12C1.800
T13C3.500
%
G90
G05
T1
X263.16Y-33.445
T2
X56.225Y-49.925
X71.715Y-52.234
X73.62Y-67.474
X75.0Y-86.425
X81.125Y-30.0
X81.4Y-58.425
X82.5Y-35.075
X83.425Y-35.075
X84.925Y-49.275
X85.05Y-69.33
X86.025Y-35.05
X86.95Y-35.075
X87.99Y-33.445
X89.93Y-47.965
X90.91Y-47.965
X91.88Y-47.995
X96.981Y-66.021
X99.2Y-145.225
X104.6Y-106.425
X106.0Y-57.625
X107.4Y-124.625
X112.8Y-86.225
X116.672Y-66.332
X124.8Y-106.825
X125.8Y-124.025
X126.4Y-85.425
X140.0Y-64.4
X143.6Y-105.825
X147.8Y-125.425
X152.6Y-86.625
X159.4Y-64.4
X159.4Y-125.425
X163.6Y-107.625
X174.6Y-107.625
X177.6Y-145.225
X181.175Y-65.325
X183.2Y-122.425
X183.4Y-88.025
X193.4Y-145.025
X194.095Y-68.005
X198.4Y-163.225
X201.2Y-106.425
X201.8Y-123.225
X205.2Y-59.025
X207.0Y-79.025
X207.0Y-88.825
X207.2Y-145.225
X209.555Y-91.445
X210.9Y-90.2
X211.577Y-167.569
X211.649Y-148.591
X212.2Y-107.625
X212.7Y-75.54
X212.7Y-76.84
X212.7Y-78.125
X212.851Y-147.411
X212.86Y-166.235
X215.0Y-79.425
X215.05Y-78.31
X215.06Y-75.63
X215.066Y-76.88
X215.535Y-67.065
X217.487Y-136.608
X219.0Y-110.5
X220.2Y-109.3
X220.781Y-129.624
X221.05Y-63.45
X221.69Y-45.21
X222.282Y-128.361
X222.535Y-46.465
X223.314Y-61.686
X224.0Y-66.225
X224.188Y-61.686
X224.2Y-125.425
X224.8Y-59.425
X225.14Y-61.686
X229.0Y-87.025
X229.44Y-50.64
X230.22Y-49.63
X231.6Y-144.825
X231.775Y-47.025
X232.725Y-47.025
X234.6Y-30.825
X236.18Y-61.315
X237.975Y-64.725
X238.03Y-43.05
X238.35Y-61.275
X238.5Y-33.4
X238.7Y-54.8
X238.8Y-62.125
X238.8Y-106.625
X240.3Y-31.775
X241.25Y-31.775
X242.2Y-31.775
X244.356Y-58.901
X244.356Y-59.854
X245.3Y-58.875
X245.308Y-59.854
X246.05Y-31.15
X247.0Y-31.125
X249.6Y-29.025
X249.6Y-29.925
X254.2Y-29.025
X254.2Y-29.925
X254.3Y-46.45
X254.4Y-61.795
X255.175Y-46.45
X255.45Y-54.025
X255.725Y-29.375
X255.725Y-30.375
X256.075Y-46.45
X258.8Y-106.425
X261.6Y-46.2
X261.8Y-125.625
X266.6Y-58.825
X267.2Y-48.025
X270.2Y-144.625
X270.5Y-67.5
X271.68Y-75.18
X272.25Y-69.0
X274.2Y-66.0
X274.6Y-105.625
X276.0Y-75.25
X276.0Y-76.5
X280.21Y-47.39
X280.91Y-81.01
X281.8Y-125.625
X282.59Y-85.67
X282.6Y-63.4
X283.5Y-69.375
X283.97Y-63.51
X284.25Y-75.25
X284.5Y-69.375
X284.64Y-87.885
X285.5Y-69.375
X286.5Y-61.4
X288.25Y-67.675
X288.68Y-53.62
X291.3Y-68.425
X292.0Y-69.625
X293.0Y-69.625
X293.0Y-104.625
X294.75Y-78.625
X294.8Y-142.825
X296.2Y-55.625
X296.6Y-69.675
X296.99Y-138.69
X297.25Y-66.375
X297.8Y-119.3
X298.66Y-67.14
X298.8Y-95.625
X299.2Y-64.6
X299.6Y-161.0
X300.14Y-35.66
X300.5Y-63.75
X300.7Y-83.0
X301.65Y-62.8
X301.8Y-83.0
X302.414Y-100.114
X302.811Y-52.489
X303.058Y-84.142
X303.1Y-66.0
X303.2Y-129.81
X304.89Y-80.43
X305.0Y-85.825
X305.6Y-94.425
X307.42Y-77.385
X308.3Y-68.825
X308.53Y-73.415
X310.18Y-69.485
X311.3Y-103.7
X311.35Y-172.35
X311.4Y-75.52
X311.7Y-49.4
X312.05Y-71.955
X312.41Y-172.35
X312.6Y-50.7
X312.67Y-113.2
X313.0Y-48.0
X314.071Y-110.491
X314.644Y-101.066
X315.425Y-109.625
X315.5Y-74.325
X317.52Y-91.42
X318.0Y-90.125
X319.341Y-109.089
X320.1Y-111.125
X320.6Y-78.625
X320.6Y-144.225
X320.801Y-114.499
X321.0Y-68.3
X322.025Y-63.675
X324.4Y-57.625
X325.71Y-64.39
X328.337Y-62.487
X329.037Y-63.188
X337.975Y-50.25
X340.9Y-86.4
X342.8Y-94.1
X342.8Y-97.1
X343.9Y-146.7
X344.864Y-61.686
X346.339Y-42.636
X346.341Y-62.866
X347.2Y-168.625
X347.634Y-43.816
X348.8Y-59.025
X364.5Y-68.5
X364.6Y-38.225
X366.2Y-58.825
X366.4Y-166.225
X368.6Y-86.425
X370.6Y-138.25
X382.865Y-66.365
X388.075Y-147.375
X388.1Y-128.4
X389.125Y-148.555
X389.32Y-129.58
X390.8Y-87.825
X391.4Y-144.225
X394.6Y-61.625
X401.915Y-67.285
X403.425Y-73.575
X404.95Y-52.9
X407.8Y-141.425
X408.2Y-87.225
X408.4Y-105.025
X422.62Y-109.45
X422.62Y-110.81
X423.08Y-117.44
X425.3Y-67.5
X425.85Y-127.86
X426.15Y-156.0
X426.8Y-152.825
X427.0Y-112.325
X429.59Y-108.26
X433.7Y-112.225
X434.48Y-107.94
T3
X356.268Y-146.649
X357.037Y-144.793
X357.037Y-148.506
X358.893Y-144.024
X358.893Y-149.274
X360.75Y-144.793
X360.75Y-148.506
X361.518Y-146.649
T5
X362.38Y-72.7
X370.0Y-72.7
X345.08Y-75.6
X352.7Y-75.6
X314.6Y-71.4
X322.22Y-71.4
T6
X432.395Y-123.83
X432.395Y-126.37
X231.417Y-130.18
X233.957Y-130.18
X379.055Y-111.13
X150.455Y-44.455
X152.995Y-44.455
X391.12Y-168.28
X152.995Y-111.13
X183.96Y-168.28
X381.595Y-111.13
X398.105Y-63.53
X400.645Y-63.53
X126.642Y-149.23
X129.183Y-149.23
X376.832Y-44.48
X64.73Y-92.08
X67.27Y-92.08
X355.243Y-111.13
X357.782Y-111.13
X379.055Y-130.18
X381.595Y-130.18
X374.292Y-44.48
X174.267Y-44.455
X176.808Y-44.455
X417.155Y-111.13
X419.695Y-111.13
X150.455Y-111.13
X212.367Y-63.505
X214.907Y-63.505
X79.0Y-34.47
X355.243Y-92.08
X357.782Y-92.08
X79.0Y-35.74
X79.0Y-37.01
X79.0Y-38.28
X212.367Y-44.455
X214.907Y-44.455
X164.742Y-149.23
X167.282Y-149.23
X202.843Y-149.23
X205.382Y-149.23
X274.28Y-168.28
X338.732Y-173.042
X121.88Y-92.08
X124.42Y-92.08
X336.192Y-173.042
X83.78Y-92.08
X86.32Y-92.08
X312.38Y-44.455
X314.92Y-44.455
X193.317Y-63.505
X195.857Y-63.505
X312.375Y-92.062
X314.915Y-92.062
X307.618Y-130.18
X310.157Y-130.18
X212.367Y-130.18
X214.907Y-130.18
X279.042Y-149.23
X281.582Y-149.23
X112.355Y-44.455
X357.782Y-173.042
X186.167Y-168.28
X188.707Y-168.28
X305.236Y-149.23
X307.776Y-149.23
X69.492Y-111.13
X114.895Y-44.455
X355.243Y-173.042
X72.032Y-111.13
X236.18Y-92.08
X388.58Y-168.28
X276.82Y-168.28
X69.658Y-168.28
X72.198Y-168.28
X148.069Y-168.262
X150.609Y-168.262
X238.72Y-92.08
X193.317Y-130.18
X195.857Y-130.18
X226.655Y-111.13
X229.195Y-111.13
X417.155Y-130.18
X419.695Y-130.18
X257.77Y-168.28
X174.267Y-130.18
X176.808Y-130.18
X255.23Y-168.28
X105.37Y-92.08
X112.355Y-111.13
X64.73Y-63.53
X67.27Y-63.53
X219.52Y-168.265
X222.06Y-168.265
X102.83Y-92.08
X98.067Y-130.18
X100.608Y-130.18
X114.895Y-111.13
X93.305Y-63.505
X95.845Y-63.505
X436.205Y-63.48
X438.745Y-63.48
X417.155Y-44.43
X419.695Y-44.43
X325.239Y-114.305
X231.417Y-63.505
X233.957Y-63.505
X325.239Y-116.845
X355.243Y-130.18
X357.782Y-130.18
X417.155Y-63.53
X419.695Y-63.53
X93.305Y-44.455
X95.845Y-44.455
X336.192Y-63.5
X338.732Y-63.5
X379.055Y-92.08
X262.532Y-149.23
X255.23Y-92.08
X257.77Y-92.08
X379.055Y-168.28
X381.595Y-168.28
X274.28Y-44.455
X276.82Y-44.455
X381.595Y-92.08
X90.924Y-168.28
X93.464Y-168.28
X398.105Y-44.48
X400.645Y-44.48
X436.205Y-92.08
X438.745Y-92.08
X217.13Y-92.08
X219.67Y-92.08
X179.03Y-168.28
X326.667Y-111.13
X259.993Y-149.23
X240.942Y-149.23
X243.482Y-149.23
X255.23Y-44.455
X257.77Y-44.455
X112.355Y-63.505
X114.895Y-63.505
X329.207Y-111.13
X436.205Y-44.43
X438.745Y-44.43
X67.111Y-149.23
X69.651Y-149.23
X107.593Y-149.23
X110.132Y-149.23
X274.28Y-63.505
X276.82Y-63.505
X432.395Y-114.305
X432.395Y-116.845
X336.192Y-153.993
X338.732Y-153.993
X88.542Y-149.23
X91.082Y-149.23
X355.243Y-72.712
X357.782Y-72.712
X338.732Y-72.712
X183.792Y-149.23
X186.332Y-149.23
X67.111Y-130.18
X69.651Y-130.18
X67.118Y-168.28
X69.658Y-168.28
X274.28Y-92.08
X336.192Y-72.712
X276.82Y-92.08
X269.517Y-130.18
X272.058Y-130.18
X417.155Y-149.23
X114.743Y-168.28
X117.283Y-168.28
X169.505Y-111.13
X172.045Y-111.13
X336.205Y-44.455
X338.745Y-44.455
X398.105Y-92.08
X400.645Y-92.08
X355.26Y-63.5
X357.8Y-63.5
X419.695Y-149.23
X302.855Y-111.13
X305.395Y-111.13
X398.105Y-168.28
X400.645Y-168.28
X255.23Y-63.505
X257.77Y-63.505
X231.456Y-44.455
X233.996Y-44.455
X398.105Y-111.13
X155.218Y-130.18
X157.757Y-130.18
X317.142Y-173.042
X319.683Y-173.042
X398.105Y-149.23
X288.555Y-168.28
X291.095Y-168.28
X191.095Y-111.13
X198.08Y-92.08
X200.62Y-92.08
X400.645Y-149.23
X76.636Y-149.23
X79.176Y-149.23
X288.567Y-130.18
X98.055Y-168.305
X100.595Y-168.305
X259.98Y-168.255
X398.105Y-130.18
X400.645Y-130.18
X400.645Y-111.13
X293.33Y-168.28
X295.87Y-168.28
X291.107Y-130.18
X140.93Y-92.08
X143.47Y-92.08
X419.695Y-168.28
X262.52Y-168.255
X131.405Y-63.505
X133.945Y-63.505
X193.317Y-44.455
X195.857Y-44.455
X131.405Y-111.13
X133.945Y-111.13
X131.278Y-44.455
X133.818Y-44.455
X374.292Y-63.5
X376.832Y-63.5
X145.692Y-149.23
X148.232Y-149.23
X93.305Y-111.13
X95.845Y-111.13
X221.892Y-149.23
X224.432Y-149.23
X283.805Y-111.13
X286.345Y-111.13
X264.755Y-111.13
X267.295Y-111.13
X312.38Y-63.5
X417.155Y-168.28
X319.524Y-130.18
X322.064Y-130.18
X150.455Y-63.505
X152.995Y-63.505
X159.98Y-92.08
X162.52Y-92.08
X314.92Y-63.5
X136.167Y-130.18
X138.707Y-130.18
X432.395Y-152.405
X432.395Y-154.945
X331.43Y-92.08
X333.97Y-92.08
X174.267Y-63.505
X176.808Y-63.505
X250.468Y-130.18
X253.007Y-130.18
X179.03Y-92.08
X181.57Y-92.08
X117.117Y-130.18
X293.33Y-92.08
X295.87Y-92.08
X245.705Y-111.13
X248.245Y-111.13
X432.395Y-104.78
X432.395Y-107.32
X295.87Y-44.455
X355.243Y-44.43
X357.782Y-44.43
X417.155Y-92.08
X419.695Y-92.08
X293.33Y-63.505
X295.87Y-63.505
X293.33Y-44.455
X119.657Y-130.18
X374.292Y-72.712
X376.832Y-72.712
X207.605Y-111.13
X210.145Y-111.13
X71.874Y-130.18
X74.414Y-130.18
X379.055Y-149.23
X381.595Y-149.23
X188.555Y-111.13
X321.905Y-92.08
X324.445Y-92.08
T7
X76.225Y-36.975
X76.225Y-39.515
X76.225Y-42.055
X57.255Y-35.175
X323.71Y-38.0
X323.71Y-40.54
X323.71Y-43.08
X323.71Y-45.62
X323.71Y-48.16
X326.25Y-38.0
X326.25Y-40.54
X326.25Y-43.08
X326.25Y-45.62
X326.25Y-48.16
X57.255Y-37.715
T8
X390.0Y-70.17
X390.0Y-74.67
X396.5Y-70.17
X396.5Y-74.67
T9
X59.0Y-33.875
X59.0Y-38.875
X73.5Y-33.875
X73.5Y-36.375
X73.5Y-38.875
T10
X88.384Y-160.66
X94.734Y-158.12
X386.04Y-160.66
X392.39Y-158.12
X145.534Y-160.66
X64.571Y-160.66
X324.127Y-103.51
X330.477Y-100.97
X69.334Y-122.56
X75.684Y-120.02
X64.571Y-141.61
X70.921Y-139.07
X183.634Y-160.66
X189.984Y-158.12
X112.196Y-160.66
X118.546Y-158.12
X70.921Y-158.12
X316.984Y-122.56
X323.334Y-120.02
X151.884Y-158.12
X176.49Y-160.66
X182.84Y-158.12
X178.871Y-160.66
X309.046Y-139.07
X442.555Y-156.215
X440.015Y-111.765
X442.555Y-118.115
X95.527Y-160.66
X101.877Y-158.12
X302.696Y-141.61
X257.452Y-160.66
X263.803Y-158.12
X66.953Y-103.51
X73.302Y-100.97
X64.571Y-122.56
X66.953Y-160.66
X73.302Y-158.12
X440.015Y-149.865
X74.096Y-141.61
X80.446Y-139.07
X185.221Y-158.12
X319.365Y-84.46
X325.715Y-81.92
X216.971Y-160.66
X70.921Y-120.02
X332.859Y-111.765
X335.399Y-118.115
X286.027Y-160.66
X292.377Y-158.12
X223.321Y-158.12
T11
X352.702Y-122.56
X359.053Y-120.02
X124.102Y-141.61
X130.452Y-139.07
X228.877Y-55.885
X235.227Y-53.345
X105.052Y-141.61
X111.402Y-139.07
X214.59Y-84.46
X220.94Y-81.92
X414.615Y-84.46
X420.965Y-81.92
X138.39Y-84.46
X144.74Y-81.92
X328.89Y-84.46
X116.165Y-53.345
X335.24Y-81.92
X157.44Y-84.46
X128.865Y-103.51
X109.815Y-36.835
X433.665Y-36.835
X252.69Y-55.885
X259.04Y-53.345
X163.79Y-81.92
X116.165Y-34.295
X109.815Y-55.885
X286.027Y-122.56
X292.377Y-120.02
X135.215Y-100.97
X440.015Y-34.295
X352.702Y-103.51
X359.053Y-100.97
X176.49Y-84.46
X182.84Y-81.92
X81.24Y-84.46
X87.59Y-81.92
X271.74Y-160.66
X278.09Y-158.12
X90.765Y-55.885
X97.115Y-53.345
X190.778Y-55.885
X197.127Y-53.345
X205.065Y-103.51
X211.415Y-100.97
X224.115Y-103.51
X230.465Y-100.97
X300.315Y-103.51
X306.665Y-100.97
X290.79Y-84.46
X297.14Y-81.92
X109.815Y-103.51
X116.165Y-100.97
X257.452Y-141.61
X263.803Y-139.07
X152.677Y-122.56
X159.028Y-120.02
X359.053Y-34.295
X414.615Y-103.51
X420.965Y-100.97
X352.702Y-36.835
X376.515Y-84.46
X382.865Y-81.92
X147.915Y-55.885
X154.265Y-53.345
X395.565Y-141.61
X401.915Y-139.07
X181.252Y-141.61
X187.602Y-139.07
X266.977Y-122.56
X273.327Y-120.02
X209.827Y-36.835
X216.177Y-34.295
X200.302Y-141.61
X206.653Y-139.07
X90.765Y-103.51
X97.115Y-100.97
X166.965Y-103.51
X173.315Y-100.97
X133.627Y-122.56
X139.977Y-120.02
X395.565Y-160.66
X401.915Y-158.12
X376.515Y-122.56
X382.865Y-120.02
X90.765Y-36.835
X97.115Y-34.295
X186.015Y-103.51
X192.365Y-100.97
X333.652Y-146.373
X340.002Y-143.832
X414.615Y-36.835
X420.965Y-34.295
X233.64Y-84.46
X239.99Y-81.92
X376.515Y-160.66
X382.865Y-158.12
X414.615Y-122.56
X309.84Y-55.885
X420.965Y-120.02
X316.19Y-53.345
X371.752Y-55.885
X378.102Y-53.345
X119.34Y-84.46
X209.827Y-55.885
X216.177Y-53.345
X290.79Y-55.885
X297.14Y-53.345
X243.165Y-103.51
X249.515Y-100.97
X171.727Y-122.56
X178.077Y-120.02
X376.515Y-103.51
X382.865Y-100.97
X252.69Y-160.66
X259.04Y-158.12
X143.153Y-141.61
X316.19Y-81.92
X252.69Y-36.835
X259.04Y-34.295
X125.69Y-81.92
X309.84Y-36.835
X316.19Y-34.295
X216.177Y-120.02
X168.552Y-139.07
X440.015Y-81.92
X219.352Y-141.61
X225.702Y-139.07
X440.015Y-121.29
X209.827Y-122.56
X162.202Y-141.61
X433.665Y-84.46
X238.403Y-141.61
X244.752Y-139.07
X309.84Y-84.46
X147.915Y-36.835
X154.265Y-34.295
X190.778Y-122.56
X197.127Y-120.02
X352.702Y-55.885
X149.502Y-139.07
X252.69Y-84.46
X259.04Y-81.92
X271.74Y-84.46
X433.665Y-55.885
X440.015Y-53.345
X290.79Y-160.66
X297.14Y-158.12
X278.09Y-81.92
X333.652Y-55.885
X314.602Y-165.422
X320.952Y-162.882
X228.877Y-36.835
X235.227Y-34.295
X305.077Y-122.56
X311.428Y-120.02
X442.555Y-127.64
X352.702Y-84.46
X359.053Y-81.92
X340.002Y-53.345
X128.865Y-55.885
X135.215Y-53.345
X414.615Y-55.885
X420.965Y-53.345
X395.565Y-55.885
X401.915Y-53.345
X262.215Y-103.51
X290.79Y-36.835
X297.14Y-34.295
X228.877Y-122.56
X235.227Y-120.02
X171.727Y-55.885
X178.077Y-53.345
X352.702Y-165.422
X359.053Y-162.882
X268.565Y-100.97
X395.565Y-36.835
X401.915Y-34.295
X395.565Y-122.56
X401.915Y-120.02
X128.865Y-36.835
X62.19Y-55.885
X68.54Y-53.345
X359.053Y-53.345
X171.728Y-36.835
X135.215Y-34.295
X271.74Y-55.885
X278.09Y-53.345
X440.015Y-102.24
X281.265Y-103.51
X62.19Y-84.46
X68.54Y-81.92
X371.752Y-36.835
X378.102Y-34.295
X414.615Y-160.66
X420.965Y-158.12
X333.652Y-165.422
X340.002Y-162.882
X333.652Y-36.835
X340.002Y-34.295
X178.078Y-34.295
X271.74Y-36.835
X395.565Y-84.46
X401.915Y-81.92
X442.555Y-108.59
X247.927Y-122.56
X287.615Y-100.97
X114.578Y-122.56
X120.927Y-120.02
X147.915Y-103.51
X154.265Y-100.97
X95.527Y-122.56
X414.615Y-141.61
X420.965Y-139.07
X190.778Y-36.835
X197.128Y-34.295
X254.277Y-120.02
X101.877Y-120.02
X376.515Y-141.61
X382.865Y-139.07
X276.502Y-141.61
X282.852Y-139.07
X395.565Y-103.51
X401.915Y-100.97
X100.29Y-84.46
X106.64Y-81.92
X86.002Y-141.61
X92.352Y-139.07
X195.54Y-84.46
X201.89Y-81.92
X278.09Y-34.295
T13
X358.893Y-146.649
T4
G00X247.437Y-22.3
M15
G01X247.437Y-22.9
M16
G05
G00X247.437Y-26.25
M15
G01X247.437Y-27.35
M16
G05
G00X256.037Y-22.3
M15
G01X256.037Y-22.9
M16
G05
G00X256.037Y-26.25
M15
G01X256.037Y-27.35
M16
G05
T6
G00X181.27Y-168.28
M15
G01X181.57Y-168.28
M16
G05
G00X181.87Y-168.28
M15
G01X181.27Y-168.28
M16
G05
T12
G00X65.45Y-30.125
M15
G01X66.55Y-30.125
M16
G05
G00X65.45Y-42.625
M15
G01X66.55Y-42.625
M16
G05
T0
M30
