G04 #@! TF.GenerationSoftware,KiCad,Pcbnew,(5.99.0-3379-gdb40e0c595)*
G04 #@! TF.CreationDate,2020-09-23T13:57:13-04:00*
G04 #@! TF.ProjectId,Boston-keyboard-S,426f7374-6f6e-42d6-9b65-79626f617264,rev?*
G04 #@! TF.SameCoordinates,Original*
G04 #@! TF.FileFunction,Profile,NP*
%FSLAX46Y46*%
G04 Gerber Fmt 4.6, Leading zero omitted, Abs format (unit mm)*
G04 Created by KiCad (PCBNEW (5.99.0-3379-gdb40e0c595)) date 2020-09-23 13:57:13*
%MOMM*%
%LPD*%
G01*
G04 APERTURE LIST*
G04 #@! TA.AperFunction,Profile*
%ADD10C,0.050000*%
G04 #@! TD*
G04 APERTURE END LIST*
D10*
X448475000Y-31000000D02*
G75*
G03*
X445475000Y-28000000I-3000000J0D01*
G01*
X362000000Y-153425000D02*
X362000000Y-153925000D01*
X360000000Y-153425000D02*
X360000000Y-153925000D01*
X355500000Y-153925000D02*
G75*
G03*
X357500000Y-153925000I1000000J0D01*
G01*
X354500000Y-142925000D02*
G75*
G02*
X355000000Y-142425000I500000J0D01*
G01*
X55000000Y-31000000D02*
X55000000Y-172000000D01*
X354500000Y-150425000D02*
G75*
G03*
X355000000Y-150925000I500000J0D01*
G01*
X256237000Y-21300000D02*
G75*
G02*
X259737000Y-24800000I0J-3500000D01*
G01*
X357500000Y-153925000D02*
X357500000Y-153425000D01*
X333500000Y-72712500D02*
G75*
G03*
X333500000Y-72712500I-3500000J0D01*
G01*
X354500000Y-150425000D02*
X354500000Y-142925000D01*
X177000000Y-72712500D02*
G75*
G03*
X177000000Y-72712500I-3500000J0D01*
G01*
X355500000Y-153925000D02*
X355500000Y-153425000D01*
X355000000Y-142425000D02*
X362500000Y-142425000D01*
X448475000Y-31000000D02*
X448475000Y-172000000D01*
X261737000Y-28000000D02*
G75*
G02*
X259737000Y-26000000I0J2000000D01*
G01*
X365000000Y-142925000D02*
X365000000Y-150425000D01*
X362500000Y-150925000D02*
G75*
G03*
X363000000Y-150425000I0J500000D01*
G01*
X58000000Y-175000000D02*
G75*
G02*
X55000000Y-172000000I0J3000000D01*
G01*
X360000000Y-153925000D02*
G75*
G03*
X362000000Y-153925000I1000000J0D01*
G01*
X362500000Y-152925000D02*
G75*
G03*
X365000000Y-150425000I0J2500000D01*
G01*
X362500000Y-140425000D02*
X355000000Y-140425000D01*
X355500000Y-153425000D02*
G75*
G03*
X355000000Y-152925000I-500000J0D01*
G01*
X360000000Y-153425000D02*
G75*
G02*
X362500000Y-150925000I2500000J0D01*
G01*
X448475000Y-172000000D02*
G75*
G02*
X445475000Y-175000000I-3000000J0D01*
G01*
X363000000Y-142925000D02*
G75*
G03*
X362500000Y-142425000I-500000J0D01*
G01*
X243737000Y-24800000D02*
X243737000Y-26000000D01*
X241737000Y-28000000D02*
G75*
G03*
X243737000Y-26000000I0J2000000D01*
G01*
X241737000Y-28000000D02*
X58000000Y-28000000D01*
X363000000Y-142925000D02*
X363000000Y-150425000D01*
X55000000Y-31000000D02*
G75*
G02*
X58000000Y-28000000I3000000J0D01*
G01*
X247237000Y-21300000D02*
X256237000Y-21300000D01*
X362000000Y-153425000D02*
G75*
G02*
X362500000Y-152925000I500000J0D01*
G01*
X445475000Y-175000000D02*
X58000000Y-175000000D01*
X352500000Y-142925000D02*
G75*
G02*
X355000000Y-140425000I2500000J0D01*
G01*
X357500000Y-153425000D02*
G75*
G03*
X355000000Y-150925000I-2500000J0D01*
G01*
X243737000Y-24800000D02*
G75*
G02*
X247237000Y-21300000I3500000J0D01*
G01*
X352500000Y-142925000D02*
X352500000Y-150425000D01*
X365000000Y-142925000D02*
G75*
G03*
X362500000Y-140425000I-2500000J0D01*
G01*
X259737000Y-24800000D02*
X259737000Y-26000000D01*
X352500000Y-150425000D02*
G75*
G03*
X355000000Y-152925000I2500000J0D01*
G01*
X261737000Y-28000000D02*
X445475000Y-28000000D01*
M02*
