%TF.GenerationSoftware,KiCad,Pcbnew,(5.99.0-2536-ga146cd9e2-dirty)*%
%TF.CreationDate,2020-08-08T15:01:54-04:00*%
%TF.ProjectId,bottom,626f7474-6f6d-42e6-9b69-6361645f7063,rev?*%
%TF.SameCoordinates,Original*%
%TF.FileFunction,Legend,Top*%
%TF.FilePolarity,Positive*%
%FSLAX46Y46*%
G04 Gerber Fmt 4.6, Leading zero omitted, Abs format (unit mm)*
G04 Created by KiCad (PCBNEW (5.99.0-2536-ga146cd9e2-dirty)) date 2020-08-08 15:01:54*
%MOMM*%
%LPD*%
G01*
G04 APERTURE LIST*
%ADD10C,0.150000*%
%ADD11C,0.300000*%
G04 APERTURE END LIST*
D10*
%TO.C,H5*%
X222238095Y83250065D02*
X222238095Y84250065D01*
X222238095Y83773874D02*
X222809523Y83773874D01*
X222809523Y83250065D02*
X222809523Y84250065D01*
X223761904Y84250065D02*
X223285714Y84250065D01*
X223238095Y83773874D01*
X223285714Y83821493D01*
X223380952Y83869112D01*
X223619047Y83869112D01*
X223714285Y83821493D01*
X223761904Y83773874D01*
X223809523Y83678636D01*
X223809523Y83440541D01*
X223761904Y83345303D01*
X223714285Y83297684D01*
X223619047Y83250065D01*
X223380952Y83250065D01*
X223285714Y83297684D01*
X223238095Y83345303D01*
D11*
%TO.C,HL1*%
X117222000Y15310571D02*
X117222000Y16834571D01*
X117222000Y16108857D02*
X118092857Y16108857D01*
X118092857Y15310571D02*
X118092857Y16834571D01*
X119544285Y15310571D02*
X118818571Y15310571D01*
X118818571Y16834571D01*
X120850571Y15310571D02*
X119979714Y15310571D01*
X120415142Y15310571D02*
X120415142Y16834571D01*
X120270000Y16616857D01*
X120124857Y16471714D01*
X119979714Y16399142D01*
D10*
%TO.C,H7*%
X-57761904Y-41602380D02*
X-57761904Y-40602380D01*
X-57761904Y-41078571D02*
X-57190476Y-41078571D01*
X-57190476Y-41602380D02*
X-57190476Y-40602380D01*
X-56809523Y-40602380D02*
X-56142857Y-40602380D01*
X-56571428Y-41602380D01*
%TO.C,H14*%
X-24851095Y54127619D02*
X-24851095Y55127619D01*
X-24851095Y54651428D02*
X-24279666Y54651428D01*
X-24279666Y54127619D02*
X-24279666Y55127619D01*
X-23279666Y54127619D02*
X-23851095Y54127619D01*
X-23565380Y54127619D02*
X-23565380Y55127619D01*
X-23660619Y54984761D01*
X-23755857Y54889523D01*
X-23851095Y54841904D01*
X-22422523Y54794285D02*
X-22422523Y54127619D01*
X-22660619Y55175238D02*
X-22898714Y54460952D01*
X-22279666Y54460952D01*
%TO.C,H10*%
X151761904Y-41602380D02*
X151761904Y-40602380D01*
X151761904Y-41078571D02*
X152333333Y-41078571D01*
X152333333Y-41602380D02*
X152333333Y-40602380D01*
X153333333Y-41602380D02*
X152761904Y-41602380D01*
X153047619Y-41602380D02*
X153047619Y-40602380D01*
X152952380Y-40745238D01*
X152857142Y-40840476D01*
X152761904Y-40888095D01*
X153952380Y-40602380D02*
X154047619Y-40602380D01*
X154142857Y-40650000D01*
X154190476Y-40697619D01*
X154238095Y-40792857D01*
X154285714Y-40983333D01*
X154285714Y-41221428D01*
X154238095Y-41411904D01*
X154190476Y-41507142D01*
X154142857Y-41554761D01*
X154047619Y-41602380D01*
X153952380Y-41602380D01*
X153857142Y-41554761D01*
X153809523Y-41507142D01*
X153761904Y-41411904D01*
X153714285Y-41221428D01*
X153714285Y-40983333D01*
X153761904Y-40792857D01*
X153809523Y-40697619D01*
X153857142Y-40650000D01*
X153952380Y-40602380D01*
%TO.C,H9*%
X82238095Y-41602380D02*
X82238095Y-40602380D01*
X82238095Y-41078571D02*
X82809523Y-41078571D01*
X82809523Y-41602380D02*
X82809523Y-40602380D01*
X83333333Y-41602380D02*
X83523809Y-41602380D01*
X83619047Y-41554761D01*
X83666666Y-41507142D01*
X83761904Y-41364285D01*
X83809523Y-41173809D01*
X83809523Y-40792857D01*
X83761904Y-40697619D01*
X83714285Y-40650000D01*
X83619047Y-40602380D01*
X83428571Y-40602380D01*
X83333333Y-40650000D01*
X83285714Y-40697619D01*
X83238095Y-40792857D01*
X83238095Y-41030952D01*
X83285714Y-41126190D01*
X83333333Y-41173809D01*
X83428571Y-41221428D01*
X83619047Y-41221428D01*
X83714285Y-41173809D01*
X83761904Y-41126190D01*
X83809523Y-41030952D01*
%TO.C,H12*%
X291761904Y-41602380D02*
X291761904Y-40602380D01*
X291761904Y-41078571D02*
X292333333Y-41078571D01*
X292333333Y-41602380D02*
X292333333Y-40602380D01*
X293333333Y-41602380D02*
X292761904Y-41602380D01*
X293047619Y-41602380D02*
X293047619Y-40602380D01*
X292952380Y-40745238D01*
X292857142Y-40840476D01*
X292761904Y-40888095D01*
X293714285Y-40697619D02*
X293761904Y-40650000D01*
X293857142Y-40602380D01*
X294095238Y-40602380D01*
X294190476Y-40650000D01*
X294238095Y-40697619D01*
X294285714Y-40792857D01*
X294285714Y-40888095D01*
X294238095Y-41030952D01*
X293666666Y-41602380D01*
X294285714Y-41602380D01*
%TO.C,H4*%
X152238095Y83250065D02*
X152238095Y84250065D01*
X152238095Y83773874D02*
X152809523Y83773874D01*
X152809523Y83250065D02*
X152809523Y84250065D01*
X153714285Y83916731D02*
X153714285Y83250065D01*
X153476190Y84297684D02*
X153238095Y83583398D01*
X153857142Y83583398D01*
%TO.C,H8*%
X12238095Y-41602380D02*
X12238095Y-40602380D01*
X12238095Y-41078571D02*
X12809523Y-41078571D01*
X12809523Y-41602380D02*
X12809523Y-40602380D01*
X13428571Y-41030952D02*
X13333333Y-40983333D01*
X13285714Y-40935714D01*
X13238095Y-40840476D01*
X13238095Y-40792857D01*
X13285714Y-40697619D01*
X13333333Y-40650000D01*
X13428571Y-40602380D01*
X13619047Y-40602380D01*
X13714285Y-40650000D01*
X13761904Y-40697619D01*
X13809523Y-40792857D01*
X13809523Y-40840476D01*
X13761904Y-40935714D01*
X13714285Y-40983333D01*
X13619047Y-41030952D01*
X13428571Y-41030952D01*
X13333333Y-41078571D01*
X13285714Y-41126190D01*
X13238095Y-41221428D01*
X13238095Y-41411904D01*
X13285714Y-41507142D01*
X13333333Y-41554761D01*
X13428571Y-41602380D01*
X13619047Y-41602380D01*
X13714285Y-41554761D01*
X13761904Y-41507142D01*
X13809523Y-41411904D01*
X13809523Y-41221428D01*
X13761904Y-41126190D01*
X13714285Y-41078571D01*
X13619047Y-41030952D01*
%TO.C,H13*%
X258374904Y54127619D02*
X258374904Y55127619D01*
X258374904Y54651428D02*
X258946333Y54651428D01*
X258946333Y54127619D02*
X258946333Y55127619D01*
X259946333Y54127619D02*
X259374904Y54127619D01*
X259660619Y54127619D02*
X259660619Y55127619D01*
X259565380Y54984761D01*
X259470142Y54889523D01*
X259374904Y54841904D01*
X260279666Y55127619D02*
X260898714Y55127619D01*
X260565380Y54746666D01*
X260708238Y54746666D01*
X260803476Y54699047D01*
X260851095Y54651428D01*
X260898714Y54556190D01*
X260898714Y54318095D01*
X260851095Y54222857D01*
X260803476Y54175238D01*
X260708238Y54127619D01*
X260422523Y54127619D01*
X260327285Y54175238D01*
X260279666Y54222857D01*
%TO.C,H3*%
X82238095Y83250065D02*
X82238095Y84250065D01*
X82238095Y83773874D02*
X82809523Y83773874D01*
X82809523Y83250065D02*
X82809523Y84250065D01*
X83190476Y84250065D02*
X83809523Y84250065D01*
X83476190Y83869112D01*
X83619047Y83869112D01*
X83714285Y83821493D01*
X83761904Y83773874D01*
X83809523Y83678636D01*
X83809523Y83440541D01*
X83761904Y83345303D01*
X83714285Y83297684D01*
X83619047Y83250065D01*
X83333333Y83250065D01*
X83238095Y83297684D01*
X83190476Y83345303D01*
%TO.C,H2*%
X12238095Y83250065D02*
X12238095Y84250065D01*
X12238095Y83773874D02*
X12809523Y83773874D01*
X12809523Y83250065D02*
X12809523Y84250065D01*
X13238095Y84154826D02*
X13285714Y84202446D01*
X13380952Y84250065D01*
X13619047Y84250065D01*
X13714285Y84202446D01*
X13761904Y84154826D01*
X13809523Y84059588D01*
X13809523Y83964350D01*
X13761904Y83821493D01*
X13190476Y83250065D01*
X13809523Y83250065D01*
%TO.C,H11*%
X221761904Y-41602380D02*
X221761904Y-40602380D01*
X221761904Y-41078571D02*
X222333333Y-41078571D01*
X222333333Y-41602380D02*
X222333333Y-40602380D01*
X223333333Y-41602380D02*
X222761904Y-41602380D01*
X223047619Y-41602380D02*
X223047619Y-40602380D01*
X222952380Y-40745238D01*
X222857142Y-40840476D01*
X222761904Y-40888095D01*
X224285714Y-41602380D02*
X223714285Y-41602380D01*
X224000000Y-41602380D02*
X224000000Y-40602380D01*
X223904761Y-40745238D01*
X223809523Y-40840476D01*
X223714285Y-40888095D01*
%TO.C,H1*%
X-57761904Y83250065D02*
X-57761904Y84250065D01*
X-57761904Y83773874D02*
X-57190476Y83773874D01*
X-57190476Y83250065D02*
X-57190476Y84250065D01*
X-56190476Y83250065D02*
X-56761904Y83250065D01*
X-56476190Y83250065D02*
X-56476190Y84250065D01*
X-56571428Y84107207D01*
X-56666666Y84011969D01*
X-56761904Y83964350D01*
%TO.C,H6*%
X292238095Y83250065D02*
X292238095Y84250065D01*
X292238095Y83773874D02*
X292809523Y83773874D01*
X292809523Y83250065D02*
X292809523Y84250065D01*
X293714285Y84250065D02*
X293523809Y84250065D01*
X293428571Y84202446D01*
X293380952Y84154826D01*
X293285714Y84011969D01*
X293238095Y83821493D01*
X293238095Y83440541D01*
X293285714Y83345303D01*
X293333333Y83297684D01*
X293428571Y83250065D01*
X293619047Y83250065D01*
X293714285Y83297684D01*
X293761904Y83345303D01*
X293809523Y83440541D01*
X293809523Y83678636D01*
X293761904Y83773874D01*
X293714285Y83821493D01*
X293619047Y83869112D01*
X293428571Y83869112D01*
X293333333Y83821493D01*
X293285714Y83773874D01*
X293238095Y83678636D01*
%TD*%
M02*
