M48
; DRILL file {KiCad (5.99.0-3379-gdb40e0c595)} date 09/17/20 14:43:47
; FORMAT={-:-/ absolute / metric / decimal}
; #@! TF.CreationDate,2020-09-17T14:43:47-04:00
; #@! TF.GenerationSoftware,Kicad,Pcbnew,(5.99.0-3379-gdb40e0c595)
; #@! TF.FileFunction,Plated,1,2,PTH
FMAT,2
METRIC
T1C2.500
T2C4.600
T3C5.300
%
G90
G05
T1
X119.763Y-52.712
X8.563Y-52.712
X190.857Y-14.675
X109.894Y-14.675
X305.157Y-119.1
X196.762Y-52.712
X252.769Y-149.531
X276.262Y-52.712
X387.437Y-52.712
X333.732Y-14.675
X271.819Y-14.675
X25.263Y-26.375
X314.682Y-149.531
X208.963Y-52.712
T2
X373.0Y-157.2
X23.0Y-5.375
X373.0Y-5.375
X163.0Y-5.375
X23.0Y-157.2
X233.0Y-5.375
X163.0Y-157.2
X93.0Y-5.375
X233.0Y-157.2
X303.0Y-5.375
X93.0Y-157.2
T3
X283.726Y-52.712
X302.775Y-52.712
X321.825Y-52.712
X25.263Y-16.375
T0
M30
