%TF.GenerationSoftware,KiCad,Pcbnew,(5.99.0-3379-gdb40e0c595)*%
%TF.CreationDate,2020-09-17T14:43:35-04:00*%
%TF.ProjectId,FR4-plate-new,4652342d-706c-4617-9465-2d6e65772e6b,rev?*%
%TF.SameCoordinates,Original*%
%TF.FileFunction,Legend,Bot*%
%TF.FilePolarity,Positive*%
%FSLAX46Y46*%
G04 Gerber Fmt 4.6, Leading zero omitted, Abs format (unit mm)*
G04 Created by KiCad (PCBNEW (5.99.0-3379-gdb40e0c595)) date 2020-09-17 14:43:35*
%MOMM*%
%LPD*%
G01*
G04 APERTURE LIST*
%ADD10C,0.200000*%
G04 APERTURE END LIST*
D10*
X365542857Y-158342857D02*
X365542857Y-159200000D01*
X365600000Y-159371428D01*
X365714285Y-159485714D01*
X365885714Y-159542857D01*
X366000000Y-159542857D01*
X364400000Y-159542857D02*
X364971428Y-159542857D01*
X364971428Y-158342857D01*
X363314285Y-159428571D02*
X363371428Y-159485714D01*
X363542857Y-159542857D01*
X363657142Y-159542857D01*
X363828571Y-159485714D01*
X363942857Y-159371428D01*
X364000000Y-159257142D01*
X364057142Y-159028571D01*
X364057142Y-158857142D01*
X364000000Y-158628571D01*
X363942857Y-158514285D01*
X363828571Y-158400000D01*
X363657142Y-158342857D01*
X363542857Y-158342857D01*
X363371428Y-158400000D01*
X363314285Y-158457142D01*
X362457142Y-158342857D02*
X362457142Y-159200000D01*
X362514285Y-159371428D01*
X362628571Y-159485714D01*
X362800000Y-159542857D01*
X362914285Y-159542857D01*
X361314285Y-159542857D02*
X361885714Y-159542857D01*
X361885714Y-158342857D01*
X360228571Y-159428571D02*
X360285714Y-159485714D01*
X360457142Y-159542857D01*
X360571428Y-159542857D01*
X360742857Y-159485714D01*
X360857142Y-159371428D01*
X360914285Y-159257142D01*
X360971428Y-159028571D01*
X360971428Y-158857142D01*
X360914285Y-158628571D01*
X360857142Y-158514285D01*
X360742857Y-158400000D01*
X360571428Y-158342857D01*
X360457142Y-158342857D01*
X360285714Y-158400000D01*
X360228571Y-158457142D01*
X359371428Y-158342857D02*
X359371428Y-159200000D01*
X359428571Y-159371428D01*
X359542857Y-159485714D01*
X359714285Y-159542857D01*
X359828571Y-159542857D01*
X358228571Y-159542857D02*
X358800000Y-159542857D01*
X358800000Y-158342857D01*
X357142857Y-159428571D02*
X357200000Y-159485714D01*
X357371428Y-159542857D01*
X357485714Y-159542857D01*
X357657142Y-159485714D01*
X357771428Y-159371428D01*
X357828571Y-159257142D01*
X357885714Y-159028571D01*
X357885714Y-158857142D01*
X357828571Y-158628571D01*
X357771428Y-158514285D01*
X357657142Y-158400000D01*
X357485714Y-158342857D01*
X357371428Y-158342857D01*
X357200000Y-158400000D01*
X357142857Y-158457142D01*
X356285714Y-158342857D02*
X356285714Y-159200000D01*
X356342857Y-159371428D01*
X356457142Y-159485714D01*
X356628571Y-159542857D01*
X356742857Y-159542857D01*
X355142857Y-159542857D02*
X355714285Y-159542857D01*
X355714285Y-158342857D01*
X354057142Y-159428571D02*
X354114285Y-159485714D01*
X354285714Y-159542857D01*
X354400000Y-159542857D01*
X354571428Y-159485714D01*
X354685714Y-159371428D01*
X354742857Y-159257142D01*
X354800000Y-159028571D01*
X354800000Y-158857142D01*
X354742857Y-158628571D01*
X354685714Y-158514285D01*
X354571428Y-158400000D01*
X354400000Y-158342857D01*
X354285714Y-158342857D01*
X354114285Y-158400000D01*
X354057142Y-158457142D01*
M02*
