%TF.GenerationSoftware,KiCad,Pcbnew,(5.99.0-3379-gdb40e0c595)*%
%TF.CreationDate,2020-09-17T14:43:35-04:00*%
%TF.ProjectId,FR4-plate-new,4652342d-706c-4617-9465-2d6e65772e6b,rev?*%
%TF.SameCoordinates,Original*%
%TF.FileFunction,Profile,NP*%
%FSLAX46Y46*%
G04 Gerber Fmt 4.6, Leading zero omitted, Abs format (unit mm)*
G04 Created by KiCad (PCBNEW (5.99.0-3379-gdb40e0c595)) date 2020-09-17 14:43:35*
%MOMM*%
%LPD*%
G01*
G04 APERTURE LIST*
%TA.AperFunction,Profile*%
%ADD10C,0.100000*%
%TD*%
G04 APERTURE END LIST*
D10*
X209763000Y-44925000D02*
G75*
G02*
X209263000Y-45425000I-500000J0D01*
G01*
X376738000Y-12875000D02*
G75*
G02*
X377238000Y-12375000I500000J0D01*
G01*
X181188000Y-92550000D02*
G75*
G02*
X180688000Y-93050000I-500000J0D01*
G01*
X143375500Y-117650000D02*
G75*
G02*
X143875500Y-117150000I500000J0D01*
G01*
X128300500Y-26375000D02*
X115300500Y-26375000D01*
X115300500Y-45425000D02*
G75*
G02*
X114800500Y-44925000I0J500000D01*
G01*
X134350500Y-12375000D02*
X147350500Y-12375000D01*
X269581750Y-93350000D02*
X269581750Y-97800000D01*
X333088000Y-79050000D02*
G75*
G02*
X333588000Y-79550000I0J-500000D01*
G01*
X200525500Y-130650000D02*
X200525500Y-117650000D01*
X104488000Y-93050000D02*
X91488000Y-93050000D01*
X115300500Y-45425000D02*
X128300500Y-45425000D01*
X66888000Y-92550000D02*
X66888000Y-79550000D01*
X371688000Y-111600000D02*
G75*
G02*
X371188000Y-112100000I-500000J0D01*
G01*
X389738000Y-148613000D02*
X389738000Y-142613000D01*
X357688000Y-60500000D02*
G75*
G02*
X358188000Y-60000000I500000J0D01*
G01*
X233863000Y-44925000D02*
X233863000Y-31925000D01*
X160544251Y-150200000D02*
G75*
G02*
X160044251Y-149700000I0J500000D01*
G01*
X158163000Y-74000000D02*
G75*
G02*
X157663000Y-73500000I0J500000D01*
G01*
X377238000Y-45425000D02*
G75*
G02*
X376738000Y-44925000I0J500000D01*
G01*
X309275500Y-31425000D02*
G75*
G02*
X309775500Y-31925000I0J-500000D01*
G01*
X123538000Y-79050000D02*
G75*
G02*
X124038000Y-79550000I0J-500000D01*
G01*
X258175500Y-154962500D02*
G75*
G02*
X257675500Y-154462500I0J500000D01*
G01*
X282081750Y-80137000D02*
X281500500Y-80137000D01*
X160044251Y-147900000D02*
X160044251Y-149700000D01*
X390238000Y-126675000D02*
X388238000Y-126675000D01*
X31456750Y-136700000D02*
G75*
G02*
X31956750Y-136200000I500000J0D01*
G01*
X174044251Y-149700000D02*
X174044251Y-147900000D01*
X282581750Y-110513000D02*
G75*
G02*
X282494750Y-110794836I-500001J0D01*
G01*
X358188000Y-150200000D02*
X371188000Y-150200000D01*
X195763000Y-136700000D02*
X195763000Y-149700000D01*
X243100500Y-98600000D02*
X243100500Y-111600000D01*
X55769250Y-150200000D02*
G75*
G02*
X55269250Y-149700000I0J500000D01*
G01*
X261000000Y-74000000D02*
X261000000Y-75500000D01*
X90988000Y-31925000D02*
G75*
G02*
X91488000Y-31425000I500000J0D01*
G01*
X320088000Y-79050000D02*
X333088000Y-79050000D01*
X103844751Y-139200000D02*
X102806751Y-139200000D01*
X38313000Y-73500000D02*
G75*
G02*
X37813000Y-74000000I-500000J0D01*
G01*
X119275499Y-130649999D02*
G75*
G02*
X118775500Y-131150000I-500000J-1D01*
G01*
X37813000Y-60000000D02*
G75*
G02*
X38313000Y-60500000I0J-500000D01*
G01*
X296275500Y-112100000D02*
G75*
G02*
X295775500Y-111600000I0J500000D01*
G01*
X247863000Y-60500000D02*
X247863000Y-73500000D01*
X153400500Y-45425000D02*
G75*
G02*
X152900500Y-44925000I0J500000D01*
G01*
X375238000Y-111013000D02*
X376438000Y-111013000D01*
X395000000Y-161000000D02*
X1000000Y-161000000D01*
X104988000Y-31925000D02*
X104988000Y-44925000D01*
X181475500Y-117650000D02*
G75*
G02*
X181975500Y-117150000I500000J0D01*
G01*
X52100500Y-98100000D02*
G75*
G02*
X52600500Y-98600000I0J-500000D01*
G01*
X245769250Y-117650000D02*
G75*
G02*
X246269250Y-117150000I500000J0D01*
G01*
X233075500Y-117150000D02*
X220075500Y-117150000D01*
X104544751Y-152200000D02*
X110544751Y-152200000D01*
X277225500Y-135912501D02*
G75*
G02*
X276725500Y-135412501I0J500000D01*
G01*
X72438000Y-45425000D02*
G75*
G02*
X71938000Y-44925000I0J500000D01*
G01*
X376738000Y-79550000D02*
G75*
G02*
X377238000Y-79050000I500000J0D01*
G01*
X104488000Y-12375000D02*
X91488000Y-12375000D01*
X5263000Y-60500000D02*
G75*
G02*
X5763000Y-60000000I500000J0D01*
G01*
X114800500Y-98600000D02*
G75*
G02*
X115300500Y-98100000I500000J0D01*
G01*
X276725500Y-12875000D02*
G75*
G02*
X277225500Y-12375000I500000J0D01*
G01*
X102806751Y-147700000D02*
X103844751Y-147700000D01*
X85438000Y-12375000D02*
X72438000Y-12375000D01*
X252118750Y-114100000D02*
X258118749Y-114100000D01*
X281200500Y-88275000D02*
X281200500Y-87437000D01*
X119563000Y-136700000D02*
X119563000Y-149700000D01*
X174044251Y-139000000D02*
X174044251Y-136700000D01*
X395000000Y0D02*
G75*
G02*
X396000000Y-1000000I0J-1000000D01*
G01*
X8144250Y-131150000D02*
X8431250Y-131150000D01*
X338638000Y-111600000D02*
X338638000Y-98600000D01*
X185950500Y-44925000D02*
G75*
G02*
X185450500Y-45425000I-500000J0D01*
G01*
X333588000Y-130650000D02*
X333588000Y-117650000D01*
X266913000Y-44925000D02*
G75*
G02*
X266413000Y-45425000I-500000J0D01*
G01*
X371188000Y-31425000D02*
G75*
G02*
X371688000Y-31925000I0J-500000D01*
G01*
X133850500Y-98600000D02*
G75*
G02*
X134350500Y-98100000I500000J0D01*
G01*
X47338000Y-79050000D02*
X34338000Y-79050000D01*
X110544751Y-137200000D02*
X104544751Y-137200000D01*
X352638000Y-60500000D02*
X352638000Y-73500000D01*
X152613000Y-73500000D02*
X152613000Y-60500000D01*
X124038000Y-92550000D02*
X124038000Y-79550000D01*
X351551000Y-150500000D02*
X351551000Y-151700000D01*
X387738000Y-126175000D02*
X387738000Y-125737000D01*
X33838000Y-12875000D02*
X33838000Y-25875000D01*
X376438000Y-87137000D02*
G75*
G02*
X376738000Y-87437000I0J-300000D01*
G01*
X10525501Y-79050000D02*
X23525500Y-79050000D01*
X219575500Y-117650000D02*
G75*
G02*
X220075500Y-117150000I500000J0D01*
G01*
X148638000Y-93050000D02*
X161638000Y-93050000D01*
X371688000Y-130650000D02*
X371688000Y-117650000D01*
X271675500Y-154462500D02*
X271675500Y-141462500D01*
X160044251Y-139000000D02*
G75*
G02*
X159844251Y-139200000I-200000J0D01*
G01*
X243388000Y-79550000D02*
X243388000Y-92550000D01*
X234363000Y-74000000D02*
G75*
G02*
X233863000Y-73500000I0J500000D01*
G01*
X388238000Y-126675000D02*
G75*
G02*
X387738000Y-126175000I0J500000D01*
G01*
X390738000Y-31925000D02*
X390738000Y-44925000D01*
X390738000Y-140175000D02*
G75*
G02*
X390238000Y-140675000I-500000J0D01*
G01*
X185450500Y-12375000D02*
X172450500Y-12375000D01*
X357688000Y-136700000D02*
X357688000Y-149700000D01*
X333088000Y-117150000D02*
G75*
G02*
X333588000Y-117650000I0J-500000D01*
G01*
X276725500Y-154462500D02*
X276725500Y-141462500D01*
X85438000Y-31425000D02*
G75*
G02*
X85938000Y-31925000I0J-500000D01*
G01*
X67175500Y-130650000D02*
X67175500Y-117650000D01*
X234363000Y-12375000D02*
X247363000Y-12375000D01*
X148138000Y-79550000D02*
G75*
G02*
X148638000Y-79050000I500000J0D01*
G01*
X80675500Y-117150000D02*
G75*
G02*
X81175500Y-117650000I0J-500000D01*
G01*
X0Y-1000000D02*
G75*
G02*
X1000000Y0I1000000J0D01*
G01*
X47838000Y-92550000D02*
X47838000Y-79550000D01*
X31956750Y-150200000D02*
G75*
G02*
X31456750Y-149700000I0J500000D01*
G01*
X284876000Y-74000000D02*
X284876000Y-75500000D01*
X185450500Y-98100000D02*
X172450500Y-98100000D01*
X204500500Y-98100000D02*
G75*
G02*
X205000500Y-98600000I0J-500000D01*
G01*
X374738000Y-104513000D02*
X374738000Y-110513000D01*
X185950500Y-25875000D02*
G75*
G02*
X185450500Y-26375000I-500000J0D01*
G01*
X120063000Y-150200000D02*
X140206750Y-150200000D01*
X377238000Y-74000000D02*
G75*
G02*
X376738000Y-73500000I0J500000D01*
G01*
X75913000Y-60000000D02*
G75*
G02*
X76413000Y-60500000I0J-500000D01*
G01*
X319588000Y-117650000D02*
G75*
G02*
X320088000Y-117150000I500000J0D01*
G01*
X161638000Y-79050000D02*
G75*
G02*
X162138000Y-79550000I0J-500000D01*
G01*
X87206751Y-139000000D02*
X87206751Y-137700000D01*
X296275500Y-93050000D02*
X309275500Y-93050000D01*
X34338000Y-93050000D02*
X47338000Y-93050000D01*
X81463000Y-73500000D02*
X81463000Y-60500000D01*
X352638000Y-92550000D02*
G75*
G02*
X352138000Y-93050000I-500000J0D01*
G01*
X34338000Y-26375000D02*
G75*
G02*
X33838000Y-25875000I0J500000D01*
G01*
X377238000Y-140675000D02*
G75*
G02*
X376738000Y-140175000I0J500000D01*
G01*
X166900500Y-98600000D02*
X166900500Y-111600000D01*
X285463000Y-60000000D02*
G75*
G02*
X285963000Y-60500000I0J-500000D01*
G01*
X390238000Y-12375000D02*
G75*
G02*
X390738000Y-12875000I0J-500000D01*
G01*
X396000000Y-1000000D02*
X396000000Y-160000000D01*
X177213000Y-74000000D02*
G75*
G02*
X176713000Y-73500000I0J500000D01*
G01*
X290725500Y-44925000D02*
G75*
G02*
X290225500Y-45425000I-500000J0D01*
G01*
X309275500Y-79050000D02*
G75*
G02*
X309775500Y-79550000I0J-500000D01*
G01*
X124038000Y-92550000D02*
G75*
G02*
X123538000Y-93050000I-500000J0D01*
G01*
X148138000Y-79550000D02*
X148138000Y-92550000D01*
X72438000Y-31425000D02*
X85438000Y-31425000D01*
X258618750Y-112400000D02*
G75*
G02*
X258918750Y-112100000I300000J0D01*
G01*
X285963000Y-73500000D02*
G75*
G02*
X285463000Y-74000000I-500000J0D01*
G01*
X296275500Y-140962500D02*
X309275500Y-140962500D01*
X105275500Y-117650000D02*
G75*
G02*
X105775500Y-117150000I500000J0D01*
G01*
X66888000Y-92550000D02*
G75*
G02*
X66388000Y-93050000I-500000J0D01*
G01*
X56863000Y-60000000D02*
G75*
G02*
X57363000Y-60500000I0J-500000D01*
G01*
X390238000Y-26375000D02*
X377238000Y-26375000D01*
X357688000Y-12875000D02*
G75*
G02*
X358188000Y-12375000I500000J0D01*
G01*
X220075500Y-131150000D02*
X233075500Y-131150000D01*
X339138000Y-12375000D02*
X352138000Y-12375000D01*
X53388000Y-26375000D02*
G75*
G02*
X52888000Y-25875000I0J500000D01*
G01*
X253413000Y-12375000D02*
X266413000Y-12375000D01*
X352638000Y-98600000D02*
X352638000Y-111600000D01*
X257388000Y-92550000D02*
G75*
G02*
X256888000Y-93050000I-500000J0D01*
G01*
X57650500Y-98600000D02*
X57650500Y-111600000D01*
X224050500Y-98600000D02*
X224050500Y-111600000D01*
X81463000Y-60500000D02*
G75*
G02*
X81963000Y-60000000I500000J0D01*
G01*
X389238000Y-142113000D02*
G75*
G02*
X389738000Y-142613000I0J-500000D01*
G01*
X9231250Y-133150000D02*
G75*
G02*
X8731250Y-132650000I0J500000D01*
G01*
X95463000Y-73500000D02*
G75*
G02*
X94963000Y-74000000I-500000J0D01*
G01*
X333088000Y-74000000D02*
X320088000Y-74000000D01*
X34338000Y-26375000D02*
X47338000Y-26375000D01*
X259269250Y-117150000D02*
X246269250Y-117150000D01*
X119563000Y-60500000D02*
G75*
G02*
X120063000Y-60000000I500000J0D01*
G01*
X215313000Y-26375000D02*
G75*
G02*
X214813000Y-25875000I0J500000D01*
G01*
X271675500Y-154462500D02*
G75*
G02*
X271175500Y-154962500I-500000J0D01*
G01*
X319588000Y-98600000D02*
G75*
G02*
X320088000Y-98100000I500000J0D01*
G01*
X187206751Y-151700000D02*
G75*
G02*
X186706751Y-152200000I-500000J0D01*
G01*
X195475500Y-117650000D02*
X195475500Y-130650000D01*
X166900500Y-111600000D02*
G75*
G02*
X166400500Y-112100000I-500000J0D01*
G01*
X166400500Y-12375000D02*
G75*
G02*
X166900500Y-12875000I0J-500000D01*
G01*
X327675000Y-151700000D02*
G75*
G02*
X327175000Y-152200000I-500000J0D01*
G01*
X224838000Y-93050000D02*
G75*
G02*
X224338000Y-92550000I0J500000D01*
G01*
X25906750Y-98100000D02*
X8144251Y-98100000D01*
X85938000Y-31925000D02*
X85938000Y-44925000D01*
X100513000Y-60500000D02*
G75*
G02*
X101013000Y-60000000I500000J0D01*
G01*
X377238000Y-112100000D02*
X390238000Y-112100000D01*
X309275500Y-79050000D02*
X296275500Y-79050000D01*
X139113000Y-74000000D02*
G75*
G02*
X138613000Y-73500000I0J500000D01*
G01*
X133850500Y-44925000D02*
X133850500Y-31925000D01*
X91488000Y-26375000D02*
X104488000Y-26375000D01*
X296275500Y-93050000D02*
G75*
G02*
X295775500Y-92550000I0J500000D01*
G01*
X388238000Y-125237000D02*
X389238000Y-125237000D01*
X114800500Y-25875000D02*
X114800500Y-12875000D01*
X290725500Y-154462500D02*
G75*
G02*
X290225500Y-154962500I-500000J0D01*
G01*
X267200499Y-79550000D02*
G75*
G02*
X267700499Y-79050000I500000J0D01*
G01*
X390238000Y-126675000D02*
G75*
G02*
X390738000Y-127175000I0J-500000D01*
G01*
X72913000Y-151700000D02*
X72913000Y-137700000D01*
X52100501Y-136200000D02*
X31956750Y-136200000D01*
X71938000Y-92550000D02*
X71938000Y-79550000D01*
X205788000Y-79050000D02*
X218788000Y-79050000D01*
X390238000Y-79050000D02*
X377238000Y-79050000D01*
X358188000Y-45425000D02*
G75*
G02*
X357688000Y-44925000I0J500000D01*
G01*
X18763000Y-31425000D02*
X5763000Y-31425000D01*
X124825500Y-131150000D02*
X137825500Y-131150000D01*
X114800500Y-31925000D02*
X114800500Y-44925000D01*
X352638000Y-73500000D02*
G75*
G02*
X352138000Y-74000000I-500000J0D01*
G01*
X234363000Y-45425000D02*
G75*
G02*
X233863000Y-44925000I0J500000D01*
G01*
X104544751Y-152200000D02*
G75*
G02*
X104044751Y-151700000I0J500000D01*
G01*
X389238000Y-118237000D02*
X375238000Y-118237000D01*
X378238000Y-142113000D02*
X375238000Y-142113000D01*
X327675000Y-150500000D02*
G75*
G02*
X327975000Y-150200000I300000J0D01*
G01*
X339138000Y-26375000D02*
G75*
G02*
X338638000Y-25875000I0J500000D01*
G01*
X260500000Y-76000000D02*
X254500000Y-76000000D01*
X105275500Y-130650000D02*
X105275500Y-117650000D01*
X258175500Y-154962500D02*
X271175500Y-154962500D01*
X352638000Y-130650000D02*
X352638000Y-117650000D01*
X137825500Y-117150000D02*
G75*
G02*
X138325500Y-117650000I0J-500000D01*
G01*
X24025501Y-149700000D02*
G75*
G02*
X23525501Y-150200000I-500000J0D01*
G01*
X124325500Y-117650000D02*
X124325500Y-130650000D01*
X274056750Y-111600000D02*
X274056750Y-111313000D01*
X129088000Y-79550000D02*
G75*
G02*
X129588000Y-79050000I500000J0D01*
G01*
X171950500Y-98600000D02*
G75*
G02*
X172450500Y-98100000I500000J0D01*
G01*
X175282251Y-147700000D02*
G75*
G02*
X175482251Y-147900000I0J-200000D01*
G01*
X276725500Y-25875000D02*
X276725500Y-12875000D01*
X328325499Y-12375000D02*
G75*
G02*
X328825499Y-12875000I0J-500000D01*
G01*
X34338000Y-45425000D02*
G75*
G02*
X33838000Y-44925000I0J500000D01*
G01*
X283581750Y-102075000D02*
X283581750Y-89075000D01*
X42575500Y-117150000D02*
G75*
G02*
X43075500Y-117650000I0J-500000D01*
G01*
X390238000Y-45425000D02*
X377238000Y-45425000D01*
X95750499Y-111600000D02*
X95750499Y-98600000D01*
X76700500Y-111600000D02*
X76700499Y-98600000D01*
X309775500Y-111600000D02*
X309775500Y-98600000D01*
X390738000Y-111600000D02*
G75*
G02*
X390238000Y-112100000I-500000J0D01*
G01*
X219288000Y-79550000D02*
X219288000Y-92550000D01*
X309775500Y-12875000D02*
X309775500Y-25875000D01*
X52888000Y-31925000D02*
G75*
G02*
X53388000Y-31425000I500000J0D01*
G01*
X69269250Y-137000000D02*
X69269250Y-136700000D01*
X138613000Y-60500000D02*
X138613000Y-73500000D01*
X281200500Y-87437000D02*
G75*
G02*
X281500500Y-87137000I300000J0D01*
G01*
X275194749Y-111012999D02*
G75*
G02*
X275494750Y-111313000I0J-300001D01*
G01*
X191000500Y-98600000D02*
X191000500Y-111600000D01*
X7644250Y-117650000D02*
G75*
G02*
X8144250Y-117150000I500000J0D01*
G01*
X85938000Y-25875000D02*
X85938000Y-12875000D01*
X104044751Y-139000000D02*
G75*
G02*
X103844751Y-139200000I-200000J0D01*
G01*
X314825500Y-25875000D02*
X314825500Y-12875000D01*
X251318750Y-112100000D02*
G75*
G02*
X251618750Y-112400000I0J-300000D01*
G01*
X5763000Y-60000000D02*
X18763000Y-60000000D01*
X339138000Y-112100000D02*
G75*
G02*
X338638000Y-111600000I0J500000D01*
G01*
X10025500Y-92550000D02*
X10025501Y-79550000D01*
X275994750Y-114100000D02*
G75*
G02*
X275494750Y-113600000I0J500000D01*
G01*
X128800500Y-12875000D02*
X128800500Y-25875000D01*
X376438000Y-111013000D02*
G75*
G02*
X376738000Y-111313000I0J-300000D01*
G01*
X247863000Y-31925000D02*
X247863000Y-44925000D01*
X20763000Y-22875000D02*
G75*
G02*
X20263000Y-23375000I-500000J0D01*
G01*
X139113000Y-74000000D02*
X152113000Y-74000000D01*
X390238000Y-31425000D02*
G75*
G02*
X390738000Y-31925000I0J-500000D01*
G01*
X153400500Y-26375000D02*
G75*
G02*
X152900500Y-25875000I0J500000D01*
G01*
X119563000Y-60500000D02*
X119563000Y-73500000D01*
X86725500Y-131150001D02*
G75*
G02*
X86225499Y-130650000I0J500001D01*
G01*
X86725500Y-131150000D02*
X99725500Y-131150000D01*
X352638000Y-149700000D02*
G75*
G02*
X352138000Y-150200000I-500000J0D01*
G01*
X31456750Y-136700000D02*
X31456750Y-149700000D01*
X209263000Y-31425000D02*
G75*
G02*
X209763000Y-31925000I0J-500000D01*
G01*
X52100500Y-112100000D02*
X39100500Y-112100000D01*
X357688000Y-79550000D02*
G75*
G02*
X358188000Y-79050000I500000J0D01*
G01*
X147350500Y-26375000D02*
X134350500Y-26375000D01*
X3763000Y-9875000D02*
G75*
G02*
X4263000Y-9375000I500000J0D01*
G01*
X215313000Y-31425000D02*
X228313000Y-31425000D01*
X389738000Y-148613000D02*
G75*
G02*
X389238000Y-149113000I-500000J0D01*
G01*
X196263000Y-45425000D02*
G75*
G02*
X195763000Y-44925000I0J500000D01*
G01*
X134350500Y-45425000D02*
G75*
G02*
X133850500Y-44925000I0J500000D01*
G01*
X274056750Y-111313000D02*
G75*
G02*
X274356750Y-111013000I300000J0D01*
G01*
X156875500Y-117150000D02*
G75*
G02*
X157375500Y-117650000I0J-500000D01*
G01*
X333088000Y-60000000D02*
G75*
G02*
X333588000Y-60500000I0J-500000D01*
G01*
X259769250Y-130650000D02*
G75*
G02*
X259269250Y-131150000I-500000J0D01*
G01*
X39607250Y-132650000D02*
G75*
G02*
X39107250Y-133150000I-500000J0D01*
G01*
X352138000Y-112100000D02*
X339138000Y-112100000D01*
X47338000Y-12375000D02*
X34338000Y-12375000D01*
X338638000Y-44925000D02*
X338638000Y-31925000D01*
X374738000Y-142613000D02*
X374738000Y-148613000D01*
X85438000Y-45425000D02*
X72438000Y-45425000D01*
X247863000Y-73500000D02*
G75*
G02*
X247363000Y-74000000I-500000J0D01*
G01*
X224050500Y-111600000D02*
G75*
G02*
X223550500Y-112100000I-500000J0D01*
G01*
X371688000Y-111600000D02*
X371688000Y-98600000D01*
X390738000Y-140175000D02*
X390738000Y-127175000D01*
X333588000Y-92550000D02*
G75*
G02*
X333088000Y-93050000I-500000J0D01*
G01*
X20263000Y-9375000D02*
G75*
G02*
X20763000Y-9875000I0J-500000D01*
G01*
X99725500Y-117150000D02*
G75*
G02*
X100225500Y-117650000I0J-500000D01*
G01*
X110038000Y-79550000D02*
X110038000Y-92550000D01*
X152900500Y-31925000D02*
G75*
G02*
X153400500Y-31425000I500000J0D01*
G01*
X88406751Y-139200000D02*
X87406751Y-139200000D01*
X266913000Y-12875000D02*
X266913000Y-25875000D01*
X171663000Y-73500000D02*
G75*
G02*
X171163000Y-74000000I-500000J0D01*
G01*
X185450500Y-12375000D02*
G75*
G02*
X185950500Y-12875000I0J-500000D01*
G01*
X153400500Y-112100000D02*
G75*
G02*
X152900500Y-111600000I0J500000D01*
G01*
X33107250Y-133150000D02*
X39107250Y-133150000D01*
X143375500Y-117650000D02*
X143375500Y-130650000D01*
X295775500Y-31925000D02*
G75*
G02*
X296275500Y-31425000I500000J0D01*
G01*
X80206751Y-137700000D02*
G75*
G02*
X80706751Y-137200000I500000J0D01*
G01*
X209763000Y-73500000D02*
G75*
G02*
X209263000Y-74000000I-500000J0D01*
G01*
X205000500Y-111600000D02*
X205000500Y-98600000D01*
X339138000Y-131150000D02*
X352138000Y-131150000D01*
X181975500Y-131150000D02*
G75*
G02*
X181475500Y-130650000I0J500000D01*
G01*
X118775500Y-131150000D02*
X105775500Y-131150000D01*
X205788000Y-93050000D02*
G75*
G02*
X205288000Y-92550000I0J500000D01*
G01*
X153400500Y-12375000D02*
X166400500Y-12375000D01*
X256888000Y-79050000D02*
G75*
G02*
X257388000Y-79550000I0J-500000D01*
G01*
X352138000Y-136200000D02*
G75*
G02*
X352638000Y-136700000I0J-500000D01*
G01*
X80706751Y-152200000D02*
G75*
G02*
X80206751Y-151700000I0J500000D01*
G01*
X52600500Y-98600000D02*
X52600500Y-111600000D01*
X333588000Y-111600000D02*
G75*
G02*
X333088000Y-112100000I-500000J0D01*
G01*
X285963000Y-60500000D02*
X285963000Y-73500000D01*
X387738000Y-141175000D02*
G75*
G02*
X388238000Y-140675000I500000J0D01*
G01*
X175982251Y-152200000D02*
G75*
G02*
X175482251Y-151700000I0J500000D01*
G01*
X256888000Y-79050000D02*
X243888000Y-79050000D01*
X320375000Y-150200000D02*
X320088000Y-150200000D01*
X47338000Y-12375000D02*
G75*
G02*
X47838000Y-12875000I0J-500000D01*
G01*
X152900500Y-12875000D02*
G75*
G02*
X153400500Y-12375000I500000J0D01*
G01*
X375238000Y-149113000D02*
X389238000Y-149113000D01*
X234363000Y-26375000D02*
G75*
G02*
X233863000Y-25875000I0J500000D01*
G01*
X147850500Y-44925000D02*
G75*
G02*
X147350500Y-45425000I-500000J0D01*
G01*
X223550500Y-98100000D02*
G75*
G02*
X224050500Y-98600000I0J-500000D01*
G01*
X71938000Y-12875000D02*
G75*
G02*
X72438000Y-12375000I500000J0D01*
G01*
X48625500Y-131150000D02*
X61625500Y-131150000D01*
X376738000Y-127175000D02*
X376738000Y-140175000D01*
X228313000Y-31425000D02*
G75*
G02*
X228813000Y-31925000I0J-500000D01*
G01*
X172450500Y-112100000D02*
G75*
G02*
X171950500Y-111600000I0J500000D01*
G01*
X209263000Y-26375000D02*
X196263000Y-26375000D01*
X358188000Y-93050000D02*
G75*
G02*
X357688000Y-92550000I0J500000D01*
G01*
X191000500Y-98600000D02*
G75*
G02*
X191500500Y-98100000I500000J0D01*
G01*
X281500500Y-80137000D02*
G75*
G02*
X281200500Y-79837000I0J300000D01*
G01*
X86225500Y-117650000D02*
G75*
G02*
X86725500Y-117150000I500000J0D01*
G01*
X90700500Y-111600000D02*
G75*
G02*
X90200500Y-112100000I-500000J0D01*
G01*
X371188000Y-136200000D02*
G75*
G02*
X371688000Y-136700000I0J-500000D01*
G01*
X23525501Y-136200000D02*
X21144250Y-136200000D01*
X371688000Y-149700000D02*
X371688000Y-136700000D01*
X85438000Y-93050000D02*
X72438000Y-93050000D01*
X389238000Y-142113000D02*
X388238000Y-142113000D01*
X32307250Y-131150000D02*
G75*
G02*
X32607250Y-131450000I0J-300000D01*
G01*
X309775500Y-111600000D02*
G75*
G02*
X309275500Y-112100000I-500000J0D01*
G01*
X66413000Y-152200000D02*
X72413000Y-152200000D01*
X371688000Y-149700000D02*
G75*
G02*
X371188000Y-150200000I-500000J0D01*
G01*
X140706750Y-149700000D02*
X140706750Y-136700000D01*
X274056750Y-111600000D02*
G75*
G02*
X273556750Y-112100000I-500000J0D01*
G01*
X371688000Y-92550000D02*
G75*
G02*
X371188000Y-93050000I-500000J0D01*
G01*
X103844751Y-147700000D02*
G75*
G02*
X104044751Y-147900000I0J-200000D01*
G01*
X228813000Y-73500000D02*
G75*
G02*
X228313000Y-74000000I-500000J0D01*
G01*
X129588000Y-79050000D02*
X142588000Y-79050000D01*
X91488000Y-26375000D02*
G75*
G02*
X90988000Y-25875000I0J500000D01*
G01*
X104488000Y-31425000D02*
G75*
G02*
X104988000Y-31925000I0J-500000D01*
G01*
X295775500Y-154462500D02*
X295775500Y-141462500D01*
X333088000Y-93050000D02*
X320088000Y-93050000D01*
X352138000Y-12375000D02*
G75*
G02*
X352638000Y-12875000I0J-500000D01*
G01*
X315325500Y-26375000D02*
G75*
G02*
X314825500Y-25875000I0J500000D01*
G01*
X284376000Y-76000000D02*
X278376000Y-76000000D01*
X387738000Y-141613000D02*
X387738000Y-141175000D01*
X162425500Y-117650000D02*
G75*
G02*
X162925500Y-117150000I500000J0D01*
G01*
X4263000Y-9375000D02*
X20263000Y-9375000D01*
X172450500Y-26375000D02*
G75*
G02*
X171950500Y-25875000I0J500000D01*
G01*
X157663000Y-60500000D02*
X157663000Y-73500000D01*
X66388000Y-79050000D02*
X53388000Y-79050000D01*
X90988000Y-92550000D02*
X90988000Y-79550000D01*
X166900500Y-12875000D02*
X166900500Y-25875000D01*
X87206751Y-151700000D02*
G75*
G02*
X86706751Y-152200000I-500000J0D01*
G01*
X62125500Y-130650000D02*
X62125500Y-117650000D01*
X158806251Y-147700000D02*
X159844251Y-147700000D01*
X8144251Y-112100000D02*
X25906750Y-112100000D01*
X175925500Y-117150000D02*
X162925500Y-117150000D01*
X102606751Y-147900000D02*
G75*
G02*
X102806751Y-147700000I200000J0D01*
G01*
X358188000Y-93050000D02*
X371188000Y-93050000D01*
X66888000Y-25875000D02*
X66888000Y-12875000D01*
X253413000Y-45425000D02*
G75*
G02*
X252913000Y-44925000I0J500000D01*
G01*
X247863000Y-149700000D02*
X247863000Y-136700000D01*
X237838000Y-79050000D02*
G75*
G02*
X238338000Y-79550000I0J-500000D01*
G01*
X72438000Y-26375000D02*
G75*
G02*
X71938000Y-25875000I0J500000D01*
G01*
X171950500Y-98600000D02*
X171950500Y-111600000D01*
X80675500Y-131150000D02*
X67675500Y-131150000D01*
X267700499Y-93050000D02*
G75*
G02*
X267200499Y-92550000I0J500000D01*
G01*
X175482251Y-147900000D02*
X175482251Y-151700000D01*
X158606251Y-151700000D02*
G75*
G02*
X158106251Y-152200000I-500000J0D01*
G01*
X161638000Y-79050000D02*
X148638000Y-79050000D01*
X186738000Y-93050000D02*
G75*
G02*
X186238000Y-92550000I0J500000D01*
G01*
X24813000Y-74000000D02*
X37813000Y-74000000D01*
X94963000Y-74000000D02*
X81963000Y-74000000D01*
X5263000Y-31925000D02*
G75*
G02*
X5763000Y-31425000I500000J0D01*
G01*
X210550500Y-98100000D02*
X223550500Y-98100000D01*
X319588000Y-79550000D02*
G75*
G02*
X320088000Y-79050000I500000J0D01*
G01*
X186738000Y-79050000D02*
X199738000Y-79050000D01*
X24313000Y-60500000D02*
G75*
G02*
X24813000Y-60000000I500000J0D01*
G01*
X339138000Y-93050000D02*
G75*
G02*
X338638000Y-92550000I0J500000D01*
G01*
X140206750Y-136200000D02*
G75*
G02*
X140706750Y-136700000I0J-500000D01*
G01*
X296275500Y-12375000D02*
X309275500Y-12375000D01*
X376738000Y-87437000D02*
X376738000Y-103713000D01*
X109250500Y-98100000D02*
G75*
G02*
X109750500Y-98600000I0J-500000D01*
G01*
X276725500Y-141462500D02*
G75*
G02*
X277225500Y-140962500I500000J0D01*
G01*
X133063000Y-60000000D02*
X120063000Y-60000000D01*
X195763000Y-31925000D02*
G75*
G02*
X196263000Y-31425000I500000J0D01*
G01*
X120063000Y-74000000D02*
X133063000Y-74000000D01*
X143088000Y-92550000D02*
G75*
G02*
X142588000Y-93050000I-500000J0D01*
G01*
X247863000Y-12875000D02*
X247863000Y-25875000D01*
X339138000Y-74000000D02*
G75*
G02*
X338638000Y-73500000I0J500000D01*
G01*
X247863000Y-44925000D02*
G75*
G02*
X247363000Y-45425000I-500000J0D01*
G01*
X269581750Y-97800000D02*
G75*
G02*
X269281750Y-98100000I-300000J0D01*
G01*
X167188000Y-79550000D02*
G75*
G02*
X167688000Y-79050000I500000J0D01*
G01*
X333588000Y-79550000D02*
X333588000Y-92550000D01*
X375238000Y-149113000D02*
G75*
G02*
X374738000Y-148613000I0J500000D01*
G01*
X309775500Y-44925000D02*
X309775500Y-31925000D01*
X90988000Y-79550000D02*
G75*
G02*
X91488000Y-79050000I500000J0D01*
G01*
X90988000Y-12875000D02*
X90988000Y-25875000D01*
X277225500Y-45425000D02*
G75*
G02*
X276725500Y-44925000I0J500000D01*
G01*
X247363000Y-136200000D02*
X196263000Y-136200000D01*
X43863000Y-60000000D02*
X56863000Y-60000000D01*
X371188000Y-136200000D02*
X358188000Y-136200000D01*
X371688000Y-44925000D02*
G75*
G02*
X371188000Y-45425000I-500000J0D01*
G01*
X233575500Y-130650000D02*
G75*
G02*
X233075500Y-131150000I-500000J0D01*
G01*
X85938000Y-92550000D02*
G75*
G02*
X85438000Y-93050000I-500000J0D01*
G01*
X352138000Y-79050000D02*
X339138000Y-79050000D01*
X209263000Y-60000000D02*
X196263000Y-60000000D01*
X91488000Y-45425000D02*
G75*
G02*
X90988000Y-44925000I0J500000D01*
G01*
X390738000Y-111600000D02*
X390738000Y-79550000D01*
X91488000Y-31425000D02*
X104488000Y-31425000D01*
X151606251Y-137700000D02*
G75*
G02*
X152106251Y-137200000I500000J0D01*
G01*
X228313000Y-45425000D02*
X215313000Y-45425000D01*
X86706751Y-137200000D02*
X80706751Y-137200000D01*
X352138000Y-26375000D02*
X339138000Y-26375000D01*
X147850500Y-12875000D02*
X147850500Y-25875000D01*
X115300500Y-12375000D02*
X128300500Y-12375000D01*
X371188000Y-98100000D02*
X358188000Y-98100000D01*
X66388000Y-79050000D02*
G75*
G02*
X66888000Y-79550000I0J-500000D01*
G01*
X185450500Y-31425000D02*
G75*
G02*
X185950500Y-31925000I0J-500000D01*
G01*
X102106751Y-136200000D02*
X89106751Y-136200000D01*
X390238000Y-79050000D02*
G75*
G02*
X390738000Y-79550000I0J-500000D01*
G01*
X72438000Y-26375000D02*
X85438000Y-26375000D01*
X114800500Y-98600000D02*
X114800500Y-111600000D01*
X377238000Y-26375000D02*
G75*
G02*
X376738000Y-25875000I0J500000D01*
G01*
X43075500Y-130650000D02*
G75*
G02*
X42575500Y-131150000I-500000J0D01*
G01*
X166400500Y-98100000D02*
G75*
G02*
X166900500Y-98600000I0J-500000D01*
G01*
X5263000Y-73500000D02*
X5263000Y-60500000D01*
X114513000Y-73500000D02*
X114513000Y-60500000D01*
X344251000Y-150200000D02*
G75*
G02*
X344551000Y-150500000I0J-300000D01*
G01*
X16031250Y-131150000D02*
X32307250Y-131150000D01*
X104488000Y-12375000D02*
G75*
G02*
X104988000Y-12875000I0J-500000D01*
G01*
X338638000Y-31925000D02*
G75*
G02*
X339138000Y-31425000I500000J0D01*
G01*
X8144251Y-150200000D02*
X23525501Y-150200000D01*
X196263000Y-150200000D02*
G75*
G02*
X195763000Y-149700000I0J500000D01*
G01*
X223550500Y-112100000D02*
X210550500Y-112100000D01*
X215313000Y-12375000D02*
X228313000Y-12375000D01*
X18763000Y-60000000D02*
G75*
G02*
X19263000Y-60500000I0J-500000D01*
G01*
X271175500Y-140962500D02*
X258175500Y-140962500D01*
X99725500Y-117150000D02*
X86725500Y-117150000D01*
X328825500Y-31925000D02*
X328825500Y-44925000D01*
X171163000Y-60000000D02*
G75*
G02*
X171663000Y-60500000I0J-500000D01*
G01*
X320088000Y-150200000D02*
G75*
G02*
X319588000Y-149700000I0J500000D01*
G01*
X290225500Y-140962500D02*
G75*
G02*
X290725500Y-141462500I0J-500000D01*
G01*
X377238000Y-112100000D02*
G75*
G02*
X376738000Y-111600000I0J500000D01*
G01*
X15731250Y-132650000D02*
G75*
G02*
X15231250Y-133150000I-500000J0D01*
G01*
X358188000Y-31425000D02*
X371188000Y-31425000D01*
X176713000Y-73500000D02*
X176713000Y-60500000D01*
X290225500Y-26375000D02*
X277225500Y-26375000D01*
X237838000Y-93050000D02*
X224838000Y-93050000D01*
X43075500Y-130650000D02*
X43075500Y-117650000D01*
X172450500Y-45425000D02*
G75*
G02*
X171950500Y-44925000I0J500000D01*
G01*
X320375000Y-150200000D02*
G75*
G02*
X320675000Y-150500000I0J-300000D01*
G01*
X358188000Y-131150000D02*
G75*
G02*
X357688000Y-130650000I0J500000D01*
G01*
X85938000Y-25875000D02*
G75*
G02*
X85438000Y-26375000I-500000J0D01*
G01*
X258918750Y-112100000D02*
X273556750Y-112100000D01*
X152900500Y-25875000D02*
X152900500Y-12875000D01*
X327675000Y-150500000D02*
X327675000Y-151700000D01*
X252913000Y-25875000D02*
X252913000Y-12875000D01*
X89106751Y-150200000D02*
G75*
G02*
X88606751Y-149700000I0J500000D01*
G01*
X314825500Y-31925000D02*
G75*
G02*
X315325500Y-31425000I500000J0D01*
G01*
X333088000Y-117150000D02*
X320088000Y-117150000D01*
X296275500Y-45425000D02*
X309275500Y-45425000D01*
X194975500Y-117150000D02*
G75*
G02*
X195475500Y-117650000I0J-500000D01*
G01*
X228813000Y-73500000D02*
X228813000Y-60500000D01*
X228813000Y-12875000D02*
X228813000Y-25875000D01*
X257675500Y-141462500D02*
G75*
G02*
X258175500Y-140962500I500000J0D01*
G01*
X266413000Y-26375000D02*
X253413000Y-26375000D01*
X252118750Y-114100000D02*
G75*
G02*
X251618750Y-113600000I0J500000D01*
G01*
X209763000Y-73500000D02*
X209763000Y-60500000D01*
X269281750Y-93050000D02*
G75*
G02*
X269581750Y-93350000I0J-300000D01*
G01*
X133563000Y-73500000D02*
X133563000Y-60500000D01*
X258618749Y-113600000D02*
G75*
G02*
X258118749Y-114100000I-500000J0D01*
G01*
X10025501Y-79550000D02*
G75*
G02*
X10525501Y-79050000I500000J0D01*
G01*
X371688000Y-25875000D02*
G75*
G02*
X371188000Y-26375000I-500000J0D01*
G01*
X247363000Y-136200000D02*
G75*
G02*
X247863000Y-136700000I0J-500000D01*
G01*
X38600500Y-98600000D02*
G75*
G02*
X39100500Y-98100000I500000J0D01*
G01*
X101013000Y-74000000D02*
X114013000Y-74000000D01*
X77200500Y-112100000D02*
G75*
G02*
X76700500Y-111600000I0J500000D01*
G01*
X171950500Y-12875000D02*
X171950500Y-25875000D01*
X166400500Y-45425000D02*
X153400500Y-45425000D01*
X147850500Y-25875000D02*
G75*
G02*
X147350500Y-26375000I-500000J0D01*
G01*
X320088000Y-60000000D02*
X333088000Y-60000000D01*
X233863000Y-73500000D02*
X233863000Y-60500000D01*
X396000000Y-160000000D02*
G75*
G02*
X395000000Y-161000000I-1000000J0D01*
G01*
X47838000Y-25875000D02*
G75*
G02*
X47338000Y-26375000I-500000J0D01*
G01*
X120063000Y-74000000D02*
G75*
G02*
X119563000Y-73500000I0J500000D01*
G01*
X33838000Y-44925000D02*
X33838000Y-31925000D01*
X52888000Y-44925000D02*
X52888000Y-31925000D01*
X248650500Y-112100000D02*
G75*
G02*
X248150500Y-111600000I0J500000D01*
G01*
X253413000Y-45425000D02*
X266413000Y-45425000D01*
X76413000Y-73500000D02*
G75*
G02*
X75913000Y-74000000I-500000J0D01*
G01*
X280700500Y-79050000D02*
G75*
G02*
X281200500Y-79550000I0J-500000D01*
G01*
X56863000Y-74000000D02*
X43863000Y-74000000D01*
X371188000Y-117150000D02*
X358188000Y-117150000D01*
X296275500Y-26375000D02*
G75*
G02*
X295775500Y-25875000I0J500000D01*
G01*
X75913000Y-60000000D02*
X62913000Y-60000000D01*
X129088000Y-92550000D02*
X129088000Y-79550000D01*
X277225500Y-45425000D02*
X290225500Y-45425000D01*
X277225500Y-26375000D02*
G75*
G02*
X276725500Y-25875000I0J500000D01*
G01*
X378238000Y-140675000D02*
G75*
G02*
X378738000Y-141175000I0J-500000D01*
G01*
X53388000Y-31425000D02*
X66388000Y-31425000D01*
X128300500Y-98100000D02*
X115300500Y-98100000D01*
X328825499Y-25874999D02*
G75*
G02*
X328325500Y-26375000I-500000J-1D01*
G01*
X5763000Y-45425000D02*
G75*
G02*
X5263000Y-44925000I0J500000D01*
G01*
X358188000Y-74000000D02*
G75*
G02*
X357688000Y-73500000I0J500000D01*
G01*
X190213000Y-60000000D02*
G75*
G02*
X190713000Y-60500000I0J-500000D01*
G01*
X158806251Y-139200000D02*
G75*
G02*
X158606251Y-139000000I0J200000D01*
G01*
X267700499Y-93050000D02*
X269281750Y-93050000D01*
X278376000Y-76000000D02*
G75*
G02*
X277876000Y-75500000I0J500000D01*
G01*
X277225500Y-154962500D02*
G75*
G02*
X276725500Y-154462500I0J500000D01*
G01*
X8431250Y-131150000D02*
G75*
G02*
X8731250Y-131450000I0J-300000D01*
G01*
X102106751Y-136200000D02*
G75*
G02*
X102606751Y-136700000I0J-500000D01*
G01*
X319588000Y-136700000D02*
G75*
G02*
X320088000Y-136200000I500000J0D01*
G01*
X295775500Y-98600000D02*
X295775500Y-111600000D01*
X69469250Y-137200000D02*
G75*
G02*
X69269250Y-137000000I0J200000D01*
G01*
X376738000Y-103713000D02*
G75*
G02*
X376438000Y-104013000I-300000J0D01*
G01*
X220075500Y-131150000D02*
G75*
G02*
X219575500Y-130650000I0J500000D01*
G01*
X201025500Y-131150000D02*
G75*
G02*
X200525500Y-130650000I0J500000D01*
G01*
X104044751Y-137700000D02*
G75*
G02*
X104544751Y-137200000I500000J0D01*
G01*
X114800500Y-12875000D02*
G75*
G02*
X115300500Y-12375000I500000J0D01*
G01*
X90200500Y-112100000D02*
X77200500Y-112100000D01*
X290225500Y-121912501D02*
X277225500Y-121912501D01*
X352138000Y-117150000D02*
G75*
G02*
X352638000Y-117650000I0J-500000D01*
G01*
X259269250Y-117150000D02*
G75*
G02*
X259769250Y-117650000I0J-500000D01*
G01*
X152900500Y-111600000D02*
X152900500Y-98600000D01*
X371688000Y-92550000D02*
X371688000Y-79550000D01*
X24025500Y-92550000D02*
G75*
G02*
X23525500Y-93050000I-500000J0D01*
G01*
X171163000Y-60000000D02*
X158163000Y-60000000D01*
X171950500Y-44925000D02*
X171950500Y-31925000D01*
X71938000Y-31925000D02*
G75*
G02*
X72438000Y-31425000I500000J0D01*
G01*
X378738000Y-126175000D02*
G75*
G02*
X378238000Y-126675000I-500000J0D01*
G01*
X162925500Y-131150000D02*
X175925500Y-131150000D01*
X333588000Y-60500000D02*
X333588000Y-73500000D01*
X339138000Y-31425000D02*
X352138000Y-31425000D01*
X290725500Y-141462500D02*
X290725500Y-154462500D01*
X209263000Y-31425000D02*
X196263000Y-31425000D01*
X152900500Y-44925000D02*
X152900500Y-31925000D01*
X351551000Y-150500000D02*
G75*
G02*
X351851000Y-150200000I300000J0D01*
G01*
X160044251Y-136700000D02*
G75*
G02*
X160544251Y-136200000I500000J0D01*
G01*
X133850500Y-98600000D02*
X133850500Y-111600000D01*
X66888000Y-44925000D02*
G75*
G02*
X66388000Y-45425000I-500000J0D01*
G01*
X229600500Y-98100000D02*
X242600500Y-98100000D01*
X110538000Y-93050000D02*
X123538000Y-93050000D01*
X52888000Y-12875000D02*
X52888000Y-25875000D01*
X374738000Y-80637000D02*
X374738000Y-86637000D01*
X219288000Y-92550000D02*
G75*
G02*
X218788000Y-93050000I-500000J0D01*
G01*
X65713000Y-150200000D02*
G75*
G02*
X65913000Y-150400000I0J-200000D01*
G01*
X39607250Y-132650000D02*
X39607250Y-131450000D01*
X358188000Y-112100000D02*
G75*
G02*
X357688000Y-111600000I0J500000D01*
G01*
X157375500Y-130650000D02*
X157375500Y-117650000D01*
X52100500Y-136199999D02*
G75*
G02*
X52600501Y-136700000I0J-500001D01*
G01*
X47838000Y-92550000D02*
G75*
G02*
X47338000Y-93050000I-500000J0D01*
G01*
X320088000Y-74000000D02*
G75*
G02*
X319588000Y-73500000I0J500000D01*
G01*
X52600501Y-149700000D02*
G75*
G02*
X52100501Y-150200000I-500000J0D01*
G01*
X371188000Y-79050000D02*
G75*
G02*
X371688000Y-79550000I0J-500000D01*
G01*
X174244251Y-139200000D02*
G75*
G02*
X174044251Y-139000000I0J200000D01*
G01*
X147350500Y-12375000D02*
G75*
G02*
X147850500Y-12875000I0J-500000D01*
G01*
X242600500Y-112100000D02*
X229600500Y-112100000D01*
X104988000Y-25875000D02*
G75*
G02*
X104488000Y-26375000I-500000J0D01*
G01*
X175925500Y-117150000D02*
G75*
G02*
X176425500Y-117650000I0J-500000D01*
G01*
X128300500Y-98100000D02*
G75*
G02*
X128800500Y-98600000I0J-500000D01*
G01*
X158106251Y-137200000D02*
G75*
G02*
X158606251Y-137700000I0J-500000D01*
G01*
X234363000Y-31425000D02*
X247363000Y-31425000D01*
X65913000Y-150400000D02*
X65913000Y-151700000D01*
X33838000Y-79550000D02*
G75*
G02*
X34338000Y-79050000I500000J0D01*
G01*
X190713000Y-60500000D02*
X190713000Y-73500000D01*
X37813000Y-60000000D02*
X24813000Y-60000000D01*
X129588000Y-93050000D02*
G75*
G02*
X129088000Y-92550000I0J500000D01*
G01*
X71150500Y-98100000D02*
X58150500Y-98100000D01*
X376738000Y-111313000D02*
X376738000Y-111600000D01*
X295775500Y-31925000D02*
X295775500Y-44925000D01*
X72413000Y-137200000D02*
X69469250Y-137200000D01*
X357688000Y-117650000D02*
X357688000Y-130650000D01*
X186238000Y-79550000D02*
G75*
G02*
X186738000Y-79050000I500000J0D01*
G01*
X53388000Y-45425000D02*
G75*
G02*
X52888000Y-44925000I0J500000D01*
G01*
X309275500Y-98100000D02*
X296275500Y-98100000D01*
X109250500Y-112100000D02*
X96250500Y-112100000D01*
X352638000Y-12875000D02*
X352638000Y-25875000D01*
X190713000Y-73500000D02*
G75*
G02*
X190213000Y-74000000I-500000J0D01*
G01*
X267200499Y-79550000D02*
X267200499Y-92550000D01*
X290225500Y-121912501D02*
G75*
G02*
X290725500Y-122412501I0J-500000D01*
G01*
X67175500Y-117650000D02*
G75*
G02*
X67675500Y-117150000I500000J0D01*
G01*
X185950500Y-111600000D02*
X185950500Y-98600000D01*
X171950500Y-12875000D02*
G75*
G02*
X172450500Y-12375000I500000J0D01*
G01*
X194975500Y-131150000D02*
X181975500Y-131150000D01*
X281500500Y-87137000D02*
X282081750Y-87137000D01*
X309775500Y-141462500D02*
X309775500Y-154462500D01*
X176713000Y-60500000D02*
G75*
G02*
X177213000Y-60000000I500000J0D01*
G01*
X339138000Y-93050000D02*
X352138000Y-93050000D01*
X214525500Y-117650000D02*
X214525500Y-130650000D01*
X81963000Y-74000000D02*
G75*
G02*
X81463000Y-73500000I0J500000D01*
G01*
X228313000Y-26375000D02*
X215313000Y-26375000D01*
X352638000Y-111600000D02*
G75*
G02*
X352138000Y-112100000I-500000J0D01*
G01*
X315325500Y-45425000D02*
G75*
G02*
X314825500Y-44925000I0J500000D01*
G01*
X390738000Y-25875000D02*
G75*
G02*
X390238000Y-26375000I-500000J0D01*
G01*
X72438000Y-93050000D02*
G75*
G02*
X71938000Y-92550000I0J500000D01*
G01*
X24313000Y-60500000D02*
X24313000Y-73500000D01*
X371188000Y-45425000D02*
X358188000Y-45425000D01*
X191500500Y-112100000D02*
X204500500Y-112100000D01*
X375238000Y-87137000D02*
G75*
G02*
X374738000Y-86637000I0J500000D01*
G01*
X338638000Y-117650000D02*
X338638000Y-130650000D01*
X174244251Y-147700000D02*
X175282251Y-147700000D01*
X104044751Y-137700000D02*
X104044751Y-139000000D01*
X357688000Y-136700000D02*
G75*
G02*
X358188000Y-136200000I500000J0D01*
G01*
X33107250Y-133150000D02*
G75*
G02*
X32607250Y-132650000I0J500000D01*
G01*
X357688000Y-60500000D02*
X357688000Y-73500000D01*
X247363000Y-45425000D02*
X234363000Y-45425000D01*
X295775500Y-98600000D02*
G75*
G02*
X296275500Y-98100000I500000J0D01*
G01*
X378738000Y-141175000D02*
X378738000Y-141613000D01*
X10525500Y-93050000D02*
G75*
G02*
X10025500Y-92550000I0J500000D01*
G01*
X90200500Y-98100000D02*
G75*
G02*
X90700500Y-98600000I0J-500000D01*
G01*
X228813000Y-25875000D02*
G75*
G02*
X228313000Y-26375000I-500000J0D01*
G01*
X271175500Y-140962500D02*
G75*
G02*
X271675500Y-141462500I0J-500000D01*
G01*
X282494750Y-113600000D02*
G75*
G02*
X281994750Y-114100000I-500000J0D01*
G01*
X31956750Y-150200000D02*
X52100501Y-150200000D01*
X282494750Y-113600000D02*
X282494750Y-110794836D01*
X254000000Y-74000000D02*
X253413000Y-74000000D01*
X352138000Y-74000000D02*
X339138000Y-74000000D01*
X277225500Y-140962500D02*
X290225500Y-140962500D01*
X53388000Y-93050000D02*
G75*
G02*
X52888000Y-92550000I0J500000D01*
G01*
X86706751Y-137200000D02*
G75*
G02*
X87206751Y-137700000I0J-500000D01*
G01*
X290225500Y-12375000D02*
G75*
G02*
X290725500Y-12875000I0J-500000D01*
G01*
X134350500Y-112100000D02*
G75*
G02*
X133850500Y-111600000I0J500000D01*
G01*
X357688000Y-44925000D02*
X357688000Y-31925000D01*
X371688000Y-73500000D02*
X371688000Y-60500000D01*
X209763000Y-12875000D02*
X209763000Y-25875000D01*
X47838000Y-25875000D02*
X47838000Y-12875000D01*
X158606251Y-139000000D02*
X158606251Y-137700000D01*
X172450500Y-112100000D02*
X185450500Y-112100000D01*
X115300500Y-26375000D02*
G75*
G02*
X114800500Y-25875000I0J500000D01*
G01*
X229100500Y-98600000D02*
G75*
G02*
X229600500Y-98100000I500000J0D01*
G01*
X71150500Y-98100000D02*
G75*
G02*
X71650500Y-98600000I0J-500000D01*
G01*
X371688000Y-12875000D02*
X371688000Y-25875000D01*
X151606251Y-137700000D02*
X151606251Y-151700000D01*
X105775500Y-117150000D02*
X118775500Y-117150000D01*
X134350500Y-31425000D02*
X147350500Y-31425000D01*
X374738000Y-118737000D02*
X374738000Y-124737000D01*
X328825500Y-44925000D02*
G75*
G02*
X328325500Y-45425000I-500000J0D01*
G01*
X166400500Y-31425000D02*
G75*
G02*
X166900500Y-31925000I0J-500000D01*
G01*
X253413000Y-60000000D02*
X285463000Y-60000000D01*
X352638000Y-130650000D02*
G75*
G02*
X352138000Y-131150000I-500000J0D01*
G01*
X253413000Y-26375000D02*
G75*
G02*
X252913000Y-25875000I0J500000D01*
G01*
X157663000Y-60500000D02*
G75*
G02*
X158163000Y-60000000I500000J0D01*
G01*
X358188000Y-150200000D02*
G75*
G02*
X357688000Y-149700000I0J500000D01*
G01*
X376738000Y-25875000D02*
X376738000Y-12875000D01*
X224838000Y-79050000D02*
X237838000Y-79050000D01*
X85938000Y-44925000D02*
G75*
G02*
X85438000Y-45425000I-500000J0D01*
G01*
X247363000Y-26375000D02*
X234363000Y-26375000D01*
X214813000Y-12875000D02*
G75*
G02*
X215313000Y-12375000I500000J0D01*
G01*
X290725500Y-135412501D02*
X290725500Y-122412501D01*
X358188000Y-12375000D02*
X371188000Y-12375000D01*
X195763000Y-25875000D02*
X195763000Y-12875000D01*
X38600500Y-111600000D02*
X38600499Y-98600000D01*
X104044751Y-147900000D02*
X104044751Y-151700000D01*
X147850500Y-111600000D02*
G75*
G02*
X147350500Y-112100000I-500000J0D01*
G01*
X62413000Y-60500000D02*
X62413000Y-73500000D01*
X18763000Y-31425000D02*
G75*
G02*
X19263000Y-31925000I0J-500000D01*
G01*
X352638000Y-31925000D02*
X352638000Y-44925000D01*
X309775500Y-44925000D02*
G75*
G02*
X309275500Y-45425000I-500000J0D01*
G01*
X309775500Y-73500000D02*
G75*
G02*
X309275500Y-74000000I-500000J0D01*
G01*
X43363000Y-73500000D02*
X43363000Y-60500000D01*
X309275500Y-74000000D02*
X296275500Y-74000000D01*
X224338000Y-92550000D02*
X224338000Y-79550000D01*
X185950500Y-31925000D02*
X185950500Y-44925000D01*
X200238000Y-92550000D02*
G75*
G02*
X199738000Y-93050000I-500000J0D01*
G01*
X296275500Y-74000000D02*
G75*
G02*
X295775500Y-73500000I0J500000D01*
G01*
X77200500Y-98100000D02*
X90200500Y-98100000D01*
X266913000Y-44925000D02*
X266913000Y-31925000D01*
X283081750Y-88575000D02*
X281500500Y-88575000D01*
X320088000Y-93050000D02*
G75*
G02*
X319588000Y-92550000I0J500000D01*
G01*
X95750499Y-98599999D02*
G75*
G02*
X96250500Y-98100000I500000J-1D01*
G01*
X87406751Y-139200000D02*
G75*
G02*
X87206751Y-139000000I0J200000D01*
G01*
X7644251Y-98600000D02*
X7644251Y-111600000D01*
X5763000Y-45425000D02*
X18763000Y-45425000D01*
X214813000Y-60500000D02*
X214813000Y-73500000D01*
X175482251Y-137700000D02*
G75*
G02*
X175982251Y-137200000I500000J0D01*
G01*
X352138000Y-150200000D02*
X351851000Y-150200000D01*
X200238000Y-79550000D02*
X200238000Y-92550000D01*
X345051000Y-152200000D02*
G75*
G02*
X344551000Y-151700000I0J500000D01*
G01*
X87206751Y-147900000D02*
G75*
G02*
X87406751Y-147700000I200000J0D01*
G01*
X375238000Y-111013000D02*
G75*
G02*
X374738000Y-110513000I0J500000D01*
G01*
X390738000Y-60500000D02*
X390738000Y-73500000D01*
X162925500Y-131150000D02*
G75*
G02*
X162425500Y-130650000I0J500000D01*
G01*
X215313000Y-74000000D02*
X228313000Y-74000000D01*
X176425500Y-130650000D02*
X176425500Y-117650000D01*
X187206751Y-151700000D02*
X187206751Y-137700000D01*
X7644251Y-136700000D02*
G75*
G02*
X8144251Y-136200000I500000J0D01*
G01*
X275994750Y-114100000D02*
X281994750Y-114100000D01*
X205000500Y-111600000D02*
G75*
G02*
X204500500Y-112100000I-500000J0D01*
G01*
X296275500Y-60000000D02*
X309275500Y-60000000D01*
X352138000Y-31425000D02*
G75*
G02*
X352638000Y-31925000I0J-500000D01*
G01*
X214525500Y-130650000D02*
G75*
G02*
X214025500Y-131150000I-500000J0D01*
G01*
X86225500Y-117650000D02*
X86225499Y-130650000D01*
X94963000Y-60000000D02*
G75*
G02*
X95463000Y-60500000I0J-500000D01*
G01*
X66388000Y-12375000D02*
X53388000Y-12375000D01*
X62913000Y-74000000D02*
G75*
G02*
X62413000Y-73500000I0J500000D01*
G01*
X214025500Y-117150000D02*
G75*
G02*
X214525500Y-117650000I0J-500000D01*
G01*
X19263000Y-44925000D02*
G75*
G02*
X18763000Y-45425000I-500000J0D01*
G01*
X201025500Y-117150000D02*
X214025500Y-117150000D01*
X111044751Y-151700000D02*
G75*
G02*
X110544751Y-152200000I-500000J0D01*
G01*
X320088000Y-131150000D02*
G75*
G02*
X319588000Y-130650000I0J500000D01*
G01*
X195763000Y-60500000D02*
X195763000Y-73500000D01*
X389738000Y-124737000D02*
G75*
G02*
X389238000Y-125237000I-500000J0D01*
G01*
X138613000Y-60500000D02*
G75*
G02*
X139113000Y-60000000I500000J0D01*
G01*
X247863000Y-149700000D02*
G75*
G02*
X247363000Y-150200000I-500000J0D01*
G01*
X275494750Y-111313000D02*
X275494750Y-113600000D01*
X357688000Y-79550000D02*
X357688000Y-92550000D01*
X282494750Y-102875000D02*
G75*
G02*
X282794750Y-102575000I300000J0D01*
G01*
X81963000Y-60000000D02*
X94963000Y-60000000D01*
X338638000Y-73500000D02*
X338638000Y-60500000D01*
X388238000Y-142113000D02*
G75*
G02*
X387738000Y-141613000I0J500000D01*
G01*
X395000000Y0D02*
X35000000Y0D01*
X282081750Y-80137000D02*
G75*
G02*
X282581750Y-80637000I0J-500000D01*
G01*
X315325500Y-12375000D02*
X328325500Y-12375000D01*
X104988000Y-79550000D02*
X104988000Y-92550000D01*
X91488000Y-93050000D02*
G75*
G02*
X90988000Y-92550000I0J500000D01*
G01*
X34338000Y-31425000D02*
X47338000Y-31425000D01*
X214025500Y-131150000D02*
X201025500Y-131150000D01*
X378238000Y-125237000D02*
G75*
G02*
X378738000Y-125737000I0J-500000D01*
G01*
X352638000Y-136700000D02*
X352638000Y-149700000D01*
X248150500Y-98600000D02*
X248150500Y-111600000D01*
X319588000Y-73500000D02*
X319588000Y-60500000D01*
X171663000Y-73500000D02*
X171663000Y-60500000D01*
X248650500Y-112100000D02*
X251318750Y-112100000D01*
X276725500Y-31925000D02*
G75*
G02*
X277225500Y-31425000I500000J0D01*
G01*
X224338000Y-79550000D02*
G75*
G02*
X224838000Y-79050000I500000J0D01*
G01*
X101013000Y-74000000D02*
G75*
G02*
X100513000Y-73500000I0J500000D01*
G01*
X320088000Y-131150000D02*
X333088000Y-131150000D01*
X282581750Y-86637000D02*
G75*
G02*
X282081750Y-87137000I-500000J0D01*
G01*
X114513000Y-73500000D02*
G75*
G02*
X114013000Y-74000000I-500000J0D01*
G01*
X140206750Y-136200000D02*
X120063000Y-136200000D01*
X243888000Y-93050000D02*
X256888000Y-93050000D01*
X375238000Y-125237000D02*
X378238000Y-125237000D01*
X282794750Y-102575000D02*
X283081750Y-102575000D01*
X102806751Y-139200000D02*
G75*
G02*
X102606751Y-139000000I0J200000D01*
G01*
X55769250Y-150200000D02*
X65713000Y-150200000D01*
X8144251Y-112100000D02*
G75*
G02*
X7644251Y-111600000I0J500000D01*
G01*
X176425499Y-130649999D02*
G75*
G02*
X175925500Y-131150000I-500000J-1D01*
G01*
X376738000Y-60500000D02*
G75*
G02*
X377238000Y-60000000I500000J0D01*
G01*
X143875500Y-131150000D02*
G75*
G02*
X143375500Y-130650000I0J500000D01*
G01*
X295775500Y-79550000D02*
X295775500Y-92550000D01*
X247363000Y-60000000D02*
G75*
G02*
X247863000Y-60500000I0J-500000D01*
G01*
X339138000Y-60000000D02*
X352138000Y-60000000D01*
X124825500Y-131150000D02*
G75*
G02*
X124325500Y-130650000I0J500000D01*
G01*
X351551000Y-151700000D02*
G75*
G02*
X351051000Y-152200000I-500000J0D01*
G01*
X196263000Y-12375000D02*
X209263000Y-12375000D01*
X26406750Y-111600000D02*
X26406750Y-98600000D01*
X371188000Y-98100000D02*
G75*
G02*
X371688000Y-98600000I0J-500000D01*
G01*
X180688000Y-79050000D02*
G75*
G02*
X181188000Y-79550000I0J-500000D01*
G01*
X352138000Y-79050000D02*
G75*
G02*
X352638000Y-79550000I0J-500000D01*
G01*
X252913000Y-60500000D02*
G75*
G02*
X253413000Y-60000000I500000J0D01*
G01*
X215313000Y-45425000D02*
G75*
G02*
X214813000Y-44925000I0J500000D01*
G01*
X88406751Y-147700000D02*
G75*
G02*
X88606751Y-147900000I0J-200000D01*
G01*
X238338000Y-79550000D02*
X238338000Y-92550000D01*
X390738000Y-44925000D02*
G75*
G02*
X390238000Y-45425000I-500000J0D01*
G01*
X128300500Y-31425000D02*
X115300500Y-31425000D01*
X247363000Y-74000000D02*
X234363000Y-74000000D01*
X181188000Y-92550000D02*
X181188000Y-79550000D01*
X167688000Y-93050000D02*
G75*
G02*
X167188000Y-92550000I0J500000D01*
G01*
X33838000Y-31925000D02*
G75*
G02*
X34338000Y-31425000I500000J0D01*
G01*
X252913000Y-31925000D02*
G75*
G02*
X253413000Y-31425000I500000J0D01*
G01*
X88606751Y-136700000D02*
X88606751Y-139000000D01*
X259769250Y-130650000D02*
X259769250Y-117650000D01*
X102606751Y-149700000D02*
G75*
G02*
X102106751Y-150200000I-500000J0D01*
G01*
X166400500Y-112100000D02*
X153400500Y-112100000D01*
X147350500Y-45425000D02*
X134350500Y-45425000D01*
X5263000Y-31925000D02*
X5263000Y-44925000D01*
X61625500Y-117150000D02*
G75*
G02*
X62125500Y-117650000I0J-500000D01*
G01*
X205288000Y-92550000D02*
X205288000Y-79550000D01*
X47838000Y-31925000D02*
X47838000Y-44925000D01*
X233075500Y-117150000D02*
G75*
G02*
X233575500Y-117650000I0J-500000D01*
G01*
X357688000Y-98600000D02*
G75*
G02*
X358188000Y-98100000I500000J0D01*
G01*
X181975500Y-117150000D02*
X194975500Y-117150000D01*
X228813000Y-31925000D02*
X228813000Y-44925000D01*
X371188000Y-60000000D02*
X358188000Y-60000000D01*
X233863000Y-12875000D02*
G75*
G02*
X234363000Y-12375000I500000J0D01*
G01*
X114013000Y-60000000D02*
G75*
G02*
X114513000Y-60500000I0J-500000D01*
G01*
X247863000Y-25875000D02*
G75*
G02*
X247363000Y-26375000I-500000J0D01*
G01*
X274356750Y-111013000D02*
X275194750Y-111013000D01*
X55269250Y-136700000D02*
X55269250Y-149700000D01*
X128800500Y-44925000D02*
X128800500Y-31925000D01*
X247363000Y-12375000D02*
G75*
G02*
X247863000Y-12875000I0J-500000D01*
G01*
X66388000Y-31425000D02*
G75*
G02*
X66888000Y-31925000I0J-500000D01*
G01*
X378738000Y-125737000D02*
X378738000Y-126175000D01*
X15731250Y-132650000D02*
X15731250Y-131450000D01*
X328325500Y-45425000D02*
X315325500Y-45425000D01*
X321175000Y-152200000D02*
G75*
G02*
X320675000Y-151700000I0J500000D01*
G01*
X377238000Y-140675000D02*
X378238000Y-140675000D01*
X48125500Y-117650000D02*
X48125500Y-130650000D01*
X242600500Y-98100000D02*
G75*
G02*
X243100500Y-98600000I0J-500000D01*
G01*
X104988000Y-25875000D02*
X104988000Y-12875000D01*
X295775500Y-25875000D02*
X295775500Y-12875000D01*
X374738000Y-142613000D02*
G75*
G02*
X375238000Y-142113000I500000J0D01*
G01*
X388238000Y-140675000D02*
X390238000Y-140675000D01*
X252913000Y-31925000D02*
X252913000Y-44925000D01*
X377238000Y-12375000D02*
X390238000Y-12375000D01*
X43863000Y-74000000D02*
G75*
G02*
X43363000Y-73500000I0J500000D01*
G01*
X376738000Y-127175000D02*
G75*
G02*
X377238000Y-126675000I500000J0D01*
G01*
X357688000Y-98600000D02*
X357688000Y-111600000D01*
X158606251Y-151700000D02*
X158606251Y-147900000D01*
X376738000Y-79837000D02*
G75*
G02*
X376438000Y-80137000I-300000J0D01*
G01*
X120063000Y-150200000D02*
G75*
G02*
X119563000Y-149700000I0J500000D01*
G01*
X209763000Y-44925000D02*
X209763000Y-31925000D01*
X333088000Y-98100000D02*
G75*
G02*
X333588000Y-98600000I0J-500000D01*
G01*
X114800500Y-31925000D02*
G75*
G02*
X115300500Y-31425000I500000J0D01*
G01*
X196263000Y-74000000D02*
X209263000Y-74000000D01*
X5763000Y-74000000D02*
G75*
G02*
X5263000Y-73500000I0J500000D01*
G01*
X104988000Y-92550000D02*
G75*
G02*
X104488000Y-93050000I-500000J0D01*
G01*
X15731250Y-131450000D02*
G75*
G02*
X16031250Y-131150000I300000J0D01*
G01*
X133850500Y-31925000D02*
G75*
G02*
X134350500Y-31425000I500000J0D01*
G01*
X109750500Y-111600000D02*
G75*
G02*
X109250500Y-112100000I-500000J0D01*
G01*
X257675500Y-141462500D02*
X257675500Y-154462500D01*
X290725500Y-135412501D02*
G75*
G02*
X290225500Y-135912501I-500000J0D01*
G01*
X314825500Y-44925000D02*
X314825500Y-31925000D01*
X190213000Y-74000000D02*
X177213000Y-74000000D01*
X296275500Y-154962500D02*
G75*
G02*
X295775500Y-154462500I0J500000D01*
G01*
X175982251Y-152200000D02*
X186706751Y-152200000D01*
X387738000Y-125737000D02*
G75*
G02*
X388238000Y-125237000I500000J0D01*
G01*
X252913000Y-73500000D02*
X252913000Y-60500000D01*
X85438000Y-79050000D02*
G75*
G02*
X85938000Y-79550000I0J-500000D01*
G01*
X148638000Y-93050000D02*
G75*
G02*
X148138000Y-92550000I0J500000D01*
G01*
X357688000Y-25875000D02*
X357688000Y-12875000D01*
X174044251Y-149700000D02*
G75*
G02*
X173544251Y-150200000I-500000J0D01*
G01*
X80206751Y-137700000D02*
X80206751Y-151700000D01*
X173544251Y-136200000D02*
G75*
G02*
X174044251Y-136700000I0J-500000D01*
G01*
X376438000Y-104013000D02*
X375238000Y-104013000D01*
X66888000Y-31925000D02*
X66888000Y-44925000D01*
X319588000Y-92550000D02*
X319588000Y-79550000D01*
X238338000Y-92550000D02*
G75*
G02*
X237838000Y-93050000I-500000J0D01*
G01*
X371188000Y-117150000D02*
G75*
G02*
X371688000Y-117650000I0J-500000D01*
G01*
X352638000Y-44925000D02*
G75*
G02*
X352138000Y-45425000I-500000J0D01*
G01*
X96250500Y-112100001D02*
G75*
G02*
X95750499Y-111600000I0J500001D01*
G01*
X320088000Y-136200000D02*
X352138000Y-136200000D01*
X71938000Y-44925000D02*
X71938000Y-31925000D01*
X167688000Y-93050000D02*
X180688000Y-93050000D01*
X118775500Y-117150000D02*
G75*
G02*
X119275500Y-117650000I0J-500000D01*
G01*
X175482251Y-137700000D02*
X175482251Y-139000000D01*
X153400500Y-31425000D02*
X166400500Y-31425000D01*
X160044251Y-136700000D02*
X160044251Y-139000000D01*
X152113000Y-60000000D02*
G75*
G02*
X152613000Y-60500000I0J-500000D01*
G01*
X33838000Y-79550000D02*
X33838000Y-92550000D01*
X142588000Y-79050000D02*
G75*
G02*
X143088000Y-79550000I0J-500000D01*
G01*
X352138000Y-60000000D02*
G75*
G02*
X352638000Y-60500000I0J-500000D01*
G01*
X72913000Y-151700000D02*
G75*
G02*
X72413000Y-152200000I-500000J0D01*
G01*
X377238000Y-31425000D02*
X390238000Y-31425000D01*
X196263000Y-74000000D02*
G75*
G02*
X195763000Y-73500000I0J500000D01*
G01*
X281500500Y-88575000D02*
G75*
G02*
X281200500Y-88275000I0J300000D01*
G01*
X66888000Y-25875000D02*
G75*
G02*
X66388000Y-26375000I-500000J0D01*
G01*
X96250500Y-98100000D02*
X109250500Y-98100000D01*
X374738000Y-118737000D02*
G75*
G02*
X375238000Y-118237000I500000J0D01*
G01*
X196263000Y-45425000D02*
X209263000Y-45425000D01*
X66388000Y-45425000D02*
X53388000Y-45425000D01*
X376738000Y-44925000D02*
X376738000Y-31925000D01*
X105775500Y-131150000D02*
G75*
G02*
X105275500Y-130650000I0J500000D01*
G01*
X71938000Y-79550000D02*
G75*
G02*
X72438000Y-79050000I500000J0D01*
G01*
X243388000Y-79550000D02*
G75*
G02*
X243888000Y-79050000I500000J0D01*
G01*
X55269250Y-136700000D02*
G75*
G02*
X55769250Y-136200000I500000J0D01*
G01*
X277876000Y-74000000D02*
X261000000Y-74000000D01*
X91488000Y-79050000D02*
X104488000Y-79050000D01*
X24025501Y-149700000D02*
X24025500Y-136700000D01*
X209263000Y-12375000D02*
G75*
G02*
X209763000Y-12875000I0J-500000D01*
G01*
X39100500Y-98100000D02*
X52100500Y-98100000D01*
X138325499Y-130649999D02*
G75*
G02*
X137825500Y-131150000I-500000J-1D01*
G01*
X90988000Y-12875000D02*
G75*
G02*
X91488000Y-12375000I500000J0D01*
G01*
X53388000Y-26375000D02*
X66388000Y-26375000D01*
X123538000Y-79050000D02*
X110538000Y-79050000D01*
X47338000Y-45425000D02*
X34338000Y-45425000D01*
X34338000Y-93050000D02*
G75*
G02*
X33838000Y-92550000I0J500000D01*
G01*
X205288000Y-79550000D02*
G75*
G02*
X205788000Y-79050000I500000J0D01*
G01*
X333088000Y-98100000D02*
X320088000Y-98100000D01*
X218788000Y-93050000D02*
X205788000Y-93050000D01*
X109750500Y-98600000D02*
X109750500Y-111600000D01*
X87206751Y-151700000D02*
X87206751Y-147900000D01*
X309275500Y-26375000D02*
X296275500Y-26375000D01*
X110544751Y-137200000D02*
G75*
G02*
X111044751Y-137700000I0J-500000D01*
G01*
X290225500Y-154962500D02*
X277225500Y-154962500D01*
X371188000Y-12375000D02*
G75*
G02*
X371688000Y-12875000I0J-500000D01*
G01*
X172450500Y-31425000D02*
X185450500Y-31425000D01*
X344251000Y-150200000D02*
X327975000Y-150200000D01*
X104488000Y-79050000D02*
G75*
G02*
X104988000Y-79550000I0J-500000D01*
G01*
X371188000Y-26375000D02*
X358188000Y-26375000D01*
X266413000Y-12375000D02*
G75*
G02*
X266913000Y-12875000I0J-500000D01*
G01*
X76413000Y-73500000D02*
X76413000Y-60500000D01*
X142588000Y-93050000D02*
X129588000Y-93050000D01*
X228313000Y-60000000D02*
X215313000Y-60000000D01*
X133850500Y-25875000D02*
X133850500Y-12875000D01*
X166900500Y-31925000D02*
X166900500Y-44925000D01*
X114013000Y-60000000D02*
X101013000Y-60000000D01*
X47338000Y-31425000D02*
G75*
G02*
X47838000Y-31925000I0J-500000D01*
G01*
X200525500Y-117650000D02*
G75*
G02*
X201025500Y-117150000I500000J0D01*
G01*
X209263000Y-60000000D02*
G75*
G02*
X209763000Y-60500000I0J-500000D01*
G01*
X147350500Y-98100000D02*
X134350500Y-98100000D01*
X172450500Y-26375000D02*
X185450500Y-26375000D01*
X104488000Y-45425000D02*
X91488000Y-45425000D01*
X390738000Y-73500000D02*
G75*
G02*
X390238000Y-74000000I-500000J0D01*
G01*
X210050500Y-111600000D02*
X210050500Y-98600000D01*
X210050500Y-98600000D02*
G75*
G02*
X210550500Y-98100000I500000J0D01*
G01*
X358188000Y-112100000D02*
X371188000Y-112100000D01*
X152106251Y-152200000D02*
G75*
G02*
X151606251Y-151700000I0J500000D01*
G01*
X257388000Y-92550000D02*
X257388000Y-79550000D01*
X158606251Y-147900000D02*
G75*
G02*
X158806251Y-147700000I200000J0D01*
G01*
X20763000Y-9875000D02*
X20763000Y-22875000D01*
X283581750Y-102075000D02*
G75*
G02*
X283081750Y-102575000I-500000J0D01*
G01*
X266413000Y-31425000D02*
G75*
G02*
X266913000Y-31925000I0J-500000D01*
G01*
X196263000Y-26375000D02*
G75*
G02*
X195763000Y-25875000I0J500000D01*
G01*
X175482251Y-139000000D02*
G75*
G02*
X175282251Y-139200000I-200000J0D01*
G01*
X195763000Y-136700000D02*
G75*
G02*
X196263000Y-136200000I500000J0D01*
G01*
X62913000Y-74000000D02*
X75913000Y-74000000D01*
X58150500Y-112100000D02*
G75*
G02*
X57650500Y-111600000I0J500000D01*
G01*
X71938000Y-12875000D02*
X71938000Y-25875000D01*
X246269250Y-131150000D02*
X259269250Y-131150000D01*
X309275500Y-140962500D02*
G75*
G02*
X309775500Y-141462500I0J-500000D01*
G01*
X7644250Y-136700000D02*
X7644251Y-149700000D01*
X87406751Y-147700000D02*
X88406751Y-147700000D01*
X376438000Y-80137000D02*
X375238000Y-80137000D01*
X309775500Y-92550000D02*
X309775500Y-79550000D01*
X344551000Y-151700000D02*
X344551000Y-150500000D01*
X351051000Y-152200000D02*
X345051000Y-152200000D01*
X47338000Y-79050000D02*
G75*
G02*
X47838000Y-79550000I0J-500000D01*
G01*
X174044251Y-147900000D02*
G75*
G02*
X174244251Y-147700000I200000J0D01*
G01*
X85938000Y-79550000D02*
X85938000Y-92550000D01*
X333588000Y-73500000D02*
G75*
G02*
X333088000Y-74000000I-500000J0D01*
G01*
X152613000Y-73500000D02*
G75*
G02*
X152113000Y-74000000I-500000J0D01*
G01*
X90988000Y-44925000D02*
X90988000Y-31925000D01*
X376738000Y-31925000D02*
G75*
G02*
X377238000Y-31425000I500000J0D01*
G01*
X338638000Y-25875000D02*
X338638000Y-12875000D01*
X186706751Y-137200000D02*
X175982251Y-137200000D01*
X266413000Y-31425000D02*
X253413000Y-31425000D01*
X160544251Y-150200000D02*
X173544251Y-150200000D01*
X339138000Y-131150000D02*
G75*
G02*
X338638000Y-130650000I0J500000D01*
G01*
X233863000Y-25875000D02*
X233863000Y-12875000D01*
X204500500Y-98100000D02*
X191500500Y-98100000D01*
X228313000Y-60000000D02*
G75*
G02*
X228813000Y-60500000I0J-500000D01*
G01*
X378738000Y-141613000D02*
G75*
G02*
X378238000Y-142113000I-500000J0D01*
G01*
X25906750Y-98100000D02*
G75*
G02*
X26406750Y-98600000I0J-500000D01*
G01*
X352138000Y-98100000D02*
G75*
G02*
X352638000Y-98600000I0J-500000D01*
G01*
X357688000Y-117650000D02*
G75*
G02*
X358188000Y-117150000I500000J0D01*
G01*
X218788000Y-79050000D02*
G75*
G02*
X219288000Y-79550000I0J-500000D01*
G01*
X48625500Y-131150000D02*
G75*
G02*
X48125500Y-130650000I0J500000D01*
G01*
X115300500Y-112100000D02*
G75*
G02*
X114800500Y-111600000I0J500000D01*
G01*
X39907250Y-131150000D02*
X42575500Y-131150000D01*
X315325500Y-31425000D02*
X328325500Y-31425000D01*
X282494749Y-104231165D02*
X282494750Y-102875000D01*
X66388000Y-12375000D02*
G75*
G02*
X66888000Y-12875000I0J-500000D01*
G01*
X185950500Y-111600000D02*
G75*
G02*
X185450500Y-112100000I-500000J0D01*
G01*
X167188000Y-79550000D02*
X167188000Y-92550000D01*
X276725500Y-31925000D02*
X276725500Y-44925000D01*
X389238000Y-118237000D02*
G75*
G02*
X389738000Y-118737000I0J-500000D01*
G01*
X295775500Y-60500000D02*
G75*
G02*
X296275500Y-60000000I500000J0D01*
G01*
X290725500Y-44925000D02*
X290725500Y-31925000D01*
X282581750Y-86637000D02*
X282581750Y-80637000D01*
X128300500Y-31425000D02*
G75*
G02*
X128800500Y-31925000I0J-500000D01*
G01*
X8144251Y-150200000D02*
G75*
G02*
X7644251Y-149700000I0J500000D01*
G01*
X309775500Y-25875000D02*
G75*
G02*
X309275500Y-26375000I-500000J0D01*
G01*
X81175500Y-117650000D02*
X81175500Y-130650000D01*
X320088000Y-112100000D02*
G75*
G02*
X319588000Y-111600000I0J500000D01*
G01*
X76700499Y-98599999D02*
G75*
G02*
X77200500Y-98100000I500000J-1D01*
G01*
X295775500Y-141462500D02*
G75*
G02*
X296275500Y-140962500I500000J0D01*
G01*
X19263000Y-60500000D02*
X19263000Y-73500000D01*
X352138000Y-117150000D02*
X339138000Y-117150000D01*
X85438000Y-12375000D02*
G75*
G02*
X85938000Y-12875000I0J-500000D01*
G01*
X48125500Y-117650000D02*
G75*
G02*
X48625500Y-117150000I500000J0D01*
G01*
X191500500Y-112100000D02*
G75*
G02*
X191000500Y-111600000I0J500000D01*
G01*
X88606751Y-136700000D02*
G75*
G02*
X89106751Y-136200000I500000J0D01*
G01*
X7644250Y-117650000D02*
X7644250Y-130650000D01*
X72413000Y-137200000D02*
G75*
G02*
X72913000Y-137700000I0J-500000D01*
G01*
X282581749Y-110513000D02*
X282581750Y-104513000D01*
X296275500Y-112100000D02*
X309275500Y-112100000D01*
X228313000Y-12375000D02*
G75*
G02*
X228813000Y-12875000I0J-500000D01*
G01*
X162425500Y-117650000D02*
X162425500Y-130650000D01*
X248150500Y-98600000D02*
G75*
G02*
X248650500Y-98100000I500000J0D01*
G01*
X23525501Y-136200001D02*
G75*
G02*
X24025500Y-136700000I0J-499999D01*
G01*
X52888000Y-79550000D02*
G75*
G02*
X53388000Y-79050000I500000J0D01*
G01*
X42575500Y-117150000D02*
X8144250Y-117150000D01*
X3763000Y-22875000D02*
X3763000Y-9875000D01*
X338638000Y-79550000D02*
X338638000Y-92550000D01*
X281200500Y-79837000D02*
X281200500Y-79550000D01*
X290225500Y-31425000D02*
X277225500Y-31425000D01*
X23525500Y-93050000D02*
X10525501Y-93050000D01*
X376738000Y-79550000D02*
X376738000Y-79837000D01*
X215313000Y-74000000D02*
G75*
G02*
X214813000Y-73500000I0J500000D01*
G01*
X290725500Y-25875000D02*
G75*
G02*
X290225500Y-26375000I-500000J0D01*
G01*
X371688000Y-73500000D02*
G75*
G02*
X371188000Y-74000000I-500000J0D01*
G01*
X52888000Y-12875000D02*
G75*
G02*
X53388000Y-12375000I500000J0D01*
G01*
X68769250Y-136200000D02*
G75*
G02*
X69269250Y-136700000I0J-500000D01*
G01*
X309275500Y-31425000D02*
X296275500Y-31425000D01*
X309775500Y-154462500D02*
G75*
G02*
X309275500Y-154962500I-500000J0D01*
G01*
X100513000Y-60500000D02*
X100513000Y-73500000D01*
X138325500Y-130650000D02*
X138325500Y-117650000D01*
X62413000Y-60500000D02*
G75*
G02*
X62913000Y-60000000I500000J0D01*
G01*
X24813000Y-74000000D02*
G75*
G02*
X24313000Y-73500000I0J500000D01*
G01*
X375238000Y-125237000D02*
G75*
G02*
X374738000Y-124737000I0J500000D01*
G01*
X319588000Y-60500000D02*
G75*
G02*
X320088000Y-60000000I500000J0D01*
G01*
X309275500Y-60000000D02*
G75*
G02*
X309775500Y-60500000I0J-500000D01*
G01*
X0Y-160000000D02*
X0Y-1000000D01*
X68769250Y-136200000D02*
X55769250Y-136200000D01*
X52888000Y-79550000D02*
X52888000Y-92550000D01*
X88606751Y-139000000D02*
G75*
G02*
X88406751Y-139200000I-200000J0D01*
G01*
X67675500Y-131150000D02*
G75*
G02*
X67175500Y-130650000I0J500000D01*
G01*
X57363000Y-73500000D02*
G75*
G02*
X56863000Y-74000000I-500000J0D01*
G01*
X280700500Y-79050000D02*
X267700499Y-79050000D01*
X233863000Y-60500000D02*
G75*
G02*
X234363000Y-60000000I500000J0D01*
G01*
X339138000Y-45425000D02*
G75*
G02*
X338638000Y-44925000I0J500000D01*
G01*
X328325500Y-26375000D02*
X315325500Y-26375000D01*
X375238000Y-87137000D02*
X376438000Y-87137000D01*
X62125499Y-130649999D02*
G75*
G02*
X61625500Y-131150000I-500000J-1D01*
G01*
X128800500Y-25875000D02*
G75*
G02*
X128300500Y-26375000I-500000J0D01*
G01*
X133063000Y-60000000D02*
G75*
G02*
X133563000Y-60500000I0J-500000D01*
G01*
X276725500Y-122412501D02*
X276725500Y-135412501D01*
X376738000Y-73500000D02*
X376738000Y-60500000D01*
X152106251Y-152200000D02*
X158106251Y-152200000D01*
X285463000Y-74000000D02*
X284876000Y-74000000D01*
X314825500Y-12875000D02*
G75*
G02*
X315325500Y-12375000I500000J0D01*
G01*
X283081750Y-88575000D02*
G75*
G02*
X283581750Y-89075000I0J-500000D01*
G01*
X209763000Y-25875000D02*
G75*
G02*
X209263000Y-26375000I-500000J0D01*
G01*
X147850500Y-31925000D02*
X147850500Y-44925000D01*
X210550500Y-112100000D02*
G75*
G02*
X210050500Y-111600000I0J500000D01*
G01*
X147850500Y-111600000D02*
X147850500Y-98600000D01*
X186238000Y-92550000D02*
X186238000Y-79550000D01*
X378238000Y-126675000D02*
X377238000Y-126675000D01*
X19263000Y-73500000D02*
G75*
G02*
X18763000Y-74000000I-500000J0D01*
G01*
X7644251Y-98600000D02*
G75*
G02*
X8144251Y-98100000I500000J0D01*
G01*
X352638000Y-25875000D02*
G75*
G02*
X352138000Y-26375000I-500000J0D01*
G01*
X1000000Y-161000000D02*
G75*
G02*
X0Y-160000000I0J1000000D01*
G01*
X39100500Y-112100000D02*
G75*
G02*
X38600500Y-111600000I0J500000D01*
G01*
X199738000Y-79050000D02*
G75*
G02*
X200238000Y-79550000I0J-500000D01*
G01*
X269281750Y-98100000D02*
X248650500Y-98100000D01*
X162138000Y-92550000D02*
X162138000Y-79550000D01*
X133850500Y-12875000D02*
G75*
G02*
X134350500Y-12375000I500000J0D01*
G01*
X214813000Y-44925000D02*
X214813000Y-31925000D01*
X111044751Y-151700000D02*
X111044751Y-137700000D01*
X371188000Y-79050000D02*
X358188000Y-79050000D01*
X67675500Y-117150000D02*
X80675500Y-117150000D01*
X195763000Y-60500000D02*
G75*
G02*
X196263000Y-60000000I500000J0D01*
G01*
X352138000Y-45425000D02*
X339138000Y-45425000D01*
X319588000Y-117650000D02*
X319588000Y-130650000D01*
X328825499Y-12875000D02*
X328825499Y-25875000D01*
X52600500Y-111600000D02*
G75*
G02*
X52100500Y-112100000I-500000J0D01*
G01*
X219575500Y-117650000D02*
X219575500Y-130650000D01*
X319588000Y-98600000D02*
X319588000Y-111600000D01*
X180688000Y-79050000D02*
X167688000Y-79050000D01*
X251618750Y-112400000D02*
X251618750Y-113600000D01*
X71650500Y-111600000D02*
G75*
G02*
X71150500Y-112100000I-500000J0D01*
G01*
X89106751Y-150200000D02*
X102106751Y-150200000D01*
X338638000Y-117650000D02*
G75*
G02*
X339138000Y-117150000I500000J0D01*
G01*
X390738000Y-12875000D02*
X390738000Y-25875000D01*
X128800500Y-111600000D02*
X128800500Y-98600000D01*
X21144250Y-136200000D02*
X8144251Y-136200000D01*
X309275500Y-98100000D02*
G75*
G02*
X309775500Y-98600000I0J-500000D01*
G01*
X371688000Y-130650000D02*
G75*
G02*
X371188000Y-131150000I-500000J0D01*
G01*
X261000000Y-75500000D02*
G75*
G02*
X260500000Y-76000000I-500000J0D01*
G01*
X39607250Y-131450000D02*
G75*
G02*
X39907250Y-131150000I300000J0D01*
G01*
X254500000Y-76000000D02*
G75*
G02*
X254000000Y-75500000I0J500000D01*
G01*
X195475499Y-130649999D02*
G75*
G02*
X194975500Y-131150000I-500000J-1D01*
G01*
X254000000Y-75500000D02*
X254000000Y-74000000D01*
X159844251Y-147700000D02*
G75*
G02*
X160044251Y-147900000I0J-200000D01*
G01*
X252913000Y-12875000D02*
G75*
G02*
X253413000Y-12375000I500000J0D01*
G01*
X32607250Y-131450000D02*
X32607250Y-132650000D01*
X295775500Y-79550000D02*
G75*
G02*
X296275500Y-79050000I500000J0D01*
G01*
X320088000Y-112100000D02*
X333088000Y-112100000D01*
X128300500Y-12375000D02*
G75*
G02*
X128800500Y-12875000I0J-500000D01*
G01*
X100225500Y-130650000D02*
X100225500Y-117650000D01*
X181475500Y-130650000D02*
X181475500Y-117650000D01*
X58150500Y-112100000D02*
X71150500Y-112100000D01*
X233863000Y-31925000D02*
G75*
G02*
X234363000Y-31425000I500000J0D01*
G01*
X26406749Y-111599999D02*
G75*
G02*
X25906750Y-112100000I-500000J-1D01*
G01*
X195763000Y-12875000D02*
G75*
G02*
X196263000Y-12375000I500000J0D01*
G01*
X38313000Y-73500000D02*
X38313000Y-60500000D01*
X319588000Y-149700000D02*
X319588000Y-136700000D01*
X177213000Y-60000000D02*
X190213000Y-60000000D01*
X309275500Y-154962500D02*
X296275500Y-154962500D01*
X134350500Y-26375000D02*
G75*
G02*
X133850500Y-25875000I0J500000D01*
G01*
X282494750Y-104231164D02*
G75*
G02*
X282581750Y-104513000I-413001J-281836D01*
G01*
X71650500Y-111600000D02*
X71650500Y-98600000D01*
X66413000Y-152200000D02*
G75*
G02*
X65913000Y-151700000I0J500000D01*
G01*
X18763000Y-74000000D02*
X5763000Y-74000000D01*
X124325500Y-117650000D02*
G75*
G02*
X124825500Y-117150000I500000J0D01*
G01*
X374738000Y-104513000D02*
G75*
G02*
X375238000Y-104013000I500000J0D01*
G01*
X4263000Y-23375000D02*
G75*
G02*
X3763000Y-22875000I0J500000D01*
G01*
X229100500Y-111600000D02*
X229100500Y-98600000D01*
X246269250Y-131150000D02*
G75*
G02*
X245769250Y-130650000I0J500000D01*
G01*
X24025500Y-79550000D02*
X24025500Y-92550000D01*
X277225500Y-135912501D02*
X290225500Y-135912501D01*
X153400500Y-98100000D02*
X166400500Y-98100000D01*
X156875500Y-117150000D02*
X143875500Y-117150000D01*
X61625500Y-117150000D02*
X48625500Y-117150000D01*
X104988000Y-44925000D02*
G75*
G02*
X104488000Y-45425000I-500000J0D01*
G01*
X52600501Y-149700000D02*
X52600501Y-136700000D01*
X186706751Y-137200000D02*
G75*
G02*
X187206751Y-137700000I0J-500000D01*
G01*
X358188000Y-131150000D02*
X371188000Y-131150000D01*
X166900500Y-44925000D02*
G75*
G02*
X166400500Y-45425000I-500000J0D01*
G01*
X110038000Y-79550000D02*
G75*
G02*
X110538000Y-79050000I500000J0D01*
G01*
X333588000Y-111600000D02*
X333588000Y-98600000D01*
X377238000Y-60000000D02*
X390238000Y-60000000D01*
X290725500Y-12875000D02*
X290725500Y-25875000D01*
X140706750Y-149700000D02*
G75*
G02*
X140206750Y-150200000I-500000J0D01*
G01*
X328325500Y-31425000D02*
G75*
G02*
X328825500Y-31925000I0J-500000D01*
G01*
X276725500Y-122412501D02*
G75*
G02*
X277225500Y-121912501I500000J0D01*
G01*
X371188000Y-60000000D02*
G75*
G02*
X371688000Y-60500000I0J-500000D01*
G01*
X358188000Y-74000000D02*
X371188000Y-74000000D01*
X20263000Y-23375000D02*
X4263000Y-23375000D01*
X185450500Y-98100000D02*
G75*
G02*
X185950500Y-98600000I0J-500000D01*
G01*
X228813000Y-44925000D02*
G75*
G02*
X228313000Y-45425000I-500000J0D01*
G01*
X57650500Y-98600000D02*
G75*
G02*
X58150500Y-98100000I500000J0D01*
G01*
X214813000Y-60500000D02*
G75*
G02*
X215313000Y-60000000I500000J0D01*
G01*
X290225500Y-31425000D02*
G75*
G02*
X290725500Y-31925000I0J-500000D01*
G01*
X214813000Y-25875000D02*
X214813000Y-12875000D01*
X128800500Y-44925000D02*
G75*
G02*
X128300500Y-45425000I-500000J0D01*
G01*
X81175500Y-130650000D02*
G75*
G02*
X80675500Y-131150000I-500000J0D01*
G01*
X119563000Y-136700000D02*
G75*
G02*
X120063000Y-136200000I500000J0D01*
G01*
X47838000Y-44925000D02*
G75*
G02*
X47338000Y-45425000I-500000J0D01*
G01*
X358188000Y-26375000D02*
G75*
G02*
X357688000Y-25875000I0J500000D01*
G01*
X43363000Y-60500000D02*
G75*
G02*
X43863000Y-60000000I500000J0D01*
G01*
X338638000Y-98600000D02*
G75*
G02*
X339138000Y-98100000I500000J0D01*
G01*
X233575500Y-130650000D02*
X233575500Y-117650000D01*
X152113000Y-60000000D02*
X139113000Y-60000000D01*
X338638000Y-79550000D02*
G75*
G02*
X339138000Y-79050000I500000J0D01*
G01*
X159844251Y-139200000D02*
X158806251Y-139200000D01*
X247363000Y-31425000D02*
G75*
G02*
X247863000Y-31925000I0J-500000D01*
G01*
X199738000Y-93050000D02*
X186738000Y-93050000D01*
X357688000Y-31925000D02*
G75*
G02*
X358188000Y-31425000I500000J0D01*
G01*
X33838000Y-12875000D02*
G75*
G02*
X34338000Y-12375000I500000J0D01*
G01*
X90700500Y-98600000D02*
X90700500Y-111600000D01*
X162138000Y-92550000D02*
G75*
G02*
X161638000Y-93050000I-500000J0D01*
G01*
X309775500Y-60500000D02*
X309775500Y-73500000D01*
X309275500Y-12375000D02*
G75*
G02*
X309775500Y-12875000I0J-500000D01*
G01*
X253413000Y-74000000D02*
G75*
G02*
X252913000Y-73500000I0J500000D01*
G01*
X243100500Y-111600000D02*
G75*
G02*
X242600500Y-112100000I-500000J0D01*
G01*
X95463000Y-60500000D02*
X95463000Y-73500000D01*
X8144250Y-131150000D02*
G75*
G02*
X7644250Y-130650000I0J500000D01*
G01*
X327175000Y-152200000D02*
X321175000Y-152200000D01*
X295775500Y-12875000D02*
G75*
G02*
X296275500Y-12375000I500000J0D01*
G01*
X9231250Y-133150000D02*
X15231250Y-133150000D01*
X143088000Y-79550000D02*
X143088000Y-92550000D01*
X23525500Y-79050000D02*
G75*
G02*
X24025500Y-79550000I0J-500000D01*
G01*
X53388000Y-93050000D02*
X66388000Y-93050000D01*
X185950500Y-25875000D02*
X185950500Y-12875000D01*
X390238000Y-74000000D02*
X377238000Y-74000000D01*
X390238000Y-60000000D02*
G75*
G02*
X390738000Y-60500000I0J-500000D01*
G01*
X338638000Y-12875000D02*
G75*
G02*
X339138000Y-12375000I500000J0D01*
G01*
X277876000Y-75500000D02*
X277876000Y-74000000D01*
X266913000Y-25875000D02*
G75*
G02*
X266413000Y-26375000I-500000J0D01*
G01*
X284876000Y-75500000D02*
G75*
G02*
X284376000Y-76000000I-500000J0D01*
G01*
X137825500Y-117150000D02*
X124825500Y-117150000D01*
X352638000Y-92550000D02*
X352638000Y-79550000D01*
X19263000Y-44925000D02*
X19263000Y-31925000D01*
X119275500Y-117650000D02*
X119275500Y-130650000D01*
X134350500Y-112100000D02*
X147350500Y-112100000D01*
X133563000Y-73500000D02*
G75*
G02*
X133063000Y-74000000I-500000J0D01*
G01*
X166400500Y-26375000D02*
X153400500Y-26375000D01*
X258618749Y-113600000D02*
X258618749Y-112400000D01*
X80706751Y-152200000D02*
X86706751Y-152200000D01*
X371688000Y-31925000D02*
X371688000Y-44925000D01*
X115300500Y-112100000D02*
X128300500Y-112100000D01*
X88606751Y-147900000D02*
X88606751Y-149700000D01*
X245769250Y-117650000D02*
X245769250Y-130650000D01*
X158163000Y-74000000D02*
X171163000Y-74000000D01*
X374738000Y-80637000D02*
G75*
G02*
X375238000Y-80137000I500000J0D01*
G01*
X143875500Y-131150000D02*
X156875500Y-131150000D01*
X102606751Y-149700000D02*
X102606751Y-147900000D01*
X8731250Y-131450000D02*
X8731250Y-132650000D01*
X147350500Y-31425000D02*
G75*
G02*
X147850500Y-31925000I0J-500000D01*
G01*
X57363000Y-60500000D02*
X57363000Y-73500000D01*
X389738000Y-124737000D02*
X389738000Y-118737000D01*
X100225500Y-130650000D02*
G75*
G02*
X99725500Y-131150000I-500000J0D01*
G01*
X166900500Y-25875000D02*
G75*
G02*
X166400500Y-26375000I-500000J0D01*
G01*
X195763000Y-31925000D02*
X195763000Y-44925000D01*
X158106251Y-137200000D02*
X152106251Y-137200000D01*
X339138000Y-98100000D02*
X352138000Y-98100000D01*
X243888000Y-93050000D02*
G75*
G02*
X243388000Y-92550000I0J500000D01*
G01*
X72438000Y-79050000D02*
X85438000Y-79050000D01*
X333588000Y-130650000D02*
G75*
G02*
X333088000Y-131150000I-500000J0D01*
G01*
X309775500Y-92550000D02*
G75*
G02*
X309275500Y-93050000I-500000J0D01*
G01*
X185450500Y-45425000D02*
X172450500Y-45425000D01*
X1000000Y0D02*
X35000000Y0D01*
X277225500Y-12375000D02*
X290225500Y-12375000D01*
X173544251Y-136200000D02*
X160544251Y-136200000D01*
X110538000Y-93050000D02*
G75*
G02*
X110038000Y-92550000I0J500000D01*
G01*
X175282251Y-139200000D02*
X174244251Y-139200000D01*
X295775500Y-73500000D02*
X295775500Y-60500000D01*
X196263000Y-150200000D02*
X247363000Y-150200000D01*
X234363000Y-60000000D02*
X247363000Y-60000000D01*
X214813000Y-31925000D02*
G75*
G02*
X215313000Y-31425000I500000J0D01*
G01*
X147350500Y-98100000D02*
G75*
G02*
X147850500Y-98600000I0J-500000D01*
G01*
X157375499Y-130649999D02*
G75*
G02*
X156875500Y-131150000I-500000J-1D01*
G01*
X229600500Y-112100000D02*
G75*
G02*
X229100500Y-111600000I0J500000D01*
G01*
X152900500Y-98600000D02*
G75*
G02*
X153400500Y-98100000I500000J0D01*
G01*
X296275500Y-45425000D02*
G75*
G02*
X295775500Y-44925000I0J500000D01*
G01*
X338638000Y-60500000D02*
G75*
G02*
X339138000Y-60000000I500000J0D01*
G01*
X128800500Y-111600000D02*
G75*
G02*
X128300500Y-112100000I-500000J0D01*
G01*
X171950500Y-31925000D02*
G75*
G02*
X172450500Y-31425000I500000J0D01*
G01*
X102606751Y-139000000D02*
X102606751Y-136700000D01*
X320675000Y-151700000D02*
X320675000Y-150500000D01*
M02*
