0
SECTION
2
HEADER
9
$INSUNITS
70
4
9
$ACADVER
1
AC1014
9
$HANDSEED
5
FFFF
0
ENDSEC
0
SECTION
2
TABLES
0
TABLE
2
VPORT
5
8
100
AcDbSymbolTable
0
ENDTAB
0
TABLE
2
LTYPE
5
5
100
AcDbSymbolTable
0
LTYPE
5
14
100
AcDbSymbolTableRecord
100
AcDbLinetypeTableRecord
2
BYBLOCK
70
0
0
LTYPE
5
15
100
AcDbSymbolTableRecord
100
AcDbLinetypeTableRecord
2
BYLAYER
70
0
0
ENDTAB
0
TABLE
2
LAYER
5
2
100
AcDbSymbolTable
70
2
0
LAYER
5
50
100
AcDbSymbolTableRecord
100
AcDbLayerTableRecord
2
0
70
0
6
CONTINUOUS
0
ENDTAB
0
TABLE
2
STYLE
5
3
100
AcDbSymbolTable
70
1
0
STYLE
5
11
100
AcDbSymbolTableRecord
100
AcDbTextStyleTableRecord
2
STANDARD
70
0
0
ENDTAB
0
TABLE
2
VIEW
5
6
100
AcDbSymbolTable
70
0
0
ENDTAB
0
TABLE
2
UCS
5
7
100
AcDbSymbolTable
70
0
0
ENDTAB
0
TABLE
2
APPID
5
9
100
AcDbSymbolTable
70
2
0
APPID
5
12
100
AcDbSymbolTableRecord
100
AcDbRegAppTableRecord
2
ACAD
70
0
0
ENDTAB
0
TABLE
2
DIMSTYLE
5
A
100
AcDbSymbolTable
70
1
0
ENDTAB
0
TABLE
2
BLOCK_RECORD
5
1
100
AcDbSymbolTable
70
1
0
BLOCK_RECORD
5
1F
100
AcDbSymbolTableRecord
100
AcDbBlockTableRecord
2
*MODEL_SPACE
0
BLOCK_RECORD
5
1B
100
AcDbSymbolTableRecord
100
AcDbBlockTableRecord
2
*PAPER_SPACE
0
ENDTAB
0
ENDSEC
0
SECTION
2
BLOCKS
0
BLOCK
5
20
100
AcDbEntity
100
AcDbBlockBegin
2
*MODEL_SPACE
0
ENDBLK
5
21
100
AcDbEntity
100
AcDbBlockEnd
0
BLOCK
5
1C
100
AcDbEntity
100
AcDbBlockBegin
2
*PAPER_SPACE
0
ENDBLK
5
1D
100
AcDbEntity
100
AcDbBlockEnd
0
ENDSEC
0
SECTION
2
ENTITIES
0
LWPOLYLINE
5
100
100
AcDbEntity
8
0
100
AcDbPolyline
90
56
70
1
43
0.0
10
-321.27842246101119
20
52.902303761422395
10
-321.27842246101119
20
52.102303761422803
10
-327.27642246101118
20
52.102303761422803
10
-327.27642246101118
20
52.902303761422395
10
-330.27642246101118
20
52.902303761422395
10
-330.27642246101118
20
52.102303761422803
10
-331.2764224610101
20
52.102303761422803
10
-331.2764224610101
20
51.10190376142279
10
-332.07742246101014
20
51.10190376142279
10
-332.07742246101014
20
48.002703761422794
10
-331.2764224610101
20
48.002703761422794
10
-331.2764224610101
20
42.202703761422796
10
-332.07742246101014
20
42.202703761422796
10
-332.07742246101014
20
39.102103761422796
10
-331.2764224610101
20
39.102103761422796
10
-331.2764224610101
20
32.051903761422786
10
-332.07742246101014
20
32.051903761422786
10
-332.07742246101014
20
28.952703761422786
10
-331.2764224610101
20
28.952703761422786
10
-331.2764224610101
20
23.152703761422785
10
-332.07742246101014
20
23.152703761422785
10
-332.07742246101014
20
20.052103761422785
10
-331.2764224610101
20
20.052103761422792
10
-331.2764224610101
20
19.05300376142279
10
-330.27642246101118
20
19.05300376142279
10
-330.27642246101118
20
18.253003761422388
10
-327.27642246101118
20
18.253003761422388
10
-327.27642246101118
20
19.05300376142279
10
-321.27842246101119
20
19.05300376142279
10
-321.27842246101125
20
18.253003761422388
10
-318.27842246101119
20
18.253003761422388
10
-318.27842246101119
20
19.05300376142279
10
-317.27842246101022
20
19.05300376142279
10
-317.27842246101022
20
20.052103761422785
10
-316.47742246101024
20
20.052103761422785
10
-316.47742246101024
20
22.026603761422784
10
-316.3084224610102
20
22.026603761422784
10
-316.3084224610102
20
25.327203761422791
10
-317.27842246101022
20
25.327203761422791
10
-317.27842246101022
20
28.952703761422786
10
-316.47742246101024
20
28.952703761422786
10
-316.47742246101024
20
32.051903761422786
10
-317.27842246101022
20
32.051903761422786
10
-317.27842246101022
20
39.102103761422796
10
-316.47742246101024
20
39.102103761422796
10
-316.47742246101024
20
42.202703761422796
10
-317.27842246101022
20
42.202703761422796
10
-317.27842246101022
20
45.826803761422795
10
-316.3084224610102
20
45.826803761422795
10
-316.3084224610102
20
49.127403761422798
10
-316.47742246101024
20
49.127403761422798
10
-316.47742246101024
20
51.10190376142279
10
-317.27842246101022
20
51.10190376142279
10
-317.27842246101022
20
52.102303761422803
10
-318.27842246101119
20
52.102303761422803
10
-318.27842246101119
20
52.902303761422395
0
CIRCLE
5
101
100
AcDbEntity
8
0
100
AcDbCircle
10
-297.27692246100918
20
-57.312921238576813
30
0
40
1.6000000000000003
210
0
220
0
230
1
0
CIRCLE
5
102
100
AcDbEntity
8
0
100
AcDbCircle
10
-262.28504746100919
20
-7.9972962385773219
30
0
40
3.0000000000000107
210
0
220
0
230
1
0
CIRCLE
5
103
100
AcDbEntity
8
0
100
AcDbCircle
10
-138.53942246101016
20
98.752703761421799
30
0
40
1.6000000000000003
210
0
220
0
230
1
0
CIRCLE
5
104
100
AcDbEntity
8
0
100
AcDbCircle
10
-224.18504746100919
20
-7.9972962385773112
30
0
40
3.0000000000000107
210
0
220
0
230
1
0
CIRCLE
5
105
100
AcDbEntity
8
0
100
AcDbCircle
10
20.198077538988841
20
98.752703761421685
30
0
40
1.6000000000000003
210
0
220
0
230
1
0
CIRCLE
5
106
100
AcDbEntity
8
0
100
AcDbCircle
10
20.198077538988841
20
-57.312921238576813
30
0
40
1.6000000000000003
210
0
220
0
230
1
0
CIRCLE
5
107
100
AcDbEntity
8
0
100
AcDbCircle
10
-297.27692246100918
20
98.752703761421799
30
0
40
1.6000000000000003
210
0
220
0
230
1
0
CIRCLE
5
108
100
AcDbEntity
8
0
100
AcDbCircle
10
-59.801922461010562
20
98.752703761421799
30
0
40
1.6000000000000003
210
0
220
0
230
1
0
CIRCLE
5
109
100
AcDbEntity
8
0
100
AcDbCircle
10
-242.99692246100921
20
-7.9972962385773112
30
0
40
3.0000000000000107
210
0
220
0
230
1
0
CIRCLE
5
110
100
AcDbEntity
8
0
100
AcDbCircle
10
-138.53942246101016
20
-57.312921238576813
30
0
40
1.6000000000000003
210
0
220
0
230
1
0
CIRCLE
5
111
100
AcDbEntity
8
0
100
AcDbCircle
10
-217.27692246100918
20
-57.312921238576813
30
0
40
1.6000000000000003
210
0
220
0
230
1
0
CIRCLE
5
112
100
AcDbEntity
8
0
100
AcDbCircle
10
-59.801922461010562
20
-57.312921238576813
30
0
40
1.6000000000000003
210
0
220
0
230
1
0
LWPOLYLINE
5
113
100
AcDbEntity
8
0
100
AcDbPolyline
90
20
70
1
43
0.0
10
-151.10249746101016
20
86.102803761422791
10
-150.30149746101017
20
86.102803761422791
10
-150.30149746101017
20
80.302603761422787
10
-151.10249746101016
20
80.302603761422802
10
-151.10249746101016
20
77.202003761422787
10
-150.30149746101017
20
77.202003761422787
10
-150.30149746101017
20
76.203003761422806
10
-136.30249746101018
20
76.203003761422806
10
-136.30249746101018
20
77.202003761422787
10
-135.50149746101016
20
77.202003761422787
10
-135.50149746101016
20
80.302603761422787
10
-136.30249746101018
20
80.302603761422787
10
-136.30249746101018
20
86.102803761422791
10
-135.50149746101016
20
86.102803761422791
10
-135.50149746101016
20
89.201993761422784
10
-136.30249746101018
20
89.201993761422784
10
-136.30249746101018
20
90.20247376142278
10
-150.30149746101017
20
90.20247376142278
10
-150.30149746101017
20
89.201993761422784
10
-151.10249746101016
20
89.201993761422784
0
LWPOLYLINE
5
114
100
AcDbEntity
8
0
100
AcDbPolyline
90
20
70
1
43
0.0
10
-169.63949746101019
20
39.102103761422796
10
-168.83849746101021
20
39.102103761422796
10
-168.83849746101021
20
42.202703761422796
10
-169.63949746101019
20
42.202703761422796
10
-169.63949746101019
20
48.002703761422794
10
-168.83849746101021
20
48.002703761422794
10
-168.83849746101021
20
51.10190376142279
10
-169.63949746101019
20
51.10190376142279
10
-169.63949746101019
20
52.102303761422803
10
-183.63949746101017
20
52.102303761422803
10
-183.63949746101017
20
51.10190376142279
10
-184.4384974610102
20
51.10190376142279
10
-184.4384974610102
20
48.002703761422794
10
-183.63949746101017
20
48.002703761422794
10
-183.63949746101017
20
42.202703761422796
10
-184.4384974610102
20
42.202703761422796
10
-184.4384974610102
20
39.102103761422796
10
-183.63949746101017
20
39.102103761422796
10
-183.63949746101017
20
38.103003761422784
10
-169.63949746101019
20
38.103003761422784
0
LWPOLYLINE
5
115
100
AcDbEntity
8
0
100
AcDbPolyline
90
20
70
1
43
0.0
10
-155.06449746101018
20
71.152503761422807
10
-155.06449746101018
20
70.152003761422804
10
-155.86349746101018
20
70.152003761422804
10
-155.86349746101018
20
67.052803761422794
10
-155.06449746101018
20
67.052803761422794
10
-155.06449746101018
20
61.252703761422794
10
-155.86349746101018
20
61.252703761422794
10
-155.86349746101018
20
58.152103761422794
10
-155.06449746101018
20
58.152103761422794
10
-155.06449746101018
20
57.153103761422798
10
-141.06449746101018
20
57.153103761422798
10
-141.06449746101018
20
58.152103761422794
10
-140.26349746101016
20
58.152103761422794
10
-140.26349746101016
20
61.252703761422794
10
-141.06449746101018
20
61.252703761422794
10
-141.06449746101018
20
67.052803761422794
10
-140.26349746101016
20
67.052803761422794
10
-140.26349746101016
20
70.152003761422804
10
-141.06449746101018
20
70.152003761422804
10
-141.06449746101018
20
71.152503761422807
0
LWPOLYLINE
5
116
100
AcDbEntity
8
0
100
AcDbPolyline
90
20
70
1
43
0.0
10
-107.43949746101018
20
48.002703761422794
10
-107.43949746101018
20
42.202703761422796
10
-108.23849746101017
20
42.202703761422796
10
-108.23849746101017
20
39.102103761422796
10
-107.43949746101018
20
39.102103761422796
10
-107.43949746101018
20
38.103003761422784
10
-93.439497461010575
20
38.103003761422784
10
-93.439497461010575
20
39.102103761422796
10
-92.638497461010573
20
39.102103761422796
10
-92.638497461010573
20
42.202703761422796
10
-93.439497461010575
20
42.202703761422796
10
-93.439497461010575
20
48.002703761422794
10
-92.638497461010573
20
48.002703761422794
10
-92.638497461010573
20
51.10190376142279
10
-93.439497461010575
20
51.10190376142279
10
-93.439497461010575
20
52.102303761422803
10
-107.43949746101018
20
52.102303761422803
10
-107.43949746101018
20
51.10190376142279
10
-108.23849746101017
20
51.10190376142279
10
-108.23849746101017
20
48.002703761422794
0
LWPOLYLINE
5
117
100
AcDbEntity
8
0
100
AcDbPolyline
90
20
70
1
43
0.0
10
-54.538497461010564
20
39.102103761422796
10
-54.538497461010564
20
42.202703761422796
10
-55.339497461010566
20
42.202703761422796
10
-55.339497461010566
20
48.002703761422794
10
-54.538497461010564
20
48.002703761422794
10
-54.538497461010564
20
51.10190376142279
10
-55.339497461010566
20
51.10190376142279
10
-55.339497461010566
20
52.102303761422803
10
-69.339497461010552
20
52.102303761422803
10
-69.339497461010552
20
51.10190376142279
10
-70.138497461010573
20
51.10190376142279
10
-70.138497461010573
20
48.002703761422794
10
-69.339497461010552
20
48.002703761422794
10
-69.339497461010552
20
42.202703761422796
10
-70.138497461010573
20
42.202703761422796
10
-70.138497461010573
20
39.102103761422796
10
-69.339497461010552
20
39.102103761422796
10
-69.339497461010552
20
38.103003761422784
10
-55.339497461010566
20
38.103003761422784
10
-55.339497461010566
20
39.102103761422796
0
LWPOLYLINE
5
118
100
AcDbEntity
8
0
100
AcDbPolyline
90
20
70
1
43
0.0
10
-121.72649746101017
20
33.052303761422785
10
-121.72649746101017
20
32.051903761422786
10
-122.52749746101017
20
32.051903761422786
10
-122.52749746101017
20
28.952703761422786
10
-121.72649746101017
20
28.952703761422786
10
-121.72649746101017
20
23.152703761422785
10
-122.52749746101017
20
23.152703761422785
10
-122.52749746101017
20
20.052103761422785
10
-121.72649746101017
20
20.052103761422792
10
-121.72649746101017
20
19.05300376142279
10
-107.72749746101016
20
19.05300376142279
10
-107.72749746101016
20
20.052103761422785
10
-106.92649746101017
20
20.052103761422785
10
-106.92649746101017
20
23.152703761422785
10
-107.72749746101016
20
23.152703761422785
10
-107.72749746101016
20
28.952703761422786
10
-106.92649746101017
20
28.952703761422786
10
-106.92649746101017
20
32.051903761422786
10
-107.72749746101016
20
32.051903761422786
10
-107.72749746101016
20
33.052303761422785
0
LWPOLYLINE
5
119
100
AcDbEntity
8
0
100
AcDbPolyline
90
20
70
1
43
0.0
10
-183.12649746101016
20
23.152703761422785
10
-183.92749746101018
20
23.152703761422785
10
-183.92749746101018
20
28.952703761422786
10
-183.12649746101016
20
28.952703761422786
10
-183.12649746101016
20
32.051903761422786
10
-183.92749746101018
20
32.051903761422786
10
-183.92749746101018
20
33.052303761422785
10
-197.9264974610102
20
33.052303761422785
10
-197.9264974610102
20
32.051903761422786
10
-198.72749746101019
20
32.051903761422786
10
-198.72749746101019
20
28.952703761422786
10
-197.9264974610102
20
28.952703761422786
10
-197.9264974610102
20
23.152703761422785
10
-198.72749746101019
20
23.152703761422785
10
-198.72749746101019
20
20.052103761422785
10
-197.9264974610102
20
20.052103761422792
10
-197.9264974610102
20
19.05300376142279
10
-183.92749746101018
20
19.05300376142279
10
-183.92749746101018
20
20.052103761422785
10
-183.12649746101016
20
20.052103761422785
0
LWPOLYLINE
5
120
100
AcDbEntity
8
0
100
AcDbPolyline
90
20
70
1
43
0.0
10
-154.55149746101017
20
1.0021037614227883
10
-154.55149746101017
20
4.1027037614227888
10
-155.35249746101016
20
4.1027037614227897
10
-155.35249746101016
20
9.9027037614227886
10
-154.55149746101017
20
9.9027037614227886
10
-154.55149746101017
20
13.00190376142279
10
-155.35249746101016
20
13.00190376142279
10
-155.35249746101019
20
14.002303761422789
10
-169.35149746101018
20
14.002303761422789
10
-169.35149746101018
20
13.00190376142279
10
-170.1524974610102
20
13.00190376142279
10
-170.1524974610102
20
9.9027037614227886
10
-169.35149746101018
20
9.9027037614227869
10
-169.35149746101018
20
4.1027037614227888
10
-170.1524974610102
20
4.1027037614227888
10
-170.1524974610102
20
1.0021037614227888
10
-169.35149746101018
20
1.0021037614227888
10
-169.35149746101018
20
0.0030037614227713368
10
-155.35249746101016
20
0.0030037614227713949
10
-155.35249746101016
20
1.0021037614227888
0
LWPOLYLINE
5
121
100
AcDbEntity
8
0
100
AcDbPolyline
90
20
70
1
43
0.0
10
-93.952497461010566
20
13.00190376142279
10
-93.952497461010566
20
9.9027037614227886
10
-93.151497461010564
20
9.9027037614227869
10
-93.151497461010564
20
4.1027037614227888
10
-93.952497461010566
20
4.1027037614227888
10
-93.952497461010566
20
1.0021037614227888
10
-93.151497461010564
20
1.0021037614227888
10
-93.151497461010564
20
0.0030037614227713368
10
-79.152497461010555
20
0.0030037614227713949
10
-79.152497461010555
20
1.0021037614227888
10
-78.351497461010553
20
1.0021037614227883
10
-78.351497461010553
20
4.1027037614227888
10
-79.152497461010555
20
4.1027037614227897
10
-79.152497461010555
20
9.9027037614227886
10
-78.351497461010553
20
9.9027037614227886
10
-78.351497461010553
20
13.00190376142279
10
-79.152497461010555
20
13.00190376142279
10
-79.152497461010555
20
14.002303761422789
10
-93.151497461010564
20
14.002303761422789
10
-93.151497461010564
20
13.00190376142279
0
LWPOLYLINE
5
122
100
AcDbEntity
8
0
100
AcDbPolyline
90
20
70
1
43
0.0
10
1.2977025389894274
20
4.1027037614227888
10
1.2977025389894274
20
1.0021037614227888
10
2.0985025389894179
20
1.0021037614227888
10
2.0985025389894174
20
0.0030037614227713368
10
16.097802538989441
20
0.0030037614227713949
10
16.097802538989441
20
1.0021037614227888
10
16.898602538989437
20
1.0021037614227883
10
16.898602538989437
20
4.1027037614227888
10
16.097802538989441
20
4.1027037614227897
10
16.097802538989441
20
9.9027037614227886
10
16.898602538989437
20
9.9027037614227886
10
16.898602538989437
20
13.00190376142279
10
16.097802538989441
20
13.00190376142279
10
16.097802538989441
20
14.002303761422789
10
2.0985025389894179
20
14.002303761422789
10
2.0985025389894179
20
13.00190376142279
10
1.2977025389894274
20
13.00190376142279
10
1.2977025389894274
20
9.9027037614227886
10
2.0985025389894179
20
9.9027037614227869
10
2.0985025389894179
20
4.1027037614227888
0
LWPOLYLINE
5
123
100
AcDbEntity
8
0
100
AcDbPolyline
90
20
70
1
43
0.0
10
-12.477197461010563
20
23.152703761422785
10
-12.477197461010563
20
28.952703761422786
10
-11.676397461010561
20
28.952703761422786
10
-11.676397461010561
20
32.051903761422786
10
-12.477197461010563
20
32.051903761422786
10
-12.477197461010565
20
33.052303761422785
10
-26.476497461010563
20
33.052303761422785
10
-26.476497461010563
20
32.051903761422786
10
-27.277297461010566
20
32.051903761422786
10
-27.277297461010566
20
28.952703761422786
10
-26.476497461010563
20
28.952703761422786
10
-26.476497461010563
20
23.152703761422785
10
-27.277297461010566
20
23.152703761422785
10
-27.277297461010566
20
20.052103761422785
10
-26.476497461010563
20
20.052103761422792
10
-26.47649746101056
20
19.05300376142279
10
-12.477197461010563
20
19.05300376142279
10
-12.477197461010563
20
20.052103761422785
10
-11.676397461010561
20
20.052103761422785
10
-11.676397461010561
20
23.152703761422785
0
LWPOLYLINE
5
124
100
AcDbEntity
8
0
100
AcDbPolyline
90
20
70
1
43
0.0
10
20.860302538989437
20
42.202703761422796
10
20.860302538989437
20
48.002703761422794
10
21.661002538989436
20
48.002703761422794
10
21.661002538989436
20
51.10190376142279
10
20.860302538989437
20
51.10190376142279
10
20.860302538989437
20
52.102303761422803
10
6.8610025389894176
20
52.102303761422803
10
6.8610025389894176
20
51.10190376142279
10
6.0616025389894181
20
51.10190376142279
10
6.0616025389894181
20
48.002703761422794
10
6.8610025389894176
20
48.002703761422794
10
6.8610025389894176
20
42.202703761422796
10
6.0616025389894181
20
42.202703761422796
10
6.0616025389894181
20
39.102103761422796
10
6.8610025389894176
20
39.102103761422796
10
6.8610025389894158
20
38.103003761422784
10
20.860302538989437
20
38.103003761422784
10
20.860302538989437
20
39.102103761422796
10
21.661002538989436
20
39.102103761422796
10
21.661002538989436
20
42.202703761422796
0
LWPOLYLINE
5
125
100
AcDbEntity
8
0
100
AcDbPolyline
90
20
70
1
43
0.0
10
-16.438897461010562
20
39.102103761422796
10
-16.438897461010562
20
42.202703761422796
10
-17.239697461010564
20
42.202703761422796
10
-17.239697461010564
20
48.002703761422794
10
-16.438897461010562
20
48.002703761422794
10
-16.438897461010562
20
51.10190376142279
10
-17.239697461010564
20
51.10190376142279
10
-17.239697461010564
20
52.102303761422803
10
-31.238997461010566
20
52.102303761422803
10
-31.238997461010566
20
51.10190376142279
10
-32.038397461010561
20
51.10190376142279
10
-32.038397461010561
20
48.002703761422794
10
-31.238997461010566
20
48.002703761422794
10
-31.238997461010566
20
42.202703761422796
10
-32.038397461010561
20
42.202703761422796
10
-32.038397461010561
20
39.102103761422796
10
-31.238997461010566
20
39.102103761422796
10
-31.238997461010563
20
38.103003761422784
10
-17.239697461010564
20
38.103003761422784
10
-17.239697461010564
20
39.102103761422796
0
LWPOLYLINE
5
126
100
AcDbEntity
8
0
100
AcDbPolyline
90
36
70
1
43
0.0
10
-27.620597461010568
20
91.672503761422774
10
-27.620597461010568
20
85.502003761422785
10
-67.244497461010567
20
85.502003761422785
10
-67.244497461010567
20
86.102803761422791
10
-66.445497461010575
20
86.102803761422791
10
-66.445497461010575
20
89.201993761422784
10
-67.244497461010567
20
89.201993761422784
10
-67.244497461010567
20
90.20247376142278
10
-81.245497461010558
20
90.20247376142278
10
-81.245497461010558
20
89.201993761422784
10
-82.04449746101055
20
89.201993761422784
10
-82.04449746101055
20
86.102803761422791
10
-81.245497461010558
20
86.102803761422791
10
-81.245497461010558
20
85.502003761422785
10
-120.86949746101016
20
85.502003761422785
10
-120.86949746101016
20
91.672503761422774
10
-128.94456746101017
20
91.672503761422774
10
-128.94456746101017
20
77.171903761422783
10
-120.86949746101016
20
77.171903761422783
10
-120.86949746101016
20
80.902103761422779
10
-81.245497461010558
20
80.902103761422779
10
-81.245497461010558
20
80.302603761422787
10
-82.04449746101055
20
80.302603761422802
10
-82.04449746101055
20
77.202003761422787
10
-81.245497461010558
20
77.202003761422787
10
-81.245497461010558
20
76.203003761422806
10
-67.244497461010567
20
76.203003761422806
10
-67.244497461010567
20
77.202003761422787
10
-66.445497461010575
20
77.202003761422787
10
-66.445497461010575
20
80.302603761422787
10
-67.244497461010567
20
80.302603761422787
10
-67.244497461010567
20
80.902103761422779
10
-27.620597461010568
20
80.902103761422779
10
-27.620597461010561
20
77.171903761422783
10
-19.545527461010575
20
77.171903761422783
10
-19.545527461010575
20
91.672503761422774
0
LWPOLYLINE
5
127
100
AcDbEntity
8
0
100
AcDbPolyline
90
20
70
1
43
0.0
10
54.998492538989446
20
4.1027037614227888
10
54.197852538989444
20
4.1027037614227888
10
54.197852538989444
20
9.9027037614227886
10
54.998492538989446
20
9.9027037614227886
10
54.998492538989446
20
13.00190376142279
10
54.197852538989444
20
13.00190376142279
10
54.197852538989444
20
14.002303761422789
10
40.198302538989445
20
14.002303761422789
10
40.198302538989438
20
13.00190376142279
10
39.397702538989435
20
13.00190376142279
10
39.397702538989435
20
9.9027037614227886
10
40.198302538989445
20
9.9027037614227869
10
40.198302538989438
20
4.1027037614227888
10
39.397702538989435
20
4.1027037614227888
10
39.397702538989435
20
1.0021037614227888
10
40.198302538989445
20
1.0021037614227888
10
40.198302538989445
20
0.0030037614227713368
10
54.197852538989444
20
0.0030037614227713949
10
54.197852538989444
20
1.0021037614227888
10
54.998492538989446
20
1.0021037614227883
0
LWPOLYLINE
5
128
100
AcDbEntity
8
0
100
AcDbPolyline
90
20
70
1
43
0.0
10
37.817102538989438
20
80.302603761422787
10
37.016502538989435
20
80.302603761422787
10
37.016502538989435
20
77.202003761422787
10
37.817102538989438
20
77.202003761422787
10
37.817102538989445
20
76.203003761422806
10
51.81659253898944
20
76.203003761422806
10
51.81659253898944
20
77.202003761422787
10
52.617222538989445
20
77.202003761422787
10
52.617222538989445
20
80.302603761422787
10
51.81659253898944
20
80.302603761422787
10
51.81659253898944
20
86.102803761422791
10
52.617222538989445
20
86.102803761422791
10
52.617222538989445
20
89.201993761422784
10
51.81659253898944
20
89.201993761422784
10
51.81659253898944
20
90.20247376142278
10
37.817102538989438
20
90.20247376142278
10
37.817102538989438
20
89.201993761422784
10
37.016502538989435
20
89.201993761422784
10
37.016502538989435
20
86.102803761422791
10
37.817102538989438
20
86.102803761422791
0
LWPOLYLINE
5
129
100
AcDbEntity
8
0
100
AcDbPolyline
90
20
70
1
43
0.0
10
-79.663497461010564
20
70.152003761422804
10
-79.663497461010564
20
67.052803761422794
10
-78.864497461010558
20
67.052803761422794
10
-78.864497461010558
20
61.252703761422794
10
-79.663497461010564
20
61.252703761422794
10
-79.663497461010564
20
58.152103761422794
10
-78.864497461010558
20
58.152103761422794
10
-78.864497461010558
20
57.153103761422798
10
-64.864497461010572
20
57.153103761422798
10
-64.864497461010572
20
58.152103761422794
10
-64.063497461010556
20
58.152103761422794
10
-64.063497461010556
20
61.252703761422794
10
-64.864497461010572
20
61.252703761422794
10
-64.864497461010572
20
67.052803761422794
10
-64.063497461010556
20
67.052803761422794
10
-64.063497461010556
20
70.152003761422804
10
-64.864497461010572
20
70.152003761422804
10
-64.864497461010572
20
71.152503761422807
10
-78.864497461010558
20
71.152503761422807
10
-78.864497461010558
20
70.152003761422804
0
LWPOLYLINE
5
130
100
AcDbEntity
8
0
100
AcDbPolyline
90
20
70
1
43
0.0
10
-26.764697461010563
20
57.153103761422798
10
-26.764697461010563
20
58.152103761422794
10
-25.963897461010568
20
58.152103761422794
10
-25.963897461010568
20
61.252703761422794
10
-26.764697461010563
20
61.252703761422794
10
-26.764697461010563
20
67.052803761422794
10
-25.963897461010568
20
67.052803761422794
10
-25.963897461010568
20
70.152003761422804
10
-26.764697461010563
20
70.152003761422804
10
-26.764697461010559
20
71.152503761422807
10
-40.763997461010561
20
71.152503761422807
10
-40.763997461010561
20
70.152003761422804
10
-41.563397461010567
20
70.152003761422804
10
-41.563397461010567
20
67.052803761422794
10
-40.763997461010561
20
67.052803761422794
10
-40.763997461010561
20
61.252703761422794
10
-41.563397461010567
20
61.252703761422794
10
-41.563397461010567
20
58.152103761422794
10
-40.763997461010561
20
58.152103761422794
10
-40.763997461010568
20
57.153103761422798
0
LWPOLYLINE
5
131
100
AcDbEntity
8
0
100
AcDbPolyline
90
20
70
1
43
0.0
10
-3.4633974610105929
20
70.152003761422804
10
-3.4633974610105929
20
67.052803761422794
10
-2.6639974610105828
20
67.052803761422794
10
-2.6639974610105828
20
61.252703761422794
10
-3.4633974610105929
20
61.252703761422794
10
-3.4633974610105929
20
58.152103761422794
10
-2.6639974610105828
20
58.152103761422794
10
-2.6639974610105832
20
57.153103761422798
10
11.335302538989438
20
57.153103761422798
10
11.335302538989438
20
58.152103761422794
10
12.136102538989439
20
58.152103761422794
10
12.136102538989439
20
61.252703761422794
10
11.335302538989438
20
61.252703761422794
10
11.335302538989438
20
67.052803761422794
10
12.136102538989439
20
67.052803761422794
10
12.136102538989439
20
70.152003761422804
10
11.335302538989438
20
70.152003761422804
10
11.335302538989438
20
71.152503761422807
10
-2.6639974610105828
20
71.152503761422807
10
-2.6639974610105828
20
70.152003761422804
0
LWPOLYLINE
5
132
100
AcDbEntity
8
0
100
AcDbPolyline
90
20
70
1
43
0.0
10
-31.527197461010559
20
33.052303761422785
10
-45.526497461010564
20
33.052303761422785
10
-45.526497461010564
20
32.051903761422786
10
-46.327497461010559
20
32.051903761422786
10
-46.327497461010559
20
28.952703761422786
10
-45.526497461010564
20
28.952703761422786
10
-45.526497461010564
20
23.152703761422785
10
-46.327497461010559
20
23.152703761422785
10
-46.327497461010559
20
20.052103761422785
10
-45.526497461010564
20
20.052103761422792
10
-45.526497461010571
20
19.05300376142279
10
-31.527197461010562
20
19.05300376142279
10
-31.527197461010562
20
20.052103761422785
10
-30.726397461010567
20
20.052103761422785
10
-30.726397461010567
20
23.152703761422785
10
-31.527197461010562
20
23.152703761422785
10
-31.527197461010562
20
28.952703761422786
10
-30.726397461010567
20
28.952703761422786
10
-30.726397461010567
20
32.051903761422786
10
-31.527197461010562
20
32.051903761422786
0
LWPOLYLINE
5
133
100
AcDbEntity
8
0
100
AcDbPolyline
90
20
70
1
43
0.0
10
21.148502538989437
20
9.9027037614227869
10
21.148502538989437
20
4.1027037614227888
10
20.347702538989438
20
4.1027037614227888
10
20.347702538989438
20
1.0021037614227888
10
21.148502538989437
20
1.0021037614227888
10
21.148502538989437
20
0.0030037614227713368
10
35.147802538989438
20
0.0030037614227713949
10
35.147802538989438
20
1.0021037614227888
10
35.948502538989437
20
1.0021037614227883
10
35.948502538989437
20
4.1027037614227888
10
35.147802538989438
20
4.1027037614227897
10
35.147802538989438
20
9.9027037614227886
10
35.948502538989437
20
9.9027037614227886
10
35.948502538989437
20
13.00190376142279
10
35.147802538989438
20
13.00190376142279
10
35.147802538989438
20
14.002303761422789
10
21.148502538989437
20
14.002303761422789
10
21.148502538989437
20
13.00190376142279
10
20.347702538989438
20
13.00190376142279
10
20.347702538989438
20
9.9027037614227886
0
LWPOLYLINE
5
134
100
AcDbEntity
8
0
100
AcDbPolyline
90
20
70
1
43
0.0
10
-98.202497461010566
20
4.1027037614227897
10
-98.202497461010566
20
9.9027037614227886
10
-97.40149746101055
20
9.9027037614227886
10
-97.40149746101055
20
13.00190376142279
10
-98.202497461010566
20
13.00190376142279
10
-98.202497461010566
20
14.002303761422789
10
-112.20149746101016
20
14.002303761422789
10
-112.20149746101016
20
13.00190376142279
10
-113.00249746101017
20
13.00190376142279
10
-113.00249746101017
20
9.9027037614227886
10
-112.20149746101016
20
9.9027037614227869
10
-112.20149746101016
20
4.1027037614227888
10
-113.00249746101017
20
4.1027037614227888
10
-113.00249746101017
20
1.0021037614227888
10
-112.20149746101016
20
1.0021037614227888
10
-112.20149746101016
20
0.0030037614227713368
10
-98.202497461010566
20
0.0030037614227713949
10
-98.202497461010566
20
1.0021037614227888
10
-97.40149746101055
20
1.0021037614227883
10
-97.40149746101055
20
4.1027037614227888
0
LWPOLYLINE
5
135
100
AcDbEntity
8
0
100
AcDbPolyline
90
20
70
1
43
0.0
10
-174.40249746101017
20
14.002303761422789
10
-188.40149746101019
20
14.002303761422789
10
-188.40149746101019
20
13.00190376142279
10
-189.20249746101021
20
13.00190376142279
10
-189.20249746101021
20
9.9027037614227886
10
-188.40149746101019
20
9.9027037614227869
10
-188.40149746101019
20
4.1027037614227888
10
-189.20249746101021
20
4.1027037614227888
10
-189.20249746101021
20
1.0021037614227888
10
-188.40149746101019
20
1.0021037614227888
10
-188.40149746101019
20
0.0030037614227713368
10
-174.40249746101017
20
0.0030037614227713949
10
-174.40249746101017
20
1.0021037614227888
10
-173.60149746101018
20
1.0021037614227883
10
-173.60149746101018
20
4.1027037614227888
10
-174.40249746101017
20
4.1027037614227897
10
-174.40249746101017
20
9.9027037614227886
10
-173.60149746101018
20
9.9027037614227886
10
-173.60149746101018
20
13.00190376142279
10
-174.40249746101017
20
13.00190376142279
0
LWPOLYLINE
5
136
100
AcDbEntity
8
0
100
AcDbPolyline
90
20
70
1
43
0.0
10
-178.87649746101019
20
32.051903761422786
10
-179.6774974610102
20
32.051903761422786
10
-179.6774974610102
20
28.952703761422786
10
-178.87649746101019
20
28.952703761422786
10
-178.87649746101019
20
23.152703761422785
10
-179.6774974610102
20
23.152703761422785
10
-179.6774974610102
20
20.052103761422785
10
-178.87649746101019
20
20.052103761422792
10
-178.87649746101019
20
19.05300376142279
10
-164.87749746101017
20
19.05300376142279
10
-164.87749746101017
20
20.052103761422785
10
-164.07649746101018
20
20.052103761422785
10
-164.07649746101018
20
23.152703761422785
10
-164.87749746101017
20
23.152703761422785
10
-164.87749746101017
20
28.952703761422786
10
-164.07649746101018
20
28.952703761422786
10
-164.07649746101018
20
32.051903761422786
10
-164.87749746101017
20
32.051903761422786
10
-164.87749746101017
20
33.052303761422785
10
-178.87649746101019
20
33.052303761422785
0
LWPOLYLINE
5
137
100
AcDbEntity
8
0
100
AcDbPolyline
90
20
70
1
43
0.0
10
-87.876497461010558
20
28.952703761422786
10
-87.876497461010558
20
32.051903761422786
10
-88.67749746101056
20
32.051903761422786
10
-88.67749746101056
20
33.052303761422785
10
-102.67649746101016
20
33.052303761422785
10
-102.67649746101016
20
32.051903761422786
10
-103.47749746101017
20
32.051903761422786
10
-103.47749746101017
20
28.952703761422786
10
-102.67649746101016
20
28.952703761422786
10
-102.67649746101016
20
23.152703761422785
10
-103.47749746101017
20
23.152703761422785
10
-103.47749746101017
20
20.052103761422785
10
-102.67649746101016
20
20.052103761422792
10
-102.67649746101016
20
19.05300376142279
10
-88.67749746101056
20
19.05300376142279
10
-88.67749746101056
20
20.052103761422785
10
-87.876497461010558
20
20.052103761422785
10
-87.876497461010558
20
23.152703761422785
10
-88.67749746101056
20
23.152703761422785
10
-88.67749746101056
20
28.952703761422786
0
LWPOLYLINE
5
138
100
AcDbEntity
8
0
100
AcDbPolyline
90
20
70
1
43
0.0
10
-89.18849746101057
20
39.102103761422796
10
-88.389497461010563
20
39.102103761422796
10
-88.389497461010563
20
38.103003761422784
10
-74.389497461010563
20
38.103003761422784
10
-74.389497461010563
20
39.102103761422796
10
-73.588497461010562
20
39.102103761422796
10
-73.588497461010562
20
42.202703761422796
10
-74.389497461010563
20
42.202703761422796
10
-74.389497461010563
20
48.002703761422794
10
-73.588497461010562
20
48.002703761422794
10
-73.588497461010562
20
51.10190376142279
10
-74.389497461010563
20
51.10190376142279
10
-74.389497461010563
20
52.102303761422803
10
-88.389497461010563
20
52.102303761422803
10
-88.389497461010563
20
51.10190376142279
10
-89.18849746101057
20
51.10190376142279
10
-89.18849746101057
20
48.002703761422794
10
-88.389497461010563
20
48.002703761422794
10
-88.389497461010563
20
42.202703761422796
10
-89.18849746101057
20
42.202703761422796
0
LWPOLYLINE
5
139
100
AcDbEntity
8
0
100
AcDbPolyline
90
20
70
1
43
0.0
10
-111.68849746101017
20
42.202703761422796
10
-112.48949746101017
20
42.202703761422796
10
-112.48949746101017
20
48.002703761422794
10
-111.68849746101017
20
48.002703761422794
10
-111.68849746101017
20
51.10190376142279
10
-112.48949746101017
20
51.10190376142279
10
-112.48949746101017
20
52.102303761422803
10
-126.48949746101017
20
52.102303761422803
10
-126.48949746101017
20
51.10190376142279
10
-127.28849746101017
20
51.10190376142279
10
-127.28849746101017
20
48.002703761422794
10
-126.48949746101017
20
48.002703761422794
10
-126.48949746101017
20
42.202703761422796
10
-127.28849746101017
20
42.202703761422796
10
-127.28849746101017
20
39.102103761422796
10
-126.48949746101017
20
39.102103761422796
10
-126.48949746101017
20
38.103003761422784
10
-112.48949746101017
20
38.103003761422784
10
-112.48949746101017
20
39.102103761422796
10
-111.68849746101017
20
39.102103761422796
0
LWPOLYLINE
5
140
100
AcDbEntity
8
0
100
AcDbPolyline
90
20
70
1
43
0.0
10
-149.78849746101017
20
48.002703761422794
10
-149.78849746101017
20
51.10190376142279
10
-150.58949746101018
20
51.10190376142279
10
-150.58949746101018
20
52.102303761422803
10
-164.58949746101018
20
52.102303761422803
10
-164.58949746101018
20
51.10190376142279
10
-165.38849746101019
20
51.10190376142279
10
-165.38849746101019
20
48.002703761422794
10
-164.58949746101018
20
48.002703761422794
10
-164.58949746101018
20
42.202703761422796
10
-165.38849746101019
20
42.202703761422796
10
-165.38849746101019
20
39.102103761422796
10
-164.58949746101018
20
39.102103761422796
10
-164.58949746101018
20
38.103003761422784
10
-150.58949746101018
20
38.103003761422784
10
-150.58949746101018
20
39.102103761422796
10
-149.78849746101017
20
39.102103761422796
10
-149.78849746101017
20
42.202703761422796
10
-150.58949746101018
20
42.202703761422796
10
-150.58949746101018
20
48.002703761422794
0
LWPOLYLINE
5
141
100
AcDbEntity
8
0
100
AcDbPolyline
90
20
70
1
43
0.0
10
-169.35149746101018
20
86.102803761422791
10
-169.35149746101018
20
80.302603761422787
10
-170.1524974610102
20
80.302603761422802
10
-170.1524974610102
20
77.202003761422787
10
-169.35149746101018
20
77.202003761422787
10
-169.35149746101018
20
76.203003761422806
10
-155.35249746101016
20
76.203003761422806
10
-155.35249746101016
20
77.202003761422787
10
-154.55149746101017
20
77.202003761422787
10
-154.55149746101017
20
80.302603761422787
10
-155.35249746101016
20
80.302603761422787
10
-155.35249746101016
20
86.102803761422791
10
-154.55149746101017
20
86.102803761422791
10
-154.55149746101017
20
89.201993761422784
10
-155.35249746101016
20
89.201993761422784
10
-155.35249746101019
20
90.20247376142278
10
-169.35149746101018
20
90.20247376142278
10
-169.35149746101018
20
89.201993761422784
10
-170.1524974610102
20
89.201993761422784
10
-170.1524974610102
20
86.102803761422791
0
LWPOLYLINE
5
142
100
AcDbEntity
8
0
100
AcDbPolyline
90
20
70
1
43
0.0
10
-200.3074974610102
20
70.152003761422804
10
-201.10849746101019
20
70.152003761422804
10
-201.10849746101019
20
67.052803761422794
10
-200.3074974610102
20
67.052803761422794
10
-200.3074974610102
20
61.252703761422794
10
-201.10849746101019
20
61.252703761422794
10
-201.10849746101019
20
58.152103761422794
10
-200.3074974610102
20
58.152103761422794
10
-200.3074974610102
20
57.153103761422798
10
-186.30849746101021
20
57.153103761422798
10
-186.30849746101021
20
58.152103761422794
10
-185.50749746101019
20
58.152103761422794
10
-185.50749746101019
20
61.252703761422794
10
-186.30849746101021
20
61.252703761422794
10
-186.30849746101021
20
67.052803761422794
10
-185.50749746101019
20
67.052803761422794
10
-185.50749746101019
20
70.152003761422804
10
-186.30849746101021
20
70.152003761422804
10
-186.30849746101021
20
71.152503761422807
10
-200.3074974610102
20
71.152503761422807
0
LWPOLYLINE
5
143
100
AcDbEntity
8
0
100
AcDbPolyline
90
20
70
1
43
0.0
10
-145.53949746101017
20
42.202703761422796
10
-146.33849746101018
20
42.202703761422796
10
-146.33849746101018
20
39.102103761422796
10
-145.53949746101017
20
39.102103761422796
10
-145.53949746101017
20
38.103003761422784
10
-131.53949746101017
20
38.103003761422784
10
-131.53949746101017
20
39.102103761422796
10
-130.73849746101018
20
39.102103761422796
10
-130.73849746101018
20
42.202703761422796
10
-131.53949746101017
20
42.202703761422796
10
-131.53949746101017
20
48.002703761422794
10
-130.73849746101018
20
48.002703761422794
10
-130.73849746101018
20
51.10190376142279
10
-131.53949746101017
20
51.10190376142279
10
-131.53949746101017
20
52.102303761422803
10
-145.53949746101017
20
52.102303761422803
10
-145.53949746101017
20
51.10190376142279
10
-146.33849746101018
20
51.10190376142279
10
-146.33849746101018
20
48.002703761422794
10
-145.53949746101017
20
48.002703761422794
0
LWPOLYLINE
5
144
100
AcDbEntity
8
0
100
AcDbPolyline
90
20
70
1
43
0.0
10
-102.96449746101017
20
57.153103761422798
10
-102.96449746101017
20
58.152103761422794
10
-102.16349746101017
20
58.152103761422794
10
-102.16349746101017
20
61.252703761422794
10
-102.96449746101017
20
61.252703761422794
10
-102.96449746101017
20
67.052803761422794
10
-102.16349746101017
20
67.052803761422794
10
-102.16349746101017
20
70.152003761422804
10
-102.96449746101017
20
70.152003761422804
10
-102.96449746101017
20
71.152503761422807
10
-116.96449746101017
20
71.152503761422807
10
-116.96449746101017
20
70.152003761422804
10
-117.76349746101018
20
70.152003761422804
10
-117.76349746101018
20
67.052803761422794
10
-116.96449746101017
20
67.052803761422794
10
-116.96449746101017
20
61.252703761422794
10
-117.76349746101018
20
61.252703761422794
10
-117.76349746101018
20
58.152103761422794
10
-116.96449746101017
20
58.152103761422794
10
-116.96449746101017
20
57.153103761422798
0
LWPOLYLINE
5
145
100
AcDbEntity
8
0
100
AcDbPolyline
90
20
70
1
43
0.0
10
-50.577497461010566
20
28.952703761422786
10
-49.776497461010564
20
28.952703761422786
10
-49.776497461010564
20
32.051903761422786
10
-50.577497461010566
20
32.051903761422786
10
-50.577497461010566
20
33.052303761422785
10
-64.576497461010561
20
33.052303761422785
10
-64.576497461010561
20
32.051903761422786
10
-65.377497461010577
20
32.051903761422786
10
-65.377497461010577
20
28.952703761422786
10
-64.576497461010561
20
28.952703761422786
10
-64.576497461010561
20
23.152703761422785
10
-65.377497461010577
20
23.152703761422785
10
-65.377497461010577
20
20.052103761422785
10
-64.576497461010561
20
20.052103761422792
10
-64.576497461010561
20
19.05300376142279
10
-50.577497461010566
20
19.05300376142279
10
-50.577497461010566
20
20.052103761422785
10
-49.776497461010564
20
20.052103761422785
10
-49.776497461010564
20
23.152703761422785
10
-50.577497461010566
20
23.152703761422785
0
LWPOLYLINE
5
146
100
AcDbEntity
8
0
100
AcDbPolyline
90
20
70
1
43
0.0
10
-125.97649746101015
20
23.152703761422785
10
-126.77749746101016
20
23.152703761422785
10
-126.77749746101016
20
28.952703761422786
10
-125.97649746101015
20
28.952703761422786
10
-125.97649746101015
20
32.051903761422786
10
-126.77749746101016
20
32.051903761422786
10
-126.77749746101016
20
33.052303761422785
10
-140.77649746101017
20
33.052303761422785
10
-140.77649746101017
20
32.051903761422786
10
-141.57749746101018
20
32.051903761422786
10
-141.57749746101018
20
28.952703761422786
10
-140.77649746101017
20
28.952703761422786
10
-140.77649746101017
20
23.152703761422785
10
-141.57749746101018
20
23.152703761422785
10
-141.57749746101018
20
20.052103761422785
10
-140.77649746101017
20
20.052103761422792
10
-140.77649746101017
20
19.05300376142279
10
-126.77749746101016
20
19.05300376142279
10
-126.77749746101016
20
20.052103761422785
10
-125.97649746101015
20
20.052103761422785
0
LWPOLYLINE
5
147
100
AcDbEntity
8
0
100
AcDbPolyline
90
20
70
1
43
0.0
10
-222.53849746101019
20
32.051903761422786
10
-222.53849746101019
20
28.952703761422786
10
-221.73949746101019
20
28.952703761422786
10
-221.73949746101019
20
23.152703761422785
10
-222.53849746101019
20
23.152703761422785
10
-222.53849746101019
20
20.052103761422785
10
-221.73949746101019
20
20.052103761422792
10
-221.73949746101019
20
19.05300376142279
10
-207.73949746101016
20
19.05300376142279
10
-207.73949746101016
20
20.052103761422785
10
-206.9384974610102
20
20.052103761422785
10
-206.9384974610102
20
23.152703761422785
10
-207.73949746101016
20
23.152703761422785
10
-207.73949746101016
20
28.952703761422786
10
-206.9384974610102
20
28.952703761422786
10
-206.9384974610102
20
32.051903761422786
10
-207.73949746101016
20
32.051903761422786
10
-207.73949746101016
20
33.052303761422785
10
-221.73949746101019
20
33.052303761422785
10
-221.73949746101019
20
32.051903761422786
0
LWPOLYLINE
5
148
100
AcDbEntity
8
0
100
AcDbPolyline
90
20
70
1
43
0.0
10
-150.30149746101017
20
4.1027037614227888
10
-151.10249746101016
20
4.1027037614227888
10
-151.10249746101016
20
1.0021037614227888
10
-150.30149746101017
20
1.0021037614227888
10
-150.30149746101017
20
0.0030037614227713368
10
-136.30249746101018
20
0.0030037614227713949
10
-136.30249746101018
20
1.0021037614227888
10
-135.50149746101016
20
1.0021037614227883
10
-135.50149746101016
20
4.1027037614227888
10
-136.30249746101018
20
4.1027037614227897
10
-136.30249746101018
20
9.9027037614227886
10
-135.50149746101016
20
9.9027037614227886
10
-135.50149746101016
20
13.00190376142279
10
-136.30249746101018
20
13.00190376142279
10
-136.30249746101018
20
14.002303761422789
10
-150.30149746101017
20
14.002303761422789
10
-150.30149746101017
20
13.00190376142279
10
-151.10249746101016
20
13.00190376142279
10
-151.10249746101016
20
9.9027037614227886
10
-150.30149746101017
20
9.9027037614227869
0
LWPOLYLINE
5
149
100
AcDbEntity
8
0
100
AcDbPolyline
90
20
70
1
43
0.0
10
-74.101497461010567
20
14.002303761422789
10
-74.101497461010567
20
13.00190376142279
10
-74.902497461010555
20
13.00190376142279
10
-74.902497461010555
20
9.9027037614227886
10
-74.101497461010567
20
9.9027037614227869
10
-74.101497461010567
20
4.1027037614227888
10
-74.902497461010555
20
4.1027037614227888
10
-74.902497461010555
20
1.0021037614227888
10
-74.101497461010567
20
1.0021037614227888
10
-74.101497461010567
20
0.0030037614227713368
10
-60.100497461010562
20
0.0030037614227713949
10
-60.100497461010562
20
1.0021037614227888
10
-59.30149746101057
20
1.0021037614227883
10
-59.30149746101057
20
4.1027037614227888
10
-60.100497461010562
20
4.1027037614227897
10
-60.100497461010562
20
9.9027037614227886
10
-59.30149746101057
20
9.9027037614227886
10
-59.30149746101057
20
13.00190376142279
10
-60.100497461010562
20
13.00190376142279
10
-60.100497461010562
20
14.002303761422789
0
LWPOLYLINE
5
150
100
AcDbEntity
8
0
100
AcDbPolyline
90
20
70
1
43
0.0
10
-17.752297461010563
20
4.1027037614227888
10
-17.752297461010563
20
1.0021037614227888
10
-16.951497461010565
20
1.0021037614227888
10
-16.951497461010568
20
0.0030037614227713368
10
-2.9521974610105826
20
0.0030037614227713949
10
-2.9521974610105826
20
1.0021037614227888
10
-2.1513974610105624
20
1.0021037614227883
10
-2.1513974610105628
20
4.1027037614227888
10
-2.9521974610105826
20
4.1027037614227897
10
-2.9521974610105826
20
9.9027037614227886
10
-2.1513974610105624
20
9.9027037614227886
10
-2.1513974610105628
20
13.00190376142279
10
-2.9521974610105826
20
13.00190376142279
10
-2.9521974610105817
20
14.002303761422789
10
-16.951497461010565
20
14.002303761422789
10
-16.951497461010565
20
13.00190376142279
10
-17.752297461010563
20
13.00190376142279
10
-17.752297461010563
20
9.9027037614227886
10
-16.951497461010565
20
9.9027037614227869
10
-16.951497461010565
20
4.1027037614227888
0
LWPOLYLINE
5
151
100
AcDbEntity
8
0
100
AcDbPolyline
90
20
70
1
43
0.0
10
-7.4264974610105927
20
28.952703761422786
10
-7.4264974610105927
20
23.152703761422785
10
-8.2272974610105738
20
23.152703761422785
10
-8.2272974610105738
20
20.052103761422785
10
-7.4264974610105927
20
20.052103761422792
10
-7.4264974610105927
20
19.05300376142279
10
6.5728025389894285
20
19.05300376142279
10
6.5728025389894285
20
20.052103761422785
10
7.3736025389894087
20
20.052103761422785
10
7.3736025389894087
20
23.152703761422785
10
6.5728025389894285
20
23.152703761422785
10
6.5728025389894285
20
28.952703761422786
10
7.3736025389894087
20
28.952703761422786
10
7.3736025389894087
20
32.051903761422786
10
6.5728025389894285
20
32.051903761422786
10
6.5728025389894285
20
33.052303761422785
10
-7.4264974610105927
20
33.052303761422785
10
-7.4264974610105927
20
32.051903761422786
10
-8.2272974610105738
20
32.051903761422786
10
-8.2272974610105738
20
28.952703761422786
0
LWPOLYLINE
5
152
100
AcDbEntity
8
0
100
AcDbPolyline
90
20
70
1
43
0.0
10
1.8103025389894176
20
38.103003761422784
10
1.8103025389894176
20
39.102103761422796
10
2.6111025389894076
20
39.102103761422796
10
2.6111025389894085
20
42.202703761422796
10
1.8103025389894176
20
42.202703761422796
10
1.8103025389894172
20
48.002703761422794
10
2.6111025389894076
20
48.002703761422794
10
2.6111025389894085
20
51.10190376142279
10
1.8103025389894176
20
51.10190376142279
10
1.810302538989419
20
52.102303761422803
10
-12.188997461010562
20
52.102303761422803
10
-12.188997461010562
20
51.10190376142279
10
-12.988397461010564
20
51.10190376142279
10
-12.988397461010564
20
48.002703761422794
10
-12.188997461010562
20
48.002703761422794
10
-12.188997461010562
20
42.202703761422796
10
-12.988397461010564
20
42.202703761422796
10
-12.988397461010564
20
39.102103761422796
10
-12.188997461010562
20
39.102103761422796
10
-12.188997461010565
20
38.103003761422784
0
LWPOLYLINE
5
153
100
AcDbEntity
8
0
100
AcDbPolyline
90
20
70
1
43
0.0
10
-35.488897461010566
20
48.002703761422794
10
-35.488897461010566
20
51.10190376142279
10
-36.289697461010569
20
51.10190376142279
10
-36.289697461010562
20
52.102303761422803
10
-50.289497461010562
20
52.102303761422803
10
-50.289497461010562
20
51.10190376142279
10
-51.088497461010562
20
51.10190376142279
10
-51.088497461010562
20
48.002703761422794
10
-50.289497461010562
20
48.002703761422794
10
-50.289497461010562
20
42.202703761422796
10
-51.088497461010562
20
42.202703761422796
10
-51.088497461010562
20
39.102103761422796
10
-50.289497461010562
20
39.102103761422796
10
-50.289497461010569
20
38.103003761422784
10
-36.289697461010569
20
38.103003761422784
10
-36.289697461010569
20
39.102103761422796
10
-35.488897461010566
20
39.102103761422796
10
-35.488897461010566
20
42.202703761422796
10
-36.289697461010569
20
42.202703761422796
10
-36.289697461010569
20
48.002703761422794
0
LWPOLYLINE
5
154
100
AcDbEntity
8
0
100
AcDbPolyline
90
20
70
1
43
0.0
10
-9.8077974610105727
20
77.202003761422787
10
-9.8077974610105727
20
76.203003761422806
10
4.1915025389894076
20
76.203003761422806
10
4.1915025389894076
20
77.202003761422787
10
4.9923025389894278
20
77.202003761422787
10
4.9923025389894278
20
80.302603761422787
10
4.1915025389894076
20
80.302603761422787
10
4.1915025389894076
20
86.102803761422791
10
4.9923025389894278
20
86.102803761422791
10
4.9923025389894278
20
89.201993761422784
10
4.1915025389894076
20
89.201993761422784
10
4.1915025389894094
20
90.20247376142278
10
-9.8077974610105727
20
90.20247376142278
10
-9.8077974610105727
20
89.201993761422784
10
-10.608597461010563
20
89.201993761422784
10
-10.608597461010563
20
86.102803761422791
10
-9.8077974610105727
20
86.102803761422791
10
-9.8077974610105727
20
80.302603761422787
10
-10.608597461010563
20
80.302603761422802
10
-10.608597461010563
20
77.202003761422787
0
LWPOLYLINE
5
155
100
AcDbEntity
8
0
100
AcDbPolyline
90
20
70
1
43
0.0
10
33.054602538989435
20
52.102303761422803
10
33.054602538989435
20
51.10190376142279
10
32.25530253898944
20
51.10190376142279
10
32.25530253898944
20
48.002703761422794
10
33.054602538989435
20
48.002703761422794
10
33.054602538989435
20
42.202703761422796
10
32.25530253898944
20
42.202703761422796
10
32.25530253898944
20
39.102103761422796
10
33.054602538989435
20
39.102103761422796
10
33.054602538989442
20
38.103003761422784
10
51.817972538989437
20
38.103003761422784
10
51.817972538989437
20
39.102103761422796
10
52.617222538989445
20
39.102103761422896
10
52.617222538989445
20
42.202703761422896
10
51.817972538989437
20
42.202703761423194
10
51.817972538989437
20
48.002703761422794
10
52.617222538989445
20
48.002703761422794
10
52.617222538989445
20
51.103303761422794
10
51.817972538989437
20
51.103303761423
10
51.817972538989437
20
52.102303761422803
0
LWPOLYLINE
5
156
100
AcDbEntity
8
0
100
AcDbPolyline
90
20
70
1
43
0.0
10
34.636602538989436
20
32.051903761422786
10
34.636602538989436
20
28.952703761422786
10
35.435802538989435
20
28.952703761422786
10
35.435802538989435
20
23.152703761422785
10
34.636602538989436
20
23.152703761422785
10
34.636602538989436
20
20.052103761422785
10
35.435802538989435
20
20.052103761422792
10
35.435802538989442
20
19.05300376142279
10
49.435342538989445
20
19.05300376142279
10
49.435342538989445
20
20.052103761422785
10
50.235972538989444
20
20.052103761422785
10
50.235972538989444
20
23.152703761422785
10
49.435342538989445
20
23.152703761422785
10
49.435342538989445
20
28.952703761422786
10
50.235972538989444
20
28.952703761422786
10
50.235972538989444
20
32.051903761422786
10
49.435342538989445
20
32.051903761422786
10
49.435342538989445
20
33.052303761422785
10
35.435802538989435
20
33.052303761422785
10
35.435802538989435
20
32.051903761422786
0
LWPOLYLINE
5
157
100
AcDbEntity
8
0
100
AcDbPolyline
90
20
70
1
43
0.0
10
13.205302538989439
20
86.102803761422791
10
14.004702538989438
20
86.102803761422791
10
14.004702538989438
20
80.302603761422787
10
13.205302538989439
20
80.302603761422802
10
13.205302538989439
20
77.202003761422787
10
14.004702538989438
20
77.202003761422787
10
14.004702538989434
20
76.203003761422806
10
28.005502538989436
20
76.203003761422806
10
28.005502538989436
20
77.202003761422787
10
28.804702538989435
20
77.202003761422787
10
28.804702538989435
20
80.302603761422787
10
28.005502538989436
20
80.302603761422787
10
28.005502538989436
20
86.102803761422791
10
28.804702538989435
20
86.102803761422791
10
28.804702538989435
20
89.201993761422784
10
28.005502538989436
20
89.201993761422784
10
28.00550253898944
20
90.20247376142278
10
14.004702538989438
20
90.20247376142278
10
14.004702538989438
20
89.201993761422784
10
13.205302538989439
20
89.201993761422784
0
LWPOLYLINE
5
158
100
AcDbEntity
8
0
100
AcDbPolyline
90
20
70
1
43
0.0
10
-59.814497461010561
20
71.152503761422807
10
-59.814497461010561
20
70.152003761422804
10
-60.613497461010567
20
70.152003761422804
10
-60.613497461010567
20
67.052803761422794
10
-59.814497461010561
20
67.052803761422794
10
-59.814497461010561
20
61.252703761422794
10
-60.613497461010567
20
61.252703761422794
10
-60.613497461010567
20
58.152103761422794
10
-59.814497461010561
20
58.152103761422794
10
-59.814497461010561
20
57.153103761422798
10
-45.814497461010561
20
57.153103761422798
10
-45.814497461010561
20
58.152103761422794
10
-45.013497461010566
20
58.152103761422794
10
-45.013497461010566
20
61.252703761422794
10
-45.814497461010561
20
61.252703761422794
10
-45.814497461010561
20
67.052803761422794
10
-45.013497461010566
20
67.052803761422794
10
-45.013497461010566
20
70.152003761422804
10
-45.814497461010561
20
70.152003761422804
10
-45.814497461010561
20
71.152503761422807
0
LWPOLYLINE
5
159
100
AcDbEntity
8
0
100
AcDbPolyline
90
20
70
1
43
0.0
10
-7.7146974610105818
20
67.052803761422794
10
-6.9138974610105635
20
67.052803761422794
10
-6.9138974610105635
20
70.152003761422804
10
-7.7146974610105818
20
70.152003761422804
10
-7.7146974610105845
20
71.152503761422807
10
-21.713997461010564
20
71.152503761422807
10
-21.713997461010564
20
70.152003761422804
10
-22.513397461010562
20
70.152003761422804
10
-22.513397461010562
20
67.052803761422794
10
-21.713997461010564
20
67.052803761422794
10
-21.713997461010564
20
61.252703761422794
10
-22.513397461010562
20
61.252703761422794
10
-22.513397461010562
20
58.152103761422794
10
-21.713997461010564
20
58.152103761422794
10
-21.713997461010564
20
57.153103761422798
10
-7.7146974610105818
20
57.153103761422798
10
-7.7146974610105818
20
58.152103761422794
10
-6.9138974610105635
20
58.152103761422794
10
-6.9138974610105635
20
61.252703761422794
10
-7.7146974610105818
20
61.252703761422794
0
LWPOLYLINE
5
160
100
AcDbEntity
8
0
100
AcDbPolyline
90
20
70
1
43
0.0
10
26.423502538989435
20
20.052103761422785
10
26.423502538989435
20
23.152703761422785
10
25.622802538989436
20
23.152703761422785
10
25.622802538989436
20
28.952703761422786
10
26.423502538989435
20
28.952703761422786
10
26.423502538989435
20
32.051903761422786
10
25.622802538989436
20
32.051903761422786
10
25.62280253898944
20
33.052303761422785
10
11.623502538989438
20
33.052303761422785
10
11.623502538989438
20
32.051903761422786
10
10.822702538989438
20
32.051903761422786
10
10.822702538989438
20
28.952703761422786
10
11.623502538989438
20
28.952703761422786
10
11.623502538989438
20
23.152703761422785
10
10.822702538989438
20
23.152703761422785
10
10.822702538989438
20
20.052103761422785
10
11.623502538989438
20
20.052103761422792
10
11.623502538989436
20
19.05300376142279
10
25.622802538989436
20
19.05300376142279
10
25.622802538989436
20
20.052103761422785
0
LWPOLYLINE
5
161
100
AcDbEntity
8
0
100
AcDbPolyline
90
20
70
1
43
0.0
10
-22.002197461010567
20
9.9027037614227886
10
-21.201397461010565
20
9.9027037614227886
10
-21.201397461010565
20
13.00190376142279
10
-22.002197461010567
20
13.00190376142279
10
-22.002197461010567
20
14.002303761422789
10
-36.001497461010572
20
14.002303761422789
10
-36.001497461010572
20
13.00190376142279
10
-36.800897461010564
20
13.00190376142279
10
-36.800897461010564
20
9.9027037614227886
10
-36.001497461010572
20
9.9027037614227869
10
-36.001497461010572
20
4.1027037614227888
10
-36.800897461010564
20
4.1027037614227888
10
-36.800897461010564
20
1.0021037614227888
10
-36.001497461010572
20
1.0021037614227888
10
-36.001497461010572
20
0.0030037614227713368
10
-22.002197461010567
20
0.0030037614227713949
10
-22.002197461010567
20
1.0021037614227888
10
-21.201397461010565
20
1.0021037614227883
10
-21.201397461010565
20
4.1027037614227888
10
-22.002197461010567
20
4.1027037614227897
0
LWPOLYLINE
5
162
100
AcDbEntity
8
0
100
AcDbPolyline
90
20
70
1
43
0.0
10
-55.051497461010555
20
14.002303761422789
10
-55.051497461010555
20
13.00190376142279
10
-55.850497461010562
20
13.00190376142279
10
-55.850497461010562
20
9.9027037614227886
10
-55.051497461010555
20
9.9027037614227869
10
-55.051497461010555
20
4.1027037614227888
10
-55.850497461010562
20
4.1027037614227888
10
-55.850497461010562
20
1.0021037614227888
10
-55.051497461010555
20
1.0021037614227888
10
-55.051497461010555
20
0.0030037614227713368
10
-41.050797461010553
20
0.0030037614227713949
10
-41.050797461010553
20
1.0021037614227888
10
-40.251397461010555
20
1.0021037614227883
10
-40.251397461010555
20
4.1027037614227888
10
-41.050797461010553
20
4.1027037614227897
10
-41.050797461010553
20
9.9027037614227886
10
-40.251397461010555
20
9.9027037614227886
10
-40.251397461010555
20
13.00190376142279
10
-41.050797461010553
20
13.00190376142279
10
-41.050797461010553
20
14.002303761422789
0
LWPOLYLINE
5
163
100
AcDbEntity
8
0
100
AcDbPolyline
90
20
70
1
43
0.0
10
-117.25249746101015
20
4.1027037614227897
10
-117.25249746101015
20
9.9027037614227886
10
-116.45149746101018
20
9.9027037614227886
10
-116.45149746101018
20
13.00190376142279
10
-117.25249746101015
20
13.00190376142279
10
-117.25249746101015
20
14.002303761422789
10
-131.25149746101016
20
14.002303761422789
10
-131.25149746101016
20
13.00190376142279
10
-132.05249746101018
20
13.00190376142279
10
-132.05249746101018
20
9.9027037614227886
10
-131.25149746101016
20
9.9027037614227869
10
-131.25149746101016
20
4.1027037614227888
10
-132.05249746101018
20
4.1027037614227888
10
-132.05249746101018
20
1.0021037614227888
10
-131.25149746101016
20
1.0021037614227888
10
-131.25149746101016
20
0.0030037614227713368
10
-117.25249746101015
20
0.0030037614227713949
10
-117.25249746101015
20
1.0021037614227888
10
-116.45149746101018
20
1.0021037614227883
10
-116.45149746101018
20
4.1027037614227888
0
LWPOLYLINE
5
164
100
AcDbEntity
8
0
100
AcDbPolyline
90
20
70
1
43
0.0
10
-145.82749746101018
20
19.05300376142279
10
-145.82749746101018
20
20.052103761422785
10
-145.02649746101017
20
20.052103761422785
10
-145.02649746101017
20
23.152703761422785
10
-145.82749746101018
20
23.152703761422785
10
-145.82749746101018
20
28.952703761422786
10
-145.02649746101017
20
28.952703761422786
10
-145.02649746101017
20
32.051903761422786
10
-145.82749746101018
20
32.051903761422786
10
-145.82749746101018
20
33.052303761422785
10
-159.82649746101018
20
33.052303761422785
10
-159.82649746101021
20
32.051903761422786
10
-160.62749746101019
20
32.051903761422786
10
-160.62749746101019
20
28.952703761422786
10
-159.82649746101018
20
28.952703761422786
10
-159.82649746101021
20
23.152703761422785
10
-160.62749746101019
20
23.152703761422785
10
-160.62749746101019
20
20.052103761422785
10
-159.82649746101018
20
20.052103761422792
10
-159.82649746101018
20
19.05300376142279
0
LWPOLYLINE
5
165
100
AcDbEntity
8
0
100
AcDbPolyline
90
20
70
1
43
0.0
10
-68.826497461010575
20
32.051903761422786
10
-69.627497461010563
20
32.051903761422786
10
-69.627497461010563
20
33.052303761422785
10
-83.626497461010558
20
33.052303761422785
10
-83.626497461010558
20
32.051903761422786
10
-84.427497461010574
20
32.051903761422786
10
-84.427497461010574
20
28.952703761422786
10
-83.626497461010558
20
28.952703761422786
10
-83.626497461010558
20
23.152703761422785
10
-84.427497461010574
20
23.152703761422785
10
-84.427497461010574
20
20.052103761422785
10
-83.626497461010558
20
20.052103761422792
10
-83.626497461010558
20
19.05300376142279
10
-69.627497461010563
20
19.05300376142279
10
-69.627497461010563
20
20.052103761422785
10
-68.826497461010575
20
20.052103761422785
10
-68.826497461010575
20
23.152703761422785
10
-69.627497461010563
20
23.152703761422785
10
-69.627497461010563
20
28.952703761422786
10
-68.826497461010575
20
28.952703761422786
0
LWPOLYLINE
5
166
100
AcDbEntity
8
0
100
AcDbPolyline
90
20
70
1
43
0.0
10
-98.713497461010576
20
58.152103761422794
10
-97.914497461010569
20
58.152103761422794
10
-97.914497461010569
20
57.153103761422798
10
-83.914497461010569
20
57.153103761422798
10
-83.914497461010569
20
58.152103761422794
10
-83.113497461010567
20
58.152103761422794
10
-83.113497461010567
20
61.252703761422794
10
-83.914497461010569
20
61.252703761422794
10
-83.914497461010569
20
67.052803761422794
10
-83.113497461010567
20
67.052803761422794
10
-83.113497461010567
20
70.152003761422804
10
-83.914497461010569
20
70.152003761422804
10
-83.914497461010569
20
71.152503761422807
10
-97.914497461010569
20
71.152503761422807
10
-97.914497461010569
20
70.152003761422804
10
-98.713497461010576
20
70.152003761422804
10
-98.713497461010576
20
67.052803761422794
10
-97.914497461010569
20
67.052803761422794
10
-97.914497461010569
20
61.252703761422794
10
-98.713497461010576
20
61.252703761422794
0
LWPOLYLINE
5
167
100
AcDbEntity
8
0
100
AcDbPolyline
90
20
70
1
43
0.0
10
-136.01449746101017
20
70.152003761422804
10
-136.81349746101017
20
70.152003761422804
10
-136.81349746101017
20
67.052803761422794
10
-136.01449746101017
20
67.052803761422794
10
-136.01449746101017
20
61.252703761422794
10
-136.81349746101017
20
61.252703761422794
10
-136.81349746101017
20
58.152103761422794
10
-136.01449746101017
20
58.152103761422794
10
-136.01449746101017
20
57.153103761422798
10
-122.01449746101017
20
57.153103761422798
10
-122.01449746101017
20
58.152103761422794
10
-121.21349746101016
20
58.152103761422794
10
-121.21349746101016
20
61.252703761422794
10
-122.01449746101017
20
61.252703761422794
10
-122.01449746101017
20
67.052803761422794
10
-121.21349746101016
20
67.052803761422794
10
-121.21349746101016
20
70.152003761422804
10
-122.01449746101017
20
70.152003761422804
10
-122.01449746101017
20
71.152503761422807
10
-136.01449746101017
20
71.152503761422807
0
LWPOLYLINE
5
168
100
AcDbEntity
8
0
100
AcDbPolyline
90
20
70
1
43
0.0
10
-160.11449746101019
20
57.153103761422798
10
-160.11449746101019
20
58.152103761422794
10
-159.31349746101017
20
58.152103761422794
10
-159.31349746101017
20
61.252703761422794
10
-160.11449746101019
20
61.252703761422794
10
-160.11449746101016
20
67.052803761422794
10
-159.31349746101017
20
67.052803761422794
10
-159.31349746101017
20
70.152003761422804
10
-160.11449746101019
20
70.152003761422804
10
-160.11449746101019
20
71.152503761422807
10
-174.11449746101016
20
71.152503761422807
10
-174.11449746101016
20
70.152003761422804
10
-174.91349746101019
20
70.152003761422804
10
-174.91349746101019
20
67.052803761422794
10
-174.11449746101016
20
67.052803761422794
10
-174.11449746101016
20
61.252703761422794
10
-174.91349746101019
20
61.252703761422794
10
-174.91349746101019
20
58.152103761422794
10
-174.11449746101016
20
58.152103761422794
10
-174.11449746101016
20
57.153103761422798
0
LWPOLYLINE
5
169
100
AcDbEntity
8
0
100
AcDbPolyline
90
20
70
1
43
0.0
10
-188.40149746101019
20
86.102803761422791
10
-188.40149746101019
20
80.302603761422787
10
-189.20249746101021
20
80.302603761422802
10
-189.20249746101021
20
77.202003761422787
10
-188.40149746101019
20
77.202003761422787
10
-188.40149746101019
20
76.203003761422806
10
-174.40249746101017
20
76.203003761422806
10
-174.40249746101017
20
77.202003761422787
10
-173.60149746101018
20
77.202003761422787
10
-173.60149746101018
20
80.302603761422787
10
-174.40249746101017
20
80.302603761422787
10
-174.40249746101017
20
86.102803761422791
10
-173.60149746101018
20
86.102803761422791
10
-173.60149746101018
20
89.201993761422784
10
-174.40249746101017
20
89.201993761422784
10
-174.40249746101017
20
90.20247376142278
10
-188.40149746101019
20
90.20247376142278
10
-188.40149746101019
20
89.201993761422784
10
-189.20249746101021
20
89.201993761422784
10
-189.20249746101021
20
86.102803761422791
0
LWPOLYLINE
5
170
100
AcDbEntity
8
0
100
AcDbPolyline
90
20
70
1
43
0.0
10
-331.27657246101023
20
-29.762921238577214
10
-317.27727246101017
20
-29.762921238577214
10
-317.27727246101017
20
-28.762921238577214
10
-316.47647246101019
20
-28.762921238577214
10
-316.47647246101019
20
-25.662921238577216
10
-317.27727246101017
20
-25.662921238577212
10
-317.27727246101017
20
-19.862921238577215
10
-316.47647246101019
20
-19.862921238577215
10
-316.47647246101019
20
-16.76292123857721
10
-317.27727246101017
20
-16.76292123857721
10
-317.27727246101017
20
-15.763921238577211
10
-331.27657246101018
20
-15.763921238577211
10
-331.27657246101018
20
-16.76292123857721
10
-332.0773724610101
20
-16.76292123857721
10
-332.0773724610101
20
-19.862921238577215
10
-331.27657246101018
20
-19.862921238577215
10
-331.27657246101018
20
-25.662921238577216
10
-332.0773724610101
20
-25.662921238577216
10
-332.0773724610101
20
-28.762921238577214
10
-331.27657246101018
20
-28.762921238577214
0
LWPOLYLINE
5
171
100
AcDbEntity
8
0
100
AcDbPolyline
90
20
70
1
43
0.0
10
-279.17727246101015
20
-28.762921238577214
10
-278.3765724610102
20
-28.762921238577214
10
-278.3765724610102
20
-25.662921238577216
10
-279.17727246101015
20
-25.662921238577212
10
-279.17727246101015
20
-19.862921238577215
10
-278.3765724610102
20
-19.862921238577215
10
-278.3765724610102
20
-16.76292123857721
10
-279.17727246101015
20
-16.76292123857721
10
-279.17727246101015
20
-15.763921238577211
10
-293.17657246101015
20
-15.763921238577211
10
-293.17657246101015
20
-16.76292123857721
10
-293.97737246101019
20
-16.76292123857721
10
-293.97737246101019
20
-19.862921238577215
10
-293.17657246101015
20
-19.862921238577215
10
-293.17657246101015
20
-25.662921238577216
10
-293.97737246101019
20
-25.662921238577216
10
-293.97737246101019
20
-28.762921238577214
10
-293.17657246101015
20
-28.762921238577214
10
-293.17657246101015
20
-29.762921238577214
10
-279.17727246101015
20
-29.762921238577214
0
LWPOLYLINE
5
172
100
AcDbEntity
8
0
100
AcDbPolyline
90
20
70
1
43
0.0
10
-236.31477246101016
20
-35.812921238577211
10
-236.31477246101016
20
-34.813921238577215
10
-250.3140724610102
20
-34.813921238577215
10
-250.3140724610102
20
-35.812921238577211
10
-251.11487246101021
20
-35.812921238577211
10
-251.11487246101021
20
-38.912921238577212
10
-250.3140724610102
20
-38.912921238577212
10
-250.3140724610102
20
-44.712921238577216
10
-251.11487246101021
20
-44.712921238577216
10
-251.11487246101021
20
-47.812921238577211
10
-250.3140724610102
20
-47.812921238577211
10
-250.3140724610102
20
-48.812921238577204
10
-236.31477246101016
20
-48.812921238577204
10
-236.31477246101016
20
-47.812921238577211
10
-235.51397246101021
20
-47.812921238577211
10
-235.51397246101021
20
-44.712921238577216
10
-236.31477246101016
20
-44.712921238577223
10
-236.31477246101016
20
-38.912921238577212
10
-235.51397246101021
20
-38.912921238577212
10
-235.51397246101021
20
-35.812921238577211
0
LWPOLYLINE
5
173
100
AcDbEntity
8
0
100
AcDbPolyline
90
20
70
1
43
0.0
10
-193.45227246101021
20
-35.812921238577211
10
-193.45227246101021
20
-34.813921238577215
10
-207.45157246101019
20
-34.813921238577215
10
-207.45157246101019
20
-35.812921238577211
10
-208.2525724610102
20
-35.812921238577211
10
-208.2525724610102
20
-38.912921238577212
10
-207.45157246101019
20
-38.912921238577212
10
-207.45157246101019
20
-44.712921238577216
10
-208.2525724610102
20
-44.712921238577216
10
-208.2525724610102
20
-47.812921238577211
10
-207.45157246101019
20
-47.812921238577211
10
-207.45157246101019
20
-48.812921238577204
10
-193.45227246101021
20
-48.812921238577204
10
-193.45227246101021
20
-47.812921238577211
10
-192.6514724610102
20
-47.812921238577211
10
-192.6514724610102
20
-44.712921238577216
10
-193.45227246101021
20
-44.712921238577223
10
-193.45227246101021
20
-38.912921238577212
10
-192.6514724610102
20
-38.912921238577212
10
-192.6514724610102
20
-35.812921238577211
0
LWPOLYLINE
5
174
100
AcDbEntity
8
0
100
AcDbPolyline
90
20
70
1
43
0.0
10
-155.35227246101016
20
-35.812921238577211
10
-155.35227246101016
20
-34.813921238577215
10
-169.35157246101016
20
-34.813921238577215
10
-169.35157246101016
20
-35.812921238577211
10
-170.1523724610102
20
-35.812921238577211
10
-170.1523724610102
20
-38.912921238577212
10
-169.35157246101016
20
-38.912921238577212
10
-169.35157246101016
20
-44.712921238577216
10
-170.1523724610102
20
-44.712921238577216
10
-170.1523724610102
20
-47.812921238577211
10
-169.35157246101016
20
-47.812921238577211
10
-169.35157246101014
20
-48.812921238577204
10
-155.35227246101016
20
-48.812921238577204
10
-155.35227246101016
20
-47.812921238577211
10
-154.55147246101018
20
-47.812921238577211
10
-154.55147246101018
20
-44.712921238577216
10
-155.35227246101016
20
-44.712921238577223
10
-155.35227246101016
20
-38.912921238577212
10
-154.55147246101018
20
-38.912921238577212
10
-154.55147246101018
20
-35.812921238577211
0
LWPOLYLINE
5
175
100
AcDbEntity
8
0
100
AcDbPolyline
90
20
70
1
43
0.0
10
-112.48977246101117
20
-35.812921238577317
10
-112.48977246101117
20
-34.813921238577315
10
-126.48907246101118
20
-34.813921238577315
10
-126.48907246101118
20
-35.812921238577317
10
-127.29007246101116
20
-35.812921238577317
10
-127.29007246101116
20
-38.912921238577312
10
-126.48907246101118
20
-38.912921238577304
10
-126.48907246101118
20
-44.712921238577309
10
-127.29007246101116
20
-44.712921238577309
10
-127.29007246101116
20
-47.812921238577317
10
-126.48907246101118
20
-47.812921238577317
10
-126.48907246101118
20
-48.812921238577317
10
-112.48977246101117
20
-48.812921238577317
10
-112.48977246101117
20
-47.812921238577317
10
-111.68897246101118
20
-47.812921238577317
10
-111.68897246101118
20
-44.712921238577309
10
-112.48977246101117
20
-44.712921238577309
10
-112.48977246101117
20
-38.912921238577312
10
-111.68897246101118
20
-38.912921238577312
10
-111.68897246101118
20
-35.812921238577317
0
LWPOLYLINE
5
176
100
AcDbEntity
8
0
100
AcDbPolyline
90
20
70
1
43
0.0
10
-88.389072461010656
20
-16.76292123857721
10
-89.189872461010665
20
-16.76292123857721
10
-89.189872461010665
20
-19.862921238577215
10
-88.389072461010656
20
-19.862921238577215
10
-88.389072461010656
20
-25.662921238577216
10
-89.189872461010665
20
-25.662921238577216
10
-89.189872461010665
20
-28.762921238577214
10
-88.389072461010656
20
-28.762921238577214
10
-88.389072461010656
20
-29.762921238577214
10
-74.389772461010665
20
-29.762921238577214
10
-74.389772461010665
20
-28.762921238577214
10
-73.58897246101067
20
-28.762921238577214
10
-73.58897246101067
20
-25.662921238577216
10
-74.389772461010665
20
-25.662921238577212
10
-74.389772461010665
20
-19.862921238577215
10
-73.58897246101067
20
-19.862921238577215
10
-73.58897246101067
20
-16.76292123857721
10
-74.389772461010665
20
-16.76292123857721
10
-74.389772461010665
20
-15.763921238577211
10
-88.389072461010656
20
-15.763921238577211
0
LWPOLYLINE
5
177
100
AcDbEntity
8
0
100
AcDbPolyline
90
20
70
1
43
0.0
10
-31.527272461010366
20
-16.76292123857711
10
-31.527272461010366
20
-15.763921238577112
10
-45.526572461010261
20
-15.763921238577112
10
-45.526572461010261
20
-16.76292123857711
10
-46.327572461010263
20
-16.76292123857711
10
-46.327572461010263
20
-19.862921238577115
10
-45.526572461010261
20
-19.862921238577115
10
-45.526572461010261
20
-25.662921238577113
10
-46.327572461010263
20
-25.662921238577113
10
-46.327572461010263
20
-28.762921238577114
10
-45.526572461010261
20
-28.762921238577114
10
-45.526572461010261
20
-29.762921238577114
10
-31.527272461010366
20
-29.762921238577114
10
-31.527272461010366
20
-28.762921238577114
10
-30.726472461010367
20
-28.762921238577114
10
-30.726472461010367
20
-25.662921238577113
10
-31.527272461010366
20
-25.662921238577113
10
-31.527272461010366
20
-19.862921238577115
10
-30.726472461010367
20
-19.862921238577115
10
-30.726472461010367
20
-16.76292123857711
0
LWPOLYLINE
5
178
100
AcDbEntity
8
0
100
AcDbPolyline
90
20
70
1
43
0.0
10
-7.4265724610104424
20
-16.76292123857711
10
-8.2273724610104342
20
-16.76292123857711
10
-8.2273724610104431
20
-19.862921238577115
10
-7.4265724610104638
20
-19.862921238577115
10
-7.4265724610104638
20
-25.662921238577113
10
-8.2273724610104608
20
-25.662921238577113
10
-8.2273724610104733
20
-28.762921238577114
10
-7.4265724610104824
20
-28.762921238577114
10
-7.4265724610104824
20
-29.762921238577114
10
6.5727275389894482
20
-29.762921238577114
10
6.5727275389894482
20
-28.762921238577114
10
7.3735275389894479
20
-28.762921238577114
10
7.3735275389894683
20
-25.662921238577113
10
6.5727275389894686
20
-25.662921238577113
10
6.5727275389894775
20
-19.862921238577115
10
7.3735275389894781
20
-19.862921238577115
10
7.3735275389894888
20
-16.76292123857711
10
6.5727275389894881
20
-16.76292123857711
10
6.5727275389894766
20
-15.763921238577112
10
-7.4265724610104424
20
-15.763921238577112
0
LWPOLYLINE
5
179
100
AcDbEntity
8
0
100
AcDbPolyline
90
20
70
1
43
0.0
10
40.198427538989435
20
-16.762921238577309
10
39.397727538989436
20
-16.762921238577309
10
39.397727538989443
20
-19.862921238577311
10
40.198427538989435
20
-19.862921238577314
10
40.198427538989435
20
-25.662921238577315
10
39.397727538989436
20
-25.662921238577315
10
39.397727538989443
20
-28.762921238577313
10
40.198427538989435
20
-28.762921238577313
10
40.198427538989435
20
-29.761921238577319
10
54.19772753898944
20
-29.761921238577319
10
54.19772753898944
20
-28.762921238577313
10
54.998527538989435
20
-28.762921238577313
10
54.998527538989435
20
-25.662921238577315
10
54.19772753898944
20
-25.662921238577312
10
54.19772753898944
20
-19.862921238577311
10
54.998527538989435
20
-19.862921238577311
10
54.998527538989435
20
-16.762921238577309
10
54.19772753898944
20
-16.762921238577309
10
54.19772753898944
20
-15.762921238577313
10
40.198427538989435
20
-15.762921238577313
0
LWPOLYLINE
5
180
100
AcDbEntity
8
0
100
AcDbPolyline
90
20
70
1
43
0.0
10
6.5727275389894384
20
-35.812921238577012
10
6.5727275389894366
20
-34.813921238577016
10
-7.4265724610104824
20
-34.813921238577016
10
-7.4265724610104824
20
-35.812921238577012
10
-8.2273724610104821
20
-35.812921238577012
10
-8.227372461010491
20
-38.912921238577013
10
-7.4265724610105028
20
-38.912921238577013
10
-7.4265724610105117
20
-44.71292123857701
10
-8.2273724610105035
20
-44.71292123857701
10
-8.227372461010523
20
-47.812921238577005
10
-7.4265724610105224
20
-47.812921238577005
10
-7.4265724610105224
20
-48.812921238577012
10
6.5727275389894082
20
-48.812921238577012
10
6.5727275389893975
20
-47.812921238577005
10
7.3735275389894088
20
-47.812921238577005
10
7.3735275389894186
20
-44.71292123857701
10
6.572727538989418
20
-44.71292123857701
10
6.5727275389894295
20
-38.912921238577013
10
7.3735275389894381
20
-38.912921238577013
10
7.3735275389894479
20
-35.812921238577012
0
LWPOLYLINE
5
181
100
AcDbEntity
8
0
100
AcDbPolyline
90
20
70
1
43
0.0
10
-31.527272461010366
20
-35.812921238577012
10
-31.527272461010366
20
-34.813921238577016
10
-45.526572461010261
20
-34.813921238577016
10
-45.526572461010261
20
-35.812921238577012
10
-46.327572461010263
20
-35.812921238577012
10
-46.327572461010263
20
-38.912921238577013
10
-45.526572461010261
20
-38.912921238577013
10
-45.526572461010353
20
-44.71292123857701
10
-46.327572461010362
20
-44.71292123857701
10
-46.327572461010362
20
-47.812921238577005
10
-45.526572461010353
20
-47.812921238577005
10
-45.52657246101036
20
-48.812921238577012
10
-31.527272461010462
20
-48.812921238577012
10
-31.527272461010366
20
-47.812921238577005
10
-30.726472461010367
20
-47.812921238577005
10
-30.726472461010367
20
-44.71292123857701
10
-31.527272461010366
20
-44.71292123857701
10
-31.527272461010366
20
-38.912921238577013
10
-30.726472461010367
20
-38.912921238577013
10
-30.726472461010367
20
-35.812921238577012
0
LWPOLYLINE
5
182
100
AcDbEntity
8
0
100
AcDbPolyline
90
20
70
1
43
0.0
10
-74.389772461010665
20
-35.812921238577317
10
-74.389772461010665
20
-34.813921238577315
10
-88.389072461010656
20
-34.813921238577315
10
-88.389072461010656
20
-35.812921238577317
10
-89.189872461010665
20
-35.812921238577317
10
-89.189872461010665
20
-38.912921238577312
10
-88.389072461010656
20
-38.912921238577304
10
-88.389072461010656
20
-44.712921238577309
10
-89.189872461010665
20
-44.712921238577309
10
-89.189872461010665
20
-47.812921238577317
10
-88.389072461010656
20
-47.812921238577317
10
-88.389072461010656
20
-48.812921238577317
10
-74.389772461010665
20
-48.812921238577317
10
-74.389772461010665
20
-47.812921238577317
10
-73.58897246101067
20
-47.812921238577317
10
-73.58897246101067
20
-44.712921238577309
10
-74.389772461010665
20
-44.712921238577309
10
-74.389772461010665
20
-38.912921238577312
10
-73.58897246101067
20
-38.912921238577312
10
-73.58897246101067
20
-35.812921238577317
0
LWPOLYLINE
5
183
100
AcDbEntity
8
0
100
AcDbPolyline
90
20
70
1
43
0.0
10
-112.48977246101117
20
-16.76292123857721
10
-112.48977246101117
20
-15.763921238577211
10
-126.48907246101118
20
-15.763921238577211
10
-126.48907246101118
20
-16.76292123857721
10
-127.29007246101116
20
-16.76292123857721
10
-127.29007246101116
20
-19.862921238577215
10
-126.48907246101118
20
-19.862921238577215
10
-126.48907246101118
20
-25.662921238577216
10
-127.29007246101116
20
-25.662921238577216
10
-127.29007246101116
20
-28.762921238577214
10
-126.48907246101118
20
-28.762921238577214
10
-126.48907246101118
20
-29.762921238577214
10
-112.48977246101117
20
-29.762921238577214
10
-112.48977246101117
20
-28.762921238577214
10
-111.68897246101118
20
-28.762921238577214
10
-111.68897246101118
20
-25.662921238577216
10
-112.48977246101117
20
-25.662921238577212
10
-112.48977246101117
20
-19.862921238577215
10
-111.68897246101118
20
-19.862921238577215
10
-111.68897246101118
20
-16.76292123857721
0
LWPOLYLINE
5
184
100
AcDbEntity
8
0
100
AcDbPolyline
90
20
70
1
43
0.0
10
-169.35157246101016
20
-16.76292123857721
10
-170.1523724610102
20
-16.76292123857721
10
-170.1523724610102
20
-19.862921238577215
10
-169.35157246101016
20
-19.862921238577215
10
-169.35157246101016
20
-25.662921238577216
10
-170.1523724610102
20
-25.662921238577216
10
-170.1523724610102
20
-28.762921238577214
10
-169.35157246101016
20
-28.762921238577214
10
-169.35157246101014
20
-29.762921238577214
10
-155.35227246101016
20
-29.762921238577214
10
-155.35227246101016
20
-28.762921238577214
10
-154.55147246101018
20
-28.762921238577214
10
-154.55147246101018
20
-25.662921238577216
10
-155.35227246101016
20
-25.662921238577212
10
-155.35227246101016
20
-19.862921238577215
10
-154.55147246101018
20
-19.862921238577215
10
-154.55147246101018
20
-16.76292123857721
10
-155.35227246101016
20
-16.76292123857721
10
-155.35227246101019
20
-15.763921238577211
10
-169.35157246101016
20
-15.763921238577211
0
LWPOLYLINE
5
185
100
AcDbEntity
8
0
100
AcDbPolyline
90
20
70
1
43
0.0
10
-193.45227246101021
20
-16.76292123857721
10
-193.45227246101021
20
-15.763921238577211
10
-207.45157246101019
20
-15.763921238577211
10
-207.45157246101019
20
-16.76292123857721
10
-208.2525724610102
20
-16.76292123857721
10
-208.2525724610102
20
-19.862921238577215
10
-207.45157246101019
20
-19.862921238577215
10
-207.45157246101019
20
-25.662921238577216
10
-208.2525724610102
20
-25.662921238577216
10
-208.2525724610102
20
-28.762921238577214
10
-207.45157246101019
20
-28.762921238577214
10
-207.45157246101019
20
-29.762921238577214
10
-193.45227246101021
20
-29.762921238577214
10
-193.45227246101021
20
-28.762921238577214
10
-192.6514724610102
20
-28.762921238577214
10
-192.6514724610102
20
-25.662921238577216
10
-193.45227246101021
20
-25.662921238577212
10
-193.45227246101021
20
-19.862921238577215
10
-192.6514724610102
20
-19.862921238577215
10
-192.6514724610102
20
-16.76292123857721
0
LWPOLYLINE
5
186
100
AcDbEntity
8
0
100
AcDbPolyline
90
20
70
1
43
0.0
10
-250.3140724610102
20
-16.76292123857721
10
-251.11487246101021
20
-16.76292123857721
10
-251.11487246101021
20
-19.862921238577215
10
-250.3140724610102
20
-19.862921238577215
10
-250.3140724610102
20
-25.662921238577216
10
-251.11487246101021
20
-25.662921238577216
10
-251.11487246101021
20
-28.762921238577214
10
-250.3140724610102
20
-28.762921238577214
10
-250.3140724610102
20
-29.762921238577214
10
-236.31477246101016
20
-29.762921238577214
10
-236.31477246101016
20
-28.762921238577214
10
-235.51397246101021
20
-28.762921238577214
10
-235.51397246101021
20
-25.662921238577216
10
-236.31477246101016
20
-25.662921238577212
10
-236.31477246101016
20
-19.862921238577215
10
-235.51397246101021
20
-19.862921238577215
10
-235.51397246101021
20
-16.76292123857721
10
-236.31477246101016
20
-16.76292123857721
10
-236.31477246101016
20
-15.763921238577211
10
-250.3140724610102
20
-15.763921238577211
0
LWPOLYLINE
5
187
100
AcDbEntity
8
0
100
AcDbPolyline
90
20
70
1
43
0.0
10
-293.97737246101019
20
-47.812921238577211
10
-293.17657246101015
20
-47.812921238577211
10
-293.17657246101015
20
-48.812921238577204
10
-279.17727246101015
20
-48.812921238577204
10
-279.17727246101015
20
-47.812921238577211
10
-278.3765724610102
20
-47.812921238577211
10
-278.3765724610102
20
-44.712921238577216
10
-279.17727246101015
20
-44.712921238577223
10
-279.17727246101015
20
-38.912921238577212
10
-278.3765724610102
20
-38.912921238577212
10
-278.3765724610102
20
-35.812921238577211
10
-279.17727246101015
20
-35.812921238577211
10
-279.17727246101015
20
-34.813921238577215
10
-293.17657246101015
20
-34.813921238577215
10
-293.17657246101015
20
-35.812921238577211
10
-293.97737246101019
20
-35.812921238577211
10
-293.97737246101019
20
-38.912921238577212
10
-293.17657246101015
20
-38.912921238577212
10
-293.17657246101015
20
-44.712921238577216
10
-293.97737246101019
20
-44.712921238577216
0
LWPOLYLINE
5
188
100
AcDbEntity
8
0
100
AcDbPolyline
90
20
70
1
43
0.0
10
-317.27727246101017
20
-34.813921238577215
10
-331.27657246101018
20
-34.813921238577215
10
-331.27657246101018
20
-35.812921238577211
10
-332.0773724610101
20
-35.812921238577211
10
-332.0773724610101
20
-38.912921238577212
10
-331.27657246101018
20
-38.912921238577212
10
-331.27657246101018
20
-44.712921238577216
10
-332.0773724610101
20
-44.712921238577216
10
-332.0773724610101
20
-47.812921238577211
10
-331.27657246101018
20
-47.812921238577211
10
-331.27657246101023
20
-48.812921238577204
10
-317.27727246101017
20
-48.812921238577204
10
-317.27727246101017
20
-47.812921238577211
10
-316.47647246101019
20
-47.812921238577211
10
-316.47647246101019
20
-44.712921238577216
10
-317.27727246101017
20
-44.712921238577223
10
-317.27727246101017
20
-38.912921238577212
10
-316.47647246101019
20
-38.912921238577212
10
-316.47647246101019
20
-35.812921238577211
10
-317.27727246101017
20
-35.812921238577211
0
LWPOLYLINE
5
189
100
AcDbEntity
8
0
100
AcDbPolyline
90
20
70
1
43
0.0
10
-312.22657246101016
20
-16.76292123857721
10
-313.02737246101015
20
-16.76292123857721
10
-313.02737246101015
20
-19.862921238577215
10
-312.22657246101016
20
-19.862921238577215
10
-312.22657246101016
20
-25.662921238577216
10
-313.02737246101015
20
-25.662921238577216
10
-313.02737246101015
20
-28.762921238577214
10
-312.22657246101016
20
-28.762921238577214
10
-312.22657246101016
20
-29.762921238577214
10
-298.22727246101016
20
-29.762921238577214
10
-298.22727246101016
20
-28.762921238577214
10
-297.42647246101018
20
-28.762921238577214
10
-297.42647246101018
20
-25.662921238577216
10
-298.22727246101016
20
-25.662921238577212
10
-298.22727246101016
20
-19.862921238577215
10
-297.42647246101018
20
-19.862921238577215
10
-297.42647246101018
20
-16.76292123857721
10
-298.22727246101016
20
-16.76292123857721
10
-298.22727246101016
20
-15.763921238577211
10
-312.22657246101016
20
-15.763921238577211
0
LWPOLYLINE
5
190
100
AcDbEntity
8
0
100
AcDbPolyline
90
20
70
1
43
0.0
10
-255.36477246101018
20
-34.813921238577215
10
-269.36407246101015
20
-34.813921238577215
10
-269.36407246101015
20
-35.812921238577211
10
-270.16487246101019
20
-35.812921238577211
10
-270.16487246101019
20
-38.912921238577212
10
-269.36407246101015
20
-38.912921238577212
10
-269.36407246101015
20
-44.712921238577216
10
-270.16487246101019
20
-44.712921238577216
10
-270.16487246101019
20
-47.812921238577211
10
-269.36407246101015
20
-47.812921238577211
10
-269.36407246101015
20
-48.812921238577204
10
-255.36477246101018
20
-48.812921238577204
10
-255.36477246101018
20
-47.812921238577211
10
-254.5639724610102
20
-47.812921238577211
10
-254.5639724610102
20
-44.712921238577216
10
-255.36477246101018
20
-44.712921238577223
10
-255.36477246101018
20
-38.912921238577212
10
-254.5639724610102
20
-38.912921238577212
10
-254.5639724610102
20
-35.812921238577211
10
-255.36477246101018
20
-35.812921238577211
0
LWPOLYLINE
5
191
100
AcDbEntity
8
0
100
AcDbPolyline
90
20
70
1
43
0.0
10
-232.0648724610102
20
-47.812921238577211
10
-231.26407246101019
20
-47.812921238577211
10
-231.26407246101019
20
-48.812921238577204
10
-217.26477246101018
20
-48.812921238577204
10
-217.26477246101018
20
-47.812921238577211
10
-216.4640724610102
20
-47.812921238577211
10
-216.4640724610102
20
-44.712921238577216
10
-217.26477246101018
20
-44.712921238577223
10
-217.26477246101018
20
-38.912921238577212
10
-216.4640724610102
20
-38.912921238577212
10
-216.4640724610102
20
-35.812921238577211
10
-217.26477246101018
20
-35.812921238577211
10
-217.26477246101018
20
-34.813921238577215
10
-231.26407246101019
20
-34.813921238577215
10
-231.26407246101019
20
-35.812921238577211
10
-232.0648724610102
20
-35.812921238577211
10
-232.0648724610102
20
-38.912921238577212
10
-231.26407246101019
20
-38.912921238577212
10
-231.26407246101019
20
-44.712921238577216
10
-232.0648724610102
20
-44.712921238577216
0
LWPOLYLINE
5
192
100
AcDbEntity
8
0
100
AcDbPolyline
90
20
70
1
43
0.0
10
-174.40227246101017
20
-34.813921238577215
10
-188.40157246101018
20
-34.813921238577215
10
-188.40157246101018
20
-35.812921238577211
10
-189.20237246101016
20
-35.812921238577211
10
-189.20237246101016
20
-38.912921238577212
10
-188.40157246101018
20
-38.912921238577212
10
-188.40157246101018
20
-44.712921238577216
10
-189.20237246101016
20
-44.712921238577216
10
-189.20237246101016
20
-47.812921238577211
10
-188.40157246101018
20
-47.812921238577211
10
-188.40157246101018
20
-48.812921238577204
10
-174.40227246101017
20
-48.812921238577204
10
-174.40227246101017
20
-47.812921238577211
10
-173.60147246101019
20
-47.812921238577211
10
-173.60147246101019
20
-44.712921238577216
10
-174.40227246101017
20
-44.712921238577223
10
-174.40227246101017
20
-38.912921238577212
10
-173.60147246101019
20
-38.912921238577212
10
-173.60147246101019
20
-35.812921238577211
10
-174.40227246101017
20
-35.812921238577211
0
LWPOLYLINE
5
193
100
AcDbEntity
8
0
100
AcDbPolyline
90
20
70
1
43
0.0
10
-151.10237246101016
20
-47.812921238577211
10
-150.30157246101018
20
-47.812921238577211
10
-150.30157246101018
20
-48.812921238577204
10
-136.30227246101018
20
-48.812921238577204
10
-136.30227246101018
20
-47.812921238577211
10
-135.50157246101017
20
-47.812921238577211
10
-135.50157246101017
20
-44.712921238577216
10
-136.30227246101018
20
-44.712921238577223
10
-136.30227246101018
20
-38.912921238577212
10
-135.50157246101017
20
-38.912921238577212
10
-135.50157246101017
20
-35.812921238577211
10
-136.30227246101018
20
-35.812921238577211
10
-136.30227246101018
20
-34.813921238577215
10
-150.30157246101018
20
-34.813921238577215
10
-150.30157246101018
20
-35.812921238577211
10
-151.10237246101016
20
-35.812921238577211
10
-151.10237246101016
20
-38.912921238577212
10
-150.30157246101018
20
-38.912921238577212
10
-150.30157246101018
20
-44.712921238577216
10
-151.10237246101016
20
-44.712921238577216
0
LWPOLYLINE
5
194
100
AcDbEntity
8
0
100
AcDbPolyline
90
20
70
1
43
0.0
10
-93.439772461010762
20
-34.813921238577315
10
-107.43907246101116
20
-34.813921238577315
10
-107.43907246101116
20
-35.812921238577317
10
-108.23987246101117
20
-35.812921238577317
10
-108.23987246101117
20
-38.912921238577312
10
-107.43907246101116
20
-38.912921238577304
10
-107.43907246101116
20
-44.712921238577309
10
-108.23987246101117
20
-44.712921238577309
10
-108.23987246101117
20
-47.812921238577317
10
-107.43907246101116
20
-47.812921238577317
10
-107.43907246101116
20
-48.812921238577317
10
-93.439772461010762
20
-48.812921238577317
10
-93.439772461010762
20
-47.812921238577317
10
-92.638972461010667
20
-47.812921238577317
10
-92.638972461010667
20
-44.712921238577309
10
-93.439772461010762
20
-44.712921238577309
10
-93.439772461010762
20
-38.912921238577312
10
-92.638972461010667
20
-38.912921238577312
10
-92.638972461010667
20
-35.812921238577317
10
-93.439772461010762
20
-35.812921238577317
0
LWPOLYLINE
5
195
100
AcDbEntity
8
0
100
AcDbPolyline
90
20
70
1
43
0.0
10
-55.339772461010561
20
-28.762921238577214
10
-54.539072461010562
20
-28.762921238577214
10
-54.539072461010562
20
-25.662921238577216
10
-55.339772461010561
20
-25.662921238577212
10
-55.339772461010561
20
-19.862921238577215
10
-54.539072461010562
20
-19.862921238577215
10
-54.539072461010562
20
-16.76292123857721
10
-55.339772461010561
20
-16.76292123857721
10
-55.339772461010561
20
-15.763921238577211
10
-69.339072461010559
20
-15.763921238577211
10
-69.339072461010559
20
-16.76292123857721
10
-70.139872461010555
20
-16.76292123857721
10
-70.139872461010555
20
-19.862921238577215
10
-69.339072461010559
20
-19.862921238577215
10
-69.339072461010559
20
-25.662921238577216
10
-70.139872461010555
20
-25.662921238577216
10
-70.139872461010555
20
-28.762921238577214
10
-69.339072461010559
20
-28.762921238577214
10
-69.339072461010559
20
-29.762921238577214
10
-55.339772461010561
20
-29.762921238577214
0
LWPOLYLINE
5
196
100
AcDbEntity
8
0
100
AcDbPolyline
90
20
70
1
43
0.0
10
-26.476572461010363
20
-29.762921238577114
10
-12.477272461010463
20
-29.762921238577114
10
-12.477272461010463
20
-28.762921238577114
10
-11.676472461010462
20
-28.762921238577114
10
-11.676472461010462
20
-25.662921238577113
10
-12.477272461010463
20
-25.662921238577113
10
-12.477272461010463
20
-19.862921238577115
10
-11.676472461010462
20
-19.862921238577115
10
-11.676472461010361
20
-16.76292123857711
10
-12.477272461010463
20
-16.76292123857711
10
-12.477272461010465
20
-15.763921238577112
10
-26.476572461010367
20
-15.763921238577112
10
-26.476572461010367
20
-16.76292123857711
10
-27.277372461010362
20
-16.76292123857711
10
-27.277372461010362
20
-19.862921238577115
10
-26.476572461010367
20
-19.862921238577115
10
-26.476572461010367
20
-25.662921238577113
10
-27.277372461010362
20
-25.662921238577113
10
-27.277372461010362
20
-28.762921238577114
10
-26.476572461010367
20
-28.762921238577114
0
LWPOLYLINE
5
197
100
AcDbEntity
8
0
100
AcDbPolyline
90
20
70
1
43
0.0
10
25.622727538989341
20
-28.762921238577114
10
26.423427538989337
20
-28.762921238577114
10
26.423427538989337
20
-25.662921238577113
10
25.622727538989341
20
-25.662921238577113
10
25.622727538989437
20
-19.862921238577115
10
26.423427538989337
20
-19.862921238577115
10
26.42342753898944
20
-16.76292123857711
10
25.622727538989437
20
-16.76292123857711
10
25.622727538989444
20
-15.763921238577112
10
11.623427538989437
20
-15.763921238577112
10
11.623427538989437
20
-16.76292123857711
10
10.822627538989437
20
-16.76292123857711
10
10.822627538989437
20
-19.862921238577115
10
11.623427538989437
20
-19.862921238577115
10
11.623427538989437
20
-25.662921238577113
10
10.822627538989437
20
-25.662921238577113
10
10.822627538989437
20
-28.762921238577114
10
11.623427538989437
20
-28.762921238577114
10
11.623427538989436
20
-29.762921238577114
10
25.622727538989341
20
-29.762921238577114
0
LWPOLYLINE
5
198
100
AcDbEntity
8
0
100
AcDbPolyline
90
20
70
1
43
0.0
10
10.822627538989437
20
-47.812921238577005
10
11.623427538989437
20
-47.812921238577005
10
11.623427538989334
20
-48.812921238577012
10
25.622727538989341
20
-48.812921238577012
10
25.622727538989341
20
-47.812921238577005
10
26.423427538989337
20
-47.812921238577005
10
26.423427538989337
20
-44.71292123857701
10
25.622727538989341
20
-44.71292123857701
10
25.622727538989341
20
-38.912921238577013
10
26.423427538989337
20
-38.912921238577013
10
26.423427538989337
20
-35.812921238577012
10
25.622727538989341
20
-35.812921238577012
10
25.622727538989345
20
-34.813921238577016
10
11.623427538989437
20
-34.813921238577016
10
11.623427538989437
20
-35.812921238577012
10
10.822627538989437
20
-35.812921238577012
10
10.822627538989437
20
-38.912921238577013
10
11.623427538989437
20
-38.912921238577013
10
11.623427538989437
20
-44.71292123857701
10
10.822627538989437
20
-44.71292123857701
0
LWPOLYLINE
5
199
100
AcDbEntity
8
0
100
AcDbPolyline
90
20
70
1
43
0.0
10
-12.477272461010465
20
-34.813921238577016
10
-26.476572461010367
20
-34.813921238577016
10
-26.476572461010367
20
-35.812921238577012
10
-27.277372461010362
20
-35.812921238577012
10
-27.277372461010362
20
-38.912921238577013
10
-26.476572461010367
20
-38.912921238577013
10
-26.476572461010463
20
-44.71292123857701
10
-27.277372461010362
20
-44.71292123857701
10
-27.277372461010469
20
-47.812921238577005
10
-26.476572461010463
20
-47.812921238577005
10
-26.476572461010459
20
-48.812921238577012
10
-12.477272461010463
20
-48.812921238577012
10
-12.477272461010463
20
-47.812921238577005
10
-11.676472461010462
20
-47.812921238577005
10
-11.676472461010462
20
-44.71292123857701
10
-12.477272461010463
20
-44.71292123857701
10
-12.477272461010463
20
-38.912921238577013
10
-11.676472461010462
20
-38.912921238577013
10
-11.676472461010462
20
-35.812921238577012
10
-12.477272461010463
20
-35.812921238577012
0
LWPOLYLINE
5
200
100
AcDbEntity
8
0
100
AcDbPolyline
90
20
70
1
43
0.0
10
-70.139872461010555
20
-47.812921238577317
10
-69.339072461010559
20
-47.812921238577317
10
-69.339072461010559
20
-48.812921238577317
10
-55.339772461010561
20
-48.812921238577317
10
-55.339772461010561
20
-47.812921238577317
10
-54.539072461010562
20
-47.812921238577317
10
-54.539072461010562
20
-44.712921238577309
10
-55.339772461010561
20
-44.712921238577309
10
-55.339772461010561
20
-38.912921238577312
10
-54.539072461010562
20
-38.912921238577312
10
-54.539072461010562
20
-35.812921238577317
10
-55.339772461010561
20
-35.812921238577317
10
-55.339772461010561
20
-34.813921238577315
10
-69.339072461010559
20
-34.813921238577315
10
-69.339072461010559
20
-35.812921238577317
10
-70.139872461010555
20
-35.812921238577317
10
-70.139872461010555
20
-38.912921238577312
10
-69.339072461010559
20
-38.912921238577304
10
-69.339072461010559
20
-44.712921238577309
10
-70.139872461010555
20
-44.712921238577309
0
LWPOLYLINE
5
201
100
AcDbEntity
8
0
100
AcDbPolyline
90
20
70
1
43
0.0
10
-107.43907246101116
20
-29.762921238577214
10
-93.439772461010762
20
-29.762921238577214
10
-93.439772461010762
20
-28.762921238577214
10
-92.638972461010667
20
-28.762921238577214
10
-92.638972461010667
20
-25.662921238577216
10
-93.439772461010762
20
-25.662921238577212
10
-93.439772461010762
20
-19.862921238577215
10
-92.638972461010667
20
-19.862921238577215
10
-92.638972461010667
20
-16.76292123857721
10
-93.439772461010762
20
-16.76292123857721
10
-93.439772461010762
20
-15.763921238577211
10
-107.43907246101116
20
-15.763921238577211
10
-107.43907246101116
20
-16.76292123857721
10
-108.23987246101117
20
-16.76292123857721
10
-108.23987246101117
20
-19.862921238577215
10
-107.43907246101116
20
-19.862921238577215
10
-107.43907246101116
20
-25.662921238577216
10
-108.23987246101117
20
-25.662921238577216
10
-108.23987246101117
20
-28.762921238577214
10
-107.43907246101116
20
-28.762921238577214
0
LWPOLYLINE
5
202
100
AcDbEntity
8
0
100
AcDbPolyline
90
20
70
1
43
0.0
10
-136.30227246101018
20
-28.762921238577214
10
-135.50157246101017
20
-28.762921238577214
10
-135.50157246101017
20
-25.662921238577216
10
-136.30227246101018
20
-25.662921238577212
10
-136.30227246101018
20
-19.862921238577215
10
-135.50157246101017
20
-19.862921238577215
10
-135.50157246101017
20
-16.76292123857721
10
-136.30227246101018
20
-16.76292123857721
10
-136.30227246101018
20
-15.763921238577211
10
-150.30157246101018
20
-15.763921238577211
10
-150.30157246101018
20
-16.76292123857721
10
-151.10237246101016
20
-16.76292123857721
10
-151.10237246101016
20
-19.862921238577215
10
-150.30157246101018
20
-19.862921238577215
10
-150.30157246101018
20
-25.662921238577216
10
-151.10237246101016
20
-25.662921238577216
10
-151.10237246101016
20
-28.762921238577214
10
-150.30157246101018
20
-28.762921238577214
10
-150.30157246101018
20
-29.762921238577214
10
-136.30227246101018
20
-29.762921238577214
0
LWPOLYLINE
5
203
100
AcDbEntity
8
0
100
AcDbPolyline
90
20
70
1
43
0.0
10
-188.40157246101018
20
-29.762921238577214
10
-174.40227246101017
20
-29.762921238577214
10
-174.40227246101017
20
-28.762921238577214
10
-173.60147246101019
20
-28.762921238577214
10
-173.60147246101019
20
-25.662921238577216
10
-174.40227246101017
20
-25.662921238577212
10
-174.40227246101017
20
-19.862921238577215
10
-173.60147246101019
20
-19.862921238577215
10
-173.60147246101019
20
-16.76292123857721
10
-174.40227246101017
20
-16.76292123857721
10
-174.40227246101017
20
-15.763921238577211
10
-188.40157246101018
20
-15.763921238577211
10
-188.40157246101018
20
-16.76292123857721
10
-189.20237246101016
20
-16.76292123857721
10
-189.20237246101016
20
-19.862921238577215
10
-188.40157246101018
20
-19.862921238577215
10
-188.40157246101018
20
-25.662921238577216
10
-189.20237246101016
20
-25.662921238577216
10
-189.20237246101016
20
-28.762921238577214
10
-188.40157246101018
20
-28.762921238577214
0
LWPOLYLINE
5
204
100
AcDbEntity
8
0
100
AcDbPolyline
90
20
70
1
43
0.0
10
-217.26477246101018
20
-28.762921238577214
10
-216.4640724610102
20
-28.762921238577214
10
-216.4640724610102
20
-25.662921238577216
10
-217.26477246101018
20
-25.662921238577212
10
-217.26477246101018
20
-19.862921238577215
10
-216.4640724610102
20
-19.862921238577215
10
-216.4640724610102
20
-16.76292123857721
10
-217.26477246101018
20
-16.76292123857721
10
-217.26477246101018
20
-15.763921238577211
10
-231.26407246101019
20
-15.763921238577211
10
-231.26407246101019
20
-16.76292123857721
10
-232.0648724610102
20
-16.76292123857721
10
-232.0648724610102
20
-19.862921238577215
10
-231.26407246101019
20
-19.862921238577215
10
-231.26407246101019
20
-25.662921238577216
10
-232.0648724610102
20
-25.662921238577216
10
-232.0648724610102
20
-28.762921238577214
10
-231.26407246101019
20
-28.762921238577214
10
-231.26407246101019
20
-29.762921238577214
10
-217.26477246101018
20
-29.762921238577214
0
LWPOLYLINE
5
205
100
AcDbEntity
8
0
100
AcDbPolyline
90
20
70
1
43
0.0
10
-269.36407246101015
20
-29.762921238577214
10
-255.36477246101018
20
-29.762921238577214
10
-255.36477246101018
20
-28.762921238577214
10
-254.5639724610102
20
-28.762921238577214
10
-254.5639724610102
20
-25.662921238577216
10
-255.36477246101018
20
-25.662921238577212
10
-255.36477246101018
20
-19.862921238577215
10
-254.5639724610102
20
-19.862921238577215
10
-254.5639724610102
20
-16.76292123857721
10
-255.36477246101018
20
-16.76292123857721
10
-255.36477246101018
20
-15.763921238577211
10
-269.36407246101015
20
-15.763921238577211
10
-269.36407246101015
20
-16.76292123857721
10
-270.16487246101019
20
-16.76292123857721
10
-270.16487246101019
20
-19.862921238577215
10
-269.36407246101015
20
-19.862921238577215
10
-269.36407246101015
20
-25.662921238577216
10
-270.16487246101019
20
-25.662921238577216
10
-270.16487246101019
20
-28.762921238577214
10
-269.36407246101015
20
-28.762921238577214
0
LWPOLYLINE
5
206
100
AcDbEntity
8
0
100
AcDbPolyline
90
20
70
1
43
0.0
10
-298.22727246101016
20
-35.812921238577211
10
-298.22727246101016
20
-34.813921238577215
10
-312.22657246101016
20
-34.813921238577215
10
-312.22657246101016
20
-35.812921238577211
10
-313.02737246101015
20
-35.812921238577211
10
-313.02737246101015
20
-38.912921238577212
10
-312.22657246101016
20
-38.912921238577212
10
-312.22657246101016
20
-44.712921238577216
10
-313.02737246101015
20
-44.712921238577216
10
-313.02737246101015
20
-47.812921238577211
10
-312.22657246101016
20
-47.812921238577211
10
-312.22657246101016
20
-48.812921238577204
10
-298.22727246101016
20
-48.812921238577204
10
-298.22727246101016
20
-47.812921238577211
10
-297.42647246101018
20
-47.812921238577211
10
-297.42647246101018
20
-44.712921238577216
10
-298.22727246101016
20
-44.712921238577223
10
-298.22727246101016
20
-38.912921238577212
10
-297.42647246101018
20
-38.912921238577212
10
-297.42647246101018
20
-35.812921238577211
0
LWPOLYLINE
5
207
100
AcDbEntity
8
0
100
AcDbPolyline
90
20
70
1
43
0.0
10
-250.31392246101021
20
13.00190376142279
10
-251.1149224610102
20
13.00190376142279
10
-251.1149224610102
20
9.9027037614227886
10
-250.31392246101021
20
9.9027037614227869
10
-250.31392246101021
20
4.1027037614227888
10
-251.1149224610102
20
4.1027037614227888
10
-251.1149224610102
20
1.0021037614227786
10
-250.31392246101021
20
1.0021037614227786
10
-250.31392246101021
20
0.0030037614227706967
10
-236.31492246101021
20
0.0030037614227529374
10
-236.31492246101021
20
1.0021037614227686
10
-235.5139224610102
20
1.0021037614227684
10
-235.5139224610102
20
4.1027037614227684
10
-236.31492246101021
20
4.1027037614227693
10
-236.31492246101021
20
9.9027037614227691
10
-235.5139224610102
20
9.9027037614227691
10
-235.5139224610102
20
13.00190376142279
10
-236.31492246101021
20
13.00190376142279
10
-236.31492246101021
20
14.002303761422789
10
-250.31392246101021
20
14.002303761422789
0
LWPOLYLINE
5
208
100
AcDbEntity
8
0
100
AcDbPolyline
90
20
70
1
43
0.0
10
-312.2264224610102
20
4.1027037614227888
10
-313.02742246101025
20
4.1027037614227888
10
-313.02742246101025
20
1.0021037614227888
10
-312.2264224610102
20
1.0021037614227888
10
-312.2264224610102
20
0.0030037614227713368
10
-298.22842246101015
20
0.0030037614227713949
10
-298.22842246101015
20
1.0021037614227888
10
-297.42742246101022
20
1.0021037614227883
10
-297.42742246101022
20
4.1027037614227888
10
-298.22842246101015
20
4.1027037614227897
10
-298.22842246101015
20
9.9027037614227886
10
-297.42742246101022
20
9.9027037614227886
10
-297.42742246101022
20
13.00190376142279
10
-298.22842246101015
20
13.00190376142279
10
-298.22842246101015
20
14.002303761422789
10
-312.2264224610102
20
14.002303761422789
10
-312.2264224610102
20
13.00190376142279
10
-313.02742246101025
20
13.00190376142279
10
-313.02742246101025
20
9.9027037614227886
10
-312.2264224610102
20
9.9027037614227869
0
LWPOLYLINE
5
209
100
AcDbEntity
8
0
100
AcDbPolyline
90
20
70
1
43
0.0
10
-217.26477246101018
20
93.965203761422686
10
-217.26477246101018
20
94.965203761422686
10
-231.26407246101019
20
94.965203761422686
10
-231.26407246101019
20
93.965203761422686
10
-232.0648724610102
20
93.965203761422686
10
-232.0648724610102
20
90.865203761422691
10
-231.26407246101019
20
90.865203761422691
10
-231.26407246101019
20
85.06520376142268
10
-232.0648724610102
20
85.06520376142268
10
-232.0648724610102
20
81.965203761422686
10
-231.26407246101019
20
81.965203761422686
10
-231.26407246101019
20
80.96620376142269
10
-217.26477246101018
20
80.96620376142269
10
-217.26477246101018
20
81.965203761422686
10
-216.4639724610102
20
81.965203761422686
10
-216.4639724610102
20
85.06520376142268
10
-217.26477246101018
20
85.06520376142268
10
-217.26477246101018
20
90.865203761422691
10
-216.4639724610102
20
90.865203761422691
10
-216.4639724610102
20
93.965203761422686
0
LWPOLYLINE
5
210
100
AcDbEntity
8
0
100
AcDbPolyline
90
20
70
1
43
0.0
10
-278.37642246101018
20
20.052103761422785
10
-278.37642246101018
20
23.152703761422785
10
-279.17742246101017
20
23.152703761422785
10
-279.17742246101017
20
28.952703761422786
10
-278.37642246101018
20
28.952703761422786
10
-278.37642246101018
20
32.051903761422786
10
-279.17742246101017
20
32.051903761422786
10
-279.17742246101017
20
33.052303761422785
10
-293.17642246101019
20
33.052303761422785
10
-293.17642246101019
20
32.051903761422786
10
-293.97742246101024
20
32.051903761422786
10
-293.97742246101024
20
28.952703761422786
10
-293.17642246101019
20
28.952703761422786
10
-293.17642246101019
20
23.152703761422785
10
-293.97742246101024
20
23.152703761422785
10
-293.97742246101024
20
20.052103761422785
10
-293.17642246101019
20
20.052103761422792
10
-293.17642246101019
20
19.05300376142279
10
-279.17742246101017
20
19.05300376142279
10
-279.17742246101017
20
20.052103761422785
0
LWPOLYLINE
5
211
100
AcDbEntity
8
0
100
AcDbPolyline
90
20
70
1
43
0.0
10
-279.17742246101017
20
4.1027037614227897
10
-279.17742246101017
20
9.9027037614227886
10
-278.37642246101018
20
9.9027037614227886
10
-278.37642246101018
20
13.00190376142279
10
-279.17742246101017
20
13.00190376142279
10
-279.17742246101017
20
14.002303761422789
10
-293.17642246101019
20
14.002303761422789
10
-293.17642246101019
20
13.00190376142279
10
-293.97742246101024
20
13.00190376142279
10
-293.97742246101024
20
9.9027037614227886
10
-293.17642246101019
20
9.9027037614227869
10
-293.17642246101019
20
4.1027037614227888
10
-293.97742246101024
20
4.1027037614227888
10
-293.97742246101024
20
1.0021037614227888
10
-293.17642246101019
20
1.0021037614227888
10
-293.17642246101019
20
0.0030037614227713368
10
-279.17742246101017
20
0.0030037614227713949
10
-279.17742246101017
20
1.0021037614227888
10
-278.37642246101018
20
1.0021037614227883
10
-278.37642246101018
20
4.1027037614227888
0
LWPOLYLINE
5
212
100
AcDbEntity
8
0
100
AcDbPolyline
90
20
70
1
43
0.0
10
-279.17742246101017
20
52.102303761422803
10
-293.17642246101019
20
52.102303761422803
10
-293.17642246101019
20
51.10190376142279
10
-293.97742246101024
20
51.10190376142279
10
-293.97742246101024
20
48.002703761422794
10
-293.17642246101019
20
48.002703761422794
10
-293.17642246101019
20
42.202703761422796
10
-293.97742246101024
20
42.202703761422796
10
-293.97742246101024
20
39.102103761422796
10
-293.17642246101019
20
39.102103761422796
10
-293.17642246101019
20
38.103003761422784
10
-279.17742246101017
20
38.103003761422784
10
-279.17742246101017
20
39.102103761422796
10
-278.37642246101018
20
39.102103761422796
10
-278.37642246101018
20
42.202703761422796
10
-279.17742246101017
20
42.202703761422796
10
-279.17742246101017
20
48.002703761422794
10
-278.37642246101018
20
48.002703761422794
10
-278.37642246101018
20
51.10190376142279
10
-279.17742246101017
20
51.10190376142279
0
LWPOLYLINE
5
213
100
AcDbEntity
8
0
100
AcDbPolyline
90
20
70
1
43
0.0
10
-231.26407246101019
20
74.915203761422703
10
-232.0648724610102
20
74.915203761422703
10
-232.0648724610102
20
71.815203761422794
10
-231.26407246101019
20
71.815203761422794
10
-231.26407246101019
20
66.015203761422782
10
-232.0648724610102
20
66.015203761422782
10
-232.0648724610102
20
62.915203761422795
10
-231.26407246101019
20
62.915203761422795
10
-231.26407246101019
20
61.916203761422793
10
-217.26477246101018
20
61.916203761422793
10
-217.26477246101018
20
62.915203761422795
10
-216.4639724610102
20
62.915203761422795
10
-216.4639724610102
20
66.015203761422782
10
-217.26477246101018
20
66.015203761422782
10
-217.26477246101018
20
71.815203761422794
10
-216.4639724610102
20
71.815203761422794
10
-216.4639724610102
20
74.915203761422703
10
-217.26477246101018
20
74.915203761422703
10
-217.26477246101018
20
75.915203761422688
10
-231.26407246101019
20
75.915203761422688
0
LWPOLYLINE
5
214
100
AcDbEntity
8
0
100
AcDbPolyline
90
20
70
1
43
0.0
10
-293.97742246101024
20
67.052803761422794
10
-293.17642246101019
20
67.052803761422794
10
-293.17642246101019
20
61.252703761422794
10
-293.97742246101024
20
61.252703761422794
10
-293.97742246101024
20
58.152103761422794
10
-293.17642246101019
20
58.152103761422794
10
-293.17642246101019
20
57.153103761422798
10
-279.17742246101017
20
57.153103761422798
10
-279.17742246101017
20
58.152103761422794
10
-278.37642246101018
20
58.152103761422794
10
-278.37642246101018
20
61.252703761422794
10
-279.17742246101017
20
61.252703761422794
10
-279.17742246101017
20
67.052803761422794
10
-278.37642246101018
20
67.052803761422794
10
-278.37642246101018
20
70.152003761422804
10
-279.17742246101017
20
70.152003761422804
10
-279.17742246101017
20
71.152503761422807
10
-293.17642246101019
20
71.152503761422807
10
-293.17642246101019
20
70.152003761422804
10
-293.97742246101024
20
70.152003761422804
0
LWPOLYLINE
5
215
100
AcDbEntity
8
0
100
AcDbPolyline
90
20
70
1
43
0.0
10
-332.07742246101014
20
1.0021037614227888
10
-331.2764224610101
20
1.0021037614227888
10
-331.27642246101016
20
0.0030037614227713368
10
-317.27842246101022
20
0.0030037614227713949
10
-317.27842246101022
20
1.0021037614227888
10
-316.47742246101024
20
1.0021037614227883
10
-316.47742246101024
20
4.1027037614227888
10
-317.27842246101022
20
4.1027037614227897
10
-317.27842246101022
20
9.9027037614227886
10
-316.47742246101024
20
9.9027037614227886
10
-316.47742246101024
20
13.00190376142279
10
-317.27842246101022
20
13.00190376142279
10
-317.27842246101017
20
14.002303761422789
10
-331.2764224610101
20
14.002303761422789
10
-331.2764224610101
20
13.00190376142279
10
-332.07742246101014
20
13.00190376142279
10
-332.07742246101014
20
9.9027037614227886
10
-331.2764224610101
20
9.9027037614227869
10
-331.2764224610101
20
4.1027037614227888
10
-332.07742246101014
20
4.1027037614227888
0
LWPOLYLINE
5
216
100
AcDbEntity
8
0
100
AcDbPolyline
90
20
70
1
43
0.0
10
-250.31392246101021
20
42.202703761422796
10
-251.1149224610102
20
42.202703761422796
10
-251.1149224610102
20
39.102103761422796
10
-250.31392246101021
20
39.102103761422796
10
-250.31392246101021
20
38.103003761422784
10
-236.31492246101021
20
38.103003761422784
10
-236.31492246101021
20
39.102103761422796
10
-235.5139224610102
20
39.102103761422796
10
-235.5139224610102
20
42.202703761422796
10
-236.31492246101021
20
42.202703761422796
10
-236.31492246101021
20
48.002703761422794
10
-235.5139224610102
20
48.002703761422794
10
-235.5139224610102
20
51.10190376142279
10
-236.31492246101021
20
51.10190376142279
10
-236.31492246101021
20
52.102303761422803
10
-250.31392246101021
20
52.102303761422803
10
-250.31392246101021
20
51.10190376142279
10
-251.1149224610102
20
51.10190376142279
10
-251.1149224610102
20
48.002703761422794
10
-250.31392246101021
20
48.002703761422794
0
LWPOLYLINE
5
217
100
AcDbEntity
8
0
100
AcDbPolyline
90
20
70
1
43
0.0
10
-297.42742246101022
20
20.052103761422785
10
-297.42742246101022
20
23.152703761422785
10
-298.22842246101015
20
23.152703761422785
10
-298.22842246101015
20
28.952703761422786
10
-297.42742246101022
20
28.952703761422786
10
-297.42742246101022
20
32.051903761422786
10
-298.22842246101015
20
32.051903761422786
10
-298.22842246101015
20
33.052303761422785
10
-312.2264224610102
20
33.052303761422785
10
-312.2264224610102
20
32.051903761422786
10
-313.02742246101025
20
32.051903761422786
10
-313.02742246101025
20
28.952703761422786
10
-312.2264224610102
20
28.952703761422786
10
-312.2264224610102
20
23.152703761422785
10
-313.02742246101025
20
23.152703761422785
10
-313.02742246101025
20
20.052103761422785
10
-312.2264224610102
20
20.052103761422792
10
-312.2264224610102
20
19.05300376142279
10
-298.22842246101015
20
19.05300376142279
10
-298.22842246101015
20
20.052103761422785
0
LWPOLYLINE
5
218
100
AcDbEntity
8
0
100
AcDbPolyline
90
20
70
1
43
0.0
10
-298.22842246101015
20
57.153103761422798
10
-298.22842246101015
20
58.152103761422794
10
-297.42742246101022
20
58.152103761422794
10
-297.42742246101022
20
61.252703761422794
10
-298.22842246101015
20
61.252703761422794
10
-298.22842246101015
20
67.052803761422794
10
-297.42742246101022
20
67.052803761422794
10
-297.42742246101022
20
70.152003761422804
10
-298.22842246101015
20
70.152003761422804
10
-298.22842246101015
20
71.152503761422807
10
-312.2264224610102
20
71.152503761422807
10
-312.2264224610102
20
70.152003761422804
10
-313.02742246101025
20
70.152003761422804
10
-313.02742246101025
20
67.052803761422794
10
-312.2264224610102
20
67.052803761422794
10
-312.2264224610102
20
61.252703761422794
10
-313.02742246101025
20
61.252703761422794
10
-313.02742246101025
20
58.152103761422794
10
-312.2264224610102
20
58.152103761422794
10
-312.2264224610102
20
57.153103761422798
0
LWPOLYLINE
5
219
100
AcDbEntity
8
0
100
AcDbPolyline
90
20
70
1
43
0.0
10
-274.12642246101018
20
67.052803761422794
10
-274.12642246101018
20
61.252703761422794
10
-274.92742246101022
20
61.252703761422794
10
-274.92742246101022
20
58.152103761422794
10
-274.12642246101018
20
58.152103761422794
10
-274.12642246101018
20
57.153103761422798
10
-260.12742246101016
20
57.153103761422798
10
-260.12742246101016
20
58.152103761422794
10
-259.32642246101119
20
58.152103761422794
10
-259.32642246101119
20
61.252703761422794
10
-260.12742246101016
20
61.252703761422794
10
-260.12742246101016
20
67.052803761422794
10
-259.32642246101119
20
67.052803761422794
10
-259.32642246101119
20
70.152003761422804
10
-260.12742246101016
20
70.152003761422804
10
-260.12742246101016
20
71.152503761422807
10
-274.12642246101018
20
71.152503761422807
10
-274.12642246101018
20
70.152003761422804
10
-274.92742246101022
20
70.152003761422804
10
-274.92742246101022
20
67.052803761422794
0
LWPOLYLINE
5
220
100
AcDbEntity
8
0
100
AcDbPolyline
90
20
70
1
43
0.0
10
-251.1147724610102
20
81.965203761422686
10
-250.3140724610102
20
81.965203761422686
10
-250.3140724610102
20
80.96620376142269
10
-236.31477246101016
20
80.96620376142269
10
-236.31477246101016
20
81.965203761422686
10
-235.51397246101021
20
81.965203761422686
10
-235.51397246101021
20
85.06520376142268
10
-236.31477246101016
20
85.06520376142268
10
-236.31477246101016
20
90.865203761422691
10
-235.51397246101021
20
90.865203761422691
10
-235.51397246101021
20
93.965203761422686
10
-236.31477246101016
20
93.965203761422686
10
-236.31477246101016
20
94.965203761422686
10
-250.3140724610102
20
94.965203761422686
10
-250.3140724610102
20
93.965203761422686
10
-251.1147724610102
20
93.965203761422686
10
-251.1147724610102
20
90.865203761422691
10
-250.3140724610102
20
90.865203761422691
10
-250.3140724610102
20
85.06520376142268
10
-251.1147724610102
20
85.06520376142268
0
LWPOLYLINE
5
221
100
AcDbEntity
8
0
100
AcDbPolyline
90
20
70
1
43
0.0
10
-260.12742246101016
20
23.152703761422785
10
-260.12742246101016
20
28.952703761422786
10
-259.32642246101119
20
28.952703761422786
10
-259.32642246101119
20
32.051903761422786
10
-260.12742246101016
20
32.051903761422786
10
-260.12742246101016
20
33.052303761422785
10
-274.12642246101018
20
33.052303761422785
10
-274.12642246101018
20
32.051903761422786
10
-274.92742246101022
20
32.051903761422786
10
-274.92742246101022
20
28.952703761422786
10
-274.12642246101018
20
28.952703761422786
10
-274.12642246101018
20
23.152703761422785
10
-274.92742246101022
20
23.152703761422785
10
-274.92742246101022
20
20.052103761422785
10
-274.12642246101018
20
20.052103761422792
10
-274.12642246101018
20
19.05300376142279
10
-260.12742246101016
20
19.05300376142279
10
-260.12742246101016
20
20.052103761422785
10
-259.32642246101119
20
20.052103761422785
10
-259.32642246101119
20
23.152703761422785
0
LWPOLYLINE
5
222
100
AcDbEntity
8
0
100
AcDbPolyline
90
20
70
1
43
0.0
10
-274.12642246101018
20
0.0030037614227713368
10
-260.12742246101016
20
0.0030037614227536313
10
-260.12742246101016
20
1.0021037614227686
10
-259.32642246101119
20
1.0021037614227684
10
-259.32642246101119
20
4.1027037614227684
10
-260.12742246101016
20
4.1027037614227693
10
-260.12742246101016
20
9.9027037614227691
10
-259.32642246101119
20
9.9027037614227691
10
-259.32642246101119
20
13.00190376142279
10
-260.12742246101016
20
13.00190376142279
10
-260.12742246101016
20
14.002303761422789
10
-274.12642246101018
20
14.002303761422789
10
-274.12642246101018
20
13.00190376142279
10
-274.92742246101022
20
13.00190376142279
10
-274.92742246101022
20
9.9027037614227886
10
-274.12642246101018
20
9.9027037614227869
10
-274.12642246101018
20
4.1027037614227888
10
-274.92742246101022
20
4.1027037614227888
10
-274.92742246101022
20
1.0021037614227888
10
-274.12642246101018
20
1.0021037614227888
0
LWPOLYLINE
5
223
100
AcDbEntity
8
0
100
AcDbPolyline
90
20
70
1
43
0.0
10
-260.12742246101016
20
52.102303761422803
10
-274.12642246101018
20
52.102303761422803
10
-274.12642246101018
20
51.10190376142279
10
-274.92742246101022
20
51.10190376142279
10
-274.92742246101022
20
48.002703761422794
10
-274.12642246101018
20
48.002703761422794
10
-274.12642246101018
20
42.202703761422796
10
-274.92742246101022
20
42.202703761422796
10
-274.92742246101022
20
39.102103761422796
10
-274.12642246101018
20
39.102103761422796
10
-274.12642246101018
20
38.103003761422784
10
-260.12742246101016
20
38.103003761422784
10
-260.12742246101016
20
39.102103761422796
10
-259.32642246101119
20
39.102103761422796
10
-259.32642246101119
20
42.202703761422796
10
-260.12742246101016
20
42.202703761422796
10
-260.12742246101016
20
48.002703761422794
10
-259.32642246101119
20
48.002703761422794
10
-259.32642246101119
20
51.10190376142279
10
-260.12742246101016
20
51.10190376142279
0
LWPOLYLINE
5
224
100
AcDbEntity
8
0
100
AcDbPolyline
90
20
70
1
43
0.0
10
-198.21477246101119
20
94.965203761422686
10
-212.2140724610102
20
94.965203761422686
10
-212.2140724610102
20
93.965203761422686
10
-213.01487246101019
20
93.965203761422686
10
-213.01487246101019
20
90.865203761422691
10
-212.2140724610102
20
90.865203761422691
10
-212.2140724610102
20
85.06520376142268
10
-213.01487246101019
20
85.06520376142268
10
-213.01487246101019
20
81.965203761422686
10
-212.2140724610102
20
81.965203761422686
10
-212.2140724610112
20
80.96620376142269
10
-198.21477246101119
20
80.96620376142269
10
-198.21477246101119
20
81.965203761422686
10
-197.41397246101118
20
81.965203761422686
10
-197.41397246101118
20
85.06520376142268
10
-198.21477246101119
20
85.06520376142268
10
-198.21477246101119
20
90.865203761422691
10
-197.41397246101118
20
90.865203761422691
10
-197.41397246101118
20
93.965203761422686
10
-198.21477246101119
20
93.965203761422686
0
LWPOLYLINE
5
225
100
AcDbEntity
8
0
100
AcDbPolyline
90
20
70
1
43
0.0
10
-297.42742246101022
20
89.201993761422784
10
-298.22842246101015
20
89.201993761422784
10
-298.22842246101015
20
90.202473761422681
10
-312.2264224610102
20
90.202473761422681
10
-312.2264224610102
20
89.201993761422784
10
-313.02742246101025
20
89.201993761422671
10
-313.02742246101025
20
86.102803761422692
10
-312.2264224610102
20
86.102803761422692
10
-312.2264224610102
20
80.302603761422688
10
-313.02742246101025
20
80.302603761422802
10
-313.02742246101025
20
77.202003761422787
10
-312.2264224610102
20
77.202003761422787
10
-312.2264224610102
20
76.203003761422806
10
-298.22842246101015
20
76.203003761422806
10
-298.22842246101015
20
77.202003761422787
10
-297.42742246101022
20
77.202003761422688
10
-297.42742246101022
20
80.302603761422688
10
-298.22842246101015
20
80.302603761422688
10
-298.22842246101015
20
86.102803761422692
10
-297.42742246101022
20
86.102803761422791
0
LWPOLYLINE
5
226
100
AcDbEntity
8
0
100
AcDbPolyline
90
20
70
1
43
0.0
10
-312.2264224610102
20
38.103003761422784
10
-298.22842246101015
20
38.103003761422784
10
-298.22842246101015
20
39.102103761422796
10
-297.42742246101022
20
39.102103761422796
10
-297.42742246101022
20
42.202703761422796
10
-298.22842246101015
20
42.202703761422796
10
-298.22842246101015
20
48.002703761422794
10
-297.42742246101022
20
48.002703761422794
10
-297.42742246101022
20
51.10190376142279
10
-298.22842246101015
20
51.10190376142279
10
-298.22842246101015
20
52.102303761422803
10
-312.2264224610102
20
52.102303761422803
10
-312.2264224610102
20
51.10190376142279
10
-313.02742246101025
20
51.10190376142279
10
-313.02742246101025
20
48.002703761422794
10
-312.2264224610102
20
48.002703761422794
10
-312.2264224610102
20
42.202703761422796
10
-313.02742246101025
20
42.202703761422796
10
-313.02742246101025
20
39.102103761422796
10
-312.2264224610102
20
39.102103761422796
0
LWPOLYLINE
5
227
100
AcDbEntity
8
0
100
AcDbPolyline
90
20
70
1
43
0.0
10
-236.31492246101021
20
23.152703761422785
10
-236.31492246101021
20
28.952703761422786
10
-235.5139224610102
20
28.952703761422786
10
-235.5139224610102
20
32.051903761422786
10
-236.31492246101021
20
32.051903761422786
10
-236.31492246101021
20
33.052303761422785
10
-250.31392246101021
20
33.052303761422785
10
-250.31392246101021
20
32.051903761422786
10
-251.1149224610102
20
32.051903761422786
10
-251.1149224610102
20
28.952703761422786
10
-250.31392246101021
20
28.952703761422786
10
-250.31392246101021
20
23.152703761422785
10
-251.1149224610102
20
23.152703761422785
10
-251.1149224610102
20
20.052103761422785
10
-250.31392246101021
20
20.052103761422792
10
-250.31392246101021
20
19.05300376142279
10
-236.31492246101021
20
19.05300376142279
10
-236.31492246101021
20
20.052103761422785
10
-235.5139224610102
20
20.052103761422785
10
-235.5139224610102
20
23.152703761422785
0
LWPOLYLINE
5
228
100
AcDbEntity
8
0
100
AcDbPolyline
90
36
70
1
43
0.0
10
-290.20142246101022
20
90.20250376142279
10
-293.17642246101019
20
90.20250376142279
10
-293.17642246101019
20
89.202003761422787
10
-293.97742246101024
20
89.202003761422787
10
-293.97742246101024
20
86.102803761422791
10
-293.17642246101019
20
86.102803761422791
10
-293.17642246101019
20
80.302703761422805
10
-293.97742246101024
20
80.302703761422805
10
-293.97742246101024
20
77.202103761422791
10
-293.17642246101019
20
77.202103761422791
10
-293.17642246101019
20
76.203103761422796
10
-283.65142246101021
20
76.203103761422796
10
-283.65142246101021
20
76.203003761422806
10
-269.65242246101019
20
76.203003761422806
10
-269.65242246101019
20
76.203103761422796
10
-260.12742246101016
20
76.203103761422796
10
-260.12742246101016
20
77.202103761422791
10
-259.32642246101119
20
77.202103761422791
10
-259.32642246101119
20
80.302703761422805
10
-260.12742246101016
20
80.302703761422805
10
-260.12742246101016
20
86.102803761422791
10
-259.32642246101119
20
86.102803761422791
10
-259.32642246101119
20
89.202003761422787
10
-260.12742246101016
20
89.202003761422787
10
-260.12742246101016
20
90.20250376142279
10
-263.10242246101114
20
90.20250376142279
10
-263.10242246101114
20
91.172613761422681
10
-266.40142246101016
20
91.172613761422781
10
-266.40142246101016
20
90.20250376142279
10
-274.12642246101018
20
90.20250376142279
10
-274.12642246101018
20
90.202473761422681
10
-279.17742246101017
20
90.202473761422681
10
-279.17742246101017
20
90.20250376142279
10
-286.90242246101025
20
90.20250376142279
10
-286.90242246101025
20
91.172613761422681
10
-290.20142246101022
20
91.172613761422781
0
LWPOLYLINE
5
229
100
AcDbEntity
8
0
100
AcDbPolyline
90
24
70
1
43
0.0
10
-199.07049746101023
20
53.572603761422791
10
-199.07049746101021
20
51.10190376142279
10
-200.59449746101021
20
51.10190376142279
10
-200.59449746101021
20
52.102303761422803
10
-214.59549746101021
20
52.102303761422803
10
-214.59549746101021
20
51.10190376142279
10
-216.11949746101021
20
51.10190376142279
10
-216.11949746101021
20
53.572603761422791
10
-224.19456746101019
20
53.572603761422783
10
-224.19456746101019
20
39.072003761422792
10
-216.11949746101021
20
39.072003761422792
10
-216.11949746101021
20
39.572003761422792
10
-215.39449746101016
20
39.572003761422792
10
-215.39449746101016
20
39.102103761422796
10
-214.59549746101021
20
39.102103761422796
10
-214.59549746101021
20
38.103003761422784
10
-200.59449746101021
20
38.103003761422784
10
-200.59449746101021
20
39.102103761422796
10
-199.79349746101019
20
39.102103761422796
10
-199.79349746101019
20
39.572003761422792
10
-199.07049746101021
20
39.572003761422792
10
-199.07049746101021
20
39.072003761422792
10
-190.99542746101022
20
39.072003761422799
10
-190.99542746101022
20
53.572603761422791
0
LWPOLYLINE
5
230
100
AcDbEntity
8
0
100
AcDbPolyline
90
24
70
1
43
0.0
10
-315.8088224610101
20
65.152503761422793
10
-318.27742246101116
20
65.152503761422793
10
-318.27742246101019
20
66.678003761422801
10
-317.27842246101022
20
66.678003761422687
10
-317.27842246101022
20
80.677503761422685
10
-318.27742246101019
20
80.677503761422685
10
-318.27742246101116
20
82.203003761422792
10
-315.8088224610101
20
82.203003761424526
10
-315.8088224610101
20
90.278073761424494
10
-330.30942246101012
20
90.278073761424494
10
-330.30942246101012
20
82.203003761424526
10
-329.80942246101017
20
82.203003761424526
10
-329.80942246101017
20
81.476703761422783
10
-330.27842246101017
20
81.476703761422698
10
-330.27842246101017
20
80.677503761422685
10
-331.2764224610101
20
80.677503761422784
10
-331.2764224610101
20
66.678003761422801
10
-330.27842246101017
20
66.678003761422801
10
-330.27842246101017
20
65.87730376142278
10
-329.80942246101017
20
65.87730376142278
10
-329.80942246101017
20
65.152503761422793
10
-330.30942246101012
20
65.152503761422793
10
-330.30942246101017
20
57.077433761422824
10
-315.8088224610101
20
57.077433761422824
0
LWPOLYLINE
5
231
100
AcDbEntity
8
0
100
AcDbPolyline
90
24
70
1
43
0.0
10
26.766602538989439
20
58.122003761422796
10
26.766602538989439
20
58.622003761422796
10
27.491502538989437
20
58.622003761422796
10
27.491502538989437
20
58.152103761422794
10
28.29210253898944
20
58.152103761422794
10
28.292102538989443
20
57.153103761422798
10
42.291602538989437
20
57.153103761422798
10
42.291602538989437
20
58.152103761422794
10
43.09220253898944
20
58.152103761422794
10
43.09220253898944
20
58.622003761422796
10
43.817102538989445
20
58.622003761422796
10
43.817102538989445
20
58.122003761422796
10
51.892172538989442
20
58.122003761422796
10
51.892172538989442
20
72.622603761422781
10
43.817102538989445
20
72.622603761422781
10
43.817102538989445
20
70.152003761422804
10
42.291602538989437
20
70.152003761422804
10
42.29160253898943
20
71.152503761422807
10
28.29210253898944
20
71.152503761422807
10
28.29210253898944
20
70.152003761422804
10
26.766602538989439
20
70.152003761422804
10
26.766602538989439
20
72.622603761422781
10
18.691532538989442
20
72.622603761422781
10
18.691532538989442
20
58.122003761422796
0
LWPOLYLINE
5
232
100
AcDbEntity
8
0
100
AcDbPolyline
90
8
70
1
43
0.0
10
55.448077538988642
20
-50.752921238576917
10
55.448077538988642
20
-39.252921238576917
42
0.41421356237309503
10
53.948077538988642
20
-37.752921238576917
10
40.448077538988642
20
-37.752921238576917
42
0.4142135623730942
10
38.948077538988635
20
-39.252921238576917
10
38.948077538988642
20
-50.752921238576917
42
0.41421356237309503
10
40.448077538988642
20
-52.252921238576917
10
53.948077538988642
20
-52.252921238576917
42
0.41421356237309503
0
LWPOLYLINE
5
233
100
AcDbEntity
8
0
100
AcDbPolyline
90
4
70
1
43
0.0
10
-131.02079746101018
20
-29.897296238576914
10
-131.77079746101018
20
-29.897296238576914
42
0.99999999999999989
10
-131.77079746101018
20
-36.097296238576916
10
-131.02079746101018
20
-36.097296238576916
42
0.99999999999999989
0
LWPOLYLINE
5
234
100
AcDbEntity
8
0
100
AcDbPolyline
90
4
70
1
43
0.0
10
-50.058217461010855
20
-29.897296238577017
10
-50.808217461010862
20
-29.897296238577017
42
0.99999999999999989
10
-50.808217461010862
20
-36.097296238577016
10
-50.058217461010855
20
-36.097296238577016
42
0.99999999999999989
0
CIRCLE
5
235
100
AcDbEntity
8
0
100
AcDbCircle
10
34.198077538988535
20
-45.002921238576818
30
0
40
3.5000000000000004
210
0
220
-0
230
1
0
LWPOLYLINE
5
236
100
AcDbEntity
8
0
100
AcDbPolyline
90
87
70
1
43
0.0
10
-193.12904368678207
20
100.25270376142205
42
-0.20603212041025551
10
-191.16834586776457
20
99.408953761422026
42
0.20603212041025482
10
-188.48146367133319
20
98.252703761421699
10
-182.2931461402332
20
98.252703761421643
42
-0.25612844173169563
10
-180.01687657151024
20
97.004804601757954
42
0.54822116712826785
10
-174.53696835050931
20
97.004804601757982
42
-0.25612844173169702
10
-172.2606987817862
20
98.252703761421785
10
-144.08198504523017
20
98.252703761422012
42
0.26794919243111137
10
-140.87769105122862
20
100.10270376142228
42
-0.57735026918957955
10
-136.2011538707917
20
100.10270376142229
42
0.26794919243114557
10
-132.99685987678916
20
98.252703761421785
10
-105.34448504523016
20
98.252703761421373
42
-0.26794919243107357
10
-103.0062164550128
20
96.902703761422018
42
0.57735026918964416
10
-96.597628467007937
20
96.902703761421819
42
-0.26794919243112497
10
-94.259359876789972
20
98.252703761421785
10
-65.344485045230968
20
98.252703761422012
42
0.26794919243112209
10
-62.14019105122857
20
100.10270376142201
42
-0.5773502691895831
10
-57.463653870792569
20
100.10270376142201
42
0.26794919243112231
10
-54.259359876790171
20
98.252703761421699
10
-25.344485045231266
20
98.252703761421827
42
-0.26794919243113463
10
-23.006216455013217
20
96.902703761421733
42
0.57735026918961885
10
-16.597628467008448
20
96.902703761421776
42
-0.26794919243111737
10
-14.25935987679056
20
98.252703761421699
10
14.655514954768439
20
98.252703761422012
42
0.26794919243112236
10
17.859808948770912
20
100.10270376142196
42
-0.57735026918955423
10
22.536346129206741
20
100.10270376142201
42
0.26794919243112392
10
25.74064012320914
20
98.252703761421699
10
53.748271340349746
20
98.252703761421742
42
-0.28491504644131443
10
56.166948664839261
20
96.752703761421799
42
0.1638656024074652
10
58.198077538988528
20
94.721574887272467
42
-0.28491504644131321
10
59.698077538988443
20
92.302897562782988
10
59.698077538988528
20
-50.863115039938016
42
-0.2849150464413166
10
58.198077538988571
20
-53.28179236442756
42
0.16386560240745487
10
56.166948664839296
20
-55.312921238576848
42
-0.28491504644132715
10
53.748271340349646
20
-56.812921238576813
10
25.740640123209243
20
-56.812921238576834
42
0.26794919243112747
10
22.53634612920678
20
-58.662921238576828
42
-0.57735026918962196
10
17.859808948770869
20
-58.662921238576793
42
0.26794919243112786
10
14.655514954768439
20
-56.812921238576813
10
-14.259359876790462
20
-56.81292123857682
42
-0.2679491924311258
10
-16.597628467008466
20
-55.462921238576811
42
0.57735026918962418
10
-23.00621645501327
20
-55.462921238576797
42
-0.26794919243112547
10
-25.344485045231263
20
-56.812921238576813
10
-54.259359876790171
20
-56.812921238576742
42
0.2679491924311258
10
-57.463653870792641
20
-58.662921238576764
42
-0.57735026918962085
10
-62.14019105122847
20
-58.662921238576821
42
0.26794919243112081
10
-65.344485045230854
20
-56.812921238576813
10
-94.259359876789858
20
-56.812921238576735
42
-0.26794919243112547
10
-96.597628467007752
20
-55.462921238576811
42
0.57735026918960941
10
-103.00621645501218
20
-55.462921238576797
42
-0.26794919243112514
10
-105.34448504523016
20
-56.812921238576813
10
-132.99685987678916
20
-56.812921238576749
42
0.26794919243114795
10
-136.20115387079244
20
-58.662921238576658
42
-0.5773502691896264
10
-140.87769105122786
20
-58.662921238576644
42
0.2679491924311112
10
-144.08198504523017
20
-56.812921238576813
10
-171.73435987678917
20
-56.812921238577346
42
-0.26794919243112286
10
-174.07262846700763
20
-55.462921238577074
42
0.57735026918963084
10
-180.48121645501226
20
-55.462921238576726
42
-0.26794919243112442
10
-182.81948504523018
20
-56.812921238576706
10
-211.73435987678917
20
-56.81292123857682
42
0.26794919243110127
10
-214.93865387079074
20
-58.662921238577049
42
-0.57735026918962851
10
-219.61519105122761
20
-58.662921238577049
42
0.26794919243114618
10
-222.81948504523018
20
-56.812921238576813
10
-251.73435987678917
20
-56.81292123857736
42
-0.26794919243102649
10
-254.07262846700664
20
-55.462921238577067
42
0.57735026918963284
10
-260.48121645501129
20
-55.462921238576747
42
-0.2679491924311263
10
-262.81948504522921
20
-56.812921238576706
10
-291.73435987678818
20
-56.812921238576727
42
0.26794919243114845
10
-294.93865387079148
20
-58.662921238576551
42
-0.57735026918957788
10
-299.61519105122659
20
-58.662921238577042
42
0.2679491924311419
10
-302.81948504522916
20
-56.812921238576813
10
-330.82711626236915
20
-56.812921238577005
42
-0.28491504644135379
10
-333.24579358685895
20
-55.31292123857672
42
0.16386560240743339
10
-335.2769224610081
20
-53.281792364427538
42
-0.28491504644131754
10
-336.7769224610081
20
-50.863115039938016
10
-336.77692246100821
20
92.302897562782988
42
-0.28491504644132892
10
-335.2769224610081
20
94.721574887272553
42
0.1638656024074428
10
-333.24579358685878
20
96.752703761421571
42
-0.2849150464413292
10
-330.82711626236915
20
98.252703761421699
10
-302.81948504522921
20
98.252703761422012
42
0.2679491924311071
10
-299.61519105122761
20
100.10270376142229
42
-0.5773502691895811
10
-294.93865387079074
20
100.10270376142225
42
0.26794919243113874
10
-291.73435987678818
20
98.252703761421785
10
-262.29314614023218
20
98.252703761421927
42
-0.25612844173167337
10
-260.0168765715091
20
97.004804601758224
42
0.67342800347509002
10
-254.09370564084128
20
98.097241576548214
42
-0.35591064658991922
10
-251.44918705177869
20
100.25270376142204
0
LWPOLYLINE
5
237
100
AcDbEntity
8
0
100
AcDbPolyline
90
28
70
1
43
0.0
10
-226.50149746101022
20
0.003003761422770701
10
-193.45249746101018
20
0.0030037614227712561
10
-193.45249746101018
20
1.0021037614227899
10
-192.65149746101017
20
1.002103761422789
10
-192.65149746101017
20
4.1027037614227888
10
-193.45249746101018
20
4.1027037614227897
10
-193.45249746101018
20
9.9027037614227922
10
-192.65149746101017
20
9.9027037614227922
10
-192.65149746101017
20
13.00190376142279
10
-193.45249746101018
20
13.00190376142279
10
-193.45249746101018
20
14.002303761422789
10
-196.4254974610102
20
14.002303761422789
10
-196.4254974610102
20
14.972503761422791
10
-199.72649746101018
20
14.972503761422791
10
-199.72649746101018
20
14.002303761422789
10
-220.22749746101016
20
14.002303761422789
10
-220.22749746101016
20
14.972503761422791
10
-223.52649746101019
20
14.972503761422791
10
-223.52649746101019
20
14.002303761422789
10
-226.50149746101022
20
14.002303761422789
10
-226.50149746101022
20
13.00190376142279
10
-227.30249746101023
20
13.00190376142279
10
-227.30249746101023
20
9.9027037614227922
10
-226.50149746101022
20
9.9027037614227922
10
-226.50149746101022
20
4.1027037614227888
10
-227.30249746101023
20
4.1027037614227888
10
-227.30249746101023
20
1.0021037614227901
10
-226.50149746101022
20
1.0021037614227901
0
ENDSEC
0
SECTION
2
OBJECTS
0
DICTIONARY
5
C
100
AcDbDictionary
3
ACAD_GROUP
350
D
3
ACAD_MLINESTYLE
350
17
0
DICTIONARY
5
D
100
AcDbDictionary
0
DICTIONARY
5
1A
330
C
100
AcDbDictionary
0
DICTIONARY
5
17
100
AcDbDictionary
0
ENDSEC
0
EOF
